<svg id="add" xmlns="http://www.w3.org/2000/svg" width="24.007" height="24.007" viewBox="0 0 24.007 24.007">
  <g id="Group_10122" data-name="Group 10122">
    <path id="Path_21585" data-name="Path 21585" d="M12.051,0A12.051,12.051,0,0,0,0,11.957,12.131,12.131,0,0,0,12.051,24.007,12,12,0,0,0,12.051,0Zm6.33,13.363H13.457v5.017a1.407,1.407,0,1,1-2.813,0V13.363H5.627a1.407,1.407,0,1,1,0-2.813h5.017V5.627a1.407,1.407,0,1,1,2.813,0V10.55h4.923a1.407,1.407,0,1,1,0,2.813Z" fill="#555ab9"/>
  </g>
</svg>
