<svg xmlns="http://www.w3.org/2000/svg" width="48" height="48" viewBox="0 0 48 48">
  <path id="solution_-_anticon" data-name="solution - anticon" d="M46.019,48a1.778,1.778,0,0,1-1.179-.455,2.1,2.1,0,0,1-.7-1.152,6.3,6.3,0,0,0-2.248-3.8,6.648,6.648,0,0,0-8.412,0,6.306,6.306,0,0,0-2.251,3.8,1.966,1.966,0,0,1-.8,1.259,1.764,1.764,0,0,1-1.037.336,2.093,2.093,0,0,1-.409-.042,1.923,1.923,0,0,1-1.259-.829,1.779,1.779,0,0,1-.3-1.419,10.542,10.542,0,0,1,2.224-4.715,10.115,10.115,0,0,1,4.151-3A7.039,7.039,0,0,1,30.59,32.09a6.8,6.8,0,0,1,2.088-5.009,6.916,6.916,0,0,1,5.009-2.063,7.045,7.045,0,0,1,7.046,7.073,7.091,7.091,0,0,1-.831,3.376,6.757,6.757,0,0,1-2.331,2.518,10.112,10.112,0,0,1,4.153,3A10.535,10.535,0,0,1,47.946,45.7a1.778,1.778,0,0,1-.294,1.419,1.932,1.932,0,0,1-1.259.829A1.142,1.142,0,0,1,46.019,48ZM37.687,28.874a3.125,3.125,0,0,0-2.275.965A3.064,3.064,0,0,0,34.5,32.09a3.114,3.114,0,0,0,.938,2.277,3.073,3.073,0,0,0,2.248.936,3.166,3.166,0,0,0,2.277-.936,3.17,3.17,0,0,0,0-4.555A3.168,3.168,0,0,0,37.687,28.874ZM18.642,48H3.857a3.729,3.729,0,0,1-2.732-1.125A3.729,3.729,0,0,1,0,44.143V3.857A3.729,3.729,0,0,1,1.125,1.125,3.729,3.729,0,0,1,3.857,0H44.143a3.729,3.729,0,0,1,2.732,1.125A3.729,3.729,0,0,1,48,3.857V22.071a1.867,1.867,0,0,1-.562,1.366A1.831,1.831,0,0,1,46.1,24a1.922,1.922,0,0,1-1.366-.564,1.824,1.824,0,0,1-.59-1.366V3.857H3.857V44.143H18.642a1.929,1.929,0,1,1,0,3.857Zm0-13.285H8.786a1.9,1.9,0,0,1-1.339-.562,1.878,1.878,0,0,1,0-2.734,1.9,1.9,0,0,1,1.339-.562h9.856a1.929,1.929,0,1,1,0,3.857Zm0-10.286H8.786a1.9,1.9,0,0,1-1.339-.562,1.878,1.878,0,0,1,0-2.734,1.9,1.9,0,0,1,1.339-.562h9.856a1.929,1.929,0,1,1,0,3.857ZM25.5,14.143H8.786a1.9,1.9,0,0,1-1.339-.562,1.878,1.878,0,0,1,0-2.734,1.9,1.9,0,0,1,1.339-.562H25.5a1.933,1.933,0,0,1,1.366,3.3A1.867,1.867,0,0,1,25.5,14.143Z" fill="#2f2f2f"/>
</svg>
