<svg xmlns="http://www.w3.org/2000/svg" width="64.713" height="84.277" viewBox="0 0 64.713 84.277"><defs><style>.a{fill:#ededed;}.b{fill:#dedede;}.c{fill:#cc4b4c;}.d{fill:#fff;}</style></defs><g transform="translate(-6.5)"><path class="a" d="M52.378,0H8.7C7.486,0,6.5.986,6.5,2.9V82.772a2.266,2.266,0,0,0,2.2,1.5H69.011a2.266,2.266,0,0,0,2.2-1.5V19.531c0-1.047-.14-1.385-.387-1.633L53.314.387A1.33,1.33,0,0,0,52.378,0Z" transform="translate(0)"/><path class="b" d="M37.5.151V17.983H55.332Z" transform="translate(15.653 0.076)"/><path class="c" d="M20.572,46.663h0a2.416,2.416,0,0,1-1.455-.491A3.607,3.607,0,0,1,17.439,42.8c.274-2.45,3.3-5.014,9.007-7.627a101.022,101.022,0,0,0,5.7-16.178c-1.5-3.269-2.962-7.51-1.9-10a2.887,2.887,0,0,1,1.707-1.829,7.389,7.389,0,0,1,1.529-.259c.758,0,1.425.977,1.9,1.579.444.566,1.451,1.765-.561,10.237A48.089,48.089,0,0,0,42.478,30.1a29.279,29.279,0,0,1,5.054-.539c2.357,0,3.785.549,4.367,1.681.482.936.284,2.03-.587,3.251a4,4,0,0,1-3.341,1.792c-1.83,0-3.961-1.156-6.337-3.439A72.11,72.11,0,0,0,28.348,37.1a42.7,42.7,0,0,1-3.586,6.4C23.219,45.654,21.889,46.663,20.572,46.663Zm4.006-7.714c-3.216,1.807-4.527,3.293-4.622,4.13-.015.138-.056.5.649,1.041C20.83,44.049,22.139,43.451,24.578,38.948ZM45.1,32.263c1.227.944,1.526,1.421,2.328,1.421a2.269,2.269,0,0,0,1.821-.664A2.383,2.383,0,0,0,49.6,32.4c-.185-.1-.43-.3-1.768-.3A22,22,0,0,0,45.1,32.263ZM33.859,22.358a107.289,107.289,0,0,1-4.024,11.383,75.2,75.2,0,0,1,9.776-3.04A51.515,51.515,0,0,1,33.859,22.358ZM32.946,9.623a3.609,3.609,0,0,0,.144,4.84C34.519,11.28,33.011,9.6,32.946,9.623Z" transform="translate(5.513 3.488)"/><path class="c" d="M69.011,64.584H8.7a2.2,2.2,0,0,1-2.2-2.2V39H71.213V62.382A2.2,2.2,0,0,1,69.011,64.584Z" transform="translate(0 19.693)"/><g transform="translate(20.412 64.599)"><path class="d" d="M18.214,58.088h-2.47V42.924h4.361a6.121,6.121,0,0,1,1.913.309,5.2,5.2,0,0,1,1.7.926,4.833,4.833,0,0,1,1.214,1.491,4.132,4.132,0,0,1,.464,1.965A5.376,5.376,0,0,1,25,49.7a4.365,4.365,0,0,1-1.091,1.574,4.916,4.916,0,0,1-1.687.987,6.492,6.492,0,0,1-2.181.349H18.212v5.474Zm0-13.292V50.8h2.263a2.689,2.689,0,0,0,.9-.155,2.256,2.256,0,0,0,.813-.5,2.464,2.464,0,0,0,.6-.977,4.627,4.627,0,0,0,.226-1.553,4.2,4.2,0,0,0-.1-.853,2.464,2.464,0,0,0-.421-.926,2.494,2.494,0,0,0-.9-.74,3.327,3.327,0,0,0-1.523-.3H18.214Z" transform="translate(-15.744 -42.924)"/><path class="d" d="M36.327,50.085a11.14,11.14,0,0,1-.4,3.2,7.954,7.954,0,0,1-1.019,2.223,5.234,5.234,0,0,1-1.389,1.41,6.967,6.967,0,0,1-1.491.772,6.162,6.162,0,0,1-1.317.33,8.77,8.77,0,0,1-.885.069h-5.74V42.924h4.568a8.678,8.678,0,0,1,3.364.606,6.984,6.984,0,0,1,2.408,1.615,6.628,6.628,0,0,1,1.43,2.294A7.6,7.6,0,0,1,36.327,50.085ZM29,56.277a4.088,4.088,0,0,0,3.621-1.6,8.145,8.145,0,0,0,1.111-4.65,7.876,7.876,0,0,0-.226-1.872,4.005,4.005,0,0,0-.874-1.677,4.615,4.615,0,0,0-1.759-1.214,7.576,7.576,0,0,0-2.88-.464h-1.44V56.277H29Z" transform="translate(-11.533 -42.924)"/><path class="d" d="M37.108,44.8V49.57h6.337v1.687H37.108v6.831H34.6V42.924h9.484V44.8Z" transform="translate(-6.224 -42.924)"/></g></g></svg>