<svg xmlns="http://www.w3.org/2000/svg" width="36.039" height="24.777" viewBox="0 0 36.039 24.777"><defs><style>.a{fill:#3f51b5;}</style></defs><g transform="translate(0 -80)"><g transform="translate(23.889 84.568)"><g transform="translate(0 0)"><path class="a" d="M339.392,152.9l12.15,7.681V144.9Z" transform="translate(-339.392 -144.896)"/></g></g><g transform="translate(0 84.568)"><g transform="translate(0 0)"><path class="a" d="M0,144.9v15.686L12.15,152.9Z" transform="translate(0 -144.896)"/></g></g><g transform="translate(0.068 80)"><g transform="translate(0 0)"><path class="a" d="M34.679,80H3.145A2.224,2.224,0,0,0,.96,81.917L18.912,93.744,36.864,81.917A2.224,2.224,0,0,0,34.679,80Z" transform="translate(-0.96 -80)"/></g></g><g transform="translate(0.072 93.931)"><g transform="translate(0 0)"><path class="a" d="M22.778,277.922l-3.187,2.1a1.131,1.131,0,0,1-1.239,0l-3.187-2.1L1.024,286.864a2.221,2.221,0,0,0,2.18,1.9H34.738a2.221,2.221,0,0,0,2.18-1.9Z" transform="translate(-1.024 -277.92)"/></g></g></g></svg>