<svg xmlns="http://www.w3.org/2000/svg" width="36.039" height="24.777" viewBox="0 0 36.039 24.777">
  <g id="_001-mail" data-name="001-mail" transform="translate(0 -80)">
    <g id="Group_3399" data-name="Group 3399" transform="translate(23.889 84.568)">
      <g id="Group_3398" data-name="Group 3398" transform="translate(0 0)">
        <path id="Path_21361" data-name="Path 21361" d="M339.392,152.9l12.15,7.681V144.9Z" transform="translate(-339.392 -144.896)" fill="#f44336"/>
      </g>
    </g>
    <g id="Group_3401" data-name="Group 3401" transform="translate(0 84.568)">
      <g id="Group_3400" data-name="Group 3400" transform="translate(0 0)">
        <path id="Path_21362" data-name="Path 21362" d="M0,144.9v15.686L12.15,152.9Z" transform="translate(0 -144.896)" fill="#f44336"/>
      </g>
    </g>
    <g id="Group_3403" data-name="Group 3403" transform="translate(0.068 80)">
      <g id="Group_3402" data-name="Group 3402" transform="translate(0 0)">
        <path id="Path_21363" data-name="Path 21363" d="M34.679,80H3.145A2.224,2.224,0,0,0,.96,81.917L18.912,93.744,36.864,81.917A2.224,2.224,0,0,0,34.679,80Z" transform="translate(-0.96 -80)" fill="#f44336"/>
      </g>
    </g>
    <g id="Group_3405" data-name="Group 3405" transform="translate(0.072 93.931)">
      <g id="Group_3404" data-name="Group 3404" transform="translate(0 0)">
        <path id="Path_21364" data-name="Path 21364" d="M22.778,277.922l-3.187,2.1a1.131,1.131,0,0,1-1.239,0l-3.187-2.1L1.024,286.864a2.221,2.221,0,0,0,2.18,1.9H34.738a2.221,2.221,0,0,0,2.18-1.9Z" transform="translate(-1.024 -277.92)" fill="#f44336"/>
      </g>
    </g>
  </g>
</svg>
