<svg xmlns="http://www.w3.org/2000/svg" width="20.209" height="35.686" viewBox="0 0 20.209 35.686">
  <path id="Path_21586" data-name="Path 21586" d="M23.563,0H8.548a2.6,2.6,0,0,0-2.6,2.6v30.49a2.6,2.6,0,0,0,2.6,2.6H23.563a2.6,2.6,0,0,0,2.6-2.6V2.6A2.6,2.6,0,0,0,23.563,0ZM12.35,1.579h7.412c.187,0,.339.28.339.626s-.152.627-.339.627H12.35c-.189,0-.338-.281-.338-.627S12.162,1.579,12.35,1.579Zm3.706,31.542a1.658,1.658,0,1,1,1.655-1.659A1.66,1.66,0,0,1,16.057,33.121Zm8.158-5.682H7.9V4.386H24.214V27.439Z" transform="translate(-5.951)" fill="#3f51b5"/>
</svg>
