<svg id="_001-calendar" data-name="001-calendar" xmlns="http://www.w3.org/2000/svg" width="24.007" height="21.333" viewBox="0 0 24.007 21.333">
  <path id="Path_21382" data-name="Path 21382" d="M71.152,46.344H52.018A1.246,1.246,0,0,1,50.772,45.1V29.757a1.246,1.246,0,0,1,1.246-1.246H71.152A1.245,1.245,0,0,1,72.4,29.757V45.1A1.246,1.246,0,0,1,71.152,46.344Z" transform="translate(-48.391 -28.511)" fill="#e9ebf2"/>
  <path id="Path_21383" data-name="Path 21383" d="M71.718,28.51h-.044a1.249,1.249,0,0,1,.028.262V44.114a1.246,1.246,0,0,1-1.246,1.246H51.365a1.246,1.246,0,0,0,1.218.984H71.718A1.246,1.246,0,0,0,72.963,45.1V29.756A1.246,1.246,0,0,0,71.718,28.51Z" transform="translate(-48.957 -28.51)" fill="#dfe2ea"/>
  <path id="Path_21384" data-name="Path 21384" d="M247.217,277.781h1.371a.239.239,0,0,1,.239.239v1.068a.239.239,0,0,1-.239.239H247.9Z" transform="translate(-235.626 -266.093)" fill="#b0b6c1"/>
  <path id="Path_21385" data-name="Path 21385" d="M71.152,28.51H52.018a1.246,1.246,0,0,0-1.246,1.246v2.793H72.4V29.756A1.246,1.246,0,0,0,71.152,28.51Z" transform="translate(-48.391 -28.51)" fill="#6f4bef"/>
  <path id="Path_21386" data-name="Path 21386" d="M484.552,28.51h-.044a1.249,1.249,0,0,1,.028.262v3.776H485.8V29.756A1.246,1.246,0,0,0,484.552,28.51Z" transform="translate(-461.79 -28.51)" fill="#5e45d8"/>
  <path id="Path_21387" data-name="Path 21387" d="M54.8,192.151a7.22,7.22,0,0,0-4.025,1.218v7.7a1.246,1.246,0,0,0,1.246,1.246h9.428A7.257,7.257,0,0,0,54.8,192.151Z" transform="translate(-48.391 -184.478)" fill="#dfe2ea"/>
  <path id="Path_21388" data-name="Path 21388" d="M248.827,279.087v-.61a7.2,7.2,0,0,0-.3-.7h-1.306l.682,1.547h.689A.239.239,0,0,0,248.827,279.087Z" transform="translate(-235.626 -266.092)" fill="#9ba0a8"/>
  <circle id="Ellipse_953" data-name="Ellipse 953" cx="6.405" cy="6.405" r="6.405" transform="translate(0 8.522)" fill="#00aaf0"/>
  <ellipse id="Ellipse_954" data-name="Ellipse 954" cx="4.991" cy="4.991" rx="4.991" ry="4.991" transform="translate(1.415 9.937)" fill="#e9ebf2"/>
  <g id="Group_9986" data-name="Group 9986" transform="translate(6.037 5.848)">
    <path id="Path_21389" data-name="Path 21389" d="M129.114,262.1a.369.369,0,0,1-.369-.369V258.6a.369.369,0,0,1,.738,0v3.128A.369.369,0,0,1,129.114,262.1Z" transform="translate(-128.745 -253.307)" fill="#b0b6c1"/>
    <path id="Path_21390" data-name="Path 21390" d="M142.986,339.748h-2.072a.369.369,0,1,1,0-.738h2.072a.369.369,0,1,1,0,.738Z" transform="translate(-139.992 -330.299)" fill="#b0b6c1"/>
    <path id="Path_21391" data-name="Path 21391" d="M313.943,154.774h-1.068a.239.239,0,0,1-.239-.239v-1.068a.239.239,0,0,1,.239-.239h1.068a.239.239,0,0,1,.239.239v1.068A.239.239,0,0,1,313.943,154.774Z" transform="translate(-304.014 -153.227)" fill="#b0b6c1"/>
    <path id="Path_21392" data-name="Path 21392" d="M378.318,154.774H377.25a.239.239,0,0,1-.239-.239v-1.068a.239.239,0,0,1,.239-.239h1.068a.239.239,0,0,1,.239.239v1.068A.239.239,0,0,1,378.318,154.774Z" transform="translate(-365.37 -153.227)" fill="#b0b6c1"/>
    <path id="Path_21393" data-name="Path 21393" d="M442.692,154.774h-1.068a.239.239,0,0,1-.239-.239v-1.068a.239.239,0,0,1,.239-.239h1.068a.239.239,0,0,1,.239.239v1.068A.239.239,0,0,1,442.692,154.774Z" transform="translate(-426.726 -153.227)" fill="#b0b6c1"/>
    <path id="Path_21394" data-name="Path 21394" d="M313.943,217.051h-1.068a.239.239,0,0,1-.239-.239v-1.068a.239.239,0,0,1,.239-.239h1.068a.239.239,0,0,1,.239.239v1.068A.239.239,0,0,1,313.943,217.051Z" transform="translate(-304.014 -212.584)" fill="#b0b6c1"/>
    <path id="Path_21395" data-name="Path 21395" d="M378.318,217.051H377.25a.239.239,0,0,1-.239-.239v-1.068a.239.239,0,0,1,.239-.239h1.068a.239.239,0,0,1,.239.239v1.068A.239.239,0,0,1,378.318,217.051Z" transform="translate(-365.37 -212.584)" fill="#b0b6c1"/>
    <path id="Path_21396" data-name="Path 21396" d="M442.692,217.051h-1.068a.239.239,0,0,1-.239-.239v-1.068a.239.239,0,0,1,.239-.239h1.068a.239.239,0,0,1,.239.239v1.068A.239.239,0,0,1,442.692,217.051Z" transform="translate(-426.726 -212.584)" fill="#b0b6c1"/>
    <path id="Path_21397" data-name="Path 21397" d="M313.943,279.327h-1.068a.239.239,0,0,1-.239-.239v-1.068a.239.239,0,0,1,.239-.239h1.068a.239.239,0,0,1,.239.239v1.068A.239.239,0,0,1,313.943,279.327Z" transform="translate(-304.014 -271.94)" fill="#b0b6c1"/>
    <path id="Path_21398" data-name="Path 21398" d="M378.318,279.327H377.25a.239.239,0,0,1-.239-.239v-1.068a.239.239,0,0,1,.239-.239h1.068a.239.239,0,0,1,.239.239v1.068A.239.239,0,0,1,378.318,279.327Z" transform="translate(-365.37 -271.94)" fill="#b0b6c1"/>
    <path id="Path_21399" data-name="Path 21399" d="M442.692,279.327h-1.068a.239.239,0,0,1-.239-.239v-1.068a.239.239,0,0,1,.239-.239h1.068a.239.239,0,0,1,.239.239v1.068A.239.239,0,0,1,442.692,279.327Z" transform="translate(-426.726 -271.94)" fill="#b0b6c1"/>
    <path id="Path_21400" data-name="Path 21400" d="M313.943,341.6h-1.068a.239.239,0,0,1-.239-.239V340.3a.239.239,0,0,1,.239-.239h1.068a.239.239,0,0,1,.239.239v1.068A.239.239,0,0,1,313.943,341.6Z" transform="translate(-304.014 -331.297)" fill="#b0b6c1"/>
    <path id="Path_21401" data-name="Path 21401" d="M249.882,154.774h-1.068a.239.239,0,0,1-.239-.239v-1.068a.239.239,0,0,1,.239-.239h1.068a.239.239,0,0,1,.239.239v1.068A.239.239,0,0,1,249.882,154.774Z" transform="translate(-242.956 -153.227)" fill="#b0b6c1"/>
    <path id="Path_21402" data-name="Path 21402" d="M186.6,154.774h-1.068a.239.239,0,0,1-.239-.239v-1.068a.239.239,0,0,1,.239-.239H186.6a.239.239,0,0,1,.239.239v1.068A.239.239,0,0,1,186.6,154.774Z" transform="translate(-182.643 -153.227)" fill="#b0b6c1"/>
    <path id="Path_21403" data-name="Path 21403" d="M249.882,217.051h-1.068a.239.239,0,0,1-.239-.239v-1.068a.239.239,0,0,1,.239-.239h1.068a.239.239,0,0,1,.239.239v1.068A.239.239,0,0,1,249.882,217.051Z" transform="translate(-242.956 -212.584)" fill="#b0b6c1"/>
    <path id="Path_21404" data-name="Path 21404" d="M378.318,341.6H377.25a.239.239,0,0,1-.239-.239V340.3a.239.239,0,0,1,.239-.239h1.068a.239.239,0,0,1,.239.239v1.068A.239.239,0,0,1,378.318,341.6Z" transform="translate(-365.37 -331.297)" fill="#b0b6c1"/>
    <path id="Path_21405" data-name="Path 21405" d="M442.692,341.6h-1.068a.239.239,0,0,1-.239-.239V340.3a.239.239,0,0,1,.239-.239h1.068a.239.239,0,0,1,.239.239v1.068A.239.239,0,0,1,442.692,341.6Z" transform="translate(-426.726 -331.297)" fill="#b0b6c1"/>
  </g>
  <circle id="Ellipse_955" data-name="Ellipse 955" cx="0.784" cy="0.784" r="0.784" transform="translate(5.621 14.144)" fill="#ff7b97"/>
  <g id="Group_9987" data-name="Group 9987" transform="translate(7.55 1.646)">
    <circle id="Ellipse_956" data-name="Ellipse 956" cx="0.443" cy="0.443" r="0.443" fill="#ffdc64"/>
    <circle id="Ellipse_957" data-name="Ellipse 957" cx="0.443" cy="0.443" r="0.443" transform="translate(10.75)" fill="#ffdc64"/>
  </g>
</svg>
