<svg xmlns="http://www.w3.org/2000/svg" xmlns:xlink="http://www.w3.org/1999/xlink" width="44" height="44" viewBox="0 0 44 44">
  <defs>
    <filter id="Path_21583" x="0" y="0" width="44" height="44" filterUnits="userSpaceOnUse">
      <feOffset dy="3" input="SourceAlpha"/>
      <feGaussianBlur stdDeviation="3" result="blur"/>
      <feFlood flood-opacity="0.102"/>
      <feComposite operator="in" in2="blur"/>
      <feComposite in="SourceGraphic"/>
    </filter>
  </defs>
  <g id="Group_380" data-name="Group 380" transform="translate(-254 -389)">
    <g transform="matrix(1, 0, 0, 1, 254, 389)" filter="url(#Path_21583)">
      <g id="Path_21583-2" data-name="Path 21583" transform="translate(9 6)" fill="#dedede">
        <path d="M 13 25.25 C 9.727910041809082 25.25 6.651659965515137 23.97578048706055 4.337940216064453 21.66205978393555 C 2.024219989776611 19.34833908081055 0.75 16.27209091186523 0.75 13 C 0.75 9.727910041809082 2.024219989776611 6.651659965515137 4.337940216064453 4.337940216064453 C 6.651659965515137 2.024219989776611 9.727910041809082 0.75 13 0.75 C 16.27209091186523 0.75 19.34833908081055 2.024219989776611 21.66205978393555 4.337940216064453 C 23.97578048706055 6.651659965515137 25.25 9.727910041809082 25.25 13 C 25.25 16.27209091186523 23.97578048706055 19.34833908081055 21.66205978393555 21.66205978393555 C 19.34833908081055 23.97578048706055 16.27209091186523 25.25 13 25.25 Z" stroke="none"/>
        <path d="M 13 1.5 C 9.928239822387695 1.5 7.040340423583984 2.696210861206055 4.868270874023438 4.868270874023438 C 2.696210861206055 7.040340423583984 1.5 9.928239822387695 1.5 13 C 1.5 16.0717601776123 2.696210861206055 18.95965957641602 4.868270874023438 21.13172912597656 C 7.040340423583984 23.30379104614258 9.928239822387695 24.5 13 24.5 C 16.0717601776123 24.5 18.95965957641602 23.30379104614258 21.13172912597656 21.13172912597656 C 23.30379104614258 18.95965957641602 24.5 16.0717601776123 24.5 13 C 24.5 9.928239822387695 23.30379104614258 7.040340423583984 21.13172912597656 4.868270874023438 C 18.95965957641602 2.696210861206055 16.0717601776123 1.5 13 1.5 M 13 0 C 20.1796989440918 0 26 5.82029914855957 26 13 C 26 20.1796989440918 20.1796989440918 26 13 26 C 5.82029914855957 26 0 20.1796989440918 0 13 C 0 5.82029914855957 5.82029914855957 0 13 0 Z" stroke="none" fill="#045060"/>
      </g>
    </g>
    <g id="pencil-edit-button" transform="translate(270.35 402.111)">
      <path id="Path_3407" data-name="Path 3407" d="M7.007,3.16,9.3,5.452l-5.8,5.8L1.207,8.962Zm4.031-.553L10.016,1.585a1.014,1.014,0,0,0-1.433,0L7.6,2.564,9.9,4.856l1.142-1.142A.781.781,0,0,0,11.039,2.607ZM.007,12.184a.261.261,0,0,0,.316.31l2.554-.619L.586,9.583Z" transform="translate(-0.001 -1.289)" fill="#045060"/>
    </g>
  </g>
</svg>
