<svg xmlns="http://www.w3.org/2000/svg" xmlns:xlink="http://www.w3.org/1999/xlink" width="101" height="101" viewBox="0 0 101 101">
  <defs>
    <clipPath id="clip-path">
      <circle id="Oval_6" data-name="Oval 6" cx="50.5" cy="50.5" r="50.5" transform="translate(1316 3075)" fill="none" stroke="#c3c3c3" stroke-miterlimit="10" stroke-width="1"/>
    </clipPath>
  </defs>
  <g id="Mask_Group_1" data-name="Mask Group 1" transform="translate(-1316 -3075)" clip-path="url(#clip-path)">
    <g id="Group_14" data-name="Group 14" transform="translate(1314.847 3072.168)">
      <g id="Patient-user-noImage-01" transform="translate(0 0)">
        <g id="Layer_1">
          <g id="Group">
            <ellipse id="Oval" cx="51.299" cy="52.368" rx="51.299" ry="52.368" fill="#e2e2e2"/>
            <g id="Group-2" data-name="Group" transform="translate(11.441 69.429)">
              <path id="Path" d="M.478.067C.385.067.325.173.239.173S.088.067,0,.067Z" transform="translate(39.623 5.333)" fill="#0e9dca"/>
              <path id="Path-2" data-name="Path" d="M79.663,15.913A50.773,50.773,0,0,1,39.831,35.285,50.909,50.909,0,0,1,0,15.913C6.7,6.747,16.951,2.238,25.367,0A28.854,28.854,0,0,0,27.56,12.525c2.815-6.6,12.269-7.175,12.269-7.175s9.454.574,12.209,7.175A28.048,28.048,0,0,0,54.233,0C62.709,2.238,73.052,6.778,79.663,15.913Z" transform="translate(0 0)" fill="#0e9dca"/>
            </g>
            <path id="Path-3" data-name="Path" d="M23.117,3.207V3.3c0,.818-.414,6.11-11.322,10.317h-.478C.414,9.408,0,4.145,0,3.3V3.207A14.978,14.978,0,0,1,.478,0C3.616,4.066,7.414,6.747,11.527,6.747S19.441,4.023,22.583,0a13.692,13.692,0,0,1,.533,3.207Z" transform="translate(39.743 61.111)" fill="#fff"/>
            <g id="Group-3" data-name="Group" transform="translate(36.761 64.318)">
              <path id="Path-4" data-name="Path" d="M11.558,0S12.12,5.929,0,10.559c0,0,9.454.574,12.209,7.175C12.357,17.91,17.752,3.571,11.558,0Z" transform="translate(14.54 0)" fill="#80d2fb"/>
              <path id="Path-5" data-name="Path" d="M2.982,0c-6.223,3.539-.8,17.879-.651,17.638,2.815-6.6,12.209-7.175,12.209-7.175C2.42,5.96,2.982,0,2.982,0Z" transform="translate(0 0)" fill="#80d2fb"/>
            </g>
            <g id="Group-4" data-name="Group" transform="translate(29.945 22.316)">
              <path id="Path-6" data-name="Path" d="M33.5,21.155a23.7,23.7,0,0,1-6.55,13.522,14.44,14.44,0,0,1-2.193,1.913l-1.3-4.209H9.566L8.251,36.59C5.673,34.62.239,29.083.16,23.879-2.092-5.709,20.106.555,20.106.555,35.132-.536,34.627,12.9,33.5,21.155Z" transform="translate(4.806 0)" fill="#fff"/>
              <path id="Path-7" data-name="Path" d="M4.118,7.926A8.37,8.37,0,0,1,0,11.647,39.724,39.724,0,0,0,1.452,7.533V7.443L2.43,3.721H2.341c.325-1.241.653-2.48.89-3.721a2.1,2.1,0,0,1,.978.332C5.979,1.514,5.9,4.872,4.118,7.926Z" transform="translate(37.181 18.584)" fill="#fff"/>
              <path id="Path-8" data-name="Path" d="M5.531,11.374A8.234,8.234,0,0,1,1.411,7.653C-.455,4.6-.455,1.21,1.322.151A.7.7,0,0,1,1.738,0,62.241,62.241,0,0,0,4.08,7.352a38.875,38.875,0,0,0,1.452,4.023Z" transform="translate(0 18.857)" fill="#fff"/>
            </g>
            <path id="SVGCleanerId_0" d="M22.136,60.363a13.993,13.993,0,0,1-10.394-5.926A38.793,38.793,0,0,1,4.86,40.91c-.077-.148-6.383-15.371-2.43-24.234L0,19.642v-.026a25.3,25.3,0,0,1,3.209-8.8A22.076,22.076,0,0,1,9.188,4.185,23.64,23.64,0,0,1,19.8,0h.462c1.564,0,6.866.213,9.37,2.939a5.221,5.221,0,0,1,1.311,4.147h.019a15.526,15.526,0,0,1,5.077-.935,7.541,7.541,0,0,1,6.151,2.58C44.523,11.568,45,16.643,43.6,23.815c-.017.065-1.758,6.73-3.379,13.283h.091c-.239,1.239-.569,2.5-.89,3.719v.093a38.784,38.784,0,0,1-6.892,13.527,14,14,0,0,1-10.389,5.926Zm-1.1-45.48a14.368,14.368,0,0,0-10.762,4.288C6.584,23.15,5.063,29.741,5.74,38.762a18.176,18.176,0,0,0,1.54,4.872,25.472,25.472,0,0,0,6.55,7.835l1.3-4.207h13.9l1.3,4.116a20.609,20.609,0,0,0,2.193-1.913,23.6,23.6,0,0,0,6.55-13.522C39.8,30.681,40.3,23.2,36.5,18.829a11.379,11.379,0,0,0-9.019-3.473c-.574,0-1.177.024-1.794.072a19.025,19.025,0,0,0-4.652-.545Z" transform="translate(29.163 7.524)" fill="#324a5e"/>
            <path id="SVGCleanerId_0_1_" d="M22.136,60.363a13.993,13.993,0,0,1-10.394-5.926A38.793,38.793,0,0,1,4.86,40.91c-.077-.148-6.383-15.371-2.43-24.234L0,19.642v-.026a25.3,25.3,0,0,1,3.209-8.8A22.076,22.076,0,0,1,9.188,4.185,23.64,23.64,0,0,1,19.8,0h.462c1.564,0,6.866.213,9.37,2.939a5.221,5.221,0,0,1,1.311,4.147h.019a15.526,15.526,0,0,1,5.077-.935,7.541,7.541,0,0,1,6.151,2.58C44.523,11.568,45,16.643,43.6,23.815c-.017.065-1.758,6.73-3.379,13.283h.091c-.239,1.239-.569,2.5-.89,3.719v.093a38.784,38.784,0,0,1-6.892,13.527,14,14,0,0,1-10.389,5.926Zm-1.1-45.48a14.368,14.368,0,0,0-10.762,4.288C6.584,23.15,5.063,29.741,5.74,38.762a18.176,18.176,0,0,0,1.54,4.872,25.472,25.472,0,0,0,6.55,7.835l1.3-4.207h13.9l1.3,4.116a20.609,20.609,0,0,0,2.193-1.913,23.6,23.6,0,0,0,6.55-13.522C39.8,30.681,40.3,23.2,36.5,18.829a11.379,11.379,0,0,0-9.019-3.473c-.574,0-1.177.024-1.794.072a19.025,19.025,0,0,0-4.652-.545Z" transform="translate(29.163 7.524)" fill="#324a5e"/>
            <path id="Shape" d="M22.136,60.363a13.993,13.993,0,0,1-10.394-5.926A38.793,38.793,0,0,1,4.86,40.91c-.077-.148-6.383-15.371-2.43-24.234L0,19.642v-.026a25.3,25.3,0,0,1,3.209-8.8A22.076,22.076,0,0,1,9.188,4.185,23.64,23.64,0,0,1,19.8,0h.462c1.564,0,6.866.213,9.37,2.939a5.221,5.221,0,0,1,1.311,4.147h.019a15.526,15.526,0,0,1,5.077-.935,7.541,7.541,0,0,1,6.151,2.58C44.523,11.568,45,16.643,43.6,23.815c-.017.065-1.758,6.73-3.379,13.283h.091c-.239,1.239-.569,2.5-.89,3.719v.093a38.784,38.784,0,0,1-6.892,13.527,14,14,0,0,1-10.389,5.926Zm-1.1-45.48a14.368,14.368,0,0,0-10.762,4.288C6.584,23.15,5.063,29.741,5.74,38.762c.093,5.429,5.871,11,8.091,12.706l1.3-4.207h13.9l1.3,4.116a20.609,20.609,0,0,0,2.193-1.913,23.6,23.6,0,0,0,6.55-13.522C39.8,30.681,40.3,23.2,36.5,18.829a11.379,11.379,0,0,0-9.019-3.473c-.574,0-1.177.024-1.794.072a19.025,19.025,0,0,0-4.652-.545Z" transform="translate(29.163 7.524)" fill="#324a5e"/>
            <path id="Path-9" data-name="Path" d="M0,0A7.5,7.5,0,0,0,5.661,2.631,7.344,7.344,0,0,0,11.322,0Z" transform="translate(45.64 57.572)" fill="#fff"/>
          </g>
        </g>
      </g>
    </g>
  </g>
</svg>
