<svg xmlns="http://www.w3.org/2000/svg" xmlns:xlink="http://www.w3.org/1999/xlink" width="101" height="101.026" viewBox="0 0 101 101.026">
  <defs>
    <clipPath id="clip-path">
      <circle id="Oval_6" data-name="Oval 6" cx="50.5" cy="50.5" r="50.5" transform="translate(-4576 2683)" fill="#b4dbd7"/>
    </clipPath>
  </defs>
  <g id="Group_13936" data-name="Group 13936" transform="translate(4426 -2620.974)">
    <path id="Path" d="M50.5,101A50.5,50.5,0,1,0,0,50.5,50.6,50.6,0,0,0,50.5,101Z" transform="translate(-4426 2620.974)" fill="#b4dbd7"/>
    <g id="Mask_Group_22" data-name="Mask Group 22" transform="translate(150 -62)" clip-path="url(#clip-path)">
      <g id="doctor" transform="translate(-4565 2704.03)">
        <path id="Path_21606" data-name="Path 21606" d="M78.552,359.066v11.816H0V359.066A7.579,7.579,0,0,1,4.826,352l16.563-6.513,12.928,14.207,4.057-8.264v-.016l.9-1.851.918,1.851,4.058,8.281,12.91-14.207L73.742,352a7.606,7.606,0,0,1,4.81,7.07" transform="translate(0 -291.657)" fill="#f2f2f2"/>
        <path id="Path_21607" data-name="Path 21607" d="M203.518,292.134h.016v-6.726a36.233,36.233,0,0,1-3.018,3.947l-1.6,1.767a7.839,7.839,0,0,1-5.744,2.536h-2.455a7.83,7.83,0,0,1-5.744-2.536l-1.6-1.767a35.563,35.563,0,0,1-3.046-3.99v6.757l.026.013,10.1,5.7,1.489.835,1.489-.835Z" transform="translate(-152.656 -240.763)" fill="#f8b64c"/>
        <g id="Group_13932" data-name="Group 13932" transform="translate(35 44.68)" opacity="0.1">
          <g id="Group_13931" data-name="Group 13931">
            <path id="Path_21608" data-name="Path 21608" d="M228.265,293.484l-.029-.01c-.016-.007-.034-.012-.051-.016s-.034-.01-.057-.018l6.171,4.584,9.691-5.466H244l.007-6.692c-.016.025-2.3,3.018-3.018,3.91l-1.6,1.769a7.839,7.839,0,0,1-5.744,2.537h-2.455a6.98,6.98,0,0,1-1.458-.155,7.584,7.584,0,0,1-1.463-.442" transform="translate(-228.128 -285.866)" fill="#40596b"/>
          </g>
        </g>
        <g id="Group_13933" data-name="Group 13933" transform="translate(20.461 25.929)">
          <path id="Path_21609" data-name="Path 21609" d="M140.694,168.659c.255,2.938-1.17,5.463-3.183,5.636s-3.857-2.064-4.117-5,1.17-5.459,3.186-5.636,3.859,2.062,4.114,5" transform="translate(-133.364 -163.648)" fill="#f8b64c"/>
          <path id="Path_21610" data-name="Path 21610" d="M338.1,169.307c-.255,2.938-2.1,5.176-4.114,5s-3.443-2.7-3.183-5.636,2.1-5.178,4.114-5,3.442,2.7,3.183,5.638" transform="translate(-300.489 -163.658)" fill="#f8b64c"/>
        </g>
        <path id="Path_21611" data-name="Path 21611" d="M179.159,53.335a32.1,32.1,0,0,1-8.115,17.64l-1.6,1.767a7.834,7.834,0,0,1-5.744,2.538h-2.455a7.825,7.825,0,0,1-5.744-2.538l-1.6-1.767a32.244,32.244,0,0,1-8.119-17.64,63.437,63.437,0,0,1,0-11.783,16.923,16.923,0,0,1,33.385,0,63.455,63.455,0,0,1,0,11.783" transform="translate(-123.183 -22.386)" fill="#ffd15c"/>
        <path id="Path_21612" data-name="Path 21612" d="M133.183,9.163s.115-11.019,16.134-7.5a27.729,27.729,0,0,1,13.063,9.885s4.8,6.968,2.19,12.83c-.848,1.9-1.758,4.081-1.653,5.831,0,0-.889-3.713-1.419-6.808a14.486,14.486,0,0,0-3.273-7.014l-.051-.061a11.216,11.216,0,0,0-11.221-3.656,20.154,20.154,0,0,0-6.639,3.242s-6.674-4.479-9.973,3.361a42.158,42.158,0,0,0-1.262,10.258s-9.186-19.234,4.1-20.37" transform="translate(-106.657 0)" fill="#40596b"/>
        <path id="Path_21613" data-name="Path 21613" d="M337.648,330.568a13.669,13.669,0,0,0-.62-3.861,5.868,5.868,0,0,0-4.386-3.191l-5.27-1.064v1.08h-.016l-.754.425,5.779,1.178a4.194,4.194,0,0,1,3.175,2.306,4.132,4.132,0,0,1,.444,2.522l-.034.425c-6.922,6.006-8.886,11.423-8.968,11.668a4.188,4.188,0,0,0,.083,3.666,2.527,2.527,0,0,0,1.815,1.129l.164-1.636a.945.945,0,0,1-.62-.409,2.831,2.831,0,0,1,.115-2.211,24.325,24.325,0,0,1,3.928-6.3,3.508,3.508,0,0,1,4.631,1.373,25,25,0,0,1-.409,7.529c-.312,1.015-.738,1.686-1.211,1.866a.8.8,0,0,1-.722-.033l-.409.719-.426.709a2.483,2.483,0,0,0,1.244.327,2.247,2.247,0,0,0,.885-.18,4.181,4.181,0,0,0,2.224-2.929c.067-.245,1.587-5.958-.64-15.106m-2.173,4.239a4.784,4.784,0,0,0-1.509-.195c.707-.771,1.489-1.555,2.374-2.355.245,1.144.425,2.24.556,3.273a4.853,4.853,0,0,0-1.422-.723" transform="translate(-276.494 -272.16)" fill="#acb3ba"/>
        <g id="Group_13934" data-name="Group 13934" transform="translate(52.097 72.731)">
          <path id="Path_21614" data-name="Path 21614" d="M341.309,470.135a1.218,1.218,0,0,1-1.429.957c-.655-.129-.188-2.514.47-2.384a1.217,1.217,0,0,1,.959,1.427" transform="translate(-339.565 -468.703)" fill="#f8b64c"/>
          <path id="Path_21615" data-name="Path 21615" d="M367.615,479.454a1.215,1.215,0,0,0,.6,1.61c.611.28,1.623-1.928,1.013-2.209a1.216,1.216,0,0,0-1.61.6" transform="translate(-363.218 -477.204)" fill="#f8b64c"/>
        </g>
        <path id="Path_21616" data-name="Path 21616" d="M104.83,323.523l-.026-.013v-1.067l-3.538.728A12.7,12.7,0,0,0,92.2,340.716l1.5-.658a11.06,11.06,0,0,1,7.9-15.282l4-.823Z" transform="translate(-77.14 -272.152)" fill="#acb3ba"/>
        <g id="Group_13935" data-name="Group 13935" transform="translate(21.389 51.355)">
          <path id="Path_21617" data-name="Path 21617" d="M273.887,331.847l-12.076,15.841L256,335.922l1.489-.835,10.1-5.7h.016l.016-.016Z" transform="translate(-238.113 -329.376)" fill="#cdd6e0"/>
          <path id="Path_21618" data-name="Path 21618" d="M139.413,331.847l12.1,15.841,5.792-11.766-1.489-.835-10.1-5.7-.033-.016Z" transform="translate(-139.413 -329.376)" fill="#cdd6e0"/>
        </g>
        <path id="Path_21619" data-name="Path 21619" d="M218.251,393.367l3.3-7.528-1.425-2.095-1.044-1.571,4.055-8.279.9-1.851.918,1.851v.016l4.059,8.263-1.064,1.556-1.425,2.11,3.324,7.528Z" transform="translate(-184.766 -314.142)" fill="#334a5e"/>
        <path id="Path_21620" data-name="Path 21620" d="M233.624,382.173l-1.064,1.556-3.9-7.971-3.929,7.986-1.044-1.571,4.055-8.279.9-1.851.918,1.851v.016Z" transform="translate(-189.372 -314.142)" fill="#2a4356"/>
        <path id="Path_21621" data-name="Path 21621" d="M94.2,437.807a3.707,3.707,0,1,1-3.708-3.705,3.71,3.71,0,0,1,3.708,3.705" transform="translate(-73.469 -366.68)" fill="#ff7058"/>
        <path id="Path_21622" data-name="Path 21622" d="M99.69,444.516a2.49,2.49,0,1,1-2.487-2.489,2.488,2.488,0,0,1,2.487,2.489" transform="translate(-80.179 -373.389)" fill="#f2f2f2"/>
        <path id="Path_21623" data-name="Path 21623" d="M103.063,448.634a1.744,1.744,0,1,1-1.741-1.743,1.742,1.742,0,0,1,1.741,1.743" transform="translate(-84.297 -377.506)" fill="#acb3ba"/>
      </g>
    </g>
  </g>
</svg>
