<svg id="_001-man-1" data-name="001-man-1" xmlns="http://www.w3.org/2000/svg" width="21.502" height="23.985" viewBox="0 0 21.502 23.985">
  <path id="Path_1967" data-name="Path 1967" d="M184,303.044V300.15h-7.443v2.894l3.722,3.308Z" transform="translate(-169.528 -286.09)" fill="#e6af78"/>
  <path id="Path_1968" data-name="Path 1968" d="M46.722,362.207,41.605,361a.823.823,0,0,1-.215-.087l-4.144,2.417L33.263,360.8a.823.823,0,0,1-.376.2l-5.117,1.2a1.654,1.654,0,0,0-1.275,1.61v3.239a.827.827,0,0,0,.827.827H47.17a.827.827,0,0,0,.827-.827v-3.239A1.654,1.654,0,0,0,46.722,362.207Z" transform="translate(-26.495 -343.899)" fill="rgba(85,90,185,0.82)"/>
  <path id="Path_1969" data-name="Path 1969" d="M176.558,300.149V303.2c4.688,1.689,7.443-2.538,7.443-2.538v-.516h-7.443Z" transform="translate(-169.528 -286.089)" fill="#d29b6e"/>
  <path id="Path_1970" data-name="Path 1970" d="M141.249,97.127l.36,7.927a2.481,2.481,0,0,0,.99,1.872l1.71,1.282a2.481,2.481,0,0,0,1.489.5h1.654a2.481,2.481,0,0,0,1.489-.5l1.71-1.282a2.481,2.481,0,0,0,.99-1.872l.36-7.927Z" transform="translate(-135.873 -92.577)" fill="#f0c087"/>
  <path id="Path_1971" data-name="Path 1971" d="M145.384,98.78c1.654,0,4.135-.413,4.723-1.654h-8.859l.36,7.927a2.481,2.481,0,0,0,.99,1.872l1.71,1.282a2.481,2.481,0,0,0,1.489.5h.827c-.827,0-2.481-1.654-2.481-3.722v-4.962A1.32,1.32,0,0,1,145.384,98.78Z" transform="translate(-135.873 -92.576)" fill="#e6af78"/>
  <g id="Group_1368" data-name="Group 1368" transform="translate(0 18.894)">
    <path id="Path_1972" data-name="Path 1972" d="M29.534,405.739l-2.679-2.407a1.651,1.651,0,0,0-.356,1.025V407.6a.827.827,0,0,0,.827.827H30.22v-1.146A2.068,2.068,0,0,0,29.534,405.739Z" transform="translate(-26.498 -403.332)" fill="rgba(0,183,206,0.38)"/>
    <path id="Path_1973" data-name="Path 1973" d="M406.749,405.739l2.679-2.407a1.651,1.651,0,0,1,.356,1.025V407.6a.827.827,0,0,1-.827.827h-2.895v-1.146A2.067,2.067,0,0,1,406.749,405.739Z" transform="translate(-388.282 -403.332)" fill="rgba(0,183,206,0.38)"/>
  </g>
  <g id="Group_1369" data-name="Group 1369" transform="translate(5.789 15.928)">
    <path id="Path_1976" data-name="Path 1976" d="M151.26,340.127l3.78,3.4a14.262,14.262,0,0,0-2.365,1.611.531.531,0,0,1-.822-.186l-1.776-3.907.562-.843A.413.413,0,0,1,151.26,340.127Z" transform="translate(-150.078 -340.021)" fill="#00b7ce"/>
    <path id="Path_1977" data-name="Path 1977" d="M259.782,340.127l-3.78,3.4a14.263,14.263,0,0,1,2.365,1.611.531.531,0,0,0,.822-.186l1.776-3.907-.562-.843A.413.413,0,0,0,259.782,340.127Z" transform="translate(-251.04 -340.021)" fill="#00b7ce"/>
  </g>
  <path id="Path_1978" data-name="Path 1978" d="M309.516,33.42l.388,2.739c1.77.354,2.025,3.131,2.061,3.924a.817.817,0,0,0,.131.4l.675,1.047a3.961,3.961,0,0,1,.827-2.895S313.961,31.766,309.516,33.42Z" transform="translate(-296.258 -31.61)" fill="#785550"/>
  <path id="Path_1979" data-name="Path 1979" d="M353.506,186.461l-.467,1.867a.5.5,0,0,1-.482.377h0a.5.5,0,0,1-.493-.435l-.239-1.91a.856.856,0,0,1,.85-.963h0A.856.856,0,0,1,353.506,186.461Z" transform="translate(-336.579 -176.712)" fill="#f0c087"/>
  <path id="Path_1980" data-name="Path 1980" d="M115.625,1.07l.612.418a6.183,6.183,0,0,0-2.248,5.544c.827.827.827,2.895.827,2.895l.827-.827s-.319-2.389,1.24-3.308c1.447-.853,2.714-.413,4.006-.413,3.463,0,4.432-1.305,4.264-2.895C125.066,1.661,123.809-.052,120.6,0A13.922,13.922,0,0,0,115.625,1.07Z" transform="translate(-109.853 -0.001)" fill="#694b4b"/>
  <path id="Path_1981" data-name="Path 1981" d="M115.384,35.279a4.542,4.542,0,0,1,.853-3.528,6.183,6.183,0,0,0-2.248,5.544c.827.827.827,2.895.827,2.895l.827-.827s-.319-2.389,1.24-3.308c1.447-.853,2.714-.413,4.006-.413a10.16,10.16,0,0,0,1.491-.1C119.713,35.628,118.141,33.607,115.384,35.279Z" transform="translate(-109.853 -30.264)" fill="#5a4146"/>
  <path id="Path_1982" data-name="Path 1982" d="M123.624,186.461l.467,1.867a.5.5,0,0,0,.482.377h0a.5.5,0,0,0,.493-.435l.239-1.91a.856.856,0,0,0-.85-.963h0A.856.856,0,0,0,123.624,186.461Z" transform="translate(-119.049 -176.712)" fill="#e6af78"/>
  <path id="Path_1983" data-name="Path 1983" d="M303.446,494.346h-2.895a.413.413,0,0,0-.414.413v.414h3.722v-.414A.414.414,0,0,0,303.446,494.346Z" transform="translate(-287.319 -471.189)" fill="#e4eaf6"/>
</svg>
