<svg xmlns="http://www.w3.org/2000/svg" width="21.511" height="23.993" viewBox="0 0 21.511 23.993">
  <g id="Flat" transform="translate(-24 -24)">
    <path id="Path_2438" data-name="Path 2438" d="M104.547,24a1.654,1.654,0,0,0-1.655,1.655V46.339a1.655,1.655,0,0,1-1.655,1.655H88V25.655A1.655,1.655,0,0,1,89.655,24Z" transform="translate(-60.691 0)" fill="#54b6c3"/>
    <path id="Path_2439" data-name="Path 2439" d="M104.547,24a1.654,1.654,0,0,0-1.655,1.655V46.339a1.655,1.655,0,0,1-1.655,1.655H88V42.58c5.475-3.294,10.394-9.109,13.657-18.58Z" transform="translate(-60.691 0)" fill="#84d1db"/>
    <path id="Path_2440" data-name="Path 2440" d="M40.547,442.482H25.655A1.655,1.655,0,0,1,24,440.827V440H38.892v.827A1.655,1.655,0,0,0,40.547,442.482Z" transform="translate(0 -394.489)" fill="#b7e7eb"/>
    <path id="Path_2441" data-name="Path 2441" d="M379.309,26.482H376v-.827a1.655,1.655,0,1,1,3.309,0Z" transform="translate(-333.798 0)" fill="#57bfcc"/>
    <path id="Path_2442" data-name="Path 2442" d="M195.63,65.429a1.682,1.682,0,0,0-2.2-.91.66.66,0,0,0-.91.91.66.66,0,0,0,0,1.287,1.682,1.682,0,0,0,2.2.91.66.66,0,0,0,.91-.91A.66.66,0,0,0,195.63,65.429Z" transform="translate(-159.321 -37.936)" fill="#ffb531"/>
    <g id="Group_1475" data-name="Group 1475" transform="translate(28.964 31.446)">
      <path id="Path_2443" data-name="Path 2443" d="M192,200h4.137v.827H192Z" transform="translate(-188.277 -198.345)" fill="#ebeef2"/>
      <path id="Path_2444" data-name="Path 2444" d="M216,168h4.137v.827H216Z" transform="translate(-211.036 -168)" fill="#ebeef2"/>
      <path id="Path_2445" data-name="Path 2445" d="M168,168h1.655v.827H168Z" transform="translate(-165.518 -168)" fill="#ebeef2"/>
      <path id="Path_2446" data-name="Path 2446" d="M152,240h9.928v.827H152Z" transform="translate(-150.345 -236.277)" fill="#ebeef2"/>
      <path id="Path_2447" data-name="Path 2447" d="M120,240h.827v.827H120Z" transform="translate(-120 -236.277)" fill="#ebeef2"/>
      <path id="Path_2448" data-name="Path 2448" d="M152,272h6.619v.827H152Z" transform="translate(-150.345 -266.622)" fill="#ebeef2"/>
      <path id="Path_2449" data-name="Path 2449" d="M296,272h2.482v.827H296Z" transform="translate(-286.899 -266.622)" fill="#ebeef2"/>
      <path id="Path_2450" data-name="Path 2450" d="M152,304h9.928v.827H152Z" transform="translate(-150.345 -296.967)" fill="#ebeef2"/>
      <path id="Path_2451" data-name="Path 2451" d="M120,304h.827v.827H120Z" transform="translate(-120 -296.967)" fill="#ebeef2"/>
      <path id="Path_2452" data-name="Path 2452" d="M152,336h2.482v.827H152Z" transform="translate(-150.345 -327.313)" fill="#ebeef2"/>
      <path id="Path_2453" data-name="Path 2453" d="M216,336h6.619v.827H216Z" transform="translate(-211.036 -327.313)" fill="#ebeef2"/>
      <path id="Path_2454" data-name="Path 2454" d="M152,368h6.619v.827H152Z" transform="translate(-150.345 -357.658)" fill="#ebeef2"/>
      <path id="Path_2455" data-name="Path 2455" d="M120,368h.827v.827H120Z" transform="translate(-120 -357.658)" fill="#ebeef2"/>
      <path id="Path_2456" data-name="Path 2456" d="M152,400h9.928v.827H152Z" transform="translate(-150.345 -388.003)" fill="#ebeef2"/>
      <path id="Path_2457" data-name="Path 2457" d="M296,368h2.482v.827H296Z" transform="translate(-286.899 -357.658)" fill="#ebeef2"/>
    </g>
  </g>
</svg>
