<svg xmlns="http://www.w3.org/2000/svg" width="19.6" height="12.473" viewBox="0 0 19.6 12.473">
  <path id="Icon_material-people" data-name="Icon material-people" d="M14.864,12.845a2.673,2.673,0,1,0-2.673-2.673A2.662,2.662,0,0,0,14.864,12.845Zm-7.127,0a2.673,2.673,0,1,0-2.673-2.673A2.662,2.662,0,0,0,7.736,12.845Zm0,1.782c-2.076,0-6.236,1.042-6.236,3.118v2.227H13.973V17.745C13.973,15.67,9.812,14.627,7.736,14.627Zm7.127,0c-.258,0-.552.018-.864.045a3.76,3.76,0,0,1,1.755,3.074v2.227H21.1V17.745C21.1,15.67,16.939,14.627,14.864,14.627Z" transform="translate(-1.5 -7.5)"/>
</svg>
