<svg xmlns="http://www.w3.org/2000/svg" width="9.548" height="9.56" viewBox="0 0 9.548 9.56">
  <path id="Icon_zocial-call" data-name="Icon zocial-call" d="M3.287,4.823a.7.7,0,0,1,.179-.382L4.9,3.008q.167-.143.251.048L6.307,5.229a.313.313,0,0,1-.06.37l-.525.525a.594.594,0,0,0-.167.37,1.822,1.822,0,0,0,.37.919,7.849,7.849,0,0,0,.728.955l.37.382c.112.112.254.249.43.412a7.207,7.207,0,0,0,.865.645,1.936,1.936,0,0,0,.949.4.52.52,0,0,0,.382-.155l.621-.621a.262.262,0,0,1,.358-.048l2.089,1.229a.174.174,0,0,1,.1.125.152.152,0,0,1-.048.137l-1.432,1.432a.7.7,0,0,1-.382.179,2.888,2.888,0,0,1-1.319-.161,5.969,5.969,0,0,1-1.36-.651q-.627-.406-1.164-.823t-.859-.716l-.31-.3q-.119-.119-.316-.328t-.687-.823a11.988,11.988,0,0,1-.848-1.2,7,7,0,0,1-.621-1.331A2.831,2.831,0,0,1,3.287,4.823Z" transform="translate(-3.267 -2.947)" fill="#a7b519"/>
</svg>
