<svg xmlns="http://www.w3.org/2000/svg" width="14.744" height="14.743" viewBox="0 0 14.744 14.743">
  <path id="Icon_ionic-md-clock" data-name="Icon ionic-md-clock" d="M15.958,5.533a7.373,7.373,0,1,0,0,10.426A7.375,7.375,0,0,0,15.958,5.533Zm-.585,1.885a.568.568,0,1,1-.209.776A.569.569,0,0,1,15.374,7.419ZM4.508,10.746a.567.567,0,1,1,.567.567A.569.569,0,0,1,4.508,10.746Zm1.609,3.328a.568.568,0,1,1,.209-.776A.569.569,0,0,1,6.117,14.074Zm.209-5.879a.568.568,0,1,1-.209-.776A.571.571,0,0,1,6.326,8.195Zm1.3-2.849a.568.568,0,1,1-.209.776A.569.569,0,0,1,7.626,5.345ZM7.35,9.269,7.9,8.326l3.374,2.017v4.94h-1.1V10.909ZM8.4,15.942a.568.568,0,1,1-.209-.776A.571.571,0,0,1,8.4,15.942Zm2.343,1.042a.567.567,0,1,1,.567-.567A.569.569,0,0,1,10.745,16.984Zm0-11.341a.567.567,0,1,1,.567-.567A.569.569,0,0,1,10.745,5.643Zm3.119,10.5a.568.568,0,1,1,.209-.776A.569.569,0,0,1,13.864,16.147Zm.209-10.029a.568.568,0,1,1-.209-.776A.571.571,0,0,1,14.073,6.118Zm2.073,7.747a.568.568,0,1,1-.209-.776A.571.571,0,0,1,16.146,13.865Zm.269-2.552a.567.567,0,1,1,.567-.567A.569.569,0,0,1,16.415,11.313Z" transform="translate(-3.372 -3.375)" fill="#fff"/>
</svg>
