<svg xmlns="http://www.w3.org/2000/svg" width="20.663" height="15.667" viewBox="0 0 20.663 15.667">
  <g id="Group_12" data-name="Group 12" transform="translate(-1274 -756)">
    <g id="Icon_ionic-ios-cash" data-name="Icon ionic-ios-cash" transform="translate(1277.375 758.091)">
      <path id="Path_5" data-name="Path 5" d="M19,25.024H2.79a.54.54,0,1,0,0,1.08H19a.54.54,0,0,0,0-1.08Z" transform="translate(-2.25 -14.381)" fill="#1e77dc"/>
      <path id="Path_6" data-name="Path 6" d="M19,28.4H2.79a.54.54,0,1,0,0,1.08H19a.54.54,0,0,0,0-1.08Z" transform="translate(-2.25 -15.904)" fill="#1e77dc"/>
      <path id="Path_7" data-name="Path 7" d="M18.183,5.632H3.6A1.359,1.359,0,0,0,2.25,6.987v6.861A1.359,1.359,0,0,0,3.6,15.2H18.183a1.359,1.359,0,0,0,1.354-1.354V6.987A1.359,1.359,0,0,0,18.183,5.632ZM5.414,13.967H4.025a.54.54,0,0,1,0-1.08H5.414a.54.54,0,0,1,0,1.08Zm0-6.02H4.025a.54.54,0,0,1,0-1.08H5.414a.54.54,0,0,1,0,1.08Zm5.48,5.557a3.087,3.087,0,1,1,3.087-3.087A3.091,3.091,0,0,1,10.894,13.5Zm6.869.463H16.374a.54.54,0,0,1,0-1.08h1.389a.54.54,0,0,1,0,1.08Zm0-6.02H16.374a.54.54,0,0,1,0-1.08h1.389a.54.54,0,0,1,0,1.08Z" transform="translate(-2.25 -5.632)" fill="#1e77dc"/>
      <path id="Path_8" data-name="Path 8" d="M18.364,12.8a2.045,2.045,0,1,1-2.045-2.045A2.045,2.045,0,0,1,18.364,12.8Z" transform="translate(-7.675 -7.945)" fill="#1e77dc"/>
    </g>
    <g id="Ellipse_3" data-name="Ellipse 3" transform="translate(1274 756)" fill="#1e77dc" stroke="#fff" stroke-width="1">
      <circle cx="6" cy="6" r="6" stroke="none"/>
      <circle cx="6" cy="6" r="5.5" fill="none"/>
    </g>
    <path id="Icon_awesome-rupee-sign" data-name="Icon awesome-rupee-sign" d="M3.572,2.992a.139.139,0,0,0,.139-.139V2.389a.139.139,0,0,0-.139-.139H.139A.139.139,0,0,0,0,2.389v.519a.139.139,0,0,0,.139.139h.989a.837.837,0,0,1,.707.316H.139A.139.139,0,0,0,0,3.5v.464a.139.139,0,0,0,.139.139H1.98a.8.8,0,0,1-.867.68H.139A.139.139,0,0,0,0,4.925v.615a.139.139,0,0,0,.045.1L1.959,7.409a.139.139,0,0,0,.094.037h.957A.139.139,0,0,0,3.105,7.2L1.355,5.589a1.589,1.589,0,0,0,1.6-1.483h.612a.139.139,0,0,0,.139-.139V3.5a.139.139,0,0,0-.139-.139H2.891a1.589,1.589,0,0,0-.165-.371Z" transform="translate(1278.391 757.592)" fill="#fff"/>
  </g>
</svg>
