<svg xmlns="http://www.w3.org/2000/svg" width="15.167" height="14" viewBox="0 0 15.167 14">
  <g id="Icon_ionic-ios-calendar" data-name="Icon ionic-ios-calendar" transform="translate(-3.375 -4.5)">
    <path id="Path_1" data-name="Path 1" d="M17.083,6.75H15.625v.875a.293.293,0,0,1-.292.292H14.75a.293.293,0,0,1-.292-.292V6.75h-7v.875a.293.293,0,0,1-.292.292H6.583a.293.293,0,0,1-.292-.292V6.75H4.833A1.463,1.463,0,0,0,3.375,8.208v9.917a1.463,1.463,0,0,0,1.458,1.458h12.25a1.463,1.463,0,0,0,1.458-1.458V8.208A1.463,1.463,0,0,0,17.083,6.75Zm.292,10.938a.731.731,0,0,1-.729.729H5.271a.731.731,0,0,1-.729-.729V11.125a.293.293,0,0,1,.292-.292h12.25a.293.293,0,0,1,.292.292Z" transform="translate(0 -1.083)" fill="#1e77dc"/>
    <path id="Path_2" data-name="Path 2" d="M10.167,4.792A.293.293,0,0,0,9.875,4.5H9.292A.293.293,0,0,0,9,4.792v.875h1.167Z" transform="translate(-2.708)" fill="#1e77dc"/>
    <path id="Path_3" data-name="Path 3" d="M25.917,4.792a.293.293,0,0,0-.292-.292h-.583a.293.293,0,0,0-.292.292v.875h1.167Z" transform="translate(-10.292)" fill="#1e77dc"/>
  </g>
</svg>
