<svg xmlns="http://www.w3.org/2000/svg" width="34.438" height="40.924" viewBox="0 0 34.438 40.924">
  <path id="Icon_material-rotate-left" data-name="Icon material-rotate-left" d="M12.677,17.779l-3.048-3.07a17.126,17.126,0,0,0-3.524,8.41h4.367A12.83,12.83,0,0,1,12.677,17.779Zm-2.205,9.663H6.105a17.092,17.092,0,0,0,3.5,8.41l3.048-3.07a12.961,12.961,0,0,1-2.183-5.34Zm2.183,11.5a17.131,17.131,0,0,0,8.431,3.481V38.035a12.785,12.785,0,0,1-5.318-2.227l-3.113,3.135ZM25.41,8.137V1.5l-9.836,9.836,9.836,9.62V12.5a12.956,12.956,0,0,1,0,25.553v4.367a17.277,17.277,0,0,0,0-34.287Z" transform="translate(-6.105 -1.5)" fill="#a7a5a5"/>
</svg>
