<svg xmlns="http://www.w3.org/2000/svg" width="35.93" height="24.701" viewBox="0 0 35.93 24.701">
  <g id="hand" transform="translate(0 104.709) rotate(-90)">
    <path id="Path_21380" data-name="Path 21380" d="M88.991,96.842a2.246,2.246,0,0,1-2.246,2.246h0A2.246,2.246,0,0,1,84.5,96.842V95.719a2.246,2.246,0,0,1-4.491,0V84.491A4.5,4.5,0,0,1,84.5,80H94.56a2.246,2.246,0,0,1,1.837.954l7.813,11.127a2.238,2.238,0,0,1-3.5,2.785L97.973,91.43v16.64a2.246,2.246,0,0,1-4.491,0V97.965a2.246,2.246,0,0,1-2.246,2.246h0a2.246,2.246,0,0,1-2.246-2.246V94.6" transform="translate(0 -74.386)" fill="#ffca28"/>
    <path id="Path_21381" data-name="Path 21381" d="M97.973,1.123V5.614a1.066,1.066,0,0,1-1,1.123H81.005a1.066,1.066,0,0,1-1-1.123V1.123a1.066,1.066,0,0,1,1-1.123H96.974A1.066,1.066,0,0,1,97.973,1.123Z" transform="translate(0)" fill="#263238"/>
  </g>
</svg>
