<svg xmlns="http://www.w3.org/2000/svg" width="180" height="137" viewBox="0 0 180 137">
  <g id="Group_3435" data-name="Group 3435" transform="translate(-113 -366)">
    <g id="Rectangle_2001" data-name="Rectangle 2001" transform="translate(113 366)" fill="rgba(255,255,255,0.05)" stroke="#00b6cd" stroke-linecap="round" stroke-width="1" stroke-dasharray="5">
      <rect width="180" height="137" rx="5" stroke="none"/>
      <rect x="0.5" y="0.5" width="179" height="136" rx="4.5" fill="none"/>
    </g>
    <g id="Group_3060" data-name="Group 3060" transform="translate(42 121)">
      <g id="upload-cloud" transform="translate(142 278)" opacity="0.58">
        <path id="Path_280" data-name="Path 280" d="M22.266,19.133,15.133,12,8,19.133" transform="translate(4.492 4.045)" fill="none" stroke="#00b6cd" stroke-linecap="round" stroke-linejoin="round" stroke-width="3"/>
        <line id="Line_22" data-name="Line 22" y2="16" transform="translate(19.238 16)" fill="none" stroke="#00b6cd" stroke-linecap="round" stroke-linejoin="round" stroke-width="3"/>
        <path id="Path_281" data-name="Path 281" d="M35.581,30.442A8.916,8.916,0,0,0,31.319,13.7H29.072a14.266,14.266,0,1,0-24.5,13.017" transform="translate(-0.995 -3.002)" fill="none" stroke="#00b6cd" stroke-linecap="round" stroke-linejoin="round" stroke-width="3"/>
        <path id="Path_282" data-name="Path 282" d="M22.266,19.133,15.133,12,8,19.133" transform="translate(4.492 4.045)" fill="none" stroke="#00b6cd" stroke-linecap="round" stroke-linejoin="round" stroke-width="3"/>
      </g>
      <text id="Upload_Document" data-name="Upload Document" transform="translate(98 345)" fill="#00b6cd" font-size="16" font-family="Roboto-Medium, Roboto" font-weight="500" letter-spacing="0em" opacity="0.58"><tspan x="0" y="0">Upload Document</tspan></text>
    </g>
  </g>
</svg>
