<svg xmlns="http://www.w3.org/2000/svg" width="18.022" height="16.019" viewBox="0 0 18.022 16.019">
  <path id="Icon_awesome-map-marked-alt" data-name="Icon awesome-map-marked-alt" d="M9.011,0A3.942,3.942,0,0,0,5.069,3.942c0,1.76,2.577,4.968,3.564,6.133a.493.493,0,0,0,.757,0c.987-1.165,3.564-4.373,3.564-6.133A3.942,3.942,0,0,0,9.011,0Zm0,5.256a1.314,1.314,0,1,1,1.314-1.314A1.314,1.314,0,0,1,9.011,5.256ZM.63,6.757a1,1,0,0,0-.63.93v7.832a.5.5,0,0,0,.686.465l4.32-1.966V6.724a9.475,9.475,0,0,1-.665-1.452Zm8.381,4.5a1.5,1.5,0,0,1-1.142-.531C7.253,10,6.6,9.17,6.007,8.322v5.694l6.007,2v-7.7c-.592.848-1.246,1.675-1.861,2.4A1.5,1.5,0,0,1,9.011,11.253Zm8.324-6.211-4.32,1.966v9.011l4.377-1.751a1,1,0,0,0,.63-.93V5.507A.5.5,0,0,0,17.335,5.042Z" fill="#555ab9"/>
</svg>
