<svg id="Page-1" xmlns="http://www.w3.org/2000/svg" width="70" height="70" viewBox="0 0 70 70">
  <g id="Desktop" transform="translate(-349 -290)">
    <g id="Group-29" transform="translate(349 290)">
      <g id="Group-28-Copy" opacity="0.009">
        <g id="Group-27-Copy">
          <g id="Group-19-Copy">
            <g id="Group-13-Copy-5">
              <rect id="Rectangle" width="70" height="70" fill="#fff" opacity="0.011"/>
            </g>
          </g>
        </g>
      </g>
      <g id="Group-25" transform="translate(19 3)">
        <path id="Path" d="M26,16H5V6a6.156,6.156,0,0,1,6.3-6h8.4A6.156,6.156,0,0,1,26,6Z" fill="#4091cf"/>
        <path id="Combined-Shape" d="M20.4,0a6.156,6.156,0,0,1,6.3,6V16h-5V6a6.156,6.156,0,0,0-6.3-6h5Z" fill="#347ab0"/>
        <path id="Path-2" data-name="Path" d="M8,11H24a8.078,8.078,0,0,1,8,8.154V55.846A8.078,8.078,0,0,1,24,64H8a8.078,8.078,0,0,1-8-8.154V19.154A8.078,8.078,0,0,1,8,11Z" fill="#eee"/>
        <path id="Combined-Shape-2" data-name="Combined-Shape" d="M24,11a8.078,8.078,0,0,1,8,8.154V55.846A8.078,8.078,0,0,1,24,64H17a8.078,8.078,0,0,0,8-8.154h0V19.154A8.078,8.078,0,0,0,17,11h7Z" fill="#e3e3e3"/>
        <path id="Path-3" data-name="Path" d="M0,24H32V52H0Z" fill="#7bbff3"/>
        <path id="Combined-Shape-3" data-name="Combined-Shape" d="M32,24V52H25V24Z" fill="#6daee0"/>
        <g id="Group-24" transform="translate(6 30)">
          <rect id="Rectangle-2" data-name="Rectangle" width="21" height="16" rx="8" fill="#fff"/>
          <path id="Combined-Shape-4" data-name="Combined-Shape" d="M21,8a7.97,7.97,0,0,1-2,5.291V2.709A7.97,7.97,0,0,1,21,8Z" fill="#e4e4e4" fill-rule="evenodd"/>
          <rect id="Rectangle-3" data-name="Rectangle" width="11.667" height="1.633" rx="0.816" transform="translate(4.667 3.592)" fill="#4091cf"/>
          <rect id="Rectangle-Copy-4" width="11.667" height="1.633" rx="0.816" transform="translate(4.667 7.184)" fill="#4091cf"/>
          <rect id="Rectangle-Copy-5" width="11.667" height="1.633" rx="0.816" transform="translate(4.667 10.776)" fill="#4091cf"/>
        </g>
      </g>
    </g>
  </g>
</svg>
