<svg height="511pt" viewBox="-114 1 511 511.99999" width="511pt" xmlns="http://www.w3.org/2000/svg"><path d="m106.429688 35.308594v21.011718c-46.773438 12.078126-79.453126 54.265626-79.445313 102.574219v317.792969h-8.828125c-9.722656.074219-17.585938 7.9375-17.65625 17.65625.03125 9.738281 7.917969 17.625 17.65625 17.65625h123.585938v-512c-19.5 0-35.3125 15.808594-35.3125 35.308594zm0 0" fill="#d8cad3"/><path d="m265.328125 476.691406h-8.828125v-317.792968c.003906-48.308594-32.671875-90.5-79.449219-102.578126v-21.011718c.023438-19.476563-15.742187-35.2851565-35.222656-35.308594-.027344 0-.058594 0-.085937 0v512h123.585937c9.722656-.070312 17.585937-7.933594 17.65625-17.65625-.03125-9.738281-7.917969-17.625-17.65625-17.652344zm-114.757813-397.242187c38.984376.042969 70.574219 31.636719 70.621094 70.621093-.046875-38.984374-31.636718-70.578124-70.621094-70.621093zm0 0" fill="#e1d6dd"/><g fill="#f1f2f2"><path d="m221.191406 467.863281c-4.875 0-8.828125-3.953125-8.828125-8.828125v-273.65625c0-4.875 3.953125-8.828125 8.828125-8.828125s8.828125 3.953125 8.828125 8.828125v273.65625c0 4.875-3.953125 8.828125-8.828125 8.828125zm0 0"/><path d="m221.191406 158.898438c-4.875 0-8.828125-3.953126-8.828125-8.828126-.039062-34.113281-27.683593-61.753906-61.792969-61.792968-4.875 0-8.828124-3.953125-8.828124-8.828125s3.953124-8.828125 8.828124-8.828125c43.859376.050781 79.398438 35.589844 79.449219 79.449218 0 4.875-3.953125 8.828126-8.828125 8.828126zm0 0"/></g></svg>