<svg height="511pt" viewBox="-51 0 511 511.99978" width="511pt" xmlns="http://www.w3.org/2000/svg"><path d="m180.171875 120.539062-56.324219 42.664063-90.042968-118.863281 56.324218-42.667969c3.628906-2.746094 8.796875-2.035156 11.546875 1.59375l80.089844 105.726563c2.75 3.628906 2.035156 8.796874-1.59375 11.546874zm0 0" fill="#ededed"/><path d="m101.671875 3.265625 80.09375 105.726563c2.746094 3.628906 2.035156 8.796874-1.59375 11.546874l-17.855469 13.523438c3.628906-2.746094 4.34375-7.914062 1.59375-11.542969l-80.09375-105.726562c-2.75-3.628907-7.914062-4.34375-11.542968-1.59375l17.851562-13.523438c3.628906-2.75 8.800781-2.039062 11.546875 1.589844zm0 0" fill="#d6d4d4"/><path d="m180.171875 120.539062-56.324219 42.664063-22.507812-29.714844 62.890625-47.644531 17.535156 23.148438c2.75 3.628906 2.035156 8.796874-1.59375 11.546874zm0 0" fill="#bfbfbf"/><path d="m56.3125 74.058594 62.894531-47.640625 22.507813 29.714843-62.890625 47.644532zm0 0" fill="#bfbfbf"/><path d="m164.234375 85.851562 17.53125 23.140626c2.746094 3.632812 2.035156 8.796874-1.59375 11.546874l-17.855469 13.527344c3.628906-2.75 4.34375-7.917968 1.59375-11.546875l-17.53125-23.140625zm0 0" fill="#acacac"/><path d="m101.347656 39.941406 17.851563-13.527344 22.515625 29.722657-17.855469 13.523437zm0 0" fill="#acacac"/><path d="m194.773438 199.507812c-2.21875-3.660156-5.511719-6.722656-9.683594-8.660156l-40.804688-17.101562-103.65625-136.832032c-7.445312-9.832031-21.449218-11.765624-31.28125-4.316406-9.832031 7.445313-11.761718 21.453125-4.316406 31.28125 0 0 94.292969 124.117188 105.675781 139.144532 2.21875 3.90625 5.613281 7.191406 9.996094 9.226562l40.804687 17.101562 207.414063 273.800782c7.449219 9.828125 21.453125 11.761718 31.285156 4.316406 9.828125-7.449219 11.761719-21.453125 4.3125-31.28125 0 0-209.222656-276.117188-209.746093-276.679688zm0 0" fill="#ff7a7a"/><path d="m404.519531 476.191406c3.722657 4.914063 5.101563 10.871094 4.320313 16.523438-.78125 5.667968-3.722656 11.03125-8.632813 14.753906-3.148437 2.382812-6.71875 3.796875-10.367187 4.308594 3.15625-7.167969 2.433594-15.785156-2.628906-22.472656 0 0-209.230469-276.113282-209.753907-276.679688-2.214843-3.664062-5.511719-6.722656-9.679687-8.660156l-40.808594-17.101563-103.652344-136.828125c-5.066406-6.691406-13.171875-9.726562-20.917968-8.636718 1.480468-3.375 3.808593-6.425782 6.945312-8.804688 9.835938-7.449219 23.835938-5.507812 31.285156 4.324219l103.652344 136.832031 40.808594 17.101562c4.179687 1.929688 7.464844 4.996094 9.679687 8.660157.53125.558593 209.75 276.679687 209.75 276.679687zm0 0" fill="#ff5757"/></svg>