<svg height="512pt" viewBox="0 0 512 512" width="512pt" xmlns="http://www.w3.org/2000/svg"><path d="m208 128h-160v-80c0-26.507812 21.492188-48 48-48h64c26.507812 0 48 21.492188 48 48zm0 0" fill="#b3e5fc"/><path d="m64 96h128c35.347656 0 64 28.652344 64 64v288c0 35.347656-28.652344 64-64 64h-128c-35.347656 0-64-28.652344-64-64v-288c0-35.347656 28.652344-64 64-64zm0 0" fill="#e4edfb"/><path d="m0 192h256v224h-256zm0 0" fill="#b3e5fc"/><path d="m432 512h-80c-26.507812 0-48-21.492188-48-48v-64l-32-318.398438v-81.601562h240v80l-32 321.601562v62.398438c0 26.507812-21.492188 48-48 48zm0 0" fill="#d1c4e9"/><path d="m272.078125 81.601562 1.441406 14.398438h236.878907l1.601562-16v-16h-239.9375zm0 0" fill="#b39ddb"/><path d="m432 512h-80c-26.507812 0-48-21.492188-48-48v-80h176v80c0 26.507812-21.492188 48-48 48zm0 0" fill="#b39ddb"/><path d="m352 144h80v32h-80zm0 0" fill="#9575cd"/><path d="m192 352h-32v-32h32zm-64 0h-64v-32h64zm0 0" fill="#81d4fa"/><path d="m64 256h128v32h-128zm0 0" fill="#81d4fa"/><path d="m432 480h-80c-26.507812 0-48-21.492188-48-48v32c0 26.507812 21.492188 48 48 48h80c26.507812 0 48-21.492188 48-48v-32c0 26.507812-21.492188 48-48 48zm0 0" fill="#9575cd"/><path d="m192 480h-128c-35.347656 0-64-28.652344-64-64v32c0 35.347656 28.652344 64 64 64h128c35.347656 0 64-28.652344 64-64v-32c0 35.347656-28.652344 64-64 64zm0 0" fill="#d7e1f2"/><g fill="#fff"><path d="m304 32h32v32h-32zm0 0"/><path d="m176 144h32v32h-32zm0 0"/><path d="m144 32h32v32h-32zm0 0"/></g></svg>