<svg height="402pt" viewBox="-38 0 402 402.075" width="402pt" xmlns="http://www.w3.org/2000/svg"><path d="m207.960938 97.035156h55.449218c15.3125 0 27.726563 12.410156 27.726563 27.722656v277.242188h-110.898438v-277.242188c0-15.3125 12.414063-27.722656 27.722657-27.722656zm0 0" fill="#dc93bf"/><path d="m118.773438 346.550781h-85c-7.289063 0-13.335938-5.644531-13.832032-12.917969l-19.910156-292.046874h152.480469l-19.910157 292.046874c-.496093 7.273438-6.539062 12.917969-13.828124 12.917969zm0 0" fill="#fca7b1"/><path d="m.03125 0h152.484375v41.585938h-152.484375zm0 0" fill="#f47181"/><path d="m34.6875 346.550781h83.171875v55.449219h-83.171875zm0 0" fill="#f47181"/><path d="m62.410156 346.550781h27.726563v27.726563h-27.726563zm0 0" fill="#e6f5fc"/><path d="m207.960938 41.585938h55.449218v27.722656h-55.449218zm0 0" fill="#9acee5"/><g fill="#e6f5fc"><path d="m325.789062 41.585938h-138.621093v-27.722657h110.898437c15.3125 0 27.722656 12.410157 27.722656 27.722657zm0 0"/><path d="m207.960938 180.207031h83.175781v152.484375h-83.175781zm0 0"/><path d="m221.824219 69.308594h27.722656v27.726562h-27.722656zm0 0"/><path d="m41.617188 131.691406h69.3125v124.757813h-69.3125zm0 0"/></g></svg>