<svg id="Capa_1" enable-background="new 0 0 512 512" height="512" viewBox="0 0 512 512" width="512" xmlns="http://www.w3.org/2000/svg"><path d="m264.258 107.355h-16.516v-24.774l8.258-5.331 8.258 5.331z" fill="#dad8db"/><path d="m247.742 57.806h16.516v24.774h-16.516z" fill="#c8c5c9"/><path d="m305.548 99.097h-90.838c-8.258 0-12.46 18.486-12.46 41.29v24.774h122.417l21.346-33.033c-3.826-18.846-20.489-33.031-40.465-33.031z" fill="#eceaec"/><path d="m214.71 115.613v-16.516h-8.258c-22.804 0-41.29 18.486-41.29 41.29v24.774h181.677v-24.774c0-2.829-.285-5.589-.827-8.258h-114.786c-9.122 0-16.516-7.394-16.516-16.516z" fill="#dad8db"/><path d="m355.097 487.226h-156.903c-4.561 0-8.258-3.697-8.258-8.258v-322.065c0-4.561 3.697-8.258 8.258-8.258h156.903c4.561 0 8.258 3.697 8.258 8.258v280.774l-7.688 7.99 7.688 8.528v24.773c0 4.561-3.697 8.258-8.258 8.258z" fill="#95d6a4"/><path d="m156.903 148.645h41.29v335.688l-49.548-5.366v-24.773l11.355-8.194-11.355-8.323v-280.774c0-4.561 3.697-8.258 8.258-8.258z" fill="#78c2a4"/><path d="m280.774 49.548-41.524 8.258v-41.29c0-9.121 8.492-16.516 8.492-16.516h16.516c9.122 0 16.516 7.395 16.516 16.516z" fill="#6f6571"/><path d="m330.323 322.065c0 41.047-33.275 74.323-74.323 74.323-23.362 0-44.182-10.731-57.806-27.587l-10.527-46.735 10.529-46.722c13.625-16.837 34.458-27.601 57.804-27.601 41.047-.001 74.323 33.274 74.323 74.322z" fill="#eceaec"/><path d="m261.866 291.209-7.366-.959c-6.745 7.886-19.33 23.656-20.25 41.5-.669 12.974 6.594 23.267 19.5 24.75 7.538.866 13.815.558 18.875-4.024 5.005-4.533 8.15-11.083 8.15-18.368-.001-16.94-11.583-33.879-18.909-42.899z" fill="#95d6a4"/><path d="m297.29 222.968h-82.58c-4.565 0-8.258-3.698-8.258-8.258s3.694-8.258 8.258-8.258h82.581c4.565 0 8.258 3.698 8.258 8.258-.001 4.56-3.694 8.258-8.259 8.258z" fill="#857e87"/><path d="m355.097 503.742h-160.097c-4.561 0-8.258-3.697-8.258-8.258l11.452-16.516h165.161v16.516c0 4.561-3.697 8.258-8.258 8.258z" fill="#eceaec"/><path d="m206.452 495.484c-4.561 0-8.258-3.697-8.258-8.258v-8.258h-49.548v24.774c0 4.561 3.697 8.258 8.258 8.258h198.194c4.561 0 8.258-3.697 8.258-8.258v-8.258z" fill="#dad8db"/><path d="m198.194 275.341c-10.314 12.76-16.516 29.038-16.516 46.723s6.202 33.975 16.516 46.735z" fill="#dad8db"/><path d="m269.564 352.403c-12.906-1.482-22.458-13.598-21.788-26.572.665-12.896 7.696-25.583 14.091-34.622-.66-.811-1.347-1.634-1.925-2.309-2.076-2.427-5.814-2.419-7.89.008-6.745 7.886-19.854 25.389-20.775 43.233-.669 12.974 8.882 25.089 21.788 26.572 7.559.868 14.495-1.631 19.558-6.238-1.028.007-2.005.049-3.059-.072z" fill="#78c2a4"/><path d="m148.645 437.677h214.71v16.516h-214.71z" fill="#9b959d"/><path d="m148.645 437.677h49.548v16.516h-49.548z" fill="#857e87"/><path d="m264.258 49.548c-9.122 0-16.516-7.395-16.516-16.516v-33.032c-9.121 0-16.516 7.394-16.516 16.516v41.29c0 4.561 3.697 8.258 8.258 8.258h33.032c4.561 0 8.258-3.697 8.258-8.258v-8.258z" fill="#5d5360"/><circle cx="264.258" cy="33.032" fill="#4b3f4e" r="8.258"/></svg>