<?xml version="1.0" encoding="iso-8859-1"?>
<!-- Generator: Adobe Illustrator 19.0.0, SVG Export Plug-In . SVG Version: 6.00 Build 0)  -->
<svg version="1.1" id="Capa_1" xmlns="http://www.w3.org/2000/svg" xmlns:xlink="http://www.w3.org/1999/xlink" x="0px" y="0px"
	 viewBox="0 0 512 512" style="enable-background:new 0 0 512 512;" xml:space="preserve">
<path style="fill:#DFD7D5;" d="M241,512H61v-60c0-16.569,13.431-30,30-30h120c16.569,0,30,13.431,30,30V512z"/>
<path style="fill:#FF7CB9;" d="M211,150H91V60h120V150z"/>
<rect x="151" y="60" style="fill:#FF5E95;" width="60" height="90"/>
<path style="fill:#DFD7D5;" d="M211,210H91c-16.569,0-30-13.431-30-30v-60h180v60C241,196.569,227.569,210,211,210z"/>
<path style="fill:#D2C5C2;" d="M151,210h60c16.569,0,30-13.431,30-30v-60h-90V210z"/>
<path style="fill:#FF5E95;" d="M241,452H61V180h180V452z"/>
<path style="fill:#DFD7D5;" d="M451,512H271v-60c0-16.569,13.431-30,30-30h120c16.569,0,30,13.431,30,30V512z"/>
<path style="fill:#FF5E95;" d="M451,150H271V0h180V150z"/>
<rect x="361" style="fill:#CE0963;" width="90" height="150"/>
<path style="fill:#DFD7D5;" d="M421,210H301c-16.569,0-30-13.431-30-30v-60h180v60C451,196.569,437.569,210,421,210z"/>
<path style="fill:#FF5E95;" d="M451,452H271V180h180V452z"/>
<g>
	<path style="fill:#D2C5C2;" d="M361,512h90v-60c0-16.569-13.431-30-30-30h-60V512z"/>
	<path style="fill:#D2C5C2;" d="M361,210h60c16.569,0,30-13.431,30-30v-60h-90V210z"/>
</g>
<rect x="361" y="180" style="fill:#CE0963;" width="90" height="272"/>
<path style="fill:#D2C5C2;" d="M151,512h90v-60c0-16.569-13.431-30-30-30h-60V512z"/>
<rect x="151" y="180" style="fill:#CE0963;" width="90" height="272"/>
<g>
</g>
<g>
</g>
<g>
</g>
<g>
</g>
<g>
</g>
<g>
</g>
<g>
</g>
<g>
</g>
<g>
</g>
<g>
</g>
<g>
</g>
<g>
</g>
<g>
</g>
<g>
</g>
<g>
</g>
</svg>
