<svg height="512pt" viewBox="0 -31 512.001 512" width="512pt" xmlns="http://www.w3.org/2000/svg"><path d="m400.867188 197.046875h-288.21875c-42.269532 0-76.664063 34.394531-76.664063 76.667969v29.386718c0 26.15625 9.605469 51.28125 27.042969 70.746094h387.460937c17.4375-19.464844 27.042969-44.589844 27.042969-70.746094v-29.386718c0-42.273438-34.390625-76.667969-76.664062-76.667969zm0 0" fill="#24aac6"/><path d="m406.785156 112.058594c-10.613281 0-21.230468-4.039063-29.308594-12.117188-16.160156-16.164062-16.160156-42.457031 0-58.621094 16.160157-16.160156 42.457032-16.160156 58.617188 0 16.164062 16.164063 16.164062 42.457032 0 58.621094-8.078125 8.078125-18.695312 12.117188-29.308594 12.117188zm0 0" fill="#24aac6"/><path d="m331.117188 152.945312c-6.898438 0-13.386719-2.6875-18.265626-7.566406-4.875-4.878906-7.5625-11.363281-7.5625-18.265625 0-6.898437 2.6875-13.382812 7.5625-18.261719 4.878907-4.878906 11.367188-7.566406 18.265626-7.566406 6.898437 0 13.386718 2.6875 18.265624 7.566406 4.875 4.875 7.5625 11.363282 7.5625 18.261719 0 6.898438-2.6875 13.386719-7.5625 18.265625-4.878906 4.878906-11.367187 7.566406-18.265624 7.566406zm0 0" fill="#57dae0"/><path d="m328.519531 30c7.847657 0 15.363281-6.898438 15-15-.363281-8.125-6.589843-15-15-15-7.84375 0-15.363281 6.898438-15 15 .363281 8.128906 6.589844 15 15 15zm0 0" fill="#57dae0"/><path d="m400.867188 197.046875h-145.992188v176.800781h195.613281c17.441407-19.464844 27.042969-44.589844 27.042969-70.746094v-29.386718c0-42.273438-34.390625-76.667969-76.664062-76.667969zm0 0" fill="#1d7ba6"/><path d="m436.792969 449.921875h-361.585938c-41.46875 0-75.207031-33.738281-75.207031-75.207031v-25.882813h512v25.882813c0 41.46875-33.738281 75.207031-75.207031 75.207031zm0 0" fill="#e0f4fe"/><path d="m254.875 348.832031v101.089844h181.917969c41.46875 0 75.207031-33.738281 75.207031-75.207031v-25.882813zm0 0" fill="#bcdbfd"/><path d="m353.46875 293.472656h-188.789062c-24.53125 0-44.492188-19.960937-44.492188-44.496094v-51.929687h277.773438v51.929687c0 24.535157-19.957032 44.496094-44.492188 44.496094zm0 0" fill="#57dae0"/><path d="m254.875 197.046875v96.425781h98.59375c24.535156 0 44.492188-19.960937 44.492188-44.496094v-51.929687zm0 0" fill="#24aac6"/></svg>