<svg id="beauty_copy" data-name="beauty copy" xmlns="http://www.w3.org/2000/svg" width="107.438" height="94.371" viewBox="0 0 107.438 94.371">
  <path id="Path" d="M7.259,29.324v1.166H0V0H7.259Z" transform="translate(7.259 49.363)" fill="#e6e9ed"/>
  <path id="Path-2" data-name="Path" d="M7.259,32.857V36.3H0V0H7.259Z" transform="translate(0 45.008)" fill="#ec87c0"/>
  <path id="Path-3" data-name="Path" d="M36.509,8.957l5.315-.321L66.2,7.173a3.577,3.577,0,0,1,1.344,6.852v.019L41.824,26.41l-11.5,5.531L0,27.409V0H6.415L32.572,5.389a4.414,4.414,0,0,1,3.937,3.569Z" transform="translate(13.067 50.815)" fill="#eac6bb"/>
  <path id="Path-4" data-name="Path" d="M13.067,12.017a6.71,6.71,0,0,1-6.533,6.857A6.71,6.71,0,0,1,0,12.017C0,8.228,6.533,0,6.533,0S13.067,8.228,13.067,12.017Z" transform="translate(34.845 27.585)" fill="#ccd3db"/>
  <path id="Path-5" data-name="Path" d="M38.6,0A3.416,3.416,0,0,1,42.1,3.319,3.427,3.427,0,0,1,38.6,6.637H10.217l-4.227,4a3.6,3.6,0,0,1-2.473.979,3.645,3.645,0,0,1-2.491-.979,3.2,3.2,0,0,1,0-4.7L6.288.963A4.483,4.483,0,0,1,6.832.548C6.9.5,7.009.464,7.095.415,7.2.365,7.305.3,7.426.249a3.207,3.207,0,0,1,.353-.1,1.9,1.9,0,0,1,.3-.083A3.415,3.415,0,0,1,8.778,0Z" transform="translate(56.623 0)" fill="#d2dded"/>
  <path id="Path-6" data-name="Path" d="M0,0H10.163V13.067H0Z" transform="translate(76.949 8.711)" fill="#bfc5ce"/>
  <path id="Path-7" data-name="Path" d="M24.682,0V5.807H0V0Z" transform="translate(69.689 21.778)" fill="#e6e9ed"/>
  <path id="Path-8" data-name="Path" d="M52.267,7V61.241a7,7,0,0,1-6.971,7H6.971a7,7,0,0,1-6.971-7V50.378L25.726,38.256v-.017a3.5,3.5,0,0,0-1.344-6.718L0,32.956V7A7.005,7.005,0,0,1,6.971,0H45.3A7.005,7.005,0,0,1,52.267,7Z" transform="translate(55.171 26.134)" fill="#5d9cec"/>
  <path id="Path-9" data-name="Path" d="M4.98,0H0A6.843,6.843,0,0,1,6.635,7V61.241a6.842,6.842,0,0,1-6.635,7H4.98a6.843,6.843,0,0,0,6.635-7V7A6.844,6.844,0,0,0,4.98,0Z" transform="translate(95.823 26.134)" fill="#4a89dc"/>
</svg>
