<svg xmlns="http://www.w3.org/2000/svg" xmlns:xlink="http://www.w3.org/1999/xlink" width="101" height="101" viewBox="0 0 101 101">
  <defs>
    <clipPath id="clip-path">
      <path id="SVGID_1_" d="M50.471,100.941A50.47,50.47,0,1,0,0,50.47,50.568,50.568,0,0,0,50.471,100.941Z" fill="none"/>
    </clipPath>
  </defs>
  <g id="Group_13930" data-name="Group 13930" transform="translate(4718 -2421.974)">
    <g id="Group_2" data-name="Group 2" transform="translate(-4718 2421.974)">
      <path id="Path" d="M50.5,101A50.5,50.5,0,1,0,0,50.5,50.6,50.6,0,0,0,50.5,101Z" fill="#b4dbd7"/>
      <path id="SVGID_1_2" data-name="SVGID_1_" d="M50.471,100.941A50.47,50.47,0,1,0,0,50.47,50.568,50.568,0,0,0,50.471,100.941Z" transform="translate(0.027 0.027)" fill="none"/>
      <g id="Group_2-2" data-name="Group 2" transform="translate(0.027 0.027)" clip-path="url(#clip-path)">
        <g id="no_image_femaleDoc_2" data-name="no_image_femaleDoc 2" transform="translate(12.191 6.148)">
          <g id="no_image_femaleDoc" transform="translate(0 0)">
            <g id="Group" transform="translate(11.038)">
              <path id="Path-2" data-name="Path" d="M10.471,0,0,56.821l6.857,2.639C22.688,47.871,30.1,0,10.471,0Z" transform="translate(30.906 2.891)" fill="#0f0f0f"/>
              <path id="Path-3" data-name="Path" d="M41.377,2.891c-2.618-1.588-16.433-5.624-26.924,0-12.9,6.916-22.634,28.929-4.436,54.1,3.249,3.833,10.471,3.331,10.471,3.331Z" transform="translate(0)" fill="#0f0f0f"/>
            </g>
            <path id="Path-4" data-name="Path" d="M24.337,3.56h-.083V0H3.032V3.557c0,3.483-.014,7.269-3.032,9.56V47.242H27.286L23.641,13.555c-2.941-2.3.7-6.542.7-10Z" transform="translate(24.435 49.212)" fill="#feddb4"/>
            <path id="Path-5" data-name="Path" d="M9.077,2.205A34.336,34.336,0,0,1,0,1.009v16.5H21.177V0a32.641,32.641,0,0,1-12.1,2.205Z" transform="translate(28.915 78.941)" fill="#545465"/>
            <path id="Path-6" data-name="Path" d="M24.56,19.956l-1.749-7.1c-2.971-2.273-.653-4.858-.38-7.687L23.745.719,21.577,0,4.639.087,0,.719C3.065,4.112,12.493,16.86,23.029,19.686A8.5,8.5,0,0,0,24.56,19.956Z" transform="translate(26.347 49.212)" fill="#ffc079"/>
            <path id="Path-7" data-name="Path" d="M41.947,16.374c0,11.922-11.931,26.795-20.974,26.795S0,28.3,0,16.374,9.39,0,20.974,0,41.947,4.454,41.947,16.374Z" transform="translate(16.698 12.966)" fill="#feddb4"/>
            <path id="Path-8" data-name="Path" d="M2.182,0Q1.077,0,0,.053c10.816.541,19.258,5.24,19.258,16.63C19.258,27.895,8.868,41.667,0,43.722a9.65,9.65,0,0,0,2.182.262c9.243,0,21.439-15.154,21.439-27.3S14.022,0,2.182,0Z" transform="translate(36.246 12.559)" fill="#ffc079"/>
            <path id="Path-9" data-name="Path" d="M28.928,0a31.006,31.006,0,0,0-5.873,1.8l-.187-.28-.85.671c-1.256.48-2.178.849-2.178.849l.354.594C14.445,8.183,1.328,18.588.148,19.772c-1.515,1.521,9.09,40.326,9.09,18.252,0-18.441,10.2-22.093,19.692-24.335,4.292-1.015,5.554-3.549,6.06-6.085S30.444,0,28.928,0Z" transform="translate(12.218 4.821)" fill="#0f0f0f"/>
            <path id="Path-10" data-name="Path" d="M3.076,10.853C5.9,20.867,11.537,25.4,16.825,26.73c2.9.729,1.634-8.272,1.634-8.272S18.436,7.9,17.924,7.651,10.06,0,10.06,0L0,6.29Z" transform="translate(42.355 2.891)" fill="#0f0f0f"/>
            <path id="Combined_Shape" data-name="Combined Shape" d="M4.415,36.413A4.514,4.514,0,0,1,0,31.807V21.061C0,11.73,7.248,4.169,16.19,4.169h.491c5.768,0,8.22-1.831,9.6-4.169l8.34,36.413Zm37.125-.136L49.158,1.893c2.1,2.452,4.675,2.976,10.579,2.976h.5c7.1,0,16.734,7.362,16.734,15.363V31.463a4.673,4.673,0,0,1-4.52,4.814Z" transform="translate(0 60.176)" fill="#e1ecf0"/>
            <path id="Path-11" data-name="Path" d="M14.477,26.064,12.6,24.775A18.046,18.046,0,0,0,15.228,14.8c0-6.787-2.964-12.521-6.472-12.521S2.284,8.009,2.284,14.8a18.051,18.051,0,0,0,2.631,9.978L3.034,26.064A20.344,20.344,0,0,1,0,14.8C0,6.5,3.846,0,8.756,0s8.756,6.5,8.756,14.8a20.344,20.344,0,0,1-3.035,11.268Z" transform="translate(52.129 68.353)" fill="#7a7e82"/>
            <path id="Path-12" data-name="Path" d="M3.665,1.833A1.833,1.833,0,1,1,1.833,0,1.832,1.832,0,0,1,3.665,1.833Z" transform="translate(54.572 91.974)" fill="#fff"/>
            <path id="Path-13" data-name="Path" d="M3.665,1.833A1.833,1.833,0,1,1,1.833,0,1.832,1.832,0,0,1,3.665,1.833Z" transform="translate(63.532 91.974)" fill="#fff"/>
            <path id="Path-14" data-name="Path" d="M3.919.141C6.472-.439,8.145.8,8.145,3.233c0,3.221-3.435,11.111-7.045,6.185S3.919.141,3.919.141Z" transform="translate(52.943 28.849)" fill="#ffe1b2"/>
            <path id="Path-15" data-name="Path" d="M5.76,3.142C3.049,6.729,0,13.137,0,24.585a1.141,1.141,0,0,0,2.282,0c0-18.231,8.488-23.152,8.6-23.216A1.526,1.526,0,0,0,11.514,0,10.358,10.358,0,0,1,5.76,3.142Z" transform="translate(14.254 60.953)" fill="#7a7e82"/>
            <path id="Path-16" data-name="Path" d="M2.8.071C2.615.078,1.853.036,1.663.036,1.333.036.541.021.223,0A.836.836,0,0,0,.155.091c-.318.472-.118.622.338.952A7.991,7.991,0,0,1,2.8,4.712a1.011,1.011,0,0,0,.948.7.994.994,0,0,0,.335-.061A1.056,1.056,0,0,0,4.7,4.016C3.8,1.387,3.339.538,2.8.071Z" transform="translate(57.148 64.98)" fill="#7a7e82"/>
          </g>
        </g>
        <path id="Path-17" data-name="Path" d="M8.96,4.48A4.48,4.48,0,1,1,4.48,0,4.479,4.479,0,0,1,8.96,4.48Z" transform="translate(23.187 83.868)" fill="#7a7e82"/>
        <path id="Path-18" data-name="Path" d="M4.887,2.444A2.444,2.444,0,1,1,2.444,0,2.443,2.443,0,0,1,4.887,2.444Z" transform="translate(25.223 85.904)" fill="#fff"/>
      </g>
    </g>
  </g>
</svg>
