<svg xmlns="http://www.w3.org/2000/svg" width="48" height="48" viewBox="0 0 48 48">
  <g id="Group_10192" data-name="Group 10192" transform="translate(-460 -102)">
    <circle id="Ellipse_962" data-name="Ellipse 962" cx="24" cy="24" r="24" transform="translate(460 102)" fill="#e8e9fd"/>
    <g id="Group_10135" data-name="Group 10135" transform="translate(4724.045 3486.031)">
      <path id="Path_2597" data-name="Path 2597" d="M2.24,151.553A2.241,2.241,0,0,1,.068,149.86a6.924,6.924,0,0,0,2.4-5.247A6.923,6.923,0,0,0,0,139.309V130.49a2.24,2.24,0,0,1,2.24-2.24H17.087a2.24,2.24,0,0,1,2.24,2.24v18.822a2.24,2.24,0,0,1-2.24,2.24" transform="translate(-4247.488 -3490.651)" fill="#5b9ed6"/>
      <path id="Path_2598" data-name="Path 2598" d="M2.24,128.25H3.9a2.24,2.24,0,0,0-2.24,2.24v7.689a1.478,1.478,0,0,0,.351.954A8.471,8.471,0,0,1,3.573,141.9a6.912,6.912,0,0,1,.552,2.715,6.915,6.915,0,0,1-.557,2.727l-.007.021a1.477,1.477,0,0,0,1.391,1.964H17.087a2.241,2.241,0,0,0,2.24-2.241v2.227a2.24,2.24,0,0,1-2.24,2.24H2.24a2.236,2.236,0,0,1-1.783-.884l-.007-.01L.4,150.592l-.012-.018-.04-.061-.014-.023L.3,150.431.284,150.4l-.03-.057-.016-.03-.027-.055L.2,150.229l-.024-.056-.014-.034-.022-.058-.012-.034c-.007-.021-.014-.042-.021-.063l-.01-.03c-.009-.031-.018-.063-.026-.094q.114-.1.223-.2l.026-.024q.1-.1.206-.2L.55,149.4q.1-.106.2-.217l.019-.022c.067-.077.133-.156.2-.236a6.911,6.911,0,0,0,1.5-4.312A6.924,6.924,0,0,0,0,139.309V130.49A2.24,2.24,0,0,1,2.24,128.25Zm0,0" transform="translate(-4247.487 -3490.651)" fill="#4c83b3"/>
      <path id="Path_2599" data-name="Path 2599" d="M75.527,97.254H64.938v2.085H75.527Zm0,0" transform="translate(-4308.057 -3461.741)" fill="#5a67ad"/>
      <path id="Path_2600" data-name="Path 2600" d="M184.575,97.254h-2.723v2.085h2.723Zm0,0" transform="translate(-4424.971 -3461.741)" fill="#48538a"/>
      <path id="Path_2601" data-name="Path 2601" d="M47.217,11.131v2.157a.841.841,0,0,1-.841.841H33.068a.841.841,0,0,1-.841-.841V8.974a.841.841,0,0,1,.841-.841H46.376a.841.841,0,0,1,.841.841Zm0,0" transform="translate(-4277.545 -3378.615)" fill="#5b9ed6"/>
      <path id="Path_2602" data-name="Path 2602" d="M202.679,8.133v6h-2.935a.841.841,0,0,1-.841-.841V8.974a.841.841,0,0,1,.841-.841Zm0,0" transform="translate(-4444.221 -3378.615)" fill="#4c83b3"/>
      <path id="Path_2603" data-name="Path 2603" d="M57.258,220.862a5.811,5.811,0,1,0,5.811-5.811A5.811,5.811,0,0,0,57.258,220.862Zm0,0" transform="translate(-4300.893 -3571.612)" fill="#555ab9"/>
      <path id="Path_2605" data-name="Path 2605" d="M250.617,273.33a5.01,5.01,0,1,0,5.01-5.01A5.01,5.01,0,0,0,250.617,273.33Zm0,0" transform="translate(-4505.986 -3619.151)" fill="#fcda55"/>
      <path id="Path_2606" data-name="Path 2606" d="M273.571,289.293a5.01,5.01,0,0,0,7.019,7.019,5.01,5.01,0,1,1-7.019-7.019Zm0,0" transform="translate(-4526.958 -3639.105)" fill="#d9bc4a"/>
      <path id="Path_2607" data-name="Path 2607" d="M290.46,307.005a5.063,5.063,0,0,1-.612.455l-6.91-6.911a5.011,5.011,0,0,1,.455-.612.389.389,0,0,1,.087.065l6.916,6.916A.385.385,0,0,1,290.46,307.005Zm0,0" transform="translate(-4537.38 -3649.233)" fill="#d9bc4a"/>
      <path id="Path_2608" data-name="Path 2608" d="M357.147,139.214a3.988,3.988,0,0,1,3.193,3.811v2.413h-.056a5.009,5.009,0,0,0-3.578,8.516c-.078,0-.157.008-.237.008a3.871,3.871,0,0,1-3.871-3.871v-7.065a3.871,3.871,0,0,1,3.193-3.811A5.118,5.118,0,0,1,357.147,139.214Zm0,0" transform="translate(-4610.643 -3496.268)" fill="#f084ad"/>
      <path id="Path_2609" data-name="Path 2609" d="M420.693,139.213a4.616,4.616,0,0,1,1.356,0l.041.008a3.871,3.871,0,0,0-3.152,3.8v7.065a3.872,3.872,0,0,0,2.422,3.59q.12.141.249.274c-.079,0-.157.008-.237.008a3.871,3.871,0,0,1-3.871-3.871v-7.065A3.872,3.872,0,0,1,420.693,139.213Zm0,0" transform="translate(-4675.545 -3496.267)" fill="#d47499"/>
      <path id="Path_2610" data-name="Path 2610" d="M423.279,291.379a5.009,5.009,0,0,0-.421,7.4c-.079,0-.157.008-.237.008a3.871,3.871,0,0,1-3.871-3.871v-3.533Zm0,0" transform="translate(-4676.795 -3641.09)" fill="#ef2d57"/>
      <path id="Path_2611" data-name="Path 2611" d="M428.852,294.912a3.872,3.872,0,0,0,2.422,3.59c.037.044.075.087.113.129l.02.022c.038.042.077.083.116.123-.078,0-.157.008-.237.008a3.871,3.871,0,0,1-3.871-3.871v-3.533h1.438Zm0,0" transform="translate(-4685.459 -3641.09)" fill="#cc264b"/>
      <path id="Path_2612" data-name="Path 2612" d="M96.549,256.479h2.137v-2.137a.533.533,0,1,1,1.067,0v2.137h2.137a.533.533,0,1,1,0,1.067H99.753v2.137a.533.533,0,1,1-1.067,0v-2.137H96.549a.533.533,0,1,1,0-1.067Zm0,0" transform="translate(-4337.043 -3607.762)" fill="#ede4e4"/>
      <g id="Group_1576" data-name="Group 1576" transform="translate(-4242.194 -3371.031)">
        <path id="Path_2613" data-name="Path 2613" d="M79.44,7.063a.534.534,0,0,0,.534-.534v-6a.534.534,0,1,0-1.067,0v6A.534.534,0,0,0,79.44,7.063Zm0,0" transform="translate(-71.248 0)" fill="#00b7ce"/>
        <path id="Path_2614" data-name="Path 2614" d="M136.354,7.063a.534.534,0,0,0,.533-.534v-6a.533.533,0,1,0-1.067,0v6A.533.533,0,0,0,136.354,7.063Zm0,0" transform="translate(-131.991 0)" fill="#00b7ce"/>
        <path id="Path_2615" data-name="Path 2615" d="M193.268,7.063a.534.534,0,0,0,.534-.534v-6a.533.533,0,1,0-1.067,0v6A.533.533,0,0,0,193.268,7.063Zm0,0" transform="translate(-192.734 0)" fill="#00b7ce"/>
      </g>
      <path id="Path_2616" data-name="Path 2616" d="M280.9,300.978a.385.385,0,0,0,.272-.658l-6.916-6.916a.385.385,0,0,0-.545.545l6.916,6.916A.385.385,0,0,0,280.9,300.978Zm0,0" transform="translate(-4527.75 -3642.91)" fill="#e69326"/>
    </g>
  </g>
</svg>
