<svg xmlns="http://www.w3.org/2000/svg" width="137.579" height="125.202" viewBox="0 0 137.579 125.202">
  <g id="Group_13" data-name="Group 13" transform="translate(-832.284 -442.401)">
    <g id="Group_1" data-name="Group 1" transform="translate(832.284 444.516)">
      <path id="Path_1" data-name="Path 1" d="M123,26.136c0,27.1,14.036,45.705,14.036,58.762s-7.506,40.479-67.573,40.479S.583,88.487.583,74.125C.583,6.875,123-21.853,123,26.136Z" transform="translate(-0.583 -2.291)" fill="#efefef"/>
    </g>
    <g id="Group_2" data-name="Group 2" transform="translate(856.443 461.988)">
      <path id="Path_2" data-name="Path 2" d="M71.388,6.75h-56.8A7.858,7.858,0,0,0,6.75,14.585V87.058a7.858,7.858,0,0,0,7.835,7.835h56.8a7.858,7.858,0,0,0,7.835-7.835V14.585A7.858,7.858,0,0,0,71.388,6.75Z" transform="translate(-6.75 -6.75)" fill="#f3f3f1"/>
    </g>
    <g id="Group_3" data-name="Group 3" transform="translate(915.205 477.658)">
      <path id="Path_3" data-name="Path 3" d="M47.213,32.3H25.668a3.919,3.919,0,0,1-3.918-3.918V14.668a3.919,3.919,0,0,1,3.918-3.918H47.213a3.919,3.919,0,0,1,3.918,3.918V28.379A3.919,3.919,0,0,1,47.213,32.3Z" transform="translate(-21.75 -10.75)" fill="#1f98dd"/>
    </g>
    <g id="Group_4" data-name="Group 4" transform="translate(856.443 461.988)">
      <path id="Path_4" data-name="Path 4" d="M15.564,87.058V14.585A7.858,7.858,0,0,1,23.4,6.75H14.585A7.858,7.858,0,0,0,6.75,14.585V87.058a7.858,7.858,0,0,0,7.835,7.835H23.4A7.858,7.858,0,0,1,15.564,87.058Z" transform="translate(-6.75 -6.75)" fill="#d5dbe1"/>
    </g>
    <g id="Group_5" data-name="Group 5" transform="translate(915.205 477.658)">
      <path id="Path_5" data-name="Path 5" d="M30.564,28.379V14.668a3.919,3.919,0,0,1,3.918-3.918H25.668a3.919,3.919,0,0,0-3.918,3.918V28.379A3.919,3.919,0,0,0,25.668,32.3h8.814A3.919,3.919,0,0,1,30.564,28.379Z" transform="translate(-21.75 -10.75)" fill="#1978ae"/>
    </g>
    <g id="Group_6" data-name="Group 6" transform="translate(853.505 459.05)">
      <path id="Path_6" data-name="Path 6" d="M73.576,100.019h-56.8A10.782,10.782,0,0,1,6,89.244V16.775A10.782,10.782,0,0,1,16.775,6h47.36v5.876H16.775a4.9,4.9,0,0,0-4.9,4.9V89.246a4.9,4.9,0,0,0,4.9,4.9h56.8a4.9,4.9,0,0,0,4.9-4.9V58.886H84.35v30.36A10.782,10.782,0,0,1,73.576,100.019Z" transform="translate(-6 -6)"/>
    </g>
    <g id="Group_7" data-name="Group 7" transform="translate(912.267 474.72)">
      <path id="Path_7" data-name="Path 7" d="M49.4,37.422H27.855A6.863,6.863,0,0,1,21,30.567V16.855A6.863,6.863,0,0,1,27.855,10H49.4a6.863,6.863,0,0,1,6.855,6.855V30.567A6.863,6.863,0,0,1,49.4,37.422ZM27.855,15.876a.98.98,0,0,0-.979.979V30.567a.98.98,0,0,0,.979.979H49.4a.98.98,0,0,0,.979-.979V16.855a.98.98,0,0,0-.979-.979Z" transform="translate(-21 -10)"/>
    </g>
    <g id="Group_8" data-name="Group 8" transform="translate(920.102 459.05)">
      <path id="Path_8" data-name="Path 8" d="M39.647,27.546H25.938A2.939,2.939,0,0,1,23,24.608V15.794a9.794,9.794,0,1,1,19.587,0v8.814a2.939,2.939,0,0,1-2.94,2.938ZM28.872,21.67h7.839V15.794a3.918,3.918,0,1,0-7.835,0Z" transform="translate(-23 -6)"/>
    </g>
    <g id="Group_12" data-name="Group 12" transform="translate(901.005 442.401)">
      <path id="Path_12" data-name="Path 12" d="M24,13.5a5.876,5.876,0,1,1,5.877-5.876A5.876,5.876,0,0,1,24,13.5Zm0-7.835A1.959,1.959,0,1,0,25.96,7.627,1.959,1.959,0,0,0,24,5.668Z" transform="translate(-18.126 -1.751)" fill="#a4afc1"/>
      <path id="Path_19" data-name="Path 19" d="M27.029,19.559a8.9,8.9,0,1,1,8.9-8.9A8.9,8.9,0,0,1,27.029,19.559Zm0-11.873A2.968,2.968,0,1,0,30,10.654a2.968,2.968,0,0,0-2.968-2.968Z" transform="translate(32.924 57.511)" fill="#c1ccdd"/>
    </g>
    <path id="Path_16" data-name="Path 16" d="M14.9-35.218H11.1v10.3H4.082V-54.031H15.538q5.178,0,8.1,2.3a7.782,7.782,0,0,1,2.919,6.491,9.451,9.451,0,0,1-1.229,5.033,8.728,8.728,0,0,1-3.849,3.235l6.077,11.753v.3H20.038Zm-3.8-5.4h4.438a3.987,3.987,0,0,0,3.009-1.052,4.067,4.067,0,0,0,1.01-2.936,4.115,4.115,0,0,0-1.02-2.956,3.947,3.947,0,0,0-3-1.072H11.1Zm28.149.02,3.139-5.958h7l-5.7,10.534,5.975,11.1H42.627l-3.4-6.4-3.339,6.4H28.812l6-11.1L29.132-46.554H36.21Z" transform="translate(864.189 564.08)" fill="#1c1c1c"/>
  </g>
</svg>
