<svg xmlns="http://www.w3.org/2000/svg" width="71.641" height="43.001" viewBox="0 0 71.641 43.001">
  <path id="Icon_awesome-signature" data-name="Icon awesome-signature" d="M69.783,18.834c-5.8.392-14.076,6.125-18.264,8.006-3.259,1.467-6.069,2.732-8.521,2.732-2.531,0-2.911-1.814-2.385-5.812.123-.9,1.31-8.869-4.781-8.521-2.811.168-7.2,2.777-18.98,14.109L21.5,17.736A9.675,9.675,0,0,0,6.975,6.225L.828,10.357a1.8,1.8,0,0,0-.549,2.475L2.2,15.855A1.781,1.781,0,0,0,4.68,16.4l6.495-4.356a2.5,2.5,0,0,1,3.662,3.035l-11,27.5A3.578,3.578,0,0,0,7.165,47.5,3.542,3.542,0,0,0,9.7,46.447c4.725-4.725,17.323-16.875,23.65-21.925-.246,3.191-.235,6.6,2.307,9.384a9.45,9.45,0,0,0,7.335,2.833c3.986,0,7.614-1.635,11.455-3.359,3.7-1.657,11.086-7.01,15.5-7.368a1.8,1.8,0,0,0,1.7-1.769V20.648a1.777,1.777,0,0,0-1.859-1.814Z" transform="translate(-0.002 -4.499)" fill="#777"/>
</svg>
