<svg xmlns="http://www.w3.org/2000/svg" width="41" height="41" viewBox="0 0 41 41">
  <g id="Group_14446" data-name="Group 14446" transform="translate(-1074 -446)">
    <rect id="Rectangle_4193" data-name="Rectangle 4193" width="41" height="41" transform="translate(1074 446)" fill="#f0f0f0" opacity="0"/>
    <path id="Icon_ionic-md-eye-off" data-name="Icon ionic-md-eye-off" d="M18.754,10.45a7.48,7.48,0,0,1,7.5,7.445,7.162,7.162,0,0,1-.538,2.725L30.1,24.966A17.605,17.605,0,0,0,35.25,17.9,17.772,17.772,0,0,0,12.766,7.77l3.24,3.218A7.42,7.42,0,0,1,18.754,10.45Zm-15-4.058L7.177,9.788l.692.685A17.521,17.521,0,0,0,2.25,17.9a17.8,17.8,0,0,0,23.073,9.913l.633.626,4.4,4.345,1.907-1.893L5.652,4.5Zm8.292,8.226,2.327,2.305a4.218,4.218,0,0,0-.118.965,4.477,4.477,0,0,0,4.5,4.463,4.232,4.232,0,0,0,.972-.118l2.327,2.305a7.465,7.465,0,0,1-10.8-6.657A7.356,7.356,0,0,1,12.045,14.619Zm6.466-1.156,4.728,4.691.029-.236a4.477,4.477,0,0,0-4.5-4.463Z" transform="translate(1075.75 447.5)" fill="#444"/>
  </g>
</svg>
