<svg xmlns="http://www.w3.org/2000/svg" width="41" height="41" viewBox="0 0 41 41">
  <g id="Group_14445" data-name="Group 14445" transform="translate(-1019 -446)">
    <rect id="Rectangle_4192" data-name="Rectangle 4192" width="41" height="41" transform="translate(1019 446)" fill="#f0f0f0" opacity="0"/>
    <path id="Icon_material-remove-red-eye" data-name="Icon material-remove-red-eye" d="M18,6.75A17.74,17.74,0,0,0,1.5,18a17.725,17.725,0,0,0,33,0A17.74,17.74,0,0,0,18,6.75ZM18,25.5A7.5,7.5,0,1,1,25.5,18,7.5,7.5,0,0,1,18,25.5Zm0-12A4.5,4.5,0,1,0,22.5,18,4.494,4.494,0,0,0,18,13.5Z" transform="translate(1021.5 448.25)" fill="#444"/>
  </g>
</svg>
