<svg id="eye_5_" data-name="eye(5)" xmlns="http://www.w3.org/2000/svg" width="19.996" height="11.964" viewBox="0 0 19.996 11.964">
  <path id="Shape" d="M9.863,11.964c-3.423,0-6.687-1.859-9.7-5.524a.727.727,0,0,1-.02-.886A16.281,16.281,0,0,1,2.912,2.787,14.313,14.313,0,0,1,6.051.882,10.285,10.285,0,0,1,10.133,0c3.416,0,6.68,1.859,9.7,5.525a.726.726,0,0,1,.021.886,16.157,16.157,0,0,1-2.772,2.767,14.329,14.329,0,0,1-3.138,1.905A10.308,10.308,0,0,1,9.863,11.964Zm.266-10.509A10.484,10.484,0,0,0,3.859,3.9,16.123,16.123,0,0,0,1.68,5.976c2.611,3.011,5.364,4.539,8.184,4.539A10.486,10.486,0,0,0,16.133,8.07a15.968,15.968,0,0,0,2.179-2.078C15.7,2.982,12.948,1.454,10.128,1.454Z"/>
  <path id="Path" d="M6.155,2.674A.732.732,0,0,0,5.42,3.4,1.976,1.976,0,1,1,3.445,1.45.732.732,0,0,0,4.18.725.732.732,0,0,0,3.445,0,3.425,3.425,0,0,0,0,3.4,3.425,3.425,0,0,0,3.445,6.8,3.425,3.425,0,0,0,6.89,3.4.732.732,0,0,0,6.155,2.674Z" transform="translate(6.549 2.586)"/>
</svg>
