<svg xmlns="http://www.w3.org/2000/svg" width="115.786" height="105.369" viewBox="0 0 115.786 105.369">
  <g id="Group_13" data-name="Group 13" transform="translate(0)">
    <g id="Group_1" data-name="Group 1" transform="translate(0 1.78)">
      <path id="Path_1" data-name="Path 1" d="M103.611,22.359c0,22.806,11.813,38.465,11.813,49.454s-6.317,34.067-56.869,34.067S.583,74.832.583,62.746C.583,6.149,103.611-18.029,103.611,22.359Z" transform="translate(-0.583 -2.291)" fill="#efefef"/>
    </g>
    <g id="Group_2" data-name="Group 2" transform="translate(20.332 16.484)">
      <path id="Path_2" data-name="Path 2" d="M61.149,6.75H13.344A6.613,6.613,0,0,0,6.75,13.344V74.337a6.613,6.613,0,0,0,6.594,6.594H61.149a6.613,6.613,0,0,0,6.594-6.594V13.344A6.613,6.613,0,0,0,61.149,6.75Z" transform="translate(-6.75 -6.75)" fill="#f3f3f1"/>
    </g>
    <g id="Group_3" data-name="Group 3" transform="translate(69.786 29.672)">
      <path id="Path_3" data-name="Path 3" d="M43.18,28.883H25.047a3.3,3.3,0,0,1-3.3-3.3V14.047a3.3,3.3,0,0,1,3.3-3.3H43.18a3.3,3.3,0,0,1,3.3,3.3V25.586A3.3,3.3,0,0,1,43.18,28.883Z" transform="translate(-21.75 -10.75)" fill="#1f98dd"/>
    </g>
    <g id="Group_4" data-name="Group 4" transform="translate(20.332 16.484)">
      <path id="Path_4" data-name="Path 4" d="M14.168,74.337V13.344A6.613,6.613,0,0,1,20.762,6.75H13.344A6.613,6.613,0,0,0,6.75,13.344V74.337a6.613,6.613,0,0,0,6.594,6.594h7.418A6.613,6.613,0,0,1,14.168,74.337Z" transform="translate(-6.75 -6.75)" fill="#d5dbe1"/>
    </g>
    <g id="Group_5" data-name="Group 5" transform="translate(69.786 29.672)">
      <path id="Path_5" data-name="Path 5" d="M29.168,25.586V14.047a3.3,3.3,0,0,1,3.3-3.3H25.047a3.3,3.3,0,0,0-3.3,3.3V25.586a3.3,3.3,0,0,0,3.3,3.3h7.418A3.3,3.3,0,0,1,29.168,25.586Z" transform="translate(-21.75 -10.75)" fill="#1978ae"/>
    </g>
    <g id="Group_6" data-name="Group 6" transform="translate(17.86 14.011)">
      <path id="Path_6" data-name="Path 6" d="M62.872,85.126h-47.8A9.074,9.074,0,0,1,6,76.058V15.068A9.074,9.074,0,0,1,15.068,6H54.926v4.945H15.068a4.126,4.126,0,0,0-4.123,4.123V76.059a4.126,4.126,0,0,0,4.123,4.121h47.8a4.126,4.126,0,0,0,4.121-4.121V50.509h4.945V76.06A9.074,9.074,0,0,1,62.872,85.126Z" transform="translate(-6 -6)"/>
    </g>
    <g id="Group_7" data-name="Group 7" transform="translate(67.313 27.199)">
      <path id="Path_7" data-name="Path 7" d="M44.9,33.078H26.769A5.776,5.776,0,0,1,21,27.309V15.769A5.776,5.776,0,0,1,26.769,10H44.9a5.776,5.776,0,0,1,5.769,5.769V27.309A5.776,5.776,0,0,1,44.9,33.078ZM26.769,14.945a.825.825,0,0,0-.824.824V27.309a.825.825,0,0,0,.824.824H44.9a.825.825,0,0,0,.824-.824V15.769a.825.825,0,0,0-.824-.824Z" transform="translate(-21 -10)"/>
    </g>
    <g id="Group_8" data-name="Group 8" transform="translate(73.907 14.011)">
      <path id="Path_8" data-name="Path 8" d="M37.01,24.133H25.473A2.474,2.474,0,0,1,23,21.66V14.242a8.242,8.242,0,0,1,16.485,0V21.66A2.474,2.474,0,0,1,37.01,24.133Zm-9.068-4.945h6.6V14.242a3.3,3.3,0,1,0-6.594,0Z" transform="translate(-23 -6)"/>
    </g>
    <g id="Group_12" data-name="Group 12" transform="translate(57.835)">
      <path id="Path_12" data-name="Path 12" d="M23.071,11.641A4.945,4.945,0,1,1,28.016,6.7,4.945,4.945,0,0,1,23.071,11.641Zm0-6.594A1.649,1.649,0,1,0,24.719,6.7,1.649,1.649,0,0,0,23.071,5.048Z" transform="translate(-18.126 -1.751)" fill="#a4afc1"/>
      <path id="Path_19" data-name="Path 19" d="M25.619,16.737a7.494,7.494,0,1,1,7.494-7.494A7.494,7.494,0,0,1,25.619,16.737Zm0-9.992a2.5,2.5,0,1,0,2.5,2.5,2.5,2.5,0,0,0-2.5-2.5Z" transform="translate(24.838 48.124)" fill="#c1ccdd"/>
    </g>
    <path id="Path_16" data-name="Path 16" d="M13.184-38.2h-3.2v8.665H4.082v-24.5h9.641A10.76,10.76,0,0,1,20.537-52.1a6.549,6.549,0,0,1,2.457,5.463A7.954,7.954,0,0,1,21.959-42.4a7.345,7.345,0,0,1-3.239,2.723l5.115,9.891v.253H17.511Zm-3.2-4.543h3.735a3.355,3.355,0,0,0,2.532-.885A3.423,3.423,0,0,0,17.1-46.1a3.463,3.463,0,0,0-.858-2.488,3.322,3.322,0,0,0-2.524-.9H9.987Zm23.69.017,2.641-5.014h5.889l-4.793,8.865,5.029,9.34H36.521l-2.86-5.384-2.81,5.384H24.895l5.048-9.34-4.778-8.865H31.12Z" transform="translate(26.204 110.963)" fill="#1c1c1c"/>
  </g>
</svg>
