<svg xmlns="http://www.w3.org/2000/svg" width="37.34" height="44.372" viewBox="0 0 37.34 44.372">
  <path id="Icon_material-rotate-left" data-name="Icon material-rotate-left" d="M13.231,19.15,9.926,15.822A18.568,18.568,0,0,0,6.105,24.94H10.84A13.911,13.911,0,0,1,13.231,19.15ZM10.84,29.628H6.105a18.532,18.532,0,0,0,3.8,9.118l3.305-3.328a14.053,14.053,0,0,1-2.367-5.79ZM13.207,42.1a18.574,18.574,0,0,0,9.142,3.774V41.113A13.862,13.862,0,0,1,16.583,38.7l-3.375,3.4ZM27.037,8.7V1.5L16.372,12.165,27.037,22.6V13.431a14.047,14.047,0,0,1,0,27.706v4.735a18.733,18.733,0,0,0,0-37.176Z" transform="translate(-6.105 -1.5)" fill="#a7a5a5"/>
</svg>
