<svg xmlns="http://www.w3.org/2000/svg" width="20.109" height="15.399" viewBox="0 0 20.109 15.399">
  <path id="Icon_ionic-ios-checkmark" data-name="Icon ionic-ios-checkmark" d="M30.437,14.009l-1.644-1.69a.353.353,0,0,0-.261-.112h0a.339.339,0,0,0-.261.112L16.878,23.795l-4.146-4.146a.361.361,0,0,0-.523,0l-1.662,1.662a.372.372,0,0,0,0,.532l5.229,5.229a1.654,1.654,0,0,0,1.093.532,1.733,1.733,0,0,0,1.083-.514h.009l12.485-12.55A.4.4,0,0,0,30.437,14.009Z" transform="translate(-10.434 -12.206)" fill="#fff"/>
</svg>
