<svg xmlns="http://www.w3.org/2000/svg" xmlns:xlink="http://www.w3.org/1999/xlink" width="21.75" height="21.75" viewBox="0 0 21.75 21.75">
  <defs>
    <clipPath id="clip-path">
      <path id="Path_21804" data-name="Path 21804" d="M16.425-10.085A.721.721,0,0,1,17-10.223a.735.735,0,0,1,.5.308.761.761,0,0,1,.138.563.727.727,0,0,1-.3.5A10.618,10.618,0,0,1,10.9-6.75,10.784,10.784,0,0,1,6.676-7.6,10.832,10.832,0,0,1,3.213-9.936,10.832,10.832,0,0,1,.877-13.4a10.784,10.784,0,0,1-.85-4.227,10.784,10.784,0,0,1,.85-4.227,10.832,10.832,0,0,1,2.336-3.462A10.832,10.832,0,0,1,6.676-27.65,10.784,10.784,0,0,1,10.9-28.5a10.618,10.618,0,0,1,6.436,2.1.727.727,0,0,1,.3.5.738.738,0,0,1-.149.563.767.767,0,0,1-.5.308.7.7,0,0,1-.563-.138A9.117,9.117,0,0,0,10.9-26.971a9.06,9.06,0,0,0-3.632.743,9.163,9.163,0,0,0-2.974,2,9.455,9.455,0,0,0-2.018,2.974,9.289,9.289,0,0,0-.722,3.632A9.06,9.06,0,0,0,2.3-13.993a9.163,9.163,0,0,0,2,2.974A9.455,9.455,0,0,0,7.27-9a9.289,9.289,0,0,0,3.632.722A9.117,9.117,0,0,0,16.425-10.085Zm5.14-8.093a.794.794,0,0,1,.212.552.794.794,0,0,1-.212.552l-2.889,2.867a.755.755,0,0,1-.552.234.737.737,0,0,1-.542-.223.737.737,0,0,1-.223-.542.755.755,0,0,1,.234-.552l1.572-1.572H8.948a.737.737,0,0,1-.542-.223.737.737,0,0,1-.223-.542.737.737,0,0,1,.223-.542.737.737,0,0,1,.542-.223H19.165l-1.572-1.572a.755.755,0,0,1-.234-.552.737.737,0,0,1,.223-.542.737.737,0,0,1,.542-.223.755.755,0,0,1,.552.234Z" transform="translate(-0.027 28.5)" fill="#626262"/>
    </clipPath>
    <clipPath id="clip-path-2">
      <path id="Path_21803" data-name="Path 21803" d="M-181,226H140.589V-470H-181Z" transform="translate(181 470)" fill="#626262"/>
    </clipPath>
  </defs>
  <g id="Group_14475" data-name="Group 14475" transform="translate(-0.027 28.5)">
    <g id="Group_14474" data-name="Group 14474" transform="translate(0.027 -28.5)" clip-path="url(#clip-path)">
      <g id="Group_14473" data-name="Group 14473" transform="translate(-140.619 -342.951)" clip-path="url(#clip-path-2)">
        <path id="Path_21802" data-name="Path 21802" d="M-4.973-33.5H24.545V-3.982H-4.973Z" transform="translate(141.708 372.567)" fill="#626262"/>
      </g>
    </g>
  </g>
</svg>
