<svg xmlns="http://www.w3.org/2000/svg" width="26.67" height="25" viewBox="0 0 26.67 25"><defs><style>.a{fill:#2c2f93;}.b{fill:#19204d;}.c{fill:#fff;}</style></defs><g transform="translate(0 -16.017)"><path class="a" d="M77.721,41.249V53.992a1.6,1.6,0,0,1-1.629,1.58H57.629A1.6,1.6,0,0,1,56,53.992V41.249h0l6.516-6.318,2.117-2.053a3.22,3.22,0,0,1,4.454,0L71.2,34.931l6.516,6.318Z" transform="translate(-53.525 -15.261)"/><path class="a" d="M193.5,303.982h2.651a1.5,1.5,0,0,1,1.5,1.5v6.274H192v-6.274A1.5,1.5,0,0,1,193.5,303.982Z" transform="translate(-181.493 -271.449)"/><path class="b" d="M226.6,41.247V53.99a1.469,1.469,0,0,1-1.326,1.58h-.6a1.81,1.81,0,0,0,.153-.737V42.09l-7.025-8.371A2.364,2.364,0,0,0,216,32.824a2.279,2.279,0,0,1,3.579.052Z" transform="translate(-203.409 -15.259)"/><path class="b" d="M249.629,305.649v6.964h-1.962v-6.964A1.667,1.667,0,0,0,246,303.982h1.962A1.667,1.667,0,0,1,249.629,305.649Z" transform="translate(-233.217 -272.303)"/><path class="c" d="M26.426,27.509,16.061,17.144a3.859,3.859,0,0,0-5.451,0L.244,27.509a.833.833,0,0,0,1.179,1.179l.661-.661V38.621a2.4,2.4,0,0,0,2.4,2.4H22.19a2.4,2.4,0,0,0,2.4-2.4V28.027l.661.661a.833.833,0,0,0,1.179-1.179ZM10.835,39.35V32.787a.939.939,0,0,1,.938-.938H14.9a.939.939,0,0,1,.938.938V39.35Zm12.085-.729a.73.73,0,0,1-.729.729H17.5V32.787a2.607,2.607,0,0,0-2.6-2.6H11.773a2.607,2.607,0,0,0-2.6,2.6V39.35H4.48a.73.73,0,0,1-.729-.729V26.36l8.038-8.037a2.19,2.19,0,0,1,3.094,0L22.92,26.36Z" transform="translate(0 0)"/></g></svg>