<svg id="Group_13991" data-name="Group 13991" xmlns="http://www.w3.org/2000/svg" width="45.255" height="45.255" viewBox="0 0 45.255 45.255">
  <path id="Path_21375" data-name="Path 21375" d="M0,0H45.255V45.255H0Z" fill="none"/>
  <path id="Path_21376" data-name="Path 21376" d="M15.314,6.771a3.771,3.771,0,1,1,7.543,0A13.2,13.2,0,0,1,30.4,18.085v5.657A7.543,7.543,0,0,0,34.17,29.4H4a7.543,7.543,0,0,0,3.771-5.657V18.085A13.2,13.2,0,0,1,15.314,6.771" transform="translate(3.543 2.657)" fill="none" stroke="#2c3e50" stroke-linecap="round" stroke-linejoin="round" stroke-width="2"/>
  <path id="Path_21377" data-name="Path 21377" d="M9,17v1.886a5.657,5.657,0,1,0,11.314,0V17" transform="translate(7.971 15.056)" fill="none" stroke="#2c3e50" stroke-linecap="round" stroke-linejoin="round" stroke-width="2"/>
</svg>
