<?xml version="1.0" encoding="UTF-8"?>
<svg width="91px" height="96px" viewBox="0 0 91 96" version="1.1" xmlns="http://www.w3.org/2000/svg" xmlns:xlink="http://www.w3.org/1999/xlink">
    <!-- Generator: Sketch 57.1 (83088) - https://sketch.com -->
    <title>Cloud_9_Bue_TM</title>
    <desc>Created with Sketch.</desc>
    <g id="Page-1" stroke="none" stroke-width="1" fill="none" fill-rule="evenodd">
        <g id="signup" transform="translate(-142.000000, -53.000000)">
            <g id="Cloud_9_Bue_TM" transform="translate(142.000000, 53.000000)">
                <path d="M31.2010985,12.5 C32.8369277,12.5 34.335668,13.14273 35.5,14.2103664 C34.3005643,15.1525502 33.0730458,16.3134168 32.2508818,17.4661204 L32.1965635,17.5417357 L32.1537002,17.6169214 C31.9574893,17.9481679 31.7513017,18.268244 31.5473311,18.5939054 C31.3651617,18.8856257 31.1811448,19.1764868 30.9963889,19.466059 C29.5198193,19.0085006 27.7528133,18.9526484 26.4425241,19.107316 C25.7803588,19.1850795 25.1318654,19.316547 24.5,19.5 C24.6725621,15.6028049 27.6072256,12.5 31.2010985,12.5" id="Fill-1" fill="#57A4D8"></path>
                <path d="M32.0202624,2.5199832 L32.2066017,2.58474721 C32.4228763,2.66063633 32.5473267,2.93121481 32.4830834,3.1862976 L31.4888256,7.15358994 C31.4249186,7.40867273 31.1958626,7.55568306 30.979588,7.48019127 L30.7935851,7.41502993 C30.5773105,7.33953814 30.4528601,7.06856234 30.516767,6.81347955 L31.5113612,2.84658453 C31.5752682,2.59110442 31.8043242,2.44409409 32.0202624,2.5199832" id="Fill-2" fill="#104378"></path>
                <path d="M41.80779,1.64717425 L42.1350168,1.87523108 C42.5149974,2.1397927 42.6143887,2.67519632 42.3567359,3.06536583 L38.3512657,9.12516145 C38.0936128,9.51493843 37.5721907,9.61777989 37.19221,9.35282575 L36.8649832,9.12476892 C36.4850026,8.8602073 36.3856113,8.32441115 36.6432641,7.93463417 L40.648352,1.87483855 C40.9060049,1.48506157 41.4278093,1.38222011 41.80779,1.64717425" id="Fill-3" fill="#104378"></path>
                <path d="M25.2667588,9.03555318 C30.7354509,5.82772678 37.6851415,7.80878232 40.7895421,13.4596687 C41.0661564,13.9636002 41.3021954,14.4792229 41.5,15.0037148 C40.4399703,15.4213732 39.5715028,16.0099652 38.9273699,16.5421169 C38.7549249,15.9998866 38.5286396,15.4677349 38.2453928,14.9521122 C35.938843,10.7529518 30.7744656,9.28106861 26.7110834,11.6644631 C22.6738411,14.032538 21.2423913,19.3137402 23.4849569,23.5 C22.7245602,23.1678084 21.4737486,23.1653895 20.1889941,23.2976211 C18.3116062,17.9954554 20.3579278,11.9148162 25.2667588,9.03555318" id="Fill-4" fill="#104378"></path>
                <path d="M12.3815119,13.5089477 L18.3552497,15.9480965 L18.4147687,15.9964141 C18.475144,16.0926916 18.5008357,16.1742948 18.5,16.240508 C18.4995511,16.291331 18.4837079,16.3353538 18.4567317,16.3725763 L18.4558753,16.3736501 C18.4276145,16.4112305 18.3886488,16.4398632 18.3424038,16.4599061 L18.3419756,16.460264 C18.2764619,16.4888967 18.1946768,16.5003498 18.1073252,16.5 L18.0666468,16.4946233 L11.7255184,14.7619866 L11.6711377,14.7469544 L11.6467306,14.7047212 C11.5919218,14.6105911 11.5529561,14.5175348 11.5289772,14.4280576 L11.5281208,14.4280576 C11.4775939,14.2426608 11.4960063,14.0722962 11.5765068,13.9277011 C11.6570073,13.7823901 11.8004524,13.6646381 11.9987063,13.5841086 C12.0860579,13.5483177 12.185399,13.5204008 12.2928757,13.5 L12.3815119,13.5089477" id="Fill-5" fill="#4D4E4C"></path>
                <path d="M23.9995968,2.81436846 L25.5,9.10381221 L25.4939516,9.1851736 C25.4467742,9.3020002 25.3923387,9.38210988 25.3354839,9.43092671 L25.3346774,9.43134394 C25.2907258,9.46806088 25.2431452,9.49017449 25.1939516,9.49726753 C25.1443548,9.50477781 25.0951613,9.49643305 25.0491935,9.47682287 C24.9850806,9.44928517 24.9245968,9.39629596 24.8725806,9.33078962 L24.8532258,9.29657611 L22.5205645,3.26164747 L22.5,3.21032721 L22.5221774,3.15984143 C22.571371,3.0471872 22.6282258,2.94746735 22.6903226,2.86360253 C22.8205645,2.68752815 22.9782258,2.57403945 23.1508065,2.52605709 C23.3254032,2.4776575 23.5133065,2.4964332 23.7028226,2.58447039 C23.7862903,2.62327352 23.8705645,2.67626273 23.9540323,2.74218631 L23.9995968,2.81436846" id="Fill-6" fill="#4D4E4C"></path>
                <path d="M22.1701223,0.674013466 L22.6094846,0.543891055 C23.1194667,0.392884801 23.6736978,0.64429415 23.841755,1.10213226 L26.4511111,8.21910522 C26.6191683,8.67694333 26.3398179,9.17534429 25.8298359,9.32635055 L25.3909205,9.45607134 C24.8809385,9.6070776 24.3262603,9.35606986 24.1586501,8.89783014 L21.548847,1.78125879 C21.3807898,1.32301907 21.6605872,0.82501972 22.1701223,0.674013466" id="Fill-7" fill="#104378"></path>
                <path d="M10.5602947,13.4727471 L10.712834,13.0744304 C10.8901862,12.612069 11.4075993,12.3810948 11.8627764,12.5612464 L18.9344953,15.3593801 C19.3896724,15.5395316 19.6170576,16.0646982 19.4397053,16.5270596 L19.287166,16.9257895 C19.1098138,17.3877378 18.5924007,17.6187119 18.1372236,17.4389735 L11.0655047,14.6404267 C10.6103276,14.4606883 10.3829424,13.9351085 10.5602947,13.4727471" id="Fill-8" fill="#104378"></path>
                <path d="M16.5812141,8.87279245 L16.7146166,8.7002733 C16.8696753,8.49982586 17.1975508,8.43972698 17.4426995,8.56628815 L21.2546315,10.5329357 C21.5002134,10.6598504 21.5738446,10.9271136 21.4187859,11.1272076 L21.2853834,11.2997267 C21.1303247,11.5001741 20.8024492,11.560273 20.5573005,11.4337119 L16.7453685,9.46671081 C16.4997866,9.34014963 16.4261554,9.07288637 16.5812141,8.87279245" id="Fill-9" fill="#104378"></path>
                <path d="M10.0033113,76.5 C11.9869497,76.5 13.8525516,77.1193969 15.6094663,78.3539324 C15.7968446,78.7093113 15.8883911,78.9822331 15.8883911,79.176956 L15.8883911,79.2768337 C15.8883911,80.0479829 15.4349435,80.4811736 14.5241527,80.5721475 L14.3585898,80.5721475 L12.6188157,79.6840872 C11.5467472,79.3461288 10.6749123,79.176956 10.0033113,79.176956 C7.82800935,79.176956 5.95812232,80.1648941 4.38001558,82.1357376 C3.59076743,83.4573757 3.19419556,84.748044 3.19419556,86 C3.19419556,88.5255909 4.38430074,90.5270171 6.76879626,92.0085371 C7.81943903,92.5501222 8.86579665,92.823044 9.91176471,92.823044 L10.0512271,92.823044 C11.3897546,92.823044 12.7804831,92.3724328 14.2276977,91.4758557 L14.6764706,91.4758557 C15.4828594,91.6535452 15.8883911,92.0693154 15.8883911,92.7235534 L15.8883911,92.8621434 C15.8883911,93.7242665 14.7201013,94.5039324 12.3749513,95.1968826 C11.6686794,95.4005094 10.9277367,95.5 10.1560187,95.5 L9.91176471,95.5 C6.76022594,95.5 4.12719127,94.0533211 2.00837554,91.1553178 C1.00136346,89.469784 0.5,87.7544417 0.5,86 C0.5,82.7079055 2.00837554,80.026304 5.02084145,77.9598411 C6.63790417,76.9850652 8.29898714,76.5 10.0033113,76.5 Z M19.1404363,76.6300733 L19.3714453,76.6300733 C20.1782236,76.798859 20.5833658,77.1801752 20.5833658,77.7736349 L20.5833658,92.8749185 L21.2113362,92.8749185 C21.8303467,92.8749185 22.2315933,93.2910758 22.4100117,94.13152 L22.4100117,94.2310106 C22.2662641,95.0757131 21.8303467,95.5 21.1065446,95.5 L19.2452279,95.5 C18.538956,95.5 18.1030386,95.0668093 17.9417608,94.2046862 L17.9417608,78.0248778 C18.0418777,77.0934597 18.4431243,76.6300733 19.1404363,76.6300733 Z M30.0259057,81.8024246 C31.8042462,81.8024246 33.4131282,82.4694377 34.8513829,83.8081092 C36.2202961,85.242013 36.9047526,86.8536064 36.9047526,88.6514059 C36.9047526,91.215709 35.6885469,93.2345558 33.255746,94.6986553 C32.1922478,95.2317237 31.1634203,95.5 30.1653681,95.5 L29.7816517,95.5 C27.9289053,95.5 26.207051,94.6382641 24.6156993,92.9097596 C23.6347877,91.5362469 23.1466693,90.1155053 23.1466693,88.6514059 C23.1466693,86.424674 24.131866,84.5575795 26.1065446,83.058639 C27.366381,82.2224531 28.6745228,81.8024246 30.0259057,81.8024246 Z M25.8147643,88.5128158 L25.8147643,88.7423798 C25.8147643,90.3276487 26.5864823,91.5536675 28.1252435,92.4289527 C28.6698481,92.7103912 29.2541878,92.8489813 29.8864433,92.8489813 L30.1653681,92.8489813 C31.8085314,92.8489813 33.0683677,91.995762 33.9444877,90.2931948 C34.1408259,89.7647718 34.2370471,89.2491239 34.2370471,88.7423798 L34.2370471,88.5128158 C34.2370471,87.1958231 33.6266069,86.0867156 32.4104012,85.1769764 C31.7041293,84.6961695 30.8930658,84.4534434 29.9733152,84.4534434 C28.1817296,84.4534434 26.8611219,85.3933782 26.0196728,87.2778932 C25.8844955,87.7199878 25.8147643,88.1314996 25.8147643,88.5128158 Z M49.1065446,94.0966789 C47.9031944,95.0323553 46.577912,95.5 45.1306973,95.5 L44.7991819,95.5 C42.6850409,95.5 40.8498247,94.4779951 39.2978185,92.4289527 C38.5829762,91.3198452 38.2257499,89.9637531 38.2257499,88.3653219 L38.2257499,83.1453545 C38.3301519,82.1790954 38.7925594,81.6982885 39.6250487,81.6982885 C40.4532528,81.9104319 40.8673549,82.3091687 40.8673549,82.8898533 L40.8673549,87.9797474 C40.8673549,90.0071108 41.4341644,91.3585575 42.5673938,92.0387327 C43.2997663,92.5977384 44.106155,92.8749185 44.9955201,92.8749185 C46.6869887,92.8749185 47.9686404,92.0042787 48.8404753,90.2629992 C49.0192832,89.6954768 49.1065446,89.1233089 49.1065446,88.5472698 L49.1065446,82.9936023 C49.2763927,82.1314792 49.7384106,81.6982885 50.4925984,81.6982885 C51.3297624,81.8844947 51.7481496,82.3134271 51.7481496,82.9808272 L51.7481496,94.304564 C51.7481496,94.9413814 51.3297624,95.3397311 50.4925984,95.5 L50.3617063,95.5 C49.5249318,95.3486349 49.1065446,94.9197025 49.1065446,94.2135901 L49.1065446,94.0966789 Z M65.0048695,76.5518745 L65.2358785,76.5518745 C66.0422672,76.7206601 66.447799,77.1062347 66.447799,77.7085982 L66.447799,87.2085982 L66.5,88.8333537 C66.5,90.1720253 65.9550058,91.5625713 64.8654071,93.0092502 C63.3223607,94.6684597 61.5825867,95.5 59.6515388,95.5 L59.2678224,95.5 C57.37612,95.5 55.6192053,94.6251019 54.0021426,92.8706601 C53.0037008,91.4758557 52.5066225,90.0287897 52.5066225,88.5387531 C52.5066225,86.2903423 53.5136346,84.3969234 55.5233736,82.8635289 C56.8007402,82.0188264 58.1303078,81.5945395 59.5120764,81.5945395 C61.2865212,81.5945395 62.7337359,82.0923798 63.858395,83.0888346 L63.858395,78.5316218 L63.806194,77.7085982 C64.0543436,76.9374491 64.451305,76.5518745 65.0048695,76.5518745 Z M55.1482275,88.400163 L55.1482275,88.642502 C55.1482275,90.4403015 56.0987534,91.7789731 57.9994157,92.6585167 C58.496494,92.8013651 58.9452668,92.8749185 59.3550838,92.8749185 L59.6515388,92.8749185 C61.4084534,92.8749185 62.738021,91.9349837 63.6402415,90.054727 C63.7843787,89.4872046 63.858395,89.0497555 63.858395,88.7423798 L63.858395,88.4520375 C63.858395,86.6627547 62.8950136,85.3240831 60.9682509,84.4360228 C60.379626,84.2931744 59.9218933,84.219621 59.5993377,84.219621 L59.4072848,84.219621 C57.6507596,84.219621 56.3211921,85.1467808 55.418582,87.0049715 C55.2397741,87.5206194 55.1482275,87.9840057 55.1482275,88.400163 L55.1482275,88.400163 Z" id="Fill-10" fill="#104378"></path>
                <path d="M76.0232203,82.1187042 L76.0232203,82.5515077 C76.0232203,83.656357 76.6114244,84.5575795 77.7914815,85.2505297 C78.134114,85.4107987 78.5468055,85.4932559 79.0244477,85.4932559 C80.1716646,85.4932559 81.0539707,84.9125713 81.6662575,83.7562347 C81.8746102,83.3315607 81.9767797,82.8681744 81.9767797,82.3610432 L81.9767797,82.3091687 C81.9767797,80.8710065 81.2623234,79.866035 79.8330458,79.2896088 C79.6491408,79.2160554 79.3962715,79.176956 79.0693293,79.176956 L78.7916473,79.176956 C77.6728919,79.176956 76.7993432,79.8571312 76.1702713,81.2174817 C76.0724806,81.6073146 76.0232203,81.9061736 76.0232203,82.1187042 Z M78.6529888,88.1442747 C76.7420553,88.0014262 75.2394348,86.953097 74.1367346,85.0081907 C73.7120016,84.0852893 73.5,83.184454 73.5,82.3049104 C73.5,80.1432152 74.4921383,78.4363896 76.472401,77.1712714 C77.3339083,76.7253056 78.1833742,76.5 79.0244477,76.5 C80.9393949,76.5 82.5117097,77.4701304 83.7326345,79.4111654 C84.2427519,80.4420742 84.5,81.4079462 84.5,82.3091687 C84.5,83.7647514 83.9486499,85.1812347 82.8503284,86.5543602 L76.8237909,95.1581703 C76.5132688,95.3877343 76.2191667,95.5 75.9498773,95.5 C75.1372653,95.3312143 74.7289524,94.8852486 74.7289524,94.1659739 C74.7289524,93.7803993 75.2310423,92.9442135 76.2355868,91.6446414 L78.6529888,88.1442747 L78.6529888,88.1442747 Z" id="Fill-11" fill="#57A4D8"></path>
                <path d="M42.443818,54.5 C45.1793203,50.4067689 47.4844926,45.9677652 49.7780344,41.8867333 C49.0410461,42.0266435 48.2788583,42.1002203 47.5007754,42.1002203 C40.8729202,42.1002203 35.5,36.8167994 35.5,30.2997289 C35.5,23.7834209 40.8729202,18.5 47.5007754,18.5 C54.1282428,18.5 59.5,23.7834209 59.5,30.2997289 C59.5,32.151347 59.066181,33.9046086 58.2927503,35.4645883 L58.3516784,35.480981 L47.4441734,54.5 L42.443818,54.5 Z M54.0417892,34.20959 L54.0196911,34.2023467 L53.8739218,34.466918 C52.5011307,36.4908506 50.1602914,37.8262877 47.5007754,37.8262877 C43.2730753,37.8262877 39.8463315,34.4570061 39.8463315,30.2997289 C39.8463315,26.1435954 43.2730753,22.7735513 47.5007754,22.7735513 C51.7273124,22.7735513 55.1540561,26.1435954 55.1540561,30.2997289 C55.1540561,31.7319976 54.7473751,33.0693409 54.0417892,34.20959 L54.0417892,34.20959 Z" id="Fill-12" fill="#57A4D8"></path>
                <path d="M4.82549028,48.4720971 C3.18491192,40.239867 8.18144778,35.5297887 10.1212292,34.1202342 C12.0598479,32.7114506 13.775227,32.4516639 13.775227,32.4516639 C13.775227,32.4516639 13.1415522,27.9651409 15.3037981,25.2570386 C17.4664315,22.5500926 20.4867545,21.1012232 23.8051178,20.6217357 C27.1234811,20.1426337 30.0515628,22.1634962 30.0515628,22.1634962 C39.012539,6.65454206 60.9093963,8.49000792 64.7052443,24.8912559 C64.7750066,25.0674021 64.8176392,25.4204652 64.8773248,25.5935278 C65.3478332,26.9556732 65.3520964,29.2162795 65.4575151,30.8301173 C74.6959906,31.7258802 81.2048196,39.8567395 79.1041971,48.8425051 C77.6128327,55.2215391 74.0324729,57.4462994 69.5579921,58.6330696 C65.0835113,59.8194543 42.7099446,58.7810786 42.7099446,58.7810786 C38.8412337,64.0469615 33.3955056,67.680891 27.1234811,69.5360143 C24.3643795,70.3516056 22.5745871,70.5 22.5745871,70.5 C22.5745871,70.5 24.5883942,66.3468827 24.5883942,63.8985671 C24.5883942,50.7600697 8.55312618,67.1775062 4.82549028,48.4720971 Z M61.1601532,30.1571389 C61.3605262,12.3286061 37.4769918,9.17570589 32.0797099,27.1514768 C32.0797099,27.1514768 30.0709412,25.9612377 29.700038,25.721494 C29.0752772,25.3171673 28.1323225,24.7575082 27.571123,24.6638463 C26.6762268,24.5154518 22.5001739,23.6998605 19.2934304,26.5178133 C16.0859117,29.3369223 18.5477482,35.0476031 18.5477482,35.0476031 C18.5477482,35.0476031 15.5642442,35.2700021 13.7744519,36.3823823 C11.9846596,37.4951479 7.88301987,40.8330593 8.47948813,46.9885381 C9.81388721,60.7591573 24.5011912,50.4451651 27.8703261,58.4846751 C28.9880742,61.1546188 27.8703261,66.0500938 27.8703261,66.0500938 C33.5098384,64.1020794 37.5448163,60.0210394 40.8441888,55.2824386 L45.3450243,55.2824386 L45.3442491,55.2843658 L48.3537202,55.2843658 C54.8416205,55.440469 67.5151174,55.7619261 69.7072061,54.9991401 C79.6917513,51.5232411 77.2771982,33.8087986 60.6590269,34.5457601 C61.0260544,33.3239149 61.2461935,31.4545303 61.1601532,30.1571389 L61.1601532,30.1571389 Z" id="Fill-13" fill="#104378"></path>
                <path d="M88,73.5 C89.3806949,73.5 90.5,74.6193051 90.5,76 C90.5,77.3806949 89.3806949,78.5 88,78.5 C86.6193051,78.5 85.5,77.3806949 85.5,76 C85.5,74.6193051 86.6193051,73.5 88,73.5 Z M88,73.9023271 C89.1586365,73.9023271 90.0976729,74.8413635 90.0976729,76 C90.0976729,77.1586365 89.1586365,78.0976729 88,78.0976729 C86.8413635,78.0976729 85.9023271,77.1586365 85.9023271,76 C85.9023271,74.8413635 86.8413635,73.9023271 88,73.9023271 L88,73.9023271 Z" id="Fill-14" fill="#57A4D8"></path>
                <path d="M86.7034997,74.5 L87.3857205,74.5 C87.7006913,74.5 87.9573342,74.6526779 88.1547851,74.9576339 C88.2200259,75.0767386 88.2524303,75.2002398 88.2524303,75.3289369 L88.2524303,75.3589129 C88.2524303,75.6450839 88.102938,75.8796962 87.8043854,76.0627498 L87.7827825,76.0731415 C88.2610715,76.8397282 88.5,77.2370104 88.5,77.2653877 L88.5,77.3029576 C88.5,77.4116707 88.4274141,77.4772182 88.2835386,77.5 L88.2701447,77.5 C88.1651545,77.5 88.0640527,77.4028777 87.9677036,77.2090328 L87.316159,76.1782574 L86.9523655,76.1782574 L86.9523655,77.303757 C86.9523655,77.4116707 86.8802117,77.4772182 86.73504,77.5 L86.7220782,77.5 C86.6011017,77.5 86.5272197,77.4308553 86.5,77.2933653 L86.5,74.72502 C86.5168503,74.5751399 86.5851156,74.5 86.7034997,74.5 Z M86.9523655,74.9104716 L86.9523655,75.7641886 L87.3524519,75.7641886 C87.5771225,75.7641886 87.7261828,75.6510791 87.7974725,75.4248601 L87.8043854,75.3701039 L87.8043854,75.313749 C87.8043854,75.1490807 87.7037157,75.0231815 87.5019443,74.9364508 C87.4457766,74.9192646 87.3524519,74.9104716 87.2224022,74.9104716 L86.9523655,74.9104716 L86.9523655,74.9104716 Z" id="Fill-15" fill="#57A4D8"></path>
            </g>
        </g>
    </g>
</svg>