<svg xmlns="http://www.w3.org/2000/svg" width="445.391" height="362.718" viewBox="0 0 445.391 362.718">
  <g id="Group_14140" data-name="Group 14140" transform="translate(-1097.609 -397)">
    <path id="Path_21386" data-name="Path 21386" d="M971.983,963.363s-124.994-73-77.6-152.031c42.052-70.122,91.08-65.33,127.049-36.874,15.321,12.12,59.491,1.494,97.085-69.858,51.268-97.3,157.172-4.143,196.583,111.416s-32.586,75.079-64.894,147.5Z" transform="translate(216.407 -266.896)" fill="#bcd4d9" opacity="0.448"/>
    <path id="Path_21387" data-name="Path 21387" d="M965.4,963.363s-115.685-73-71.821-152.031c38.92-70.122,84.3-65.33,117.586-36.874,14.18,12.12,55.06,1.494,89.854-69.858,47.45-97.3,145.466-4.143,181.941,111.416s-30.159,75.079-60.061,147.5Z" transform="translate(236.618 -266.896)" fill="#b8cbd0"/>
    <path id="Rectangle" d="M-11.252-9.5H310.064l9.213,230.145L-11.252,210.253Z" transform="translate(1172.587 499.673)" fill="#cadce0"/>
    <path id="Rectangle-2" data-name="Rectangle" d="M0,0H321.534l.447,30.1s-1.148,161.274-16.587,177.539C281.639,228.08,0,219.461,0,219.461Z" transform="translate(1161.169 490.035)" fill="#fff"/>
    <rect id="Rectangle_4065" data-name="Rectangle 4065" width="27.186" height="6.041" transform="translate(1182.188 499.703)" fill="#a6abfc"/>
    <rect id="Rectangle_4066" data-name="Rectangle 4066" width="27.186" height="6.041" transform="translate(1235.553 499.703)" fill="#a6abfc"/>
    <rect id="Rectangle_4067" data-name="Rectangle 4067" width="27.186" height="6.041" transform="translate(1289.925 499.703)" fill="#a6abfc"/>
    <rect id="Rectangle_4068" data-name="Rectangle 4068" width="27.186" height="6.041" transform="translate(1343.29 499.703)" fill="#a6abfc"/>
    <rect id="Rectangle_4069" data-name="Rectangle 4069" width="27.186" height="6.041" transform="translate(1396.655 499.703)" fill="#a6abfc"/>
    <path id="Path_21388" data-name="Path 21388" d="M20.618,0h280.41a20.618,20.618,0,0,1,20.618,20.618V81.3H0V20.618A20.618,20.618,0,0,1,20.618,0Z" transform="translate(1161.043 409.083)" fill="#545ab9"/>
    <path id="Path_21389" data-name="Path 21389" d="M83.716-100.641H54.446v-93.182l-28.751,8.4v-22.17l55.337-19.139h2.685Zm116.7-51.527q0,25.547-11.474,39.4T156.6-98.909q-21.044,0-32.562-13.943t-11.518-39.316V-175.2q0-25.547,11.474-39.4t32.432-13.856q20.957,0,32.475,13.943t11.518,39.4Zm-29.184-26.759q0-13.6-3.551-20.308a11.868,11.868,0,0,0-11.258-6.712q-7.534,0-10.955,6.235t-3.68,18.879v32.215q0,14.116,3.551,20.654t11.258,6.538a11.753,11.753,0,0,0,11-6.365q3.551-6.365,3.637-19.961Z" transform="translate(1207.453 777.732)" fill="#545ab9"/>
    <path id="Path_21390" data-name="Path 21390" d="M83.716-100.641H54.446v-93.182l-28.751,8.4v-22.17l55.337-19.139h2.685Zm116.7-51.527q0,25.547-11.474,39.4T156.6-98.909q-21.044,0-32.562-13.943t-11.518-39.316V-175.2q0-25.547,11.474-39.4t32.432-13.856q20.957,0,32.475,13.943t11.518,39.4Zm-29.184-26.759q0-13.6-3.551-20.308a11.868,11.868,0,0,0-11.258-6.712q-7.534,0-10.955,6.235t-3.68,18.879v32.215q0,14.116,3.551,20.654t11.258,6.538a11.753,11.753,0,0,0,11-6.365q3.551-6.365,3.637-19.961Z" transform="translate(1207.453 777.732)" fill="#545ab9"/>
    <path id="Path_21392" data-name="Path 21392" d="M335.716,223.264c.355,7.227-6.208,10.823-9.375,16.466a13.625,13.625,0,0,0-1.784,6.29,38.9,38.9,0,0,0-3.814-7.855.13.13,0,0,1-.018-.055c3.268-3.468,5.589-9.831,6.135-14.528a22.353,22.353,0,0,0-3.659-14.637.626.626,0,0,0-1.129.109c-3.623,8.62-6.335,17.158-3.532,25.924-1.329-1.857-2.64-3.686-3.787-5.6v-.036c-.036-.045-.073-.1-.109-.146-.109-.182-.209-.355-.309-.537l.073-.073c-.091-.091-.173-.182-.264-.264a27.141,27.141,0,0,1-2.722-6.59c-.091-.337-.164-.674-.237-1.01a6.153,6.153,0,0,1,.127-1.857c.737-3.068,2.23-5.9,3.222-8.893a29.316,29.316,0,0,0-3.068-24.595.161.161,0,0,0-.291.127c1.092,3.6-.127,7.71-1.839,11.169-1.93,3.9-4.506,7.628-5.17,11.924-.592,3.814.692,8.283,2.849,12.388a142.648,142.648,0,0,1-9.885-11.469c.018-.018.027-.036.045-.055a38.043,38.043,0,0,0,5.389-14.254,22.379,22.379,0,0,0-3.659-14.646.626.626,0,0,0-1.129.109c-3.368,8.019-5.935,15.966-4.032,24.085-.619-.928-1.22-1.875-1.8-2.831a62.632,62.632,0,0,1-4.833-9.885,33.673,33.673,0,0,0,.847-12.5,19.53,19.53,0,0,0-6.627-11.46.545.545,0,0,0-.919.364c-.919,7.719-1.165,15.174,2.622,21.646a8.813,8.813,0,0,0,2.276,3.149,1.52,1.52,0,0,0,.146.109,62.752,62.752,0,0,0,3.987,8.292,32.151,32.151,0,0,0-5.243-4.761,22.354,22.354,0,0,0-14.664-3.568.623.623,0,0,0-.428,1.047c5.634,6.836,11.587,12.916,19.907,14.892a10,10,0,0,0,4.387.61,1.071,1.071,0,0,0,.956-.7,146.09,146.09,0,0,0,12.607,14.691c-5.8-3.322-12.7-4.269-19.825-4.779a.617.617,0,0,0-.555.91,22.471,22.471,0,0,0,10.386,9.5c4.7,2.03,11.9,2.986,16.794,1.511a1.092,1.092,0,0,0,.1.109c.018.018.036.027.055.046,2.84,4.387,6.481,8.247,8.529,13.117.364.874.692,1.757.983,2.667-6.608-6.809-15.684-8.274-25.177-8.939a.617.617,0,0,0-.555.91,22.471,22.471,0,0,0,10.386,9.5c4.524,1.957,11.378,2.913,16.257,1.657.328,1.3,2.8,5.771,8.538,26.8l1.575-.228c-5.38-18.478-6.108-22.046-8.975-27.972v-.009c.055-2.421,6.281-5.225,8.083-6.581a13.684,13.684,0,0,0,4.406-4.915c2.239-4.651.755-9.776-1.493-14.091C336.271,222.763,335.7,222.873,335.716,223.264Z" transform="translate(828.667 362.528)" fill="#4a64a7"/>
    <g id="Group_14138" data-name="Group 14138" transform="translate(1117.52 561.152)">
      <g id="Group_14101" data-name="Group 14101" transform="translate(7.341 95.059)">
        <g id="Group_14100" data-name="Group 14100">
          <g id="Group_14099" data-name="Group 14099">
            <path id="Path_21564" data-name="Path 21564" d="M251.82,337.217a6.415,6.415,0,0,1,.832,2.18,10.535,10.535,0,0,0,1.008,2.578,24.864,24.864,0,0,1,1.23,4.3,18.367,18.367,0,0,0-.574,2.883c.094.621.457,1.852-.105,1.934s-1.2-.926-1.2-.926a.817.817,0,0,1-.422.8,1.384,1.384,0,0,1-1.406.047s-.34.633-.762.715a1.722,1.722,0,0,1-1.395-.188,1.7,1.7,0,0,1-1.066.34,1.393,1.393,0,0,1-1.184-.738s-1.055.211-1.359-.281a4.444,4.444,0,0,1-.375-1.453,16.845,16.845,0,0,1,1.336-7.348,6.512,6.512,0,0,0-.352-5.707Z" transform="translate(-245.004 -336.35)" fill="#eea886"/>
          </g>
        </g>
      </g>
      <g id="Group_14103" data-name="Group 14103" transform="translate(7.29 103.201)">
        <g id="Group_14102" data-name="Group 14102">
          <path id="Path_21565" data-name="Path 21565" d="M253.163,348.6s.094-3.6-.855-4.371-1.055.539-1.055.539.129-1.289-.9-1.453-1.078,1.348-1.078,1.348a.99.99,0,0,0-1.254-.785c-1.09.2-.832,1.465-.832,1.465s-1.043-1.242-1.711-.047a5.294,5.294,0,0,0-.035,4.383s.316.539,1.359.281a1.425,1.425,0,0,0,2.238.387s1.582.867,2.168-.527A1.3,1.3,0,0,0,253.163,348.6Z" transform="translate(-244.961 -343.298)" fill="#db9c7c"/>
        </g>
      </g>
      <path id="Path_21566" data-name="Path 21566" d="M264.016,294.069s-6.164,20.543-8.25,28.125c-.656,2.379-2.238,25.078-2.508,25.992s-8.1,2.168-8.1,2.168.949-28.395,1.031-29.942,7.219-32.332,11.109-34.383c1.8-.961,2.848-.152,5.191,1.594C265.773,290.05,264.016,294.069,264.016,294.069Z" transform="translate(-237.636 -250.011)" fill="#030e59"/>
      <g id="Group_14105" data-name="Group 14105" transform="translate(57.302 188.059)">
        <g id="Group_14104" data-name="Group 14104">
          <path id="Path_21567" data-name="Path 21567" d="M295.422,415.968a16.505,16.505,0,0,0,3.856,3.375c1.9,1.02,8.859,1.863,9.984,2.93.809.762,2.156,3.844-8.918,3.562-7.863-.2-11.66.469-12.5-.8s1.219-9.328,1.219-9.328S290.816,416.425,295.422,415.968Z" transform="translate(-287.637 -415.71)" fill="#02093b"/>
        </g>
      </g>
      <g id="Group_14107" data-name="Group 14107" transform="translate(12.793 188.423)">
        <g id="Group_14106" data-name="Group 14106" transform="translate(0 0)">
          <path id="Path_21568" data-name="Path 21568" d="M257.442,416.278a16.507,16.507,0,0,0,3.856,3.375c1.9,1.02,8.859,1.863,9.984,2.93.809.762,2.156,3.844-8.918,3.562-7.863-.2-11.66.469-12.5-.8s1.219-9.328,1.219-9.328S252.836,416.735,257.442,416.278Z" transform="translate(-249.657 -416.02)" fill="#02093b"/>
        </g>
      </g>
      <g id="Group_14109" data-name="Group 14109" transform="translate(12.78 85.684)">
        <g id="Group_14108" data-name="Group 14108">
          <path id="Path_21569" data-name="Path 21569" d="M263.116,328.35s-5.8,9.223-5.379,17.567-2.109,17.449-2.977,26.156c-.973,9.715-4.957,32.707-5.1,37.9s.621,21.785.621,21.785l7.969.188s6.691-40.2,8.426-44.3S277,354.307,277.3,351.026,263.116,328.35,263.116,328.35Z" transform="translate(-249.645 -328.35)" fill="#02093b"/>
        </g>
      </g>
      <g id="Group_14111" data-name="Group 14111" transform="translate(23.942 84.462)">
        <g id="Group_14110" data-name="Group 14110">
          <path id="Path_21570" data-name="Path 21570" d="M292.651,330.146s4.371,22.864,4.957,27.961.961,24.7,1.254,27.891,2.7,41.649,3.469,46.489H292.147s-7.816-28.032-7.816-41.3-6.035-28.828-9.938-37.582-12.82-8.953-15.223-25.2C259.158,328.424,289.4,325,292.651,330.146Z" transform="translate(-259.17 -327.308)" fill="#02093b"/>
        </g>
      </g>
      <g id="Group_14113" data-name="Group 14113" transform="translate(31.298 5.834)">
        <g id="Group_14112" data-name="Group 14112">
          <path id="Path_21571" data-name="Path 21571" d="M270.326,260.924s7.793-2.906,11.391,3.023,3.246,17.813-.68,19.278-9.832.7-11.848-3.012-3.832-9.082-3.738-12.668S268.286,261.956,270.326,260.924Z" transform="translate(-265.447 -260.212)" fill="#eea886"/>
        </g>
      </g>
      <g id="Group_14115" data-name="Group 14115" transform="translate(33.523 21.716)">
        <g id="Group_14114" data-name="Group 14114">
          <path id="Path_21572" data-name="Path 21572" d="M279.866,281.165a6.692,6.692,0,0,0,.211,3.141c.539,1.031-10.1,1.066-10.1,1.066a71.064,71.064,0,0,0-2.5-10.406C265.839,270.2,279.866,281.165,279.866,281.165Z" transform="translate(-267.346 -273.765)" fill="#eea886"/>
        </g>
      </g>
      <g id="Group_14117" data-name="Group 14117" transform="translate(30.625 0)">
        <g id="Group_14116" data-name="Group 14116">
          <path id="Path_21573" data-name="Path 21573" d="M267.87,278.538s.727.914,3.715.457c6.949-1.078,5.731-4.641,6.984-5.086a10.412,10.412,0,0,0,2.215-1.09l.5,1.9,1-.176s-1-6.5.176-8.531c1.91-3.27.07-8.438-3.539-10.617-1.934-1.16-1.453,4.359-6.926,5.449,0,0-7.406,1-7.113,6.234C265.151,271.284,266.229,276.44,267.87,278.538Z" transform="translate(-264.873 -255.234)" fill="#02093b"/>
        </g>
      </g>
      <g id="Group_14119" data-name="Group 14119" transform="translate(34.946 29.219)">
        <g id="Group_14118" data-name="Group 14118">
          <path id="Path_21574" data-name="Path 21574" d="M280.5,283.077s-.035-1.98-.926-2.168-9.914-1.055-11.016-.621V282.6S270.681,283.9,280.5,283.077Z" transform="translate(-268.56 -280.168)" fill="#e2d2ca"/>
        </g>
      </g>
      <g id="Group_14121" data-name="Group 14121" transform="translate(43.544 14.53)">
        <g id="Group_14120" data-name="Group 14120">
          <path id="Path_21575" data-name="Path 21575" d="M278.7,269.165c-.164-.7-1.957-2.719-2.648-.563s1.031,5.051,1.992,4.8S279.135,270.946,278.7,269.165Z" transform="translate(-275.897 -267.633)" fill="#eea886"/>
        </g>
      </g>
      <g id="Group_14123" data-name="Group 14123" transform="translate(29.81 7.237)">
        <g id="Group_14122" data-name="Group 14122">
          <path id="Path_21576" data-name="Path 21576" d="M269.173,261.41s-10.43,2.543-1.148,15.668Z" transform="translate(-264.177 -261.41)" fill="#02093b"/>
        </g>
      </g>
      <g id="Group_14125" data-name="Group 14125" transform="translate(18.141 31.624)">
        <g id="Group_14124" data-name="Group 14124">
          <path id="Path_21577" data-name="Path 21577" d="M294.357,303.466a.67.67,0,0,1-.855-.6c-.34-5.918.8-11.6,2.109-17.367-5.332-1.465-12.633-2.789-12.633-2.789l-11.942-.492s-10.957,2.414-15.281,4.359c-.41.188-.41,9.774-1.535,12.293l3.574,7.547s2.063,14.953,2.5,21.61c.2,3.059-4.266,28.641-4.266,28.641a82.8,82.8,0,0,0,12.938,2.309c8.156.9,28.524-.328,28.641-1.289s-3.949-35.848-4.125-37.653C293.232,317.7,294.088,306.736,294.357,303.466Z" transform="translate(-254.22 -282.22)" fill="#030e59"/>
        </g>
      </g>
      <path id="Path_21578" data-name="Path 21578" d="M330.993,298.593a2.125,2.125,0,0,0-.949-1.629,3.451,3.451,0,0,0-1.23-1.441.686.686,0,0,0-.023-.152c.891-.516,3.27-1.289,3.457-1.512.234-.27.211-.316-.105-.633-.27-.27-4.09.844-5.379,1.23a4.819,4.819,0,0,0-.621.2,9.183,9.183,0,0,0-1.687.539,1.7,1.7,0,0,0-.223.141c-.738.516-3.621,5.566-3.621,5.566l1.922,1.676,1.594,2.473s3.129-1.313,3.973-1.781a6.767,6.767,0,0,0,1.641-1.395,2.717,2.717,0,0,1,.3-.246c.41-.3,1.008-.7,1.008-.7a3.443,3.443,0,0,0,.668-.961C331.883,299.3,330.993,298.593,330.993,298.593Z" transform="translate(-224.668 -248.711)" fill="#efaa88"/>
      <path id="Path_21579" data-name="Path 21579" d="M325.5,300.2l-16.875,12.176s-15.633-26.426-18.211-27.258c-6.668-2.156-6.715,15.106-2.18,19.406a.532.532,0,0,1,.152.574l15.024,17.52,1.98,2.309a2.194,2.194,0,0,0,3.059.258l2.027-1.687,20.11-16.735Z" transform="translate(-230.775 -250.129)" fill="#030e59"/>
    </g>
    <text id="_2020" data-name="2020" transform="translate(1263.746 468.179)" fill="#e2eaff" font-size="49" font-family="Roboto-Black, Roboto" font-weight="800"><tspan x="0" y="0">2020</tspan></text>
    <g id="Group_14139" data-name="Group 14139" transform="translate(1410.966 426.061)">
      <g id="Group_14077" data-name="Group 14077" transform="translate(8.349 9.772)">
        <path id="Path_21552" data-name="Path 21552" d="M590.462,239a41.692,41.692,0,1,1,41.692-41.692A41.689,41.689,0,0,1,590.462,239Z" transform="translate(-548.77 -155.62)" fill="#ccc"/>
      </g>
      <g id="Group_14078" data-name="Group 14078" transform="translate(8.349 8.36)">
        <path id="Path_21553" data-name="Path 21553" d="M632.154,196.012a41.692,41.692,0,1,1-41.692-41.692A41.689,41.689,0,0,1,632.154,196.012Z" transform="translate(-548.77 -154.32)" fill="#ccc"/>
      </g>
      <g id="Group_14079" data-name="Group 14079" transform="translate(8.512 10.716)">
        <path id="Path_21554" data-name="Path 21554" d="M632.3,197.585c0,22.692-18.664,41.095-41.692,41.095s-41.692-18.4-41.692-41.095,18.664-41.095,41.692-41.095S632.3,174.882,632.3,197.585Z" transform="translate(-548.92 -156.49)" fill="#fff"/>
      </g>
      <g id="Group_14080" data-name="Group 14080" transform="translate(49.075 11.053)">
        <path id="Path_21555" data-name="Path 21555" d="M587.246,166.68a.968.968,0,0,1-.966-.966v-7.948a.966.966,0,0,1,1.933,0v7.948A.968.968,0,0,1,587.246,166.68Z" transform="translate(-586.28 -156.8)" fill="#030e59"/>
      </g>
      <g id="Group_14081" data-name="Group 14081" transform="translate(49.075 80.398)">
        <path id="Path_21556" data-name="Path 21556" d="M587.246,230.55a.968.968,0,0,1-.966-.966v-7.948a.966.966,0,0,1,1.933,0v7.948A.968.968,0,0,1,587.246,230.55Z" transform="translate(-586.28 -220.67)" fill="#030e59"/>
      </g>
      <g id="Group_14082" data-name="Group 14082" transform="translate(30.135 16.874)">
        <rect id="Rectangle_4072" data-name="Rectangle 4072" width="1.292" height="7.948" transform="matrix(0.866, -0.5, 0.5, 0.866, 0, 0.646)" fill="#030e59"/>
      </g>
      <g id="Group_14083" data-name="Group 14083" transform="translate(64.811 76.909)">
        <rect id="Rectangle_4073" data-name="Rectangle 4073" width="1.292" height="7.948" transform="matrix(0.866, -0.5, 0.5, 0.866, 0, 0.646)" fill="#030e59"/>
      </g>
      <g id="Group_14084" data-name="Group 14084" transform="translate(16.252 30.77)">
        <rect id="Rectangle_4074" data-name="Rectangle 4074" width="1.292" height="7.948" transform="matrix(0.5, -0.866, 0.866, 0.5, 0, 1.119)" fill="#030e59"/>
      </g>
      <g id="Group_14085" data-name="Group 14085" transform="translate(76.292 65.463)">
        <rect id="Rectangle_4075" data-name="Rectangle 4075" width="1.292" height="7.948" transform="matrix(0.5, -0.866, 0.866, 0.5, 0, 1.119)" fill="#030e59"/>
      </g>
      <g id="Group_14086" data-name="Group 14086" transform="translate(10.423 49.694)">
        <path id="Path_21557" data-name="Path 21557" d="M559.594,194.323h-7.948a.966.966,0,1,1,0-1.933h7.948a.966.966,0,1,1,0,1.933Z" transform="translate(-550.68 -192.39)" fill="#030e59"/>
      </g>
      <g id="Group_14087" data-name="Group 14087" transform="translate(79.769 49.705)">
        <path id="Path_21558" data-name="Path 21558" d="M623.464,194.333h-7.948a.966.966,0,1,1,0-1.933h7.948a.966.966,0,0,1,0,1.933Z" transform="translate(-614.55 -192.4)" fill="#030e59"/>
      </g>
      <g id="Group_14088" data-name="Group 14088" transform="translate(16.25 65.467)">
        <rect id="Rectangle_4076" data-name="Rectangle 4076" width="7.948" height="1.292" transform="translate(0 3.971) rotate(-29.98)" fill="#030e59"/>
      </g>
      <g id="Group_14089" data-name="Group 14089" transform="translate(76.324 30.807)">
        <rect id="Rectangle_4077" data-name="Rectangle 4077" width="7.948" height="1.292" transform="matrix(0.866, -0.5, 0.5, 0.866, 0, 3.975)" fill="#030e59"/>
      </g>
      <g id="Group_14090" data-name="Group 14090" transform="translate(30.153 76.916)">
        <rect id="Rectangle_4078" data-name="Rectangle 4078" width="7.948" height="1.292" transform="translate(0 6.881) rotate(-59.974)" fill="#030e59"/>
      </g>
      <g id="Group_14091" data-name="Group 14091" transform="translate(64.814 16.862)">
        <rect id="Rectangle_4079" data-name="Rectangle 4079" width="7.948" height="1.292" transform="translate(0 6.884) rotate(-60.02)" fill="#030e59"/>
      </g>
      <g id="Group_14092" data-name="Group 14092" transform="translate(49.509 25.895)">
        <path id="Path_21559" data-name="Path 21559" d="M587.505,197.809a.959.959,0,0,1-.185.022.644.644,0,0,1-.641-.651l.228-26.068a.646.646,0,0,1,1.292.011l-.228,26.068A.655.655,0,0,1,587.505,197.809Z" transform="translate(-586.68 -170.47)" fill="#02093b"/>
      </g>
      <g id="Group_14093" data-name="Group 14093" transform="translate(50.552 49.151)">
        <path id="Path_21560" data-name="Path 21560" d="M604.784,194.246a1.33,1.33,0,0,1-.706.228l-15.124.25a1.292,1.292,0,0,1-.044-2.584l15.124-.25a1.289,1.289,0,0,1,1.314,1.27A1.313,1.313,0,0,1,604.784,194.246Z" transform="translate(-587.64 -191.89)" fill="#02093b"/>
      </g>
      <g id="Group_14094" data-name="Group 14094" transform="translate(46.122 46.133)">
        <path id="Path_21561" data-name="Path 21561" d="M591.4,193.029a3.919,3.919,0,1,1-3.919-3.919A3.925,3.925,0,0,1,591.4,193.029Z" transform="translate(-583.56 -189.11)" fill="#02093b"/>
      </g>
      <g id="Group_14095" data-name="Group 14095" transform="translate(0)">
        <path id="Path_21562" data-name="Path 21562" d="M591.121,146.62a50.041,50.041,0,1,0,50.052,50.041A50.041,50.041,0,0,0,591.121,146.62Zm0,91.744a41.692,41.692,0,1,1,41.692-41.692A41.689,41.689,0,0,1,591.121,238.364Z" transform="translate(-541.08 -146.62)" fill="#2e3393"/>
      </g>
    </g>
  </g>
</svg>
