<svg xmlns="http://www.w3.org/2000/svg" width="48" height="48" viewBox="0 0 48 48">
  <g id="Group_10193" data-name="Group 10193" transform="translate(-753 -102)">
    <circle id="Ellipse_965" data-name="Ellipse 965" cx="24" cy="24" r="24" transform="translate(753 102)" fill="#e8e9fd"/>
    <g id="Group_10138" data-name="Group 10138" transform="translate(5100.147 3519.497)">
      <g id="Group_10023" data-name="Group 10023" transform="translate(-4338.147 -3402.497)">
        <g id="Group_1558" data-name="Group 1558" transform="translate(0 0)">
          <g id="diagnostic" transform="translate(0 0)">
            <g id="Group_1546" data-name="Group 1546" transform="translate(1.744 0)">
              <path id="Path_2541" data-name="Path 2541" d="M130.245,85.5h19.8v17.255h-19.8Z" transform="translate(-130.245 -85.5)" fill="#fff"/>
            </g>
            <g id="Group_1547" data-name="Group 1547" transform="translate(11.629 0)">
              <path id="Path_2542" data-name="Path 2542" d="M255.844,85.5h9.911v17.255h-9.911Z" transform="translate(-255.844 -85.5)" fill="#e9edf5"/>
            </g>
            <g id="Group_1548" data-name="Group 1548" transform="translate(3.636 2.91)">
              <path id="Path_2543" data-name="Path 2543" d="M154.285,122.434H170.3v2.423H154.285Z" transform="translate(-154.285 -122.434)" fill="#dce1eb"/>
            </g>
            <g id="Group_1549" data-name="Group 1549" transform="translate(11.629 2.91)">
              <path id="Path_2544" data-name="Path 2544" d="M255.844,122.434h8.018v2.423h-8.018Z" transform="translate(-255.844 -122.434)" fill="#bec3d2"/>
            </g>
            <g id="Group_1550" data-name="Group 1550" transform="translate(3.636 7.013)">
              <path id="Path_2545" data-name="Path 2545" d="M154.285,174.561H170.3v2.423H154.285Z" transform="translate(-154.285 -174.561)" fill="#dce1eb"/>
            </g>
            <g id="Group_1551" data-name="Group 1551" transform="translate(11.629 7.013)">
              <path id="Path_2546" data-name="Path 2546" d="M255.844,174.561h8.018v2.423h-8.018Z" transform="translate(-255.844 -174.561)" fill="#bec3d2"/>
            </g>
            <g id="Group_1552" data-name="Group 1552" transform="translate(0 7.975)">
              <path id="Path_2547" data-name="Path 2547" d="M131.374,205.366H108.091V186.8H116l1.846,3h13.524Z" transform="translate(-108.091 -186.8)" fill="#777cd1"/>
            </g>
            <g id="Group_1553" data-name="Group 1553" transform="translate(11.629 10.976)">
              <path id="Path_2548" data-name="Path 2548" d="M255.844,224.919H267.5v15.564H255.844Z" transform="translate(-255.844 -224.919)" fill="#555ab9"/>
            </g>
            <g id="Group_1554" data-name="Group 1554" transform="translate(6.113 13.423)">
              <circle id="Ellipse_40" data-name="Ellipse 40" cx="5.528" cy="5.528" r="5.528" transform="translate(0 0)" fill="#fff"/>
            </g>
            <g id="Group_1555" data-name="Group 1555" transform="translate(11.629 13.422)">
              <path id="Path_2549" data-name="Path 2549" d="M255.856,256h-.012v11.055h.012a5.528,5.528,0,0,0,0-11.056Z" transform="translate(-255.844 -255.999)" fill="#e9edf5"/>
            </g>
            <g id="Group_1556" data-name="Group 1556" transform="translate(7.979 15.288)">
              <path id="Path_2550" data-name="Path 2550" d="M216.788,282.081h-2.382V279.7h-2.562v2.382h-2.382v2.562h2.382v2.382h2.562v-2.382h2.382Z" transform="translate(-209.462 -279.7)" fill="#30c9dd"/>
            </g>
            <g id="Group_1557" data-name="Group 1557" transform="translate(11.629 15.288)">
              <path id="Path_2551" data-name="Path 2551" d="M257.137,282.081V279.7h-1.293v7.326h1.293v-2.382h2.382v-2.562Z" transform="translate(-255.844 -279.7)" fill="#00b6cd"/>
            </g>
          </g>
          <path id="Path_2552" data-name="Path 2552" d="M24.753,249.344l1.582.316a4.151,4.151,0,1,1-.712,1.147Z" transform="translate(-4.457 -232.67)" fill="#00b6cd"/>
          <g id="blood" transform="translate(22.885 17.55)">
            <path id="Path_2524" data-name="Path 2524" d="M373.589,64.218a1.089,1.089,0,0,1-1.089,1.089V62.06l.848,1.332A1.535,1.535,0,0,1,373.589,64.218Z" transform="translate(-369.281 -61.497)" fill="#e9edf5"/>
            <path id="Path_2525" data-name="Path 2525" d="M253.589,62.06v3.246a1.089,1.089,0,0,1-1.089-1.089,1.535,1.535,0,0,1,.24-.825Z" transform="translate(-250.369 -61.497)" fill="#e9edf5"/>
            <path id="Path_2526" data-name="Path 2526" d="M108.316,75v.816l-.677.178h0L107.5,75Z" transform="translate(-106.684 -74.32)" fill="#e9edf5" opacity="0.817"/>
            <path id="Path_2527" data-name="Path 2527" d="M48.18,75v.993l-.68-.177V75Z" transform="translate(-47.228 -74.32)" fill="#e9edf5"/>
            <path id="Path_2528" data-name="Path 2528" d="M108.317,330.136v.816a.681.681,0,0,1-.68.68l-.136-1.627.163-.005Z" transform="translate(-106.684 -327.007)" fill="#e9edf5" opacity="0.817"/>
            <path id="Path_2529" data-name="Path 2529" d="M48.18,330.56v1.626a.681.681,0,0,1-.68-.68v-.815Z" transform="translate(-47.228 -327.562)" fill="#e9edf5"/>
            <path id="Path_2530" data-name="Path 2530" d="M48.183,166.632H47.5V165h.683l.134.825Z" transform="translate(-47.228 -163.504)" fill="#6ad4e2"/>
            <path id="Path_2531" data-name="Path 2531" d="M122.8,165h.683v1.632H122.8Z" transform="translate(-121.847 -163.504)" fill="#6ad4e2"/>
            <path id="Path_2534" data-name="Path 2534" d="M372.908,250.272v.272h-.272v.272H372.5V250h.136v.272Z" transform="translate(-369.281 -247.733)" fill="#00b6cd"/>
            <path id="Path_2535" data-name="Path 2535" d="M327.908,250v.816h-.136v-.272H327.5v-.272h.272V250Z" transform="translate(-324.688 -247.733)" fill="#00b6cd"/>
            <path id="Path_2536" data-name="Path 2536" d="M17.5,0h.635V.816H17.5Z" transform="translate(-17.5)" fill="#e9edf5" opacity="0.999"/>
            <path id="Path_2537" data-name="Path 2537" d="M87.5,0h.32V.816H87.5Z" transform="translate(-86.865)" fill="#e9edf5" opacity="0.999"/>
            <path id="Path_2538" data-name="Path 2538" d="M122.5,0h.32V.816h-.32Z" transform="translate(-121.548)" fill="#e9edf5" opacity="0.999"/>
            <path id="Path_2539" data-name="Path 2539" d="M157.5,0h.635V.816H157.5Z" transform="translate(-156.231)" fill="#e9edf5" opacity="0.999"/>
          </g>
        </g>
      </g>
    </g>
  </g>
</svg>
