<svg xmlns="http://www.w3.org/2000/svg" width="48" height="48" viewBox="0 0 48 48">
  <g id="Group_10212" data-name="Group 10212" transform="translate(-167 -102)">
    <circle id="Ellipse_964" data-name="Ellipse 964" cx="24" cy="24" r="24" transform="translate(167 102)" fill="#e8e9fd"/>
    <g id="Group_10133" data-name="Group 10133" transform="translate(4224 4289)">
      <g id="Group_10050" data-name="Group 10050" transform="translate(-4045.531 -4178.531)">
        <path id="Path_21520" data-name="Path 21520" d="M57.25,9.511V36.559l9.659,1.007,8.935-1.007V9.511A2.017,2.017,0,0,0,73.834,7.5H70.49L66.548,9.628,62.6,7.5H59.26a2.017,2.017,0,0,0-2.01,2.011Z" transform="translate(-57.25 -7.5)" fill="#eff6ff" fill-rule="evenodd"/>
      </g>
      <g id="Group_10051" data-name="Group 10051" transform="translate(-4040.177 -4178.531)">
        <path id="Path_21521" data-name="Path 21521" d="M142.884,7.5V8.831a.8.8,0,0,0,.8.8h6.292a.8.8,0,0,0,.8-.8V7.5Z" transform="translate(-142.884 -7.5)" fill="#7e707d" fill-rule="evenodd"/>
      </g>
      <g id="Group_10053" data-name="Group 10053" transform="translate(-4045.531 -4149.473)">
        <path id="Path_21523" data-name="Path 21523" d="M57.25,472.3a2.018,2.018,0,0,0,2.01,2.013H73.834a2.018,2.018,0,0,0,2.01-2.013Z" transform="translate(-57.25 -472.298)" fill="#7e707d" fill-rule="evenodd"/>
      </g>
      <g id="Group_10054" data-name="Group 10054" transform="translate(-4031.044 -4178.531)">
        <path id="Path_21524" data-name="Path 21524" d="M290.98,9.511v6.972a2.71,2.71,0,0,1,.3-.016h1.8V9.511a2.017,2.017,0,0,0-2.01-2.011h-2.1a2.017,2.017,0,0,1,2.01,2.011Z" transform="translate(-288.97 -7.5)" fill="#d9eeff" fill-rule="evenodd"/>
      </g>
      <g id="Group_10055" data-name="Group 10055" transform="translate(-4029.034 -4158.47)">
        <path id="Path_21525" data-name="Path 21525" d="M321.122,328.566v8.815h2.1v-9h-1.782Z" transform="translate(-321.122 -328.383)" fill="#d9eeff" fill-rule="evenodd"/>
      </g>
      <g id="Group_10056" data-name="Group 10056" transform="translate(-4031.044 -4149.473)">
        <path id="Path_21526" data-name="Path 21526" d="M290.98,472.3a2.018,2.018,0,0,1-2.01,2.013h2.1a2.018,2.018,0,0,0,2.01-2.013Z" transform="translate(-288.97 -472.298)" fill="#6a5c69" fill-rule="evenodd"/>
      </g>
      <g id="Group_10058" data-name="Group 10058" transform="translate(-4035.1 -4178.531)">
        <path id="Path_21528" data-name="Path 21528" d="M224.9,8.831a.8.8,0,0,1-.8.8h2.012a.8.8,0,0,0,.8-.8V7.5H224.9V8.831Z" transform="translate(-224.1 -7.5)" fill="#6a5c69" fill-rule="evenodd"/>
      </g>
      <g id="Group_10059" data-name="Group 10059" transform="translate(-4040.576 -4172.135)">
        <path id="Path_21529" data-name="Path 21529" d="M144.6,110.752h-7.592a.482.482,0,0,1-.488-.455.469.469,0,0,1,.469-.483h7.592a.482.482,0,0,1,.488.455A.469.469,0,0,1,144.6,110.752Z" transform="translate(-136.518 -109.814)" fill="#7e707d"/>
      </g>
      <g id="Group_10060" data-name="Group 10060" transform="translate(-4039.495 -4174.334)">
        <path id="Path_21530" data-name="Path 21530" d="M159.718,75.575h-5.433a.482.482,0,0,1-.488-.455.469.469,0,0,1,.469-.483H159.7a.482.482,0,0,1,.488.455A.469.469,0,0,1,159.718,75.575Z" transform="translate(-153.797 -74.637)" fill="#7e707d"/>
      </g>
      <path id="Path_21531" data-name="Path 21531" d="M68.827,9.9a.482.482,0,0,0,.454-.488V2.48A2.482,2.482,0,0,0,66.8,0H52.229A2.482,2.482,0,0,0,49.75,2.48V29.528a2.483,2.483,0,0,0,2.479,2.482H66.8a2.483,2.483,0,0,0,2.479-2.482V20.55a.482.482,0,0,0-.454-.488.469.469,0,0,0-.483.469v9A1.545,1.545,0,0,1,66.8,31.072H52.229a1.545,1.545,0,0,1-1.541-1.544V2.48A1.544,1.544,0,0,1,52.229.938H66.8A1.544,1.544,0,0,1,68.344,2.48V9.436a.469.469,0,0,0,.483.469Z" transform="translate(-4095.75 -4179)" fill="#7e707d"/>
      <g id="Group_10061" data-name="Group 10061" transform="translate(-4031.297 -4169.563)">
        <path id="Path_21532" data-name="Path 21532" d="M284.919,159.467a2.559,2.559,0,0,0,.8,1.852l-.106,1.463a.188.188,0,0,0,.281.176l1.608-.93h5.951a2.567,2.567,0,0,0,2.557-2.561v-5.974a2.566,2.566,0,0,0-2.557-2.559h-5.97a2.567,2.567,0,0,0-2.559,2.559Z" transform="translate(-284.919 -150.934)" fill="#fde588" fill-rule="evenodd"/>
      </g>
      <g id="Group_10062" data-name="Group 10062" transform="translate(-4028.354 -4166.716)">
        <path id="Path_21533" data-name="Path 21533" d="M332,198.172V200a.321.321,0,0,0,.321.321h1.045v1.046a.321.321,0,0,0,.322.321h1.826a.322.322,0,0,0,.321-.321V200.32h1.045a.322.322,0,0,0,.32-.321v-1.827a.322.322,0,0,0-.32-.321h-1.045v-1.046a.322.322,0,0,0-.321-.321h-1.826a.321.321,0,0,0-.322.321v1.046h-1.043A.322.322,0,0,0,332,198.172Z" transform="translate(-332 -196.485)" fill="#fe8d94" fill-rule="evenodd"/>
      </g>
      <g id="Group_10063" data-name="Group 10063" transform="translate(-4024.488 -4169.563)">
        <path id="Path_21534" data-name="Path 21534" d="M396.4,153.493v5.974a2.567,2.567,0,0,1-2.557,2.561h1.72a2.566,2.566,0,0,0,2.557-2.561v-5.974a2.566,2.566,0,0,0-2.557-2.559h-1.72A2.566,2.566,0,0,1,396.4,153.493Z" transform="translate(-393.839 -150.934)" fill="#fdd76f" fill-rule="evenodd"/>
      </g>
      <g id="_006-doctor" data-name="006-doctor" transform="translate(-4043.963 -4165.927)">
        <path id="Path_676" data-name="Path 676" d="M15,348.077v2.256H0v-2.256a1.448,1.448,0,0,1,.922-1.35l3.163-1.244L6.553,348.2l.775-1.578v0l.172-.353.175.353L8.45,348.2l2.465-2.713,3.166,1.244a1.453,1.453,0,0,1,.918,1.35" transform="translate(0 -335.39)" fill="#f2f2f2"/>
        <path id="Path_677" data-name="Path 677" d="M184.751,286.658h0v-1.284a6.948,6.948,0,0,1-.576.754l-.306.338a1.5,1.5,0,0,1-1.1.484h-.469a1.5,1.5,0,0,1-1.1-.484l-.306-.338a6.769,6.769,0,0,1-.582-.762v1.29l.005,0,1.928,1.088.284.159.285-.159Z" transform="translate(-175.038 -277.034)" fill="#f8b64c"/>
        <g id="Group_87" data-name="Group 87" transform="translate(6.683 8.346)" opacity="0.1">
          <g id="Group_86" data-name="Group 86">
            <path id="Path_678" data-name="Path 678" d="M228.154,287.321l-.005,0-.01,0-.011,0,1.178.875,1.851-1.044h0v-1.278s-.439.576-.576.747l-.306.338a1.5,1.5,0,0,1-1.1.485h-.469a1.328,1.328,0,0,1-.278-.03,1.465,1.465,0,0,1-.28-.084" transform="translate(-228.128 -285.866)" fill="#40596b"/>
          </g>
        </g>
        <g id="Group_88" data-name="Group 88" transform="translate(3.907 4.766)">
          <path id="Path_679" data-name="Path 679" d="M134.764,164.6c.049.561-.223,1.043-.608,1.076s-.737-.394-.786-.955.223-1.042.608-1.076.737.394.786.955" transform="translate(-133.364 -163.648)" fill="#f8b64c"/>
          <path id="Path_680" data-name="Path 680" d="M332.176,164.738c-.049.561-.4.988-.786.955s-.658-.515-.608-1.076.4-.989.786-.955.657.515.608,1.076" transform="translate(-324.993 -163.659)" fill="#f8b64c"/>
        </g>
        <path id="Path_681" data-name="Path 681" d="M151.933,32.363a6.131,6.131,0,0,1-1.55,3.368l-.306.338a1.5,1.5,0,0,1-1.1.485h-.469a1.494,1.494,0,0,1-1.1-.485l-.306-.338a6.157,6.157,0,0,1-1.55-3.368,12.128,12.128,0,0,1,0-2.25,3.231,3.231,0,0,1,6.375,0,12.114,12.114,0,0,1,0,2.25" transform="translate(-141.244 -26.638)" fill="#ffd15c"/>
        <path id="Path_682" data-name="Path 682" d="M127.36,2.535s.022-2.1,3.081-1.432a5.3,5.3,0,0,1,2.494,1.887,2.9,2.9,0,0,1,.418,2.45,2.7,2.7,0,0,0-.316,1.113s-.17-.709-.271-1.3a2.767,2.767,0,0,0-.625-1.339l-.01-.012a2.142,2.142,0,0,0-2.143-.7,3.847,3.847,0,0,0-1.268.619,1.224,1.224,0,0,0-1.9.642,8.048,8.048,0,0,0-.241,1.959s-1.754-3.673.784-3.89" transform="translate(-122.295 -0.97)" fill="#40596b"/>
        <path id="Path_683" data-name="Path 683" d="M328.711,324a2.619,2.619,0,0,0-.119-.737,1.121,1.121,0,0,0-.837-.609l-1.007-.2v.206h0l-.144.082,1.1.225a.8.8,0,0,1,.606.441.788.788,0,0,1,.085.481l-.007.081a5.884,5.884,0,0,0-1.712,2.228.8.8,0,0,0,.016.7.482.482,0,0,0,.347.215l.031-.312a.18.18,0,0,1-.119-.078.54.54,0,0,1,.022-.422,4.638,4.638,0,0,1,.75-1.2.67.67,0,0,1,.884.262,4.761,4.761,0,0,1-.078,1.438c-.06.194-.141.322-.231.356a.152.152,0,0,1-.138-.006l-.078.137-.081.135a.471.471,0,0,0,.238.063.427.427,0,0,0,.169-.034.8.8,0,0,0,.425-.559,6.187,6.187,0,0,0-.122-2.885m-.415.809a.919.919,0,0,0-.288-.037c.135-.147.284-.3.454-.45.047.219.081.428.106.625a.928.928,0,0,0-.272-.138" transform="translate(-317.033 -313.035)" fill="#acb3ba"/>
        <g id="Group_89" data-name="Group 89" transform="translate(9.948 13.703)">
          <path id="Path_684" data-name="Path 684" d="M339.9,468.976a.233.233,0,0,1-.273.183c-.125-.025-.036-.48.09-.455a.232.232,0,0,1,.183.272" transform="translate(-339.564 -468.703)" fill="#3198f7"/>
          <path id="Path_685" data-name="Path 685" d="M367.526,478.88a.232.232,0,0,0,.114.308c.117.053.31-.368.194-.422a.232.232,0,0,0-.308.115" transform="translate(-366.686 -478.45)" fill="#3198f7"/>
        </g>
        <path id="Path_686" data-name="Path 686" d="M93.738,322.649l-.005,0v-.2l-.676.139a2.425,2.425,0,0,0-1.732,3.35l.286-.126a2.112,2.112,0,0,1,1.508-2.918l.763-.157Z" transform="translate(-88.451 -313.025)" fill="#acb3ba"/>
        <g id="Group_90" data-name="Group 90" transform="translate(4.084 9.621)">
          <path id="Path_687" data-name="Path 687" d="M259.415,329.848l-2.306,3.025L256,330.626l.284-.159,1.928-1.087h0l0,0Z" transform="translate(-252.584 -329.376)" fill="#7ea5d0"/>
          <path id="Path_688" data-name="Path 688" d="M139.413,329.848l2.31,3.025,1.106-2.247-.284-.159-1.928-1.087-.006,0Z" transform="translate(-139.413 -329.376)" fill="#7ea5d0"/>
        </g>
        <path id="Path_689" data-name="Path 689" d="M218.251,376.115l.631-1.438-.272-.4-.2-.3.774-1.581.172-.353.175.353v0l.775,1.578-.2.3-.272.4.635,1.438Z" transform="translate(-211.857 -361.172)" fill="#334a5e"/>
        <path id="Path_690" data-name="Path 690" d="M225.588,373.977l-.2.3-.744-1.522-.75,1.525-.2-.3.774-1.581.172-.353.175.353v0Z" transform="translate(-217.138 -361.172)" fill="#2a4356"/>
        <path id="Path_691" data-name="Path 691" d="M88.2,434.809a.708.708,0,1,1-.708-.708.709.709,0,0,1,.708.708" transform="translate(-84.242 -421.413)" fill="#3198f7"/>
        <path id="Path_692" data-name="Path 692" d="M95.661,442.5a.475.475,0,1,1-.475-.475.475.475,0,0,1,.475.475" transform="translate(-91.935 -429.106)" fill="#f2f2f2"/>
        <path id="Path_693" data-name="Path 693" d="M100.24,447.223a.333.333,0,1,1-.333-.333.333.333,0,0,1,.333.333" transform="translate(-96.657 -433.827)" fill="#acb3ba"/>
      </g>
    </g>
  </g>
</svg>
