<svg id="Page-1" xmlns="http://www.w3.org/2000/svg" width="151" height="62" viewBox="0 0 151 62">
  <g id="Group-12">
    <rect id="Rectangle" width="151" height="62" rx="12" fill="#dbdbdb"/>
    <g id="Group-3-Copy-7" transform="translate(105 13)">
      <path id="Path" d="M29,5.625c0,3.093-2.9,5.625-6.444,5.625H10.472L7.25,6.16l.29-.534L10.472,0H22.556C26.1,0,29,2.531,29,5.625Z" fill="#eee3e3"/>
      <path id="Combined-Shape" d="M6.439,12C2.89,12-.183,9.448.008,6.039l7.521-.02L7.54,6H29c0,3.653-2.9,6-6.444,6H6.439Z" fill="#6c7167"/>
      <path id="Path-2" data-name="Path" d="M29,5.25c0,3.653-2.9,6-6.444,6H10.472L7.25,5.82l.29-.57Z" fill="#ced7c3"/>
      <path id="Path-3" data-name="Path" d="M15.306,0V11.25H6.444C2.9,11.25,0,8.719,0,5.625S2.9,0,6.444,0Z" fill="#e99807"/>
      <path id="Path-4" data-name="Path" d="M15.306,5.25v6H6.439C2.89,11.25-.183,8.7.008,5.289Z" fill="#bc7901"/>
    </g>
    <g id="Group-3-Copy-10" transform="translate(105 37)">
      <path id="Path-5" data-name="Path" d="M29,5.625c0,3.093-2.9,5.625-6.444,5.625H10.472L7.25,6.16l.29-.534L10.472,0H22.556C26.1,0,29,2.531,29,5.625Z" fill="#eee3e3"/>
      <path id="Combined-Shape-2" data-name="Combined-Shape" d="M6.439,12C2.89,12-.183,9.448.008,6.039l7.521-.02L7.54,6H29c0,3.653-2.9,6-6.444,6H6.439Z" fill="#6c7167"/>
      <path id="Path-6" data-name="Path" d="M29,5.25c0,3.653-2.9,6-6.444,6H10.472L7.25,5.82l.29-.57Z" fill="#ced7c3"/>
      <path id="Path-7" data-name="Path" d="M15.306,0V11.25H6.444C2.9,11.25,0,8.719,0,5.625S2.9,0,6.444,0Z" fill="#e99807"/>
      <path id="Path-8" data-name="Path" d="M15.306,5.25v6H6.439C2.89,11.25-.183,8.7.008,5.289Z" fill="#bc7901"/>
    </g>
    <g id="Group-3-Copy-8" transform="translate(61 13)">
      <path id="Path-9" data-name="Path" d="M29,5.625c0,3.093-2.9,5.625-6.444,5.625H10.472L7.25,6.16l.29-.534L10.472,0H22.556C26.1,0,29,2.531,29,5.625Z" fill="#eee3e3"/>
      <path id="Combined-Shape-3" data-name="Combined-Shape" d="M6.439,12C2.89,12-.183,9.448.008,6.039l7.521-.02L7.54,6H29c0,3.653-2.9,6-6.444,6H6.439Z" fill="#6c7167"/>
      <path id="Path-10" data-name="Path" d="M29,5.25c0,3.653-2.9,6-6.444,6H10.472L7.25,5.82l.29-.57Z" fill="#ced7c3"/>
      <path id="Path-11" data-name="Path" d="M15.306,0V11.25H6.444C2.9,11.25,0,8.719,0,5.625S2.9,0,6.444,0Z" fill="#e99807"/>
      <path id="Path-12" data-name="Path" d="M15.306,5.25v6H6.439C2.89,11.25-.183,8.7.008,5.289Z" fill="#bc7901"/>
    </g>
    <g id="Group-3-Copy-11" transform="translate(61 37)">
      <path id="Path-13" data-name="Path" d="M29,5.625c0,3.093-2.9,5.625-6.444,5.625H10.472L7.25,6.16l.29-.534L10.472,0H22.556C26.1,0,29,2.531,29,5.625Z" fill="#eee3e3"/>
      <path id="Combined-Shape-4" data-name="Combined-Shape" d="M6.439,12C2.89,12-.183,9.448.008,6.039l7.521-.02L7.54,6H29c0,3.653-2.9,6-6.444,6H6.439Z" fill="#6c7167"/>
      <path id="Path-14" data-name="Path" d="M29,5.25c0,3.653-2.9,6-6.444,6H10.472L7.25,5.82l.29-.57Z" fill="#ced7c3"/>
      <path id="Path-15" data-name="Path" d="M15.306,0V11.25H6.444C2.9,11.25,0,8.719,0,5.625S2.9,0,6.444,0Z" fill="#e99807"/>
      <path id="Path-16" data-name="Path" d="M15.306,5.25v6H6.439C2.89,11.25-.183,8.7.008,5.289Z" fill="#bc7901"/>
    </g>
    <g id="Group-3-Copy-9" transform="translate(17 13)">
      <path id="Path-17" data-name="Path" d="M29,5.625c0,3.093-2.9,5.625-6.444,5.625H10.472L7.25,6.16l.29-.534L10.472,0H22.556C26.1,0,29,2.531,29,5.625Z" fill="#eee3e3"/>
      <path id="Combined-Shape-5" data-name="Combined-Shape" d="M6.439,12C2.89,12-.183,9.448.008,6.039l7.521-.02L7.54,6H29c0,3.653-2.9,6-6.444,6H6.439Z" fill="#6c7167"/>
      <path id="Path-18" data-name="Path" d="M29,5.25c0,3.653-2.9,6-6.444,6H10.472L7.25,5.82l.29-.57Z" fill="#ced7c3"/>
      <path id="Path-19" data-name="Path" d="M15.306,0V11.25H6.444C2.9,11.25,0,8.719,0,5.625S2.9,0,6.444,0Z" fill="#e99807"/>
      <path id="Path-20" data-name="Path" d="M15.306,5.25v6H6.439C2.89,11.25-.183,8.7.008,5.289Z" fill="#bc7901"/>
    </g>
    <g id="Group-3-Copy-12" transform="translate(17 37)">
      <path id="Path-21" data-name="Path" d="M29,5.625c0,3.093-2.9,5.625-6.444,5.625H10.472L7.25,6.16l.29-.534L10.472,0H22.556C26.1,0,29,2.531,29,5.625Z" fill="#eee3e3"/>
      <path id="Combined-Shape-6" data-name="Combined-Shape" d="M6.439,12C2.89,12-.183,9.448.008,6.039l7.521-.02L7.54,6H29c0,3.653-2.9,6-6.444,6H6.439Z" fill="#6c7167"/>
      <path id="Path-22" data-name="Path" d="M29,5.25c0,3.653-2.9,6-6.444,6H10.472L7.25,5.82l.29-.57Z" fill="#ced7c3"/>
      <path id="Path-23" data-name="Path" d="M15.306,0V11.25H6.444C2.9,11.25,0,8.719,0,5.625S2.9,0,6.444,0Z" fill="#e99807"/>
      <path id="Path-24" data-name="Path" d="M15.306,5.25v6H6.439C2.89,11.25-.183,8.7.008,5.289Z" fill="#bc7901"/>
    </g>
  </g>
</svg>
