<svg xmlns="http://www.w3.org/2000/svg" xmlns:xlink="http://www.w3.org/1999/xlink" width="58.7" height="58.7" viewBox="0 0 58.7 58.7">
  <defs>
    <linearGradient id="linear-gradient" x1="0.099" y1="0.738" x2="0.933" y2="0.355" gradientUnits="objectBoundingBox">
      <stop offset="0" stop-color="#d8fbff"/>
      <stop offset="1" stop-color="#d3d4ff"/>
    </linearGradient>
  </defs>
  <g id="Group_10156" data-name="Group 10156" transform="translate(-358.824 -861.115)">
    <g id="Group_26" data-name="Group 26" transform="translate(358.824 861.115)">
      <path id="Path_2376" data-name="Path 2376" d="M29.35,0A29.35,29.35,0,1,1,0,29.35,29.35,29.35,0,0,1,29.35,0Z" transform="translate(0 0)" fill="url(#linear-gradient)"/>
    </g>
    <g id="Group_44" data-name="Group 44" transform="translate(2577 -5898)">
      <path id="Path_470" data-name="Path 470" d="M2,32H40.89V51.445H2Z" transform="translate(-2210 6754.873)" fill="#555ab9"/>
      <circle id="Ellipse_20" data-name="Ellipse 20" cx="7.5" cy="7.5" r="7.5" transform="translate(-2196 6789)" fill="#e2e7f6"/>
      <path id="Path_471" data-name="Path 471" d="M34.074,43.241H30.833V40H28.241v3.241H25v2.593h3.241v3.241h2.593V45.833h3.241Z" transform="translate(-2218.092 6752.058)" fill="#d23f34"/>
      <path id="Path_475" data-name="Path 475" d="M15.241,8a2.593,2.593,0,0,0,2.593,2.593h.648v1.944a3.241,3.241,0,1,1-6.482,0V10.593h.648A2.593,2.593,0,0,0,15.241,8Z" transform="translate(-2203.614 6763.316)" fill="#fddfb1"/>
      <path id="Path_476" data-name="Path 476" d="M17.667,9.889V9.241A4.524,4.524,0,0,0,16.305,6H9.955A4.523,4.523,0,0,0,8.593,9.241v.648A2.593,2.593,0,0,1,6,12.482a4.368,4.368,0,0,0,3.634,1.944H11.2a3.227,3.227,0,0,1-1.314-2.593V9.889h.648A2.593,2.593,0,0,0,13.13,7.3a2.593,2.593,0,0,0,2.593,2.593h.648v1.944a3.228,3.228,0,0,1-1.314,2.593h1.569a4.368,4.368,0,0,0,3.634-1.944A2.593,2.593,0,0,1,17.667,9.889Z" transform="translate(-2201.502 6764.021)" fill="#7b7b7b"/>
      <path id="Path_477" data-name="Path 477" d="M8,27.778V23.889A3.889,3.889,0,0,1,11.889,20h3.889a3.889,3.889,0,0,1,3.889,3.889v3.889Z" transform="translate(-2202.206 6759.095)" fill="#00b7ce"/>
      <g id="Group_42" data-name="Group 42" transform="translate(-2192.262 6782.335)">
        <path id="Path_478" data-name="Path 478" d="M11,25h1.3v4.537H11Z" transform="translate(-11 -25)" fill="#7aadf9"/>
      </g>
      <g id="Group_43" data-name="Group 43" transform="translate(-2185.78 6782.335)">
        <path id="Path_479" data-name="Path 479" d="M21,25h1.3v4.537H21Z" transform="translate(-21 -25)" fill="#7aadf9"/>
      </g>
      <path id="Path_480" data-name="Path 480" d="M14.017,22.593l1.3-1.3,1.3,1.3,1.812-2.415A3.879,3.879,0,0,0,17.257,20H13.368a3.878,3.878,0,0,0-1.163.178Z" transform="translate(-2203.685 6759.095)" fill="#7aadf9"/>
    </g>
  </g>
</svg>
