<svg id="Group" xmlns="http://www.w3.org/2000/svg" xmlns:xlink="http://www.w3.org/1999/xlink" width="168.781" height="57.781" viewBox="0 0 168.781 57.781">
  <defs>
    <clipPath id="clip-path">
      <rect id="_Background" data-name="◼️ Background" width="168.781" height="57.781" rx="6" fill="#1c1c1c"/>
    </clipPath>
  </defs>
  <rect id="_Background-2" data-name="◼️ Background" width="168.781" height="57.781" rx="6" fill="#1c1c1c"/>
  <g id="Group-2" data-name="Group" clip-path="url(#clip-path)">
    <path id="Logo" d="M132.915,33.872h-2.558l2.435-5.56-4.35-9.933H131l3.07,7.011,3.07-7.011h2.56l-6.786,15.491h0ZM70.269,30.728l2.045-.858a2.947,2.947,0,0,0,2.724,1.9,2.74,2.74,0,0,0,2.029-.782,3.035,3.035,0,0,0,.768-2.163V27.773a3.527,3.527,0,0,1-2.918,1.3A5.017,5.017,0,0,1,71.467,27.6a5.364,5.364,0,0,1-1.609-3.877A5.5,5.5,0,0,1,71.339,20a4.941,4.941,0,0,1,3.626-1.609,3.757,3.757,0,0,1,2.869,1.225v-.9h2.23v9.593a5.869,5.869,0,0,1-1.439,4.2,4.842,4.842,0,0,1-3.572,1.37A5.151,5.151,0,0,1,70.269,30.728Zm2.854-9.376A3.55,3.55,0,0,0,73.1,26.1a2.843,2.843,0,0,0,2.044.868,2.789,2.789,0,0,0,1.975-.835,3.331,3.331,0,0,0,.9-2.4,3.407,3.407,0,0,0-.9-2.4,2.728,2.728,0,0,0-1.947-.857A2.91,2.91,0,0,0,73.123,21.353Zm-59.98.154,3.474,3.482L1.962,33.036a2.461,2.461,0,0,1-.32.15ZM.109,31.852C.1,30.655.007,11.663,0,10.237A1.4,1.4,0,0,1,.592,8.932L12.64,21,.65,33.182A1.522,1.522,0,0,1,.109,31.852Zm31.468-5.361a8.149,8.149,0,0,1,.066-11.5,8.246,8.246,0,0,1,5.934-2.529A8.077,8.077,0,0,1,43.3,14.725l-1.578,1.639a5.813,5.813,0,0,0-4.059-1.634,6.084,6.084,0,0,0-4.17,10.384,6.114,6.114,0,0,0,7.682.62,4.615,4.615,0,0,0,1.858-3.45H37.642v-2.26h7.593v.005a7.094,7.094,0,0,1,.136,1.494A7.4,7.4,0,0,1,43.2,26.987a7.8,7.8,0,0,1-5.5,2.086A8.374,8.374,0,0,1,31.577,26.491ZM87.089,27.65a5.277,5.277,0,0,1-1.6-3.94,5.043,5.043,0,0,1,4.963-5.331A4.533,4.533,0,0,1,93.2,19.3a5.185,5.185,0,0,1,1.674,2.2l.37.871-7.134,2.97a2.754,2.754,0,0,0,2.61,1.617,2.956,2.956,0,0,0,2.606-1.47l1.839,1.228a5.359,5.359,0,0,1-4.457,2.343A5.224,5.224,0,0,1,87.089,27.65Zm1.372-6.192a2.718,2.718,0,0,0-.71,2.112l4.764-2a2.113,2.113,0,0,0-1.968-1.14A2.856,2.856,0,0,0,88.46,21.458Zm-28.876,6A5.411,5.411,0,0,1,58.1,23.681a5.265,5.265,0,0,1,5.349-5.294,5.544,5.544,0,0,1,3.63,1.352,5.147,5.147,0,0,1,1.708,4,5.371,5.371,0,0,1-9.2,3.714Zm.85-3.743a3.023,3.023,0,1,0,6.029.016,3.339,3.339,0,0,0-.918-2.374,2.93,2.93,0,0,0-2.067-.872A3.073,3.073,0,0,0,60.434,23.713ZM47.825,27.457a5.411,5.411,0,0,1-1.485-3.776,5.265,5.265,0,0,1,5.349-5.294,5.544,5.544,0,0,1,3.63,1.352,5.144,5.144,0,0,1,1.709,4,5.371,5.371,0,0,1-9.2,3.714Zm.85-3.743a3.023,3.023,0,1,0,6.029.016,3.34,3.34,0,0,0-.917-2.374,2.93,2.93,0,0,0-2.067-.872A3.073,3.073,0,0,0,48.675,23.713Zm70.1,4.2a3.93,3.93,0,0,1-.8-3.034,3.782,3.782,0,0,1,3.592-3.213c.207-.021.425-.031.646-.031a11.576,11.576,0,0,1,2.942.451,2.323,2.323,0,0,0-.944-1.668,3.2,3.2,0,0,0-4.569.945l-1.886-1.27a5.55,5.55,0,0,1,4.658-2.443,5.3,5.3,0,0,1,3.879,1.6,5.013,5.013,0,0,1,1.262,3.85V28.75h-2.343v-1.27a4.007,4.007,0,0,1-2.036,1.373,5.585,5.585,0,0,1-1.48.2A3.9,3.9,0,0,1,118.77,27.909Zm1.637-2.629a1.568,1.568,0,0,0,1.611,1.606,2.3,2.3,0,0,0,.594-.084,3.531,3.531,0,0,0,2.593-2.6,9.95,9.95,0,0,0-1.951-.469,4.885,4.885,0,0,0-.723-.057C120.988,23.676,120.423,24.54,120.407,25.281Zm-4.793,3.47h-2.343V13.015h2.344V28.75h0Zm-12.427,0h-2.343V13.015h5.669a5.013,5.013,0,0,1,0,10.026h-3.325V28.75h0Zm0-8.061h3.325a2.662,2.662,0,0,0,0-5.323h-3.325ZM84.2,28.75H81.853V13.015H84.2V28.75h0ZM13.641,21l3.621-3.677,4.986,2.729c1.229.672.6,1.513,0,1.843l-4.982,2.736ZM1.451,8.788a1.48,1.48,0,0,1,.511.16l14.652,8.021L13.139,20.5Zm29.324-2.4A3.829,3.829,0,0,1,29.71,3.77,3.834,3.834,0,0,1,33.505,0a3.681,3.681,0,0,1,2.6,1.029l-.718.746a2.7,2.7,0,0,0-4.556,2.013,2.694,2.694,0,0,0,2.706,2.74A2.243,2.243,0,0,0,35.986,4.47H33.535V3.441H36.99a3.2,3.2,0,0,1,.063.682A3.315,3.315,0,0,1,33.56,7.559,3.809,3.809,0,0,1,30.775,6.384Zm30.634-.017a3.83,3.83,0,0,1-1.049-2.6,3.8,3.8,0,0,1,7.592,0,3.785,3.785,0,0,1-6.543,2.6Zm.075-2.579a2.673,2.673,0,1,0,5.343,0,2.673,2.673,0,1,0-5.343,0ZM73.509,7.412,70.084,2.2V7.412H69.017V.251h1.067l3.423,5.214V.251h1.066V7.412Zm-17.644,0H54.8V1.322h-1.75V.251h4.567V1.322h-1.75v6.09h0Zm-3.685,0H51.115V.251h1.066v7.16h0Zm-5.972,0H45.142V1.322h-1.75V.251h4.568V1.322h-1.75v6.09h0Zm-3.941,0H38.178V.251h4.09V1.322H39.244V3.3H41.9v1.07H39.244V6.343h3.024V7.411h0Z" transform="translate(14.892 11.955)" fill="#fff"/>
  </g>
</svg>
