<svg xmlns="http://www.w3.org/2000/svg" width="18.101" height="18.096" viewBox="0 0 18.101 18.096">
  <g id="Group_10109" data-name="Group 10109" transform="translate(-928 -34)">
    <g id="worldwide" transform="translate(928 33.934)">
      <g id="Group_9809" data-name="Group 9809" transform="translate(0.704 0.722)">
        <path id="Path_21333" data-name="Path 21333" d="M288.083,28.763l-.936.624-1.561-.312-.936-.312-1.248.312-.936-.312.624-1.248h1.248l1.224-.612A8.94,8.94,0,0,1,288.083,28.763Z" transform="translate(-273.183 -26.61)" fill="#0d845a"/>
        <path id="Path_21334" data-name="Path 21334" d="M27.638,19.509l-.312.936-.936.312-.936,1.561-1.561.936-2.185.312V24.5l.624.624v1.248l-.936-.624-.936-.624-.543-1.632A9.045,9.045,0,0,1,24.879,18.6l.886.593Z" transform="translate(-19.916 -18.604)" fill="#0d845a"/>
        <path id="Path_21335" data-name="Path 21335" d="M77.144,214.75l-.312,1.561-1.248,1.248v.936l-1.248.936v1.561l-.936-.312-.624-1.561V216l-1.561-.312-.624-1.248V213.5l.624-.624.936-.936.624,1.248h2.185l.936,1.561Z" transform="translate(-68.798 -205.106)" fill="#0d845a"/>
        <path id="Path_21336" data-name="Path 21336" d="M280.911,115.4a9.042,9.042,0,0,1-.5,9.635l-.843-.843v-1.248l-.624-1.248-.624-1.248V119.2l-.936-.624-1.248.312-2.185-.936-.312-2.185.936-.936h1.873l.624.936,1.873.312,1.873-.624Z" transform="translate(-264.669 -111.428)" fill="#0d845a"/>
      </g>
      <path id="Path_21337" data-name="Path 21337" d="M10.923,3.188l1.248-.312.936.312,1.561.312.936-.624A8.913,8.913,0,0,1,16.946,4.7l-.094.053-1.873.624L13.107,5.06l-.624-.936H10.611l-.936.936.312,2.185,2.185.936,1.248-.312.936.624V9.742l.624,1.248.624,1.248v1.248l.843.843A9.051,9.051,0,0,1,.7,5.613l.543,1.632.936.624.936.624L2.5,9.118v.936L3.12,11.3l1.561.312v3.121L5.3,16.3l.936.312V15.048l1.248-.936v-.936l1.248-1.248.312-1.561H7.8L6.865,8.805H4.68L4.056,7.557l-.936.936V7.245L2.5,6.621V5.684L4.68,5.372l1.561-.936.936-1.561.936-.312.312-.936L6.553,1.315,5.667.722a9.052,9.052,0,0,1,7.416.293l-1.223.612H10.61L9.986,2.875Z" transform="translate(0 0)" fill="#86daf1"/>
    </g>
  </g>
</svg>
