<svg xmlns="http://www.w3.org/2000/svg" xmlns:xlink="http://www.w3.org/1999/xlink" width="58.7" height="58.7" viewBox="0 0 58.7 58.7">
  <defs>
    <linearGradient id="linear-gradient" x1="0.099" y1="0.738" x2="0.933" y2="0.355" gradientUnits="objectBoundingBox">
      <stop offset="0" stop-color="#d8fbff"/>
      <stop offset="1" stop-color="#d3d4ff"/>
    </linearGradient>
  </defs>
  <g id="Group_10187" data-name="Group 10187" transform="translate(-708.824 -863.115)">
    <g id="Group_26" data-name="Group 26" transform="translate(708.824 863.115)">
      <path id="Path_2376" data-name="Path 2376" d="M29.35,0A29.35,29.35,0,1,1,0,29.35,29.35,29.35,0,0,1,29.35,0Z" transform="translate(0 0)" fill="url(#linear-gradient)"/>
    </g>
    <g id="Group_25" data-name="Group 25" transform="translate(720.177 875.498)">
      <g id="_005-doctor-1" data-name="005-doctor-1" transform="translate(0 6.326)">
        <path id="Path_7650" data-name="Path 7650" d="M225.89,418.064h4.168V423.5H225.89Z" transform="translate(-210.257 -396.702)" fill="#c7c2c9"/>
        <path id="Path_7651" data-name="Path 7651" d="M33.294,131.82H2.139A2.139,2.139,0,0,1,0,129.682V111.528a2.139,2.139,0,0,1,2.139-2.139H33.294a2.139,2.139,0,0,1,2.139,2.139v18.154A2.139,2.139,0,0,1,33.294,131.82Z" transform="translate(0 -109.389)" fill="#655e67"/>
        <path id="Path_7652" data-name="Path 7652" d="M452.329,109.388H450.19a2.139,2.139,0,0,1,2.139,2.139v18.154a2.139,2.139,0,0,1-2.139,2.139h2.139a2.139,2.139,0,0,0,2.139-2.139V111.527A2.139,2.139,0,0,0,452.329,109.388Z" transform="translate(-419.035 -109.388)" fill="#544f56"/>
        <path id="Path_7653" data-name="Path 7653" d="M30.905,158.233V140.507a.214.214,0,0,1,.214-.214H61.847a.214.214,0,0,1,.214.214v17.726a.214.214,0,0,1-.214.214H31.119A.214.214,0,0,1,30.905,158.233Z" transform="translate(-28.766 -138.154)" fill="#ecf5ff"/>
        <path id="Path_7654" data-name="Path 7654" d="M449.238,140.294H447.1a.214.214,0,0,1,.214.214v17.726a.214.214,0,0,1-.214.214h2.139a.214.214,0,0,0,.214-.214V140.508A.214.214,0,0,0,449.238,140.294Z" transform="translate(-416.157 -138.155)" fill="#90c0ff"/>
        <path id="Path_7655" data-name="Path 7655" d="M189.1,481.095h-6.588a1.925,1.925,0,0,0-1.925,1.925.214.214,0,0,0,.214.214h10.01a.214.214,0,0,0,.214-.214A1.925,1.925,0,0,0,189.1,481.095Z" transform="translate(-168.09 -455.371)" fill="#655e67"/>
        <path id="Path_7656" data-name="Path 7656" d="M274.831,481.095h-2.139a1.925,1.925,0,0,1,1.925,1.925.214.214,0,0,1-.214.214h2.139a.214.214,0,0,0,.214-.214A1.925,1.925,0,0,0,274.831,481.095Z" transform="translate(-253.82 -455.371)" fill="#544f56"/>
      </g>
      <g id="_006-doctor" data-name="006-doctor" transform="translate(5.599)">
        <path id="Path_676" data-name="Path 676" d="M25.418,349.878V353.7H0v-3.823a2.453,2.453,0,0,1,1.562-2.288l5.359-2.107,4.183,4.6,1.313-2.674V347.4l.292-.6.3.6,1.313,2.68,4.177-4.6,5.365,2.107a2.462,2.462,0,0,1,1.556,2.288" transform="translate(0 -328.38)" fill="#f2f2f2"/>
        <path id="Path_677" data-name="Path 677" d="M187.827,287.556h.005V285.38a11.777,11.777,0,0,1-.976,1.277l-.519.572a2.537,2.537,0,0,1-1.859.821h-.794a2.534,2.534,0,0,1-1.859-.821l-.519-.572a11.508,11.508,0,0,1-.986-1.291v2.187l.009,0L183.6,289.4l.482.27.482-.27Z" transform="translate(-171.369 -271.248)" fill="#f8b64c"/>
        <g id="Group_87" data-name="Group 87" transform="translate(11.325 14.143)" opacity="0.1">
          <g id="Group_86" data-name="Group 86">
            <path id="Path_678" data-name="Path 678" d="M228.172,288.331l-.009,0-.017-.006-.019-.006,2,1.483,3.136-1.769h0l0-2.165c0,.008-.744.976-.976,1.265l-.519.572a2.536,2.536,0,0,1-1.859.821h-.795a2.244,2.244,0,0,1-.472-.05,2.457,2.457,0,0,1-.474-.143" transform="translate(-228.128 -285.866)" fill="#40596b"/>
          </g>
        </g>
        <g id="Group_88" data-name="Group 88" transform="translate(6.621 8.076)">
          <path id="Path_679" data-name="Path 679" d="M135.736,165.27c.083.95-.379,1.768-1.03,1.824s-1.248-.668-1.332-1.618.379-1.766,1.031-1.824,1.249.667,1.331,1.618" transform="translate(-133.364 -163.648)" fill="#f8b64c"/>
          <path id="Path_680" data-name="Path 680" d="M333.148,165.487c-.083.95-.679,1.675-1.331,1.618s-1.114-.873-1.03-1.824.68-1.675,1.331-1.618,1.114.873,1.03,1.824" transform="translate(-320.976 -163.659)" fill="#f8b64c"/>
        </g>
        <path id="Path_681" data-name="Path 681" d="M156.4,35.8a10.39,10.39,0,0,1-2.626,5.708l-.519.572a2.535,2.535,0,0,1-1.859.821H150.6a2.532,2.532,0,0,1-1.859-.821l-.519-.572a10.434,10.434,0,0,1-2.627-5.708,20.54,20.54,0,0,1,0-3.813,5.476,5.476,0,0,1,10.8,0,20.535,20.535,0,0,1,0,3.813" transform="translate(-138.283 -26.1)" fill="#ffd15c"/>
        <path id="Path_682" data-name="Path 682" d="M128.315,3.621s.037-3.565,5.221-2.426a8.972,8.972,0,0,1,4.227,3.2s1.553,2.255.709,4.152a4.571,4.571,0,0,0-.535,1.887s-.288-1.2-.459-2.2a4.69,4.69,0,0,0-1.059-2.27l-.017-.02a3.629,3.629,0,0,0-3.631-1.183,6.519,6.519,0,0,0-2.148,1.049A2.075,2.075,0,0,0,127.4,6.893a13.635,13.635,0,0,0-.408,3.319s-2.972-6.224,1.328-6.591" transform="translate(-119.732 -0.97)" fill="#40596b"/>
        <path id="Path_683" data-name="Path 683" d="M330.176,325.079a4.429,4.429,0,0,0-.2-1.249,1.9,1.9,0,0,0-1.419-1.032l-1.706-.344v.349h0l-.244.138,1.87.381a1.357,1.357,0,0,1,1.027.746,1.338,1.338,0,0,1,.143.816l-.011.138a9.967,9.967,0,0,0-2.9,3.776,1.354,1.354,0,0,0,.027,1.186.818.818,0,0,0,.587.365l.053-.529a.305.305,0,0,1-.2-.133.916.916,0,0,1,.037-.715,7.87,7.87,0,0,1,1.271-2.039,1.135,1.135,0,0,1,1.5.444,8.064,8.064,0,0,1-.133,2.437c-.1.328-.239.545-.392.6a.259.259,0,0,1-.234-.011l-.132.233-.137.229a.8.8,0,0,0,.4.106.724.724,0,0,0,.286-.058,1.353,1.353,0,0,0,.72-.948,10.485,10.485,0,0,0-.207-4.888m-.7,1.372a1.548,1.548,0,0,0-.488-.063c.229-.249.482-.5.768-.762.079.37.138.725.18,1.059a1.575,1.575,0,0,0-.46-.234" transform="translate(-310.388 -306.493)" fill="#acb3ba"/>
        <g id="Group_89" data-name="Group 89" transform="translate(16.857 23.22)">
          <path id="Path_684" data-name="Path 684" d="M340.129,469.166a.4.4,0,0,1-.462.31c-.212-.042-.061-.814.152-.772a.393.393,0,0,1,.311.461" transform="translate(-339.564 -468.703)" fill="#3198f7"/>
          <path id="Path_685" data-name="Path 685" d="M367.54,478.974a.393.393,0,0,0,.193.521c.2.09.525-.624.328-.715a.393.393,0,0,0-.521.194" transform="translate(-366.117 -478.246)" fill="#3198f7"/>
        </g>
        <path id="Path_686" data-name="Path 686" d="M95.557,322.793l-.009,0v-.345l-1.145.236a4.109,4.109,0,0,0-2.934,5.677l.485-.213a3.579,3.579,0,0,1,2.555-4.945l1.294-.266Z" transform="translate(-86.597 -306.484)" fill="#acb3ba"/>
        <g id="Group_90" data-name="Group 90" transform="translate(6.921 16.303)">
          <path id="Path_687" data-name="Path 687" d="M261.788,330.176,257.88,335.3,256,331.494l.482-.27,3.267-1.843h.005l.005-.005Z" transform="translate(-250.212 -329.376)" fill="#b6d4f5"/>
          <path id="Path_688" data-name="Path 688" d="M139.413,330.176l3.914,5.126,1.874-3.807-.482-.27-3.267-1.843-.011-.005Z" transform="translate(-139.413 -329.376)" fill="#b6d4f5"/>
        </g>
        <path id="Path_689" data-name="Path 689" d="M218.251,378.943l1.069-2.436-.461-.678-.338-.509,1.312-2.679.292-.6.3.6v.005l1.313,2.673-.344.5-.461.683,1.075,2.436Z" transform="translate(-207.416 -353.621)" fill="#334a5e"/>
        <path id="Path_690" data-name="Path 690" d="M226.905,375.32l-.344.5-1.261-2.58-1.271,2.585-.338-.509L225,372.642l.292-.6.3.6v.005Z" transform="translate(-212.586 -353.621)" fill="#2a4356"/>
        <path id="Path_691" data-name="Path 691" d="M89.183,435.3a1.2,1.2,0,1,1-1.2-1.2,1.2,1.2,0,0,1,1.2,1.2" transform="translate(-82.476 -412.6)" fill="#3198f7"/>
        <path id="Path_692" data-name="Path 692" d="M96.321,442.833a.806.806,0,1,1-.8-.805.805.805,0,0,1,.8.805" transform="translate(-90.008 -420.131)" fill="#f2f2f2"/>
        <path id="Path_693" data-name="Path 693" d="M100.7,447.455a.564.564,0,1,1-.563-.564.564.564,0,0,1,.563.564" transform="translate(-94.631 -424.754)" fill="#acb3ba"/>
      </g>
    </g>
  </g>
</svg>
