<svg xmlns="http://www.w3.org/2000/svg" xmlns:xlink="http://www.w3.org/1999/xlink" width="1366.067" height="54.714" viewBox="0 0 1366.067 54.714">
  <defs>
    <linearGradient id="linear-gradient" x1="-0.077" y1="0.636" x2="-0.076" y2="0.636" gradientUnits="objectBoundingBox">
      <stop offset="0" stop-color="#dfdfe8"/>
      <stop offset="1" stop-color="#49ceef"/>
    </linearGradient>
    <linearGradient id="linear-gradient-3" y1="1" x2="0.003" y2="1" gradientUnits="objectBoundingBox">
      <stop offset="0"/>
      <stop offset="1" stop-color="#c5e8ff"/>
    </linearGradient>
    <clipPath id="clip-path">
      <path id="Path_131" data-name="Path 131" d="M457.005,13.277c-78.039,4.36-154.163,15.171-214.265,24.678-65.624,10.376-90.2,19.794-98.654,26.445h726.9C811.753,57.08,750.87,46.831,702.684,32.632,649.754,17.027,587.865,11.3,524.558,11.3c-22.451,0-45.086.721-67.552,1.976" transform="translate(-144.087 -11.301)" fill="url(#linear-gradient)"/>
    </clipPath>
    <clipPath id="clip-path-3">
      <rect id="Rectangle_75" data-name="Rectangle 75" width="651.109" height="54.714" fill="url(#linear-gradient-3)"/>
    </clipPath>
    <clipPath id="clip-path-4">
      <path id="Path_132" data-name="Path 132" d="M651.109,64.4H0V60.476C82.547,34.251,197.092,8.428,325.664,9.734c185.644,1.882,230.3,31.237,325.446,54.666" transform="translate(0 -9.686)" fill="url(#linear-gradient-3)"/>
    </clipPath>
  </defs>
  <g id="Group_14" data-name="Group 14" transform="translate(0 -1043)" opacity="0.76">
    <g id="Group_8" data-name="Group 8" transform="translate(173.164 1044.615)" style="isolation: isolate">
      <g id="Group_7" data-name="Group 7" clip-path="url(#clip-path)">
        <path id="Path_130" data-name="Path 130" d="M990.391-67.373,343.735,16.941,59.019-93.813l646.658-84.314Z" transform="translate(-161.254 107.142)" fill="url(#linear-gradient)"/>
      </g>
    </g>
    <g id="Group_11" data-name="Group 11" transform="translate(639.164 1044.615)" opacity="0.5" style="isolation: isolate">
      <g id="Group_7-2" data-name="Group 7" clip-path="url(#clip-path)">
        <path id="Path_130-2" data-name="Path 130" d="M990.391-67.373,343.735,16.941,59.019-93.813l646.658-84.314Z" transform="translate(-161.254 107.142)" fill="url(#linear-gradient)"/>
      </g>
    </g>
    <g id="Group_10" data-name="Group 10" transform="translate(0 1043)" opacity="0.45" clip-path="url(#clip-path-3)">
      <g id="Group_9" data-name="Group 9" transform="translate(0 0)" clip-path="url(#clip-path-4)">
        <rect id="Rectangle_74" data-name="Rectangle 74" width="651.109" height="55.972" transform="translate(0 -1.259)" fill="url(#linear-gradient-3)"/>
      </g>
    </g>
    <g id="Group_13" data-name="Group 13" transform="translate(466 1043)" opacity="0.45" clip-path="url(#clip-path-3)">
      <g id="Group_12" data-name="Group 12" transform="translate(0 0)" clip-path="url(#clip-path-4)">
        <rect id="Rectangle_76" data-name="Rectangle 76" width="651.109" height="55.972" transform="translate(0 -1.259)" fill="url(#linear-gradient-3)"/>
      </g>
    </g>
  </g>
</svg>
