<svg xmlns="http://www.w3.org/2000/svg" width="31.172" height="31.16" viewBox="0 0 31.172 31.16">
  <g id="Group_14333" data-name="Group 14333" transform="translate(-710.606 -109.755)">
    <g id="_001-drugs" data-name="001-drugs" transform="translate(710.606 109.755)">
      <path id="Path_25" data-name="Path 25" d="M21.388,168.553l-7.361,7.361A8.214,8.214,0,0,1,2.411,164.3l7.361-7.361,3.416-.237,6.795,6.795Z" transform="translate(0 -147.165)" fill="#17ace8"/>
      <path id="Path_26" data-name="Path 26" d="M58.577,233.634l-7.361,7.361a8.2,8.2,0,0,1-11.617,0l15-15,2.575,2.575Z" transform="translate(-37.189 -212.245)" fill="#1689fc"/>
      <path id="Path_27" data-name="Path 27" d="M179.476,14.128l-7.361,7.361-5.808-5.808L160.5,9.872l7.361-7.361a8.214,8.214,0,0,1,11.617,11.617Z" transform="translate(-150.727 -0.1)" fill="#fafafa"/>
      <path id="Path_28" data-name="Path 28" d="M269.068,51.317l-7.361,7.361L255.9,52.869,269.068,39.7A8.2,8.2,0,0,1,269.068,51.317Z" transform="translate(-240.319 -37.289)" fill="#e0e0e0"/>
      <path id="Path_29" data-name="Path 29" d="M357.046,250.119a8.232,8.232,0,0,1-8.219,8.219L347,256.776V243.8l1.826-1.9A8.232,8.232,0,0,1,357.046,250.119Z" transform="translate(-325.873 -227.178)" fill="#fcbf29"/>
      <path id="Path_30" data-name="Path 30" d="M250.219,241.9a8.219,8.219,0,0,0,0,16.439Z" transform="translate(-227.266 -227.178)" fill="#fedb41"/>
    </g>
    <path id="Path_33" data-name="Path 33" d="M8.184-47.119H11.55v1.451H8.184v3.814H6.642v-3.814H3.275v-1.451H6.642v-3.524H8.184Z" transform="translate(726.18 179.066)" fill="#3b3b3b"/>
  </g>
</svg>
