<svg xmlns="http://www.w3.org/2000/svg" width="23.501" height="25.918" viewBox="0 0 23.501 25.918">
  <g id="Icon_feather-box" data-name="Icon feather-box" transform="translate(-3.455 -1.968)">
    <path id="Path_46" data-name="Path 46" d="M25.911,19.654V10.138a2.379,2.379,0,0,0-1.19-2.058L16.4,3.322a2.379,2.379,0,0,0-2.379,0L5.69,8.08A2.379,2.379,0,0,0,4.5,10.138v9.516a2.379,2.379,0,0,0,1.19,2.058l8.327,4.758a2.379,2.379,0,0,0,2.379,0l8.327-4.758a2.379,2.379,0,0,0,1.19-2.058Z" fill="none" stroke="#fff" stroke-linecap="round" stroke-linejoin="round" stroke-width="2"/>
    <path id="Path_47" data-name="Path 47" d="M4.905,10.44l10.384,6.007L25.674,10.44" transform="translate(-0.084 -1.539)" fill="none" stroke="#fff" stroke-linecap="round" stroke-linejoin="round" stroke-width="2"/>
    <path id="Path_48" data-name="Path 48" d="M18,29.99V18" transform="translate(-2.794 -3.104)" fill="none" stroke="#fff" stroke-linecap="round" stroke-linejoin="round" stroke-width="2"/>
  </g>
</svg>
