<svg xmlns="http://www.w3.org/2000/svg" width="38.07" height="40.664" viewBox="0 0 38.07 40.664">
  <g id="Group_14438" data-name="Group 14438" transform="translate(-1387 -456)">
    <g id="_003-packages" data-name="003-packages" transform="translate(1387 456)">
      <g id="Group_14437" data-name="Group 14437" transform="translate(8.654 0)">
        <path id="Path_78" data-name="Path 78" d="M110.9,17.527H97.258V.708A.51.51,0,0,1,97.767.2h12.627a.51.51,0,0,1,.509.509V17.527Z" transform="translate(-97.258 -0.199)" fill="#eab14d"/>
        <path id="Path_79" data-name="Path 79" d="M232.884.2V17.526h1.578V.708A.51.51,0,0,0,233.952.2h-1.068Z" transform="translate(-220.816 -0.198)" fill="#e49542"/>
        <path id="Path_80" data-name="Path 80" d="M161.767,4.124h-1.726a.41.41,0,0,1-.41-.41V.2h2.546V3.714A.41.41,0,0,1,161.767,4.124Z" transform="translate(-154.081 -0.198)" fill="#df6b57"/>
      </g>
      <path id="Path_81" data-name="Path 81" d="M212.583,144.258H191.671V123.623a.8.8,0,0,1,.8-.8h19.607a.51.51,0,0,1,.509.509Z" transform="translate(-174.616 -117.255)" fill="#f1cb86"/>
      <path id="Path_82" data-name="Path 82" d="M408.957,122.828v21.43h1.578v-20.92a.51.51,0,0,0-.509-.509Z" transform="translate(-372.569 -117.255)" fill="#ecbe6b"/>
      <path id="Path_83" data-name="Path 83" d="M297.009,126.754h-1.726a.41.41,0,0,1-.41-.41v-3.516h2.546v3.516A.41.41,0,0,1,297.009,126.754Z" transform="translate(-268.636 -117.255)" fill="#365e7d"/>
      <path id="Path_84" data-name="Path 84" d="M24.645,339.313H.651A.652.652,0,0,1,0,338.661V322.975a.509.509,0,0,1,.509-.509H24.1a.542.542,0,0,1,.542.542Z" transform="translate(0 -299.13)" fill="#f0b855"/>
      <path id="Path_85" data-name="Path 85" d="M259.248,322.466v16.847h1.578V323.008a.542.542,0,0,0-.542-.542Z" transform="translate(-236.181 -299.13)" fill="#bf8c32"/>
      <path id="Path_86" data-name="Path 86" d="M126.319,326.392h-1.726a.41.41,0,0,1-.41-.41v-3.516h2.546v3.516A.41.41,0,0,1,126.319,326.392Z" transform="translate(-113.133 -299.13)" fill="#365e7d"/>
      <path id="Path_90" data-name="Path 90" d="M51.958,206.288H38.312V195.45a.51.51,0,0,1,.509-.509H51.958Z" transform="translate(-34.903 -182.952)" fill="#f8d697"/>
      <path id="Path_91" data-name="Path 91" d="M173.938,194.941h1.578v11.347h-1.578Z" transform="translate(-158.461 -182.952)" fill="#ddae5b"/>
      <path id="Path_92" data-name="Path 92" d="M102.82,198.867h-1.726a.41.41,0,0,1-.41-.41v-3.516h2.546v3.516A.41.41,0,0,1,102.82,198.867Z" transform="translate(-91.725 -182.952)" fill="#df6b57"/>
    </g>
    <g id="Group_14436" data-name="Group 14436" transform="translate(1404.624 472.668)">
      <g id="Group_14413" data-name="Group 14413" transform="translate(0 0)">
        <path id="Path_64" data-name="Path 64" d="M227.5.05a75.221,75.221,0,0,0-10.709.375,2.073,2.073,0,0,0-1.85,1.9,121.549,121.549,0,0,0,0,19.355,2.073,2.073,0,0,0,1.85,1.9,75.266,75.266,0,0,0,15.974,0,2.073,2.073,0,0,0,1.85-1.9,121.517,121.517,0,0,0,.292-14.455" transform="translate(-214.554 0)" fill="#fff"/>
        <path id="Path_65" data-name="Path 65" d="M410.241,7.893q-2.632-.095-5.265-.375a2.073,2.073,0,0,1-1.85-1.9q-.2-2.45-.292-4.9C404.59.785,410.177,6.259,410.241,7.893Z" transform="translate(-389.89 -0.672)" fill="#aaa"/>
      </g>
      <g id="Group_14417" data-name="Group 14417" transform="translate(2.477 8.55)">
        <path id="Path_69" data-name="Path 69" d="M251.976,172.145a.531.531,0,0,1-.461-.268l-.865-1.513a.531.531,0,1,1,.922-.527l.378.661,1.138-2.224a.531.531,0,0,1,.946.484l-1.585,3.1a.531.531,0,0,1-.461.289Z" transform="translate(-250.58 -167.984)" fill="#95d6a4"/>
        <g id="Group_14416" data-name="Group 14416" transform="translate(5.179 0.081)">
          <path id="Path_70" data-name="Path 70" d="M316.976,184.768H311.9a.531.531,0,0,1,0-1.062h5.079a.531.531,0,1,1,0,1.062Z" transform="translate(-311.366 -183.706)" fill="#407093"/>
          <path id="Path_71" data-name="Path 71" d="M321.53,212.014h-9.636a.531.531,0,0,1,0-1.062h9.636a.531.531,0,1,1,0,1.062Z" transform="translate(-311.363 -208.079)" fill="#407093"/>
        </g>
      </g>
      <g id="Group_14419" data-name="Group 14419" transform="translate(2.477 16.738)">
        <path id="Path_72" data-name="Path 72" d="M251.976,247.6a.531.531,0,0,1-.461-.268l-.865-1.513a.531.531,0,0,1,.922-.527l.378.661,1.138-2.224a.531.531,0,0,1,.946.484l-1.585,3.1a.531.531,0,0,1-.461.289Z" transform="translate(-250.58 -243.44)" fill="#95d6a4"/>
        <g id="Group_14418" data-name="Group 14418" transform="translate(5.179 0.081)">
          <path id="Path_73" data-name="Path 73" d="M316.976,260.226H311.9a.531.531,0,0,1,0-1.062h5.079a.531.531,0,1,1,0,1.062Z" transform="translate(-311.366 -259.164)" fill="#407093"/>
          <path id="Path_74" data-name="Path 74" d="M317.709,287.478h-5.815a.531.531,0,0,1,0-1.062h5.815a.531.531,0,0,1,0,1.062Z" transform="translate(-311.363 -283.542)" fill="#407093"/>
        </g>
      </g>
    </g>
  </g>
</svg>
