<svg id="Group_14330" data-name="Group 14330" xmlns="http://www.w3.org/2000/svg" xmlns:xlink="http://www.w3.org/1999/xlink" width="39.386" height="49" viewBox="0 0 39.386 49">
  <defs>
    <linearGradient id="linear-gradient" x1="0.188" y1="0.067" x2="0.912" y2="0.876" gradientUnits="objectBoundingBox">
      <stop offset="0" stop-color="#1fb3f0"/>
      <stop offset="1" stop-color="#105a78"/>
    </linearGradient>
  </defs>
  <path id="Rectangle_4151" data-name="Rectangle 4151" d="M0,0H27a6,6,0,0,1,6,6V40a6,6,0,0,1-6,6H0a0,0,0,0,1,0,0V0A0,0,0,0,1,0,0Z" transform="translate(6.386 3)" fill="#9fdbf4"/>
  <g id="_001-menu" data-name="001-menu" transform="translate(0)">
    <path id="Path_17" data-name="Path 17" d="M102.985,18H71.553a.571.571,0,0,0-.553.606V64.424a.571.571,0,0,0,.553.606h31.433a4.594,4.594,0,0,0,4.572-4.625V22.625A4.594,4.594,0,0,0,102.985,18Zm3.386,42.405a3.407,3.407,0,0,1-3.386,3.44H76.335V34.4a.593.593,0,1,0-1.186,0V63.845H72.186V19.186H75.15V31.042a.593.593,0,1,0,1.186,0V19.186h26.65a3.407,3.407,0,0,1,3.386,3.44Z" transform="translate(-71 -18)" fill="url(#linear-gradient)"/>
    <path id="Path_18" data-name="Path 18" d="M145.593,51.644a.593.593,0,0,0,.593-.593v-.425a.593.593,0,0,0-1.186,0v.425A.593.593,0,0,0,145.593,51.644Z" transform="translate(-137.689 -45.88)" fill="#fff"/>
    <path id="Path_19" data-name="Path 19" d="M146.186,81.336v-7.41a.593.593,0,1,0-1.186,0v7.41a.593.593,0,0,0,1.186,0Z" transform="translate(-137.689 -66.878)" fill="#fff"/>
    <path id="Path_21" data-name="Path 21" d="M168.593,342.186h9.88a.593.593,0,1,0,0-1.186h-9.88a.593.593,0,1,0,0,1.186Z" transform="translate(-158.416 -309.087)" fill="#105a78"/>
    <g id="Group_14329" data-name="Group 14329" transform="translate(9.584 34.482)">
      <path id="Path_22" data-name="Path 22" d="M188.353,367H168.593a.593.593,0,0,0,0,1.186h19.761a.593.593,0,1,0,0-1.186Z" transform="translate(-168 -367)" fill="#105a78"/>
      <path id="Path_23" data-name="Path 23" d="M188.353,392H168.593a.593.593,0,1,0,0,1.186h19.761a.593.593,0,1,0,0-1.186Z" transform="translate(-168 -389.53)" fill="#105a78"/>
      <path id="Path_24" data-name="Path 24" d="M188.353,418H168.593a.593.593,0,1,0,0,1.186h19.761a.593.593,0,1,0,0-1.186Z" transform="translate(-168 -412.961)" fill="#105a78"/>
    </g>
  </g>
  <g id="_001-drugs" data-name="001-drugs" transform="translate(13.518 9.763)">
    <path id="Path_25" data-name="Path 25" d="M10.7,162.631l-3.683,3.683A4.11,4.11,0,0,1,1.206,160.5l3.683-3.683L6.6,156.7l3.4,3.4Z" transform="translate(0 -151.928)" fill="#17ace8"/>
    <path id="Path_26" data-name="Path 26" d="M49.1,229.819,45.413,233.5a4.1,4.1,0,0,1-5.813,0l7.5-7.5,1.289,1.289Z" transform="translate(-38.394 -219.117)" fill="#1689fc"/>
    <path id="Path_27" data-name="Path 27" d="M170,7.119,166.312,10.8,163.405,7.9,160.5,4.99l3.683-3.683A4.11,4.11,0,1,1,170,7.119Z" transform="translate(-155.609 -0.1)" fill="#fff"/>
    <path id="Path_28" data-name="Path 28" d="M262.489,45.513,258.805,49.2,255.9,46.29l6.59-6.59A4.1,4.1,0,0,1,262.489,45.513Z" transform="translate(-248.103 -38.494)" fill="#f0f0f0"/>
    <path id="Path_29" data-name="Path 29" d="M352.027,246.013a4.119,4.119,0,0,1-4.113,4.113l-.914-.782v-6.492l.914-.952A4.119,4.119,0,0,1,352.027,246.013Z" transform="translate(-336.428 -234.533)" fill="#fcbf29"/>
    <path id="Path_30" data-name="Path 30" d="M246.113,241.9a4.113,4.113,0,0,0,0,8.226Z" transform="translate(-234.627 -234.533)" fill="#fedb41"/>
  </g>
  <path id="Path_31" data-name="Path 31" d="M5.732-48.879H7.416v.726H5.732v1.909H4.96v-1.909H3.275v-.726H4.96v-1.763h.772Z" transform="translate(19.674 69.747)" fill="#fff"/>
</svg>
