<svg xmlns="http://www.w3.org/2000/svg" xmlns:xlink="http://www.w3.org/1999/xlink" width="33.004" height="37.551" viewBox="0 0 33.004 37.551">
  <defs>
    <linearGradient id="linear-gradient" x1="0.5" y1="1" x2="0.5" y2="0.538" gradientUnits="objectBoundingBox">
      <stop offset="0" stop-color="#ffc2cc"/>
      <stop offset="1" stop-color="#fff2f4"/>
    </linearGradient>
  </defs>
  <g id="_005-control" data-name="005-control" transform="translate(-31)">
    <g id="Group_14429" data-name="Group 14429" transform="translate(31)">
      <g id="Group_14428" data-name="Group 14428">
        <path id="Path_115" data-name="Path 115" d="M62.9,0H32.1A1.1,1.1,0,0,0,31,1.1V36.451a1.1,1.1,0,0,0,1.1,1.1H62.9a1.1,1.1,0,0,0,1.1-1.1V1.1A1.1,1.1,0,0,0,62.9,0Z" transform="translate(-31)" fill="#0aa1e0"/>
      </g>
    </g>
    <g id="Group_14431" data-name="Group 14431" transform="translate(35.4 4.474)">
      <g id="Group_14430" data-name="Group 14430">
        <path id="Path_116" data-name="Path 116" d="M96.5,69.8h1.21a5.583,5.583,0,0,0,.814,1.936l-.858.858a1.089,1.089,0,0,0,1.54,1.54l.858-.858a5.581,5.581,0,0,0,1.936.814V75.3a1.1,1.1,0,1,0,2.2,0v-1.21a5.581,5.581,0,0,0,1.936-.814l.858.858a1.089,1.089,0,0,0,1.54-1.54l-.858-.858a5.584,5.584,0,0,0,.814-1.936h1.21a1.1,1.1,0,0,0,0-2.2h-1.21a5.583,5.583,0,0,0-.814-1.936l.858-.858a1.089,1.089,0,0,0-1.54-1.54l-.858.858a5.584,5.584,0,0,0-1.936-.814V62.1a1.1,1.1,0,1,0-2.2,0v1.21a5.583,5.583,0,0,0-1.936.814l-.858-.858a1.089,1.089,0,0,0-1.54,1.54l.858.858a5.584,5.584,0,0,0-.814,1.936H96.5a1.1,1.1,0,0,0,0,2.2Zm6.6-2.2a1.1,1.1,0,1,1-1.1,1.1A1.089,1.089,0,0,1,103.1,67.6Zm-11,13.2h3.3v1.1a1.1,1.1,0,1,0,2.2,0V80.8h16.5a1.1,1.1,0,1,0,0-2.2H97.6V77.5a1.1,1.1,0,0,0-2.2,0v1.1H92.1a1.1,1.1,0,0,0,0,2.2Zm22,4.4h-3.3V84.1a1.1,1.1,0,1,0-2.2,0v1.1H92.1a1.1,1.1,0,0,0,0,2.2h16.5v1.1a1.1,1.1,0,0,0,2.2,0V87.4h3.3a1.1,1.1,0,1,0,0-2.2Z" transform="translate(-91 -61)" fill="url(#linear-gradient)"/>
      </g>
    </g>
  </g>
</svg>
