<svg xmlns="http://www.w3.org/2000/svg" width="16.004" height="16.004" viewBox="0 0 16.004 16.004">
  <path id="Icon_ionic-ios-checkmark-circle" data-name="Icon ionic-ios-checkmark-circle" d="M11.377,3.375a8,8,0,1,0,8,8A8,8,0,0,0,11.377,3.375Zm4.1,5.79-5.144,5.167h0a.7.7,0,0,1-.446.212.674.674,0,0,1-.45-.219L7.276,12.169a.153.153,0,0,1,0-.219l.685-.685a.149.149,0,0,1,.215,0l1.708,1.708,4.693-4.728a.152.152,0,0,1,.108-.046h0a.14.14,0,0,1,.108.046l.673.7A.152.152,0,0,1,15.474,9.165Z" transform="translate(-3.375 -3.375)" fill="#fff"/>
</svg>
