<svg id="_4._Icons_Twitter" data-name="4. Icons / Twitter" xmlns="http://www.w3.org/2000/svg" width="15" height="12.19" viewBox="0 0 15 12.19">
  <path id="_Icon_Color" data-name="🔹 Icon Color" d="M15,1.443a6.144,6.144,0,0,1-1.767.484,3.082,3.082,0,0,0,1.353-1.7,6.165,6.165,0,0,1-1.954.747A3.079,3.079,0,0,0,7.387,3.778,8.736,8.736,0,0,1,1.044.563,3.081,3.081,0,0,0,2,4.672,3.064,3.064,0,0,1,.6,4.287,3.08,3.08,0,0,0,3.071,7.343a3.085,3.085,0,0,1-1.39.052A3.08,3.08,0,0,0,4.556,9.533,6.188,6.188,0,0,1,0,10.807,8.712,8.712,0,0,0,4.717,12.19a8.7,8.7,0,0,0,8.747-9.154A6.265,6.265,0,0,0,15,1.443Z" fill="#fff"/>
</svg>
