<svg id="Group" xmlns="http://www.w3.org/2000/svg" xmlns:xlink="http://www.w3.org/1999/xlink" width="132.601" height="45.395" viewBox="0 0 132.601 45.395">
  <defs>
    <clipPath id="clip-path">
      <rect id="_Background" data-name="◼️ Background" width="132.601" height="45.395" rx="6" fill="#1c1c1c"/>
    </clipPath>
  </defs>
  <rect id="_Background-2" data-name="◼️ Background" width="132.601" height="45.395" rx="6" fill="#fff"/>
  <g id="Group-2" data-name="Group" clip-path="url(#clip-path)">
    <path id="Logo" d="M51.285,27.394V14.819h1.871v1.626h.036a3.241,3.241,0,0,1,3-1.778c2.409,0,3.965,1.914,3.965,4.877s-1.542,4.886-3.929,4.886a3.228,3.228,0,0,1-2.962-1.715h-.045v4.679H51.285ZM55.679,16.3c-1.478,0-2.47,1.3-2.47,3.242a3.85,3.85,0,0,0,.678,2.358,2.182,2.182,0,0,0,1.792.884,2.205,2.205,0,0,0,1.818-.877,3.862,3.862,0,0,0,.67-2.365,3.862,3.862,0,0,0-.67-2.362A2.2,2.2,0,0,0,55.679,16.3ZM40.492,27.394V14.819h1.871v1.626H42.4a3.241,3.241,0,0,1,3-1.778c2.409,0,3.966,1.914,3.966,4.877s-1.543,4.886-3.93,4.886a3.228,3.228,0,0,1-2.962-1.715h-.045v4.679H40.492ZM44.887,16.3c-1.478,0-2.47,1.3-2.47,3.242a3.85,3.85,0,0,0,.678,2.358,2.182,2.182,0,0,0,1.792.884,2.205,2.205,0,0,0,1.818-.877,3.862,3.862,0,0,0,.67-2.365,3.862,3.862,0,0,0-.67-2.362A2.2,2.2,0,0,0,44.887,16.3ZM6.417,24.8H6.394c-1.622,0-2.883-1.811-3.8-3.134A15.829,15.829,0,0,1,.2,15.684a9.834,9.834,0,0,1,.84-6.523A6.026,6.026,0,0,1,6.118,6.054h.07A6.773,6.773,0,0,1,8.674,6.7h0l.007,0a4.6,4.6,0,0,0,1.528.444,4.612,4.612,0,0,0,1.477-.438h0l.006,0a7.887,7.887,0,0,1,2.84-.723c.115,0,.249.007.4.02a5.742,5.742,0,0,1,4.529,2.457h0A5.921,5.921,0,0,0,18.057,9.7a5.247,5.247,0,0,0-1.264,3.49A5.443,5.443,0,0,0,20.106,18.2V18.2a12.658,12.658,0,0,1-1.723,3.516c-1.1,1.648-2.139,3.015-3.768,3.04h-.092a4.27,4.27,0,0,1-1.816-.454,5,5,0,0,0-2.167-.516,5.207,5.207,0,0,0-2.277.531l0,0a4.736,4.736,0,0,1-1.781.473h-.06Zm64.394-.313a5.639,5.639,0,0,1-3.488-1.034,3.672,3.672,0,0,1-1.435-2.792h1.978c.142,1.274,1.383,2.129,3.088,2.129,1.623,0,2.8-.842,2.8-2,0-1.005-.712-1.61-2.381-2.021l-1.674-.4c-2.369-.574-3.473-1.684-3.473-3.494,0-2.221,1.932-3.772,4.7-3.772a5.206,5.206,0,0,1,3.332,1.047,3.538,3.538,0,0,1,1.332,2.725H73.64c-.115-1.28-1.164-2.074-2.739-2.074a3.164,3.164,0,0,0-1.9.539,1.694,1.694,0,0,0-.727,1.4c0,.913.679,1.455,2.345,1.868l1.424.35a6.135,6.135,0,0,1,2.868,1.321A2.977,2.977,0,0,1,75.8,20.54a3.535,3.535,0,0,1-1.345,2.881A5.817,5.817,0,0,1,70.811,24.484Zm34-.036c-2.738,0-4.439-1.862-4.439-4.859a5.333,5.333,0,0,1,1.182-3.582,4.082,4.082,0,0,1,3.176-1.358,4.021,4.021,0,0,1,3.1,1.283,5.047,5.047,0,0,1,1.141,3.432v.665h-6.651v.116a2.471,2.471,0,0,0,2.533,2.73,2.132,2.132,0,0,0,2.176-1.383h1.835a3.264,3.264,0,0,1-1.319,2.124A4.566,4.566,0,0,1,104.807,24.448Zm-.081-8.236a2.254,2.254,0,0,0-1.669.695,2.819,2.819,0,0,0-.729,1.766h4.708A2.312,2.312,0,0,0,104.727,16.212ZM87.939,24.448a4.27,4.27,0,0,1-3.243-1.31,5.186,5.186,0,0,1-1.223-3.594A5.163,5.163,0,0,1,84.7,15.958a4.665,4.665,0,0,1,6.48,0,5.163,5.163,0,0,1,1.226,3.586,5.186,5.186,0,0,1-1.223,3.594A4.274,4.274,0,0,1,87.939,24.448Zm0-8.2a2.212,2.212,0,0,0-1.816.863,3.962,3.962,0,0,0-.681,2.433,3.979,3.979,0,0,0,.681,2.441,2.344,2.344,0,0,0,3.636,0,3.983,3.983,0,0,0,.678-2.441,3.958,3.958,0,0,0-.682-2.433A2.212,2.212,0,0,0,87.939,16.248Zm-6.925,8.083c-1.907,0-2.65-.715-2.65-2.551V16.356H76.994V14.819h1.369V12.583h1.942v2.236H82.1v1.536h-1.79v5.209c0,.82.353,1.186,1.146,1.186a4.213,4.213,0,0,0,.636-.045v1.536A5.368,5.368,0,0,1,81.013,24.331Zm-51.555-.062H27.372l4.663-12.96H34.2l4.663,12.96h-2.12l-1.182-3.5H30.64l-1.181,3.5Zm3.616-10.806L31.15,19.149h3.9l-1.925-5.685Zm63.2,10.8H94.337V14.819H96.18v1.608h.045a2.275,2.275,0,0,1,2.265-1.76,3.488,3.488,0,0,1,.662.072v1.8a2.784,2.784,0,0,0-.868-.108A1.947,1.947,0,0,0,96.27,18.61v5.658ZM98.1,7.71A2.216,2.216,0,0,1,95.851,5.2a2.783,2.783,0,0,1,.6-1.845,2.049,2.049,0,0,1,1.609-.705,1.985,1.985,0,0,1,1.558.665,2.669,2.669,0,0,1,.571,1.777V5.4h-3.5v.047A1.4,1.4,0,0,0,98.116,7a1.173,1.173,0,0,0,1.21-.776h.8A1.926,1.926,0,0,1,98.1,7.71Zm-.052-4.352a1.379,1.379,0,0,0-1.35,1.4h2.649A1.3,1.3,0,0,0,98.045,3.359ZM76.317,7.71a2.254,2.254,0,0,1-2.26-2.531,2.272,2.272,0,1,1,4.515,0A2.253,2.253,0,0,1,76.317,7.71Zm0-4.342c-.882,0-1.43.694-1.43,1.811s.548,1.811,1.43,1.811S77.742,6.3,77.742,5.18,77.2,3.368,76.317,3.368Zm-8.1,4.342c-1.248,0-2.086-1.017-2.086-2.531s.831-2.531,2.067-2.531a1.721,1.721,0,0,1,1.552.88h.019V.837h.816V7.626h-.779V6.8h-.014A1.751,1.751,0,0,1,68.217,7.71Zm.154-4.342c-.854,0-1.406.711-1.406,1.811,0,1.117.539,1.811,1.406,1.811.839,0,1.4-.728,1.4-1.811S69.21,3.368,68.372,3.368ZM62.655,7.71a1.468,1.468,0,0,1-1.622-1.468c0-.843.644-1.364,1.768-1.43l1.4-.08V4.323c0-.6-.4-.954-1.069-.954A1.027,1.027,0,0,0,62,4.145h-.788a1.727,1.727,0,0,1,1.931-1.5,2.064,2.064,0,0,1,1.363.432,1.477,1.477,0,0,1,.5,1.163V7.626H64.24V6.783h-.019A1.77,1.77,0,0,1,62.655,7.71ZM64.2,5.368h0l-1.3.08c-.656.042-1.032.332-1.032.795s.392.772.976.772A1.278,1.278,0,0,0,64.2,5.768v-.4ZM57.835,7.71a2.255,2.255,0,0,1-2.26-2.531,2.272,2.272,0,1,1,4.515,0A2.253,2.253,0,0,1,57.835,7.71Zm0-4.342c-.882,0-1.43.694-1.43,1.811s.548,1.811,1.43,1.811S59.26,6.3,59.26,5.18,58.714,3.368,57.835,3.368ZM37.57,7.71A2.255,2.255,0,0,1,35.31,5.18a2.272,2.272,0,1,1,4.515,0A2.253,2.253,0,0,1,37.57,7.71Zm0-4.342c-.882,0-1.431.694-1.431,1.811s.548,1.811,1.431,1.811S39,6.3,39,5.18,38.449,3.368,37.57,3.368ZM88.886,7.663c-.894,0-1.243-.367-1.243-1.307V3.406h-.727V2.733h.727V1.553h.816V2.733h.947v.673H88.46V6.314c0,.449.186.649.6.649.084,0,.273-.014.338-.023v.687A3,3,0,0,1,88.886,7.663Zm2.566-.037h-.816V.837h.816V3.514h.019a1.62,1.62,0,0,1,1.547-.866,1.664,1.664,0,0,1,1.259.5,1.889,1.889,0,0,1,.457,1.317V7.625h-.816V4.615c0-.8-.41-1.242-1.153-1.242a1.274,1.274,0,0,0-1.313,1.4V7.626Zm-10.923,0h-.816V2.733h.769v.781H80.5a1.64,1.64,0,0,1,1.547-.866,1.605,1.605,0,0,1,1.688,1.8V7.625h-.816V4.6c0-.8-.387-1.224-1.12-1.224a1.241,1.241,0,0,0-1.271,1.374v2.88Zm-31.558,0h-.816V2.733h.769v.781h.019a1.64,1.64,0,0,1,1.547-.866,1.605,1.605,0,0,1,1.688,1.8V7.625h-.816V4.6c0-.8-.387-1.224-1.12-1.224A1.241,1.241,0,0,0,48.97,4.746v2.88Zm-6.209,0h-.83L40.567,2.733h.811l.976,3.98h.018l1.1-3.98h.788l1.106,3.98h.019l.975-3.98h.807l-1.36,4.892h-.83l-1.1-3.788h-.018l-1.1,3.788Zm11.63,0h-.816V.837h.816V7.625Zm-23.274,0H28.844V.837h2.274a3.123,3.123,0,0,1,2.349.9,3.562,3.562,0,0,1,.844,2.5,3.571,3.571,0,0,1-.842,2.5A3.123,3.123,0,0,1,31.118,7.626ZM29.688,1.6V6.864h1.374c1.539,0,2.386-.932,2.386-2.625S32.6,1.6,31.061,1.6ZM10.262,5.726a2.386,2.386,0,0,1-.242-.009,5.3,5.3,0,0,1,1.3-3.828A5.623,5.623,0,0,1,14.958,0a5.53,5.53,0,0,1-1.265,3.974A4.716,4.716,0,0,1,10.262,5.726Z" transform="translate(11.7 9.392)" fill="#555ab9"/>
  </g>
</svg>
