<svg id="Group" xmlns="http://www.w3.org/2000/svg" xmlns:xlink="http://www.w3.org/1999/xlink" width="132.601" height="45.395" viewBox="0 0 132.601 45.395">
  <defs>
    <clipPath id="clip-path">
      <rect id="_Background" data-name="◼️ Background" width="132.601" height="45.395" rx="6" fill="#1c1c1c"/>
    </clipPath>
  </defs>
  <rect id="_Background-2" data-name="◼️ Background" width="132.601" height="45.395" rx="6" fill="#fff5f5"/>
  <g id="Group-2" data-name="Group" clip-path="url(#clip-path)">
    <path id="Logo" d="M104.424,26.611h-2.01l1.913-4.368-3.417-7.8h2.011l2.412,5.508,2.412-5.508h2.011L104.424,26.61h0Zm-49.218-2.47,1.607-.674a2.316,2.316,0,0,0,2.14,1.493,2.153,2.153,0,0,0,1.594-.614,2.385,2.385,0,0,0,.6-1.7V21.82a2.771,2.771,0,0,1-2.293,1.019,3.941,3.941,0,0,1-2.71-1.153,4.214,4.214,0,0,1-1.264-3.046,4.324,4.324,0,0,1,1.164-2.926A3.882,3.882,0,0,1,58.9,14.449a2.951,2.951,0,0,1,2.254.962V14.7H62.9v7.536a4.611,4.611,0,0,1-1.13,3.3,3.8,3.8,0,0,1-2.806,1.076A4.047,4.047,0,0,1,55.206,24.141Zm2.242-7.366a2.789,2.789,0,0,0-.019,3.733,2.233,2.233,0,0,0,1.605.682,2.191,2.191,0,0,0,1.551-.656,2.617,2.617,0,0,0,.706-1.885,2.677,2.677,0,0,0-.7-1.882,2.143,2.143,0,0,0-1.53-.673A2.286,2.286,0,0,0,57.448,16.775ZM10.325,16.9l2.729,2.735L1.542,25.955a1.934,1.934,0,0,1-.251.118ZM.086,25.024c0-.94-.08-15.861-.086-16.981A1.1,1.1,0,0,1,.465,7.017L9.931,16.5.51,26.069A1.2,1.2,0,0,1,.086,25.024Zm24.723-4.212a6.4,6.4,0,0,1,.052-9.034,6.478,6.478,0,0,1,4.662-1.987,6.345,6.345,0,0,1,4.492,1.777l-1.24,1.288a4.567,4.567,0,0,0-3.189-1.283,4.78,4.78,0,0,0-3.276,8.158,4.8,4.8,0,0,0,6.035.487A3.626,3.626,0,0,0,33.8,17.507H29.573V15.731h5.966v0a5.573,5.573,0,0,1,.107,1.174A5.817,5.817,0,0,1,33.936,21.2a6.129,6.129,0,0,1-4.32,1.639A6.579,6.579,0,0,1,24.808,20.812Zm43.612.911a4.146,4.146,0,0,1-1.257-3.1,3.962,3.962,0,0,1,3.9-4.188,3.561,3.561,0,0,1,2.161.727A4.073,4.073,0,0,1,74.539,16.9l.291.684-5.6,2.334a2.164,2.164,0,0,0,2.051,1.271,2.322,2.322,0,0,0,2.048-1.155L74.768,21a4.21,4.21,0,0,1-3.5,1.841A4.1,4.1,0,0,1,68.42,21.723ZM69.5,16.859a2.135,2.135,0,0,0-.558,1.66l3.742-1.569a1.66,1.66,0,0,0-1.547-.9A2.243,2.243,0,0,0,69.5,16.859ZM46.812,21.571A4.251,4.251,0,0,1,45.645,18.6a4.136,4.136,0,0,1,4.2-4.16A4.356,4.356,0,0,1,52.7,15.507a4.043,4.043,0,0,1,1.342,3.146,4.219,4.219,0,0,1-7.229,2.918Zm.668-2.941a2.375,2.375,0,1,0,4.736.013,2.623,2.623,0,0,0-.721-1.865,2.3,2.3,0,0,0-1.624-.685A2.414,2.414,0,0,0,47.48,18.63Zm-9.906,2.941A4.251,4.251,0,0,1,36.407,18.6a4.136,4.136,0,0,1,4.2-4.16,4.356,4.356,0,0,1,2.852,1.062A4.041,4.041,0,0,1,44.8,18.653a4.22,4.22,0,0,1-7.23,2.918Zm.668-2.941a2.375,2.375,0,1,0,4.736.013,2.624,2.624,0,0,0-.72-1.865,2.3,2.3,0,0,0-1.624-.685A2.414,2.414,0,0,0,38.241,18.63Zm55.07,3.3a3.087,3.087,0,0,1-.63-2.384A2.971,2.971,0,0,1,95.5,17.018c.163-.016.334-.025.508-.025a9.1,9.1,0,0,1,2.312.354,1.825,1.825,0,0,0-.742-1.31,2.512,2.512,0,0,0-3.589.742l-1.482-1a4.36,4.36,0,0,1,3.66-1.92,4.161,4.161,0,0,1,3.047,1.253,3.938,3.938,0,0,1,.991,3.025v4.446H98.367v-1a3.148,3.148,0,0,1-1.6,1.078,4.387,4.387,0,0,1-1.163.158A3.065,3.065,0,0,1,93.311,21.927ZM94.6,19.861a1.232,1.232,0,0,0,1.266,1.262,1.806,1.806,0,0,0,.467-.066,2.774,2.774,0,0,0,2.037-2.043,7.817,7.817,0,0,0-1.532-.368,3.838,3.838,0,0,0-.568-.045C95.053,18.6,94.609,19.28,94.6,19.861Zm-3.766,2.726H88.991V10.225h1.841V22.587h0Zm-9.763,0H79.228V10.225h4.454a3.938,3.938,0,0,1,0,7.877H81.069v4.485h0Zm0-6.333h2.612a2.091,2.091,0,0,0,0-4.182H81.069ZM66.148,22.587H64.307V10.225h1.841V22.587h0ZM10.717,16.5l2.845-2.889,3.917,2.144c.965.528.472,1.188,0,1.448l-3.914,2.15ZM1.14,6.9a1.163,1.163,0,0,1,.4.126l11.511,6.3L10.322,16.1ZM24.178,5.015a3.008,3.008,0,0,1-.837-2.053A3.012,3.012,0,0,1,26.323,0a2.892,2.892,0,0,1,2.045.809l-.564.586a2.119,2.119,0,0,0-3.58,1.581A2.116,2.116,0,0,0,26.35,5.129a1.762,1.762,0,0,0,1.922-1.617H26.346V2.7h2.715a2.516,2.516,0,0,1,.05.536,2.6,2.6,0,0,1-2.745,2.7A2.992,2.992,0,0,1,24.178,5.015ZM48.245,5a3.009,3.009,0,0,1-.824-2.04,2.982,2.982,0,0,1,5.964,0A2.974,2.974,0,0,1,48.245,5ZM48.3,2.976a2.1,2.1,0,1,0,4.2,0,2.1,2.1,0,1,0-4.2,0Zm9.447,2.847-2.691-4.1v4.1h-.838V.2h.838l2.689,4.1V.2h.837V5.823Zm-13.862,0h-.837V1.038H41.677V.2h3.588v.841H43.89V5.823h0Zm-2.9,0h-.837V.2H41V5.823h0Zm-4.692,0h-.837V1.038H34.09V.2h3.589v.841H36.3V5.823h0Zm-3.1,0H29.994V.2h3.213v.841H30.831V2.59h2.089v.84H30.831V4.983h2.376v.84h0Z" transform="translate(11.7 9.392)" fill="#555ab9"/>
  </g>
</svg>
