<svg xmlns="http://www.w3.org/2000/svg" width="17.99" height="17.99" viewBox="0 0 17.99 17.99">
  <path id="Icon_awesome-thumbs-up" data-name="Icon awesome-thumbs-up" d="M3.654,7.871H.843A.843.843,0,0,0,0,8.714v8.433a.843.843,0,0,0,.843.843H3.654a.843.843,0,0,0,.843-.843V8.714A.843.843,0,0,0,3.654,7.871ZM2.249,16.585a.843.843,0,1,1,.843-.843A.843.843,0,0,1,2.249,16.585ZM13.493,2.862c0,1.49-.913,2.326-1.169,3.322H15.9A2.1,2.1,0,0,1,17.99,8.226a2.544,2.544,0,0,1-.683,1.729l0,0a2.935,2.935,0,0,1-.327,2.792,2.779,2.779,0,0,1-.576,2.627,1.865,1.865,0,0,1-.216,1.568c-.717,1.03-2.495,1.045-4,1.045h-.1a10.087,10.087,0,0,1-4.2-1.115,5.53,5.53,0,0,0-1.85-.568.422.422,0,0,1-.414-.422V8.374a.421.421,0,0,1,.125-.3C7.139,6.7,7.737,5.243,8.878,4.1a4.255,4.255,0,0,0,.892-2.07C9.927,1.381,10.254,0,10.963,0,11.806,0,13.493.281,13.493,2.862Z" fill="#2a4d9a"/>
</svg>
