<svg xmlns="http://www.w3.org/2000/svg" width="57.167" height="36.29" viewBox="0 0 57.167 36.29"><defs><style>.a{fill:#ff415b;}.b{fill:#e1ebf0;}.c{fill:#07485e;}.d{fill:#b4d2d7;}.e{fill:#d10050;}.f{fill:#03232e;}.g{fill:#fff5f5;}.h{fill:#ff8859;}.i{fill:#00969b;}</style></defs><g transform="translate(0 -93.491)"><path class="a" d="M361.993,123.491h3.35v5.025h-3.35Z" transform="translate(-321.575 -26.65)"/><path class="b" d="M352.332,156.845l-1.413-3.35h-6.694l-2.233,12.533,5.583-2.233Z" transform="translate(-303.806 -53.304)"/><path class="c" d="M396.751,183.5h-4.757v9.183l7.689-2.233Z" transform="translate(-348.226 -79.956)"/><path class="d" d="M317.571,153.495h-3.35l-2.233,12.533,5.583-2.233Z" transform="translate(-277.153 -53.304)"/><path class="a" d="M341.991,251.32l18.982-2.233-5.71-3.35H344.224Z" transform="translate(-303.806 -135.247)"/><path class="e" d="M317.571,245.737h-3.35l-2.233,5.583,5.583-2.233Z" transform="translate(-277.153 -135.247)"/><path class="b" d="M360.973,275.737H341.991l2.233,10.916h16.749Z" transform="translate(-303.806 -161.898)"/><path class="d" d="M311.988,275.737l2.233,10.916h3.35V275.737Z" transform="translate(-277.153 -161.898)"/><circle class="f" cx="5.025" cy="5.025" r="5.025" transform="translate(43.768 119.731)"/><circle class="d" cx="1.675" cy="1.675" r="1.675" transform="translate(47.117 123.081)"/><path class="b" d="M284.219,268.886h3.35V257.969l-5.583-2.233Z" transform="translate(-250.501 -144.13)"/><path class="d" d="M236.7,257.969l-8.205-2.233,2.233,13.15H236.7Z" transform="translate(-202.985 -144.13)"/><path class="b" d="M175.01,255.736l2.233,13.15h5.972V257.969Z" transform="translate(-155.469 -144.13)"/><path class="g" d="M0,268.886H21.774v-13.15L0,257.969Z" transform="translate(0 -144.13)"/><path class="a" d="M281.986,225.736l2.233,5.583h3.35v-3.35Z" transform="translate(-250.501 -117.479)"/><path class="e" d="M236.7,227.969l-8.205-2.233,2.233,5.583H236.7Z" transform="translate(-202.985 -117.479)"/><path class="a" d="M175.01,225.736l2.233,5.583h5.972v-3.35Z" transform="translate(-155.469 -117.479)"/><path class="h" d="M0,227.969v3.35H21.774v-5.583Z" transform="translate(0 -117.479)"/><circle class="c" cx="5.025" cy="5.025" r="5.025" transform="translate(6.7 119.731)"/><circle class="b" cx="1.675" cy="1.675" r="1.675" transform="translate(10.049 123.081)"/><path class="b" d="M240.053,93.491h-9.322l-2.233,8.374,2.233,8.624h9.322Z" transform="translate(-202.985)"/><path class="g" d="M0,93.491H27.746v17H0Z"/><path class="i" d="M90.008,168.495h6.7v3.35h-6.7Z" transform="translate(-79.958 -66.63)"/><path class="d" d="M236.7,168.495h-5.972l-2.233,4.312,2.233,4.312H236.7Z" transform="translate(-202.985 -66.63)"/><path class="b" d="M195.011,168.495h5.972v8.624h-5.972Z" transform="translate(-173.237 -66.63)"/></g></svg>