<svg xmlns="http://www.w3.org/2000/svg" width="24.027" height="22.665" viewBox="0 0 24.027 22.665">
  <path id="Icon_ionic-md-arrow-round-back" data-name="Icon ionic-md-arrow-round-back" d="M27.57,15.478H12.958l5.667-5.421a2.258,2.258,0,0,0,0-3.086,2.019,2.019,0,0,0-2.95,0L6.24,16.119a2.08,2.08,0,0,0-.615,1.529v.027a2.08,2.08,0,0,0,.615,1.529l9.429,9.149a2.019,2.019,0,0,0,2.95,0,2.258,2.258,0,0,0,0-3.086l-5.667-5.421H27.563a2.138,2.138,0,0,0,2.089-2.185A2.115,2.115,0,0,0,27.57,15.478Z" transform="translate(-5.625 -6.33)"/>
</svg>
