<svg id="_009-translate" data-name="009-translate" xmlns="http://www.w3.org/2000/svg" width="31.965" height="31.965" viewBox="0 0 31.965 31.965">
  <g id="Translate_2_" transform="translate(13.791 7.617)">
    <g id="Group_3167" data-name="Group 3167">
      <path id="Path_7579" data-name="Path 7579" d="M222.559,145.021l3.274-7.156-4.884-14.633a.936.936,0,0,1,.888-1.233h14.428a2.813,2.813,0,0,1,2.809,2.809v18.729a2.813,2.813,0,0,1-2.809,2.809H223.41Z" transform="translate(-220.901 -121.999)" fill="#fff5f5"/>
    </g>
  </g>
  <path id="Path_7580" data-name="Path 7580" d="M384.491,143.539V124.809A2.812,2.812,0,0,0,381.681,122H376v24.348h5.681A2.813,2.813,0,0,0,384.491,143.539Z" transform="translate(-352.526 -114.383)" fill="#e3e7ea"/>
  <g id="Group_3171" data-name="Group 3171" transform="translate(12.873 22.6)">
    <g id="Group_3170" data-name="Group 3170">
      <g id="Group_3169" data-name="Group 3169">
        <g id="Group_3168" data-name="Group 3168">
          <path id="Path_7581" data-name="Path 7581" d="M209.619,371.364h-.05a.939.939,0,0,1-.839-.64l-2.491-7.492a.937.937,0,0,1,.889-1.232h5.919a.936.936,0,0,1,.851,1.326l-3.428,7.492A.936.936,0,0,1,209.619,371.364Z" transform="translate(-206.191 -361.999)" fill="#acd1fc"/>
        </g>
      </g>
    </g>
  </g>
  <g id="Group_3176" data-name="Group 3176" transform="translate(12.873 22.6)">
    <g id="Group_3175" data-name="Group 3175">
      <g id="Group_3174" data-name="Group 3174">
        <g id="Group_3173" data-name="Group 3173">
          <g id="Group_3172" data-name="Group 3172">
            <path id="Path_7582" data-name="Path 7582" d="M213.9,363.325l-3.428,7.492a.936.936,0,0,1-.851.547h-.05a.939.939,0,0,1-.839-.64l-2.491-7.492a.937.937,0,0,1,.889-1.232h5.919Z" transform="translate(-206.191 -361.999)" fill="#324492"/>
          </g>
        </g>
      </g>
    </g>
  </g>
  <g id="Group_3177" data-name="Group 3177">
    <path id="Path_7583" data-name="Path 7583" d="M19.728,24.473H2.809A2.813,2.813,0,0,1,0,21.664V2.809A2.813,2.813,0,0,1,2.809,0h9.427a.936.936,0,0,1,.889.641l7.491,22.6a.936.936,0,0,1-.888,1.233Z" fill="#4086f4"/>
  </g>
  <path id="Path_7584" data-name="Path 7584" d="M140.635.641A.936.936,0,0,0,139.746,0H136V24.473h11.238a.936.936,0,0,0,.888-1.233Z" transform="translate(-127.509)" fill="#4175df"/>
  <path id="Path_7585" data-name="Path 7585" d="M69.428,125.746H66.619a.936.936,0,0,0,0,1.873h1.7a2.8,2.8,0,1,1-.651-2.923.937.937,0,1,0,1.326-1.324,4.683,4.683,0,1,0,1.371,3.311A.936.936,0,0,0,69.428,125.746Z" transform="translate(-57.192 -114.383)" fill="#fff5f5"/>
  <g id="Group_3181" data-name="Group 3181" transform="translate(8.491 7.617)">
    <g id="Group_3180" data-name="Group 3180">
      <g id="Group_3178" data-name="Group 3178" transform="translate(0 3.746)">
        <path id="Path_7586" data-name="Path 7586" d="M139.746,182h-2.809a.936.936,0,1,0,0,1.873h1.7A2.8,2.8,0,0,1,136,185.746v1.873a4.688,4.688,0,0,0,4.682-4.682A.936.936,0,0,0,139.746,182Z" transform="translate(-136 -182)" fill="#e3e7ea"/>
      </g>
      <g id="Group_3179" data-name="Group 3179">
        <path id="Path_7587" data-name="Path 7587" d="M137.985,124.7a.937.937,0,1,0,1.326-1.324A4.651,4.651,0,0,0,136,122v1.873A2.783,2.783,0,0,1,137.985,124.7Z" transform="translate(-136 -122)" fill="#e3e7ea"/>
      </g>
    </g>
  </g>
  <path id="Path_7588" data-name="Path 7588" d="M309.428,213.873h-2.809v-.936a.937.937,0,0,0-1.873,0v.936h-2.809a.936.936,0,0,0,0,1.873h5.426a11.619,11.619,0,0,1-1.672,2.938c-.159-.214-.316-.433-.467-.655a.937.937,0,1,0-1.549,1.053c.263.387.539.757.814,1.114-.468.543-.93,1.039-1.335,1.436a.936.936,0,1,0,1.311,1.337c.146-.143.63-.635,1.227-1.307.663.758,1.163,1.262,1.2,1.3a.936.936,0,1,0,1.324-1.324c-.009-.01-.585-.591-1.314-1.441a12.454,12.454,0,0,0,2.381-4.452h.144a.936.936,0,1,0,0-1.873Z" transform="translate(-282.208 -198.765)" fill="#4254b6"/>
  <path id="Path_7589" data-name="Path 7589" d="M377.681,215.745a11.619,11.619,0,0,1-1.672,2.938l-.009-.012v3l.01-.011c.663.758,1.163,1.262,1.2,1.3a.936.936,0,1,0,1.324-1.324c-.009-.01-.585-.591-1.314-1.441a12.453,12.453,0,0,0,2.381-4.452h.144a.936.936,0,0,0,0-1.873h-2.809v-.936A.936.936,0,0,0,376,212v3.746h1.681Z" transform="translate(-352.526 -198.764)" fill="#324492"/>
</svg>
