<svg xmlns="http://www.w3.org/2000/svg" width="31.941" height="31.941" viewBox="0 0 31.941 31.941">
  <g id="_007-school" data-name="007-school" transform="translate(0 0.001)">
    <g id="Group_3163" data-name="Group 3163" transform="translate(6.987 -0.001)">
      <path id="Path_7546" data-name="Path 7546" d="M452,75v4.991a.936.936,0,0,0,1.872,0V75Z" transform="translate(-430.789 -70.321)" fill="#ffc178"/>
      <path id="Path_7547" data-name="Path 7547" d="M195.413,73.108H182.936a.936.936,0,0,1-.936-.936V64.936a.936.936,0,0,1,.936-.936h12.477a.936.936,0,0,1,.936.936v7.237A.936.936,0,0,1,195.413,73.108Z" transform="translate(-177.633 -60.007)" fill="#453d81"/>
      <path id="Path_7548" data-name="Path 7548" d="M303.238,64H297v9.108h6.238a.936.936,0,0,0,.936-.936V64.936A.936.936,0,0,0,303.238,64Z" transform="translate(-285.459 -60.007)" fill="#2e2654"/>
      <path id="Path_7549" data-name="Path 7549" d="M123.541,9.357a.936.936,0,0,1-.311-.053L112.624,5.561a.936.936,0,0,1,0-1.765L123.23.053a.935.935,0,0,1,.623,0L134.458,3.8a.936.936,0,0,1,0,1.765L123.853,9.3A.936.936,0,0,1,123.541,9.357Z" transform="translate(-112 0.001)" fill="#6b61b1"/>
      <path id="Path_7550" data-name="Path 7550" d="M297.311,9.3l10.606-3.743a.936.936,0,0,0,0-1.765L297.311.053A.936.936,0,0,0,297,0V9.358A.936.936,0,0,0,297.311,9.3Z" transform="translate(-285.459 0)" fill="#453d81"/>
    </g>
    <g id="Group_3165" data-name="Group 3165" transform="translate(0 17.415)">
      <g id="Group_3164" data-name="Group 3164" transform="translate(5.116)">
        <path id="Path_7551" data-name="Path 7551" d="M107.145,279.312a2.469,2.469,0,0,0-2.782.815l-4.195,5.324a2.792,2.792,0,0,1-2.205,1.07h-.4a2.655,2.655,0,0,0,2.651-2.605,2.69,2.69,0,0,0-2.7-2.7H90.907a6.359,6.359,0,0,0-7.81-.329l-1.1.783v10.151H98.988a6.544,6.544,0,0,0,5.42-2.872l3.986-5.875a2.5,2.5,0,0,0-1.25-3.765Z" transform="translate(-82 -279.17)" fill="#ffd5b2"/>
        <path id="Path_7552" data-name="Path 7552" d="M270.29,279.312a2.469,2.469,0,0,0-2.782.815l-4.195,5.324a2.792,2.792,0,0,1-2.205,1.07h-.4a2.654,2.654,0,0,0,2.651-2.605,2.69,2.69,0,0,0-2.7-2.7H256v10.605h6.133a6.544,6.544,0,0,0,5.42-2.872l3.986-5.875a2.5,2.5,0,0,0-1.249-3.765Z" transform="translate(-245.145 -279.17)" fill="#fac394"/>
        <path id="Path_7553" data-name="Path 7553" d="M204,346.519a.936.936,0,0,0,.936.936h7.018a4.518,4.518,0,0,0,4.456-5.293l-1.853,2.351a2.791,2.791,0,0,1-2.205,1.07h-7.417A.936.936,0,0,0,204,346.519Z" transform="translate(-196.389 -338.232)" fill="#fac394"/>
        <path id="Path_7554" data-name="Path 7554" d="M263.314,344.513a2.791,2.791,0,0,1-2.205,1.07H256v1.872h4.71a4.518,4.518,0,0,0,4.456-5.293Z" transform="translate(-245.145 -338.232)" fill="#f0b47f"/>
      </g>
      <path id="Path_7555" data-name="Path 7555" d="M4.679,296.349H.936A.936.936,0,0,1,0,295.413V282.936A.936.936,0,0,1,.936,282H4.679a.936.936,0,0,1,.936.936v12.477A.936.936,0,0,1,4.679,296.349Z" transform="translate(0 -281.823)" fill="#6ba7ff"/>
      <path id="Path_7556" data-name="Path 7556" d="M4.679,404.174H.936A.936.936,0,0,1,0,403.238V397H5.615v6.239A.936.936,0,0,1,4.679,404.174Z" transform="translate(0 -389.649)" fill="#347adf"/>
    </g>
  </g>
</svg>
