<svg id="_010-review" data-name="010-review" xmlns="http://www.w3.org/2000/svg" width="32.049" height="32.049" viewBox="0 0 32.049 32.049">
  <g id="Group_3189" data-name="Group 3189" transform="translate(0 0)">
    <path id="Path_7590" data-name="Path 7590" d="M.969,11.093H31.08c.535,0,.969-.739.969-1.533V.969A.969.969,0,0,0,31.08,0H.969A.969.969,0,0,0,0,.969V9.56c0,.934.434,1.533.969,1.533Z" transform="translate(0 0)" fill="#de5974"/>
    <path id="Path_7591" data-name="Path 7591" d="M31.08,153.7H.969A.969.969,0,0,1,0,152.731v1.163a.969.969,0,0,0,.969.969H31.08a.969.969,0,0,0,.969-.969v-1.163A.969.969,0,0,1,31.08,153.7Z" transform="translate(0 -143.171)" fill="#c7495d"/>
    <path id="Path_7592" data-name="Path 7592" d="M367.716,40.078l-1.129-.164a.552.552,0,0,1-.416-.3l-.5-1.023a.552.552,0,0,0-.991,0l-.5,1.023a.552.552,0,0,1-.416.3l-1.129.164a.552.552,0,0,0-.306.942l.817.8a.553.553,0,0,1,.159.489l-.163.949h4.076l-.163-.949a.552.552,0,0,1,.159-.489l.817-.8A.552.552,0,0,0,367.716,40.078Z" transform="translate(-339.484 -35.885)" fill="#ffe07d"/>
    <path id="Path_7593" data-name="Path 7593" d="M169.208,162.88a1.23,1.23,0,0,0-1.23,1.23v-.845a1.23,1.23,0,1,0-2.46,0v-.845a1.23,1.23,0,0,0-2.46,0v-5.506a1.23,1.23,0,1,0-2.46,0v10.993h-.018l-1.979-2.218a3.264,3.264,0,0,0-2.436-1.091.632.632,0,0,0-.555.934l1.93,3.545a9.113,9.113,0,0,0,1.722,2.245l2.207,2.1v.544l3.578.563,3.578-.563v-.544s1.811-1.91,1.811-6.353v-2.96A1.23,1.23,0,0,0,169.208,162.88Z" transform="translate(-145.798 -145.939)" fill="#f0c69e"/>
    <g id="Group_3182" data-name="Group 3182" transform="translate(15.673 28.028)">
      <path id="Path_7594" data-name="Path 7594" d="M250.386,448.926l3.562.563,3.594-.563v-1.163h-7.155Z" transform="translate(-250.386 -447.763)" fill="#e6ba94"/>
    </g>
    <path id="Path_7595" data-name="Path 7595" d="M213.35,40.078l-1.129-.164a.552.552,0,0,1-.416-.3l-.5-1.023a.552.552,0,0,0-.991,0l-.5,1.023a.552.552,0,0,1-.416.3l-1.128.164a.552.552,0,0,0-.306.942l.817.8a.552.552,0,0,1,.159.489l-.163.949h4.076l-.163-.949a.553.553,0,0,1,.159-.489l.817-.8A.552.552,0,0,0,213.35,40.078Z" transform="translate(-194.781 -35.885)" fill="#ffe07d"/>
    <path id="Path_7596" data-name="Path 7596" d="M58.984,40.078l-1.128-.164a.552.552,0,0,1-.416-.3l-.5-1.023a.552.552,0,0,0-.991,0l-.5,1.023a.552.552,0,0,1-.416.3l-1.128.164a.552.552,0,0,0-.306.942l.817.8a.552.552,0,0,1,.159.489l-.163.949h4.076l-.163-.949a.553.553,0,0,1,.159-.489l.817-.8A.552.552,0,0,0,58.984,40.078Z" transform="translate(-50.077 -35.885)" fill="#ffe07d"/>
    <path id="Path_7597" data-name="Path 7597" d="M236.915,468.6h7.641c.344,0,.623-.449.623-1.187v-.448a.623.623,0,0,0-.623-.623h-7.641a.623.623,0,0,0-.623.623v.448C236.292,468.137,236.571,468.6,236.915,468.6Z" transform="translate(-221.501 -437.152)" fill="#e5ecf7"/>
    <path id="Path_7598" data-name="Path 7598" d="M244.556,484.083h-7.641a.623.623,0,0,1-.623-.623v1.163a.623.623,0,0,0,.623.623h7.641a.623.623,0,0,0,.623-.623V483.46A.623.623,0,0,1,244.556,484.083Z" transform="translate(-221.501 -453.198)" fill="#b9cbea"/>
    <g id="Group_3184" data-name="Group 3184" transform="translate(4.286 6.369)">
      <g id="Group_3183" data-name="Group 3183">
        <path id="Path_7599" data-name="Path 7599" d="M72.579,102.755l-1.781-.936a.552.552,0,0,0-.514,0l-1.781.936-.03.175a.552.552,0,0,0,.8.582l1.009-.531a.552.552,0,0,1,.514,0l1.009.531a.552.552,0,0,0,.8-.582Z" transform="translate(-68.465 -101.755)" fill="#ffd064"/>
      </g>
    </g>
    <g id="Group_3186" data-name="Group 3186" transform="translate(13.948 6.369)">
      <g id="Group_3185" data-name="Group 3185">
        <path id="Path_7600" data-name="Path 7600" d="M226.945,102.755l-1.781-.936a.552.552,0,0,0-.514,0l-1.781.936-.03.175a.552.552,0,0,0,.8.582l1.009-.531a.553.553,0,0,1,.514,0l1.009.531a.552.552,0,0,0,.8-.582Z" transform="translate(-222.831 -101.755)" fill="#ffd064"/>
      </g>
    </g>
    <g id="Group_3188" data-name="Group 3188" transform="translate(23.611 6.369)">
      <g id="Group_3187" data-name="Group 3187">
        <path id="Path_7601" data-name="Path 7601" d="M381.312,102.755l-1.781-.936a.552.552,0,0,0-.514,0l-1.781.936-.03.175a.552.552,0,0,0,.8.582l1.009-.531a.552.552,0,0,1,.514,0l1.009.531a.552.552,0,0,0,.8-.582Z" transform="translate(-377.198 -101.755)" fill="#ffd064"/>
      </g>
    </g>
  </g>
</svg>
