<svg xmlns="http://www.w3.org/2000/svg" width="30.367" height="31.994" viewBox="0 0 30.367 31.994">
  <g id="profit" transform="translate(-12.112 0)">
    <g id="Group_3229" data-name="Group 3229" transform="translate(12.112 0)">
      <path id="Path_7726" data-name="Path 7726" d="M114.2,266.069a1.789,1.789,0,0,1-.21,2.491l-4.982,4.14a9.788,9.788,0,0,1-6.7,2.28l-7.227-.351a11.21,11.21,0,0,0-2.421.14l-3.017.561h-.21v-8.91h.14l3.122-1.509a10.348,10.348,0,0,1,5.122-1.158l4.771.21h.105a1.754,1.754,0,0,1,1.754,1.544,1.789,1.789,0,0,1-1.438,1.965l-3.543.666a1.052,1.052,0,0,0-.7,1.579l.386.666a.947.947,0,0,0,.912.491l3.438-.105a5.856,5.856,0,0,0,3.543-1.3l4.6-3.718a1.824,1.824,0,0,1,2.561.281Z" transform="translate(-84.241 -246.038)" fill="#edb288"/>
      <path id="Path_7727" data-name="Path 7727" d="M207.773,0a8.139,8.139,0,1,1-8.1,8.174V8.139A8.1,8.1,0,0,1,207.738,0Z" transform="translate(-187.076 0)" fill="#fedb41"/>
      <path id="Path_7728" data-name="Path 7728" d="M17.655,292.473v1.3a1.4,1.4,0,0,1-1.4,1.4H13.515a1.4,1.4,0,0,1-1.4-1.4V283.527a1.4,1.4,0,0,1,1.4-1.4h2.736a1.4,1.4,0,0,1,1.4,1.4h0Z" transform="translate(-12.112 -263.18)" fill="#00acea"/>
    </g>
    <path id="Path_7729" data-name="Path 7729" d="M276.494,57.837h-.877a4.24,4.24,0,0,0-.386-1.052h1.263a.7.7,0,0,0,0-1.4h-5.262a.7.7,0,1,0,0,1.4h1.508a1.439,1.439,0,0,1,1.369,1.052h-2.877a.7.7,0,1,0,0,1.4h2.877c-.07,0-.14.21-.281.316a1.474,1.474,0,0,1-1.088.386h-1.508a.737.737,0,0,0-.667.421.7.7,0,0,0,.175.772l3.754,3.543a.7.7,0,0,0,.491.211.807.807,0,0,0,.526-.246.7.7,0,0,0-.035-.982l-2.491-2.35a2.876,2.876,0,0,0,1.824-.772,3.539,3.539,0,0,0,.807-1.3h.877a.7.7,0,0,0,0-1.4Z" transform="translate(-241.053 -51.662)" fill="#3bb54a"/>
  </g>
</svg>
