<svg xmlns="http://www.w3.org/2000/svg" width="38.451" height="39.375" viewBox="0 0 38.451 39.375"><defs><style>.a{fill:#c3dafd;}.b{fill:#a1b8d8;}.c{fill:#abc4d8;}.d{fill:#c3ddf1;}.e{fill:#457899;}.f{fill:#365c75;}.g{fill:#ff5c5c;}.h{fill:#ff3838;}.i{fill:#274254;}.j{fill:#e4f3ff;}.k{fill:#5ca2fa;}.l{fill:#3d6def;}</style></defs><g transform="translate(-6)"><path class="a" d="M66,90H79.843v6.921H66Z" transform="translate(-55.386 -83.079)"/><path class="b" d="M156,90h6.921v6.921H156Z" transform="translate(-138.465 -83.079)"/><path class="c" d="M6,150H29.071v27.839H6Z" transform="translate(0 -138.465)"/><path class="d" d="M156,150h11.535v27.839H156Z" transform="translate(-138.465 -138.465)"/><path class="e" d="M36,0H54.457V9.228H36Z" transform="translate(-27.693)"/><path class="f" d="M156,0h9.228V9.228H156Z" transform="translate(-138.465)"/><path class="g" d="M6,216H29.071v17.688H6Z" transform="translate(0 -199.389)"/><path class="h" d="M156,216h11.535v17.688H156Z" transform="translate(-138.465 -199.389)"/><path class="i" d="M186,0h2.307V4.583H186Z" transform="translate(-166.157)"/><path class="f" d="M96,0h2.307V4.583H96Z" transform="translate(-83.079)"/><path class="j" d="M109.459,279.076h-3.076V276h-2.307v3.076H101v2.307h3.076v3.076h2.307v-3.076h3.076Z" transform="translate(-87.694 -254.775)"/><path class="a" d="M157.154,279.076V276H156v8.459h1.154v-3.076h3.076v-2.307Z" transform="translate(-138.465 -254.775)"/><path class="j" d="M289.458,388.459H280.23a4.23,4.23,0,0,1,0-8.459h9.228a4.23,4.23,0,1,1,0,8.459Z" transform="translate(-249.236 -350.777)"/><path class="a" d="M280.23,439.23h9.228a4.234,4.234,0,0,0,4.23-4.23H276A4.234,4.234,0,0,0,280.23,439.23Z" transform="translate(-249.236 -401.547)"/><path class="g" d="M395.614,380H391v8.459h4.614a4.23,4.23,0,0,0,0-8.459Z" transform="translate(-355.392 -350.777)"/><path class="h" d="M391,439.23h4.614a4.234,4.234,0,0,0,4.23-4.23H391Z" transform="translate(-355.392 -401.547)"/><path class="j" d="M289.771,170.246l-6.525,6.526a4.23,4.23,0,0,1-5.982-5.982l6.525-6.525a4.23,4.23,0,1,1,5.982,5.982Z" transform="translate(-249.261 -150.491)"/><path class="a" d="M298.091,191.616l6.525-6.526a4.234,4.234,0,0,0,0-5.982l-12.507,12.507A4.235,4.235,0,0,0,298.091,191.616Z" transform="translate(-264.106 -165.335)"/><path class="k" d="M337.8,164.263l-3.263,3.263,5.982,5.982,3.263-3.263a4.23,4.23,0,1,0-5.982-5.982Z" transform="translate(-303.271 -150.489)"/><path class="l" d="M376.418,188.353l3.263-3.263a4.234,4.234,0,0,0,0-5.982l-6.254,6.254Z" transform="translate(-339.171 -165.335)"/></g></svg>