<svg xmlns="http://www.w3.org/2000/svg" width="32.018" height="30.134" viewBox="0 0 32.018 30.134">
  <g id="XMLID_51_" transform="translate(0 -15.062)">
    <g id="XMLID_18_" transform="translate(9.404 15.062)">
      <path id="XMLID_1774_" d="M162.647,22.59H151.313a.938.938,0,0,1-.938-.938V18.267a3.209,3.209,0,0,1,3.2-3.2h6.8a3.209,3.209,0,0,1,3.2,3.2v3.385A.938.938,0,0,1,162.647,22.59Zm-10.4-1.251h9.458V18.267a1.33,1.33,0,0,0-1.329-1.329h-6.8a1.33,1.33,0,0,0-1.329,1.329Z" transform="translate(-150.375 -15.062)" fill="#575a65"/>
    </g>
    <path id="XMLID_1928_" d="M259.4,15.062H256v1.876h3.4a1.33,1.33,0,0,1,1.329,1.329v3.072H256V22.59h5.667a.938.938,0,0,0,.938-.938V18.267A3.209,3.209,0,0,0,259.4,15.062Z" transform="translate(-239.991 0)" fill="#464b52"/>
    <g id="XMLID_20_" transform="translate(0 20.714)">
      <path id="XMLID_1777_" d="M27.249,129.92l-11.241-1.685L4.768,129.92A4.774,4.774,0,0,1,0,125.152V110.206a4.774,4.774,0,0,1,4.768-4.768l11.241.786,11.241-.786a4.774,4.774,0,0,1,4.768,4.768v14.946A4.774,4.774,0,0,1,27.249,129.92Z" transform="translate(0 -105.438)" fill="#464b52"/>
    </g>
    <path id="XMLID_1883_" d="M267.241,105.438,256,106.063v23.232l11.241.625a4.774,4.774,0,0,0,4.768-4.768V110.206A4.774,4.774,0,0,0,267.241,105.438Z" transform="translate(-239.991 -84.724)" fill="#292b2f"/>
    <g id="XMLID_21_" transform="translate(4.768 20.714)">
      <path id="XMLID_1768_" d="M98.73,129.92H76.249V105.438H98.73Z" transform="translate(-76.249 -105.438)" fill="#f3f5fc"/>
    </g>
    <path id="XMLID_1882_" d="M256,105.438h11.241V129.92H256Z" transform="translate(-239.991 -84.724)" fill="#e9ecf4"/>
    <g id="XMLID_52_" transform="translate(9.419 26.365)">
      <path id="XMLID_1771_" d="M159.1,208.991h-3.768a.938.938,0,0,1-.938-.938v-2.83h-2.83a.938.938,0,0,1-.938-.938v-3.768a.938.938,0,0,1,.938-.938h2.83v-2.83a.938.938,0,0,1,.938-.938H159.1a.938.938,0,0,1,.938.938v2.83h2.83a.938.938,0,0,1,.938.938v3.768a.938.938,0,0,1-.938.938h-2.83v2.83A.938.938,0,0,1,159.1,208.991Z" transform="translate(-150.625 -195.812)" fill="#3198f7"/>
    </g>
    <path id="XMLID_1924_" d="M261.652,199.58h-2.83v-2.83a.938.938,0,0,0-.938-.938H256v13.179h1.884a.938.938,0,0,0,.938-.938v-2.83h2.83a.938.938,0,0,0,.938-.938v-3.768A.938.938,0,0,0,261.652,199.58Z" transform="translate(-239.991 -169.447)" fill="#3198f7"/>
  </g>
</svg>
