<svg xmlns="http://www.w3.org/2000/svg" width="43.934" height="43.935" viewBox="0 0 43.934 43.935"><defs><style>.a{fill:#c4a2fc;}.b{fill:#151a6a;}</style></defs><g transform="translate(-1 -0.999)"><path class="a" d="M35.881,21A14.881,14.881,0,1,0,50.762,35.881,14.881,14.881,0,0,0,35.881,21Zm9.212,17.715a.709.709,0,0,1-.709.709h-4.96v4.96a.709.709,0,0,1-.709.709H33.046a.709.709,0,0,1-.709-.709v-4.96h-4.96a.709.709,0,0,1-.709-.709V33.046a.709.709,0,0,1,.709-.709h4.96v-4.96a.709.709,0,0,1,.709-.709h5.669a.709.709,0,0,1,.709.709v4.96h4.96a.709.709,0,0,1,.709.709Z" transform="translate(-5.828 -5.828)"/><path class="a" d="M40.921,35.96V31H36.669v4.96a.709.709,0,0,1-.709.709H31v4.252h4.96a.709.709,0,0,1,.709.709v4.96h4.252v-4.96a.709.709,0,0,1,.709-.709h4.96V36.669h-4.96A.709.709,0,0,1,40.921,35.96Z" transform="translate(-8.742 -8.742)"/><path class="b" d="M36.282,8.617,29.266,1.6a2.178,2.178,0,0,0-3.007,0,2.126,2.126,0,0,0,0,3.006l1.5,1.5-1.5,1.5L23.254,4.609a2.178,2.178,0,0,0-3.006,0,2.1,2.1,0,0,0-.41,2.414L9.224,17.637A7.8,7.8,0,0,0,7.6,26.272l-.885.884a2.126,2.126,0,0,0,0,3.006l-5.51,5.512a.709.709,0,1,0,1,1l5.511-5.512a2.126,2.126,0,0,0,3.007,0l.884-.884a7.781,7.781,0,0,0,8.636-1.621L30.861,18.045a2.1,2.1,0,0,0,2.414-.409,2.126,2.126,0,0,0,0-3.007l-3.006-3.006,1.5-1.5,1.5,1.5a2.126,2.126,0,1,0,3.007-3.006ZM9.725,30.162a.709.709,0,0,1-1,0l-1-1a.709.709,0,0,1,0-1l.6-.6a7.477,7.477,0,0,0,2,2Zm9.52-2.5a6.377,6.377,0,1,1-9.019-9.019l2,2a.709.709,0,1,0,1-1l-2-2,3.007-3.007,2,2a.709.709,0,0,0,1-1l-2-2,3.006-3.006,2,2a.709.709,0,1,0,1-1l-2-2,1.5-1.5,9.021,9.019ZM32.272,16.634a.726.726,0,0,1-1,0L21.25,6.613a.709.709,0,1,1,1-1L32.273,15.631a.709.709,0,0,1,0,1Zm-3.005-6.013-2-2,1.5-1.5,2,2Zm6.013,0a.723.723,0,0,1-1,0L27.263,3.606a.709.709,0,1,1,1-1L35.281,9.62a.709.709,0,0,1,0,1Z" transform="translate(0 0)"/></g></svg>