<svg xmlns="http://www.w3.org/2000/svg" width="29.758" height="30.214" viewBox="0 0 29.758 30.214">
  <g id="Group_9814" data-name="Group 9814" transform="translate(-17587.541 -5194.3)">
    <circle id="Ellipse_2" data-name="Ellipse 2" cx="6.726" cy="6.726" r="6.726" transform="translate(17595.994 5194.301)" fill="#0094e3"/>
    <path id="Path_1909" data-name="Path 1909" d="M241.252,126.085a6.714,6.714,0,0,0-2.284.4,6.728,6.728,0,0,1,0,12.656,6.727,6.727,0,1,0,2.284-13.054Z" transform="translate(17361.469 5068.215)" fill="#007bce"/>
    <path id="Path_1910" data-name="Path 1910" d="M156.819,285.251h-27.88a.943.943,0,0,1-.939-.911V280a8.04,8.04,0,0,1,8.072-8h13.613a8.04,8.04,0,0,1,8.072,8v4.337A.943.943,0,0,1,156.819,285.251Z" transform="translate(17459.541 4939.262)" fill="#6cc9f1"/>
    <path id="Path_1911" data-name="Path 1911" d="M282.934,272h-4.159a8.018,8.018,0,0,1,8.047,8v4.337a.92.92,0,0,1-.913.911h4.159a.943.943,0,0,0,.939-.911V280A8.04,8.04,0,0,0,282.934,272Z" transform="translate(17326.293 4939.262)" fill="#67bae8"/>
  </g>
</svg>
