<svg xmlns="http://www.w3.org/2000/svg" width="19.217" height="19.217" viewBox="0 0 19.217 19.217">
  <path id="_" data-name="" d="M17.673,19.217H1.544a1.5,1.5,0,0,1-1.093-.45A1.492,1.492,0,0,1,0,17.673V2.917A1.5,1.5,0,0,1,.45,1.823a1.5,1.5,0,0,1,1.093-.45H4.118v-.6A.748.748,0,0,1,4.343.225a.777.777,0,0,1,1.093,0,.748.748,0,0,1,.226.547v.6h7.893v-.6A.751.751,0,0,1,13.78.225a.777.777,0,0,1,1.093,0A.748.748,0,0,1,15.1.772v.6h2.574a1.538,1.538,0,0,1,1.544,1.545V17.673a1.538,1.538,0,0,1-1.544,1.544ZM1.544,6.863v10.81H17.673V6.863Zm0-3.946v2.4H17.673v-2.4H15.1v.429a.772.772,0,1,1-1.544,0V2.917H5.662v.429a.774.774,0,0,1-1.319.547.745.745,0,0,1-.226-.547V2.917Zm8.751,12.225H8.922a.686.686,0,0,1,0-1.372h1.373a.686.686,0,0,1,0,1.372Zm-4.119,0H4.8a.686.686,0,0,1,0-1.372H6.176a.686.686,0,0,1,0,1.372Zm8.236-4.16H13.04a.687.687,0,0,1,0-1.373h1.372a.687.687,0,0,1,0,1.373Zm-4.118,0H8.922a.687.687,0,0,1,0-1.373h1.373a.687.687,0,0,1,0,1.373Zm-4.119,0H4.8a.687.687,0,0,1,0-1.373H6.176a.687.687,0,0,1,0,1.373Z" fill="#181818"/>
</svg>
