<svg xmlns="http://www.w3.org/2000/svg" width="20" height="20" viewBox="0 0 20 20">
  <path id="_" data-name="î¹" d="M10,20a9.846,9.846,0,0,1-3.9-.781A9.957,9.957,0,0,1,.781,13.9,9.839,9.839,0,0,1,0,10,9.846,9.846,0,0,1,.781,6.1,9.96,9.96,0,0,1,6.1.781,9.846,9.846,0,0,1,10,0a9.839,9.839,0,0,1,3.9.781A9.957,9.957,0,0,1,19.219,6.1,9.846,9.846,0,0,1,20,10a9.839,9.839,0,0,1-.781,3.9A9.954,9.954,0,0,1,13.9,19.219,9.839,9.839,0,0,1,10,20ZM10,1.176a8.547,8.547,0,0,0-3.436.7A8.884,8.884,0,0,0,1.875,6.557a8.532,8.532,0,0,0-.7,3.433,8.532,8.532,0,0,0,.7,3.433,9.15,9.15,0,0,0,1.891,2.8,8.94,8.94,0,0,0,2.8,1.9,8.547,8.547,0,0,0,3.436.7,8.55,8.55,0,0,0,3.437-.7,8.956,8.956,0,0,0,2.8-1.9,9.127,9.127,0,0,0,1.89-2.8,8.515,8.515,0,0,0,.7-3.433,8.515,8.515,0,0,0-.7-3.433,8.877,8.877,0,0,0-4.687-4.682A8.55,8.55,0,0,0,10,1.176Zm.214,12.941a.538.538,0,0,1-.221-.05.832.832,0,0,1-.2-.132.738.738,0,0,1,0-.931l2.174-2.368H5.3a.535.535,0,0,1-.424-.192.679.679,0,0,1-.166-.455.671.671,0,0,1,.166-.466A.55.55,0,0,1,5.3,9.342h6.63L9.789,7a.71.71,0,0,1,0-.911.546.546,0,0,1,.848,0l3.48,3.925-3.48,3.925a.832.832,0,0,1-.2.132A.536.536,0,0,1,10.213,14.117Z" fill="#fff"/>
</svg>
