<svg xmlns="http://www.w3.org/2000/svg" width="11.212" height="11.212" viewBox="0 0 11.212 11.212">
  <path id="Icon_ionic-ios-arrow-dropdown-circle" data-name="Icon ionic-ios-arrow-dropdown-circle" d="M3.375,8.981A5.606,5.606,0,1,0,8.981,3.375,5.605,5.605,0,0,0,3.375,8.981Zm7.792-1.17a.522.522,0,0,1,.736,0,.514.514,0,0,1,.151.367.523.523,0,0,1-.154.369L9.358,11.081a.52.52,0,0,1-.717-.016L6.062,8.493A.52.52,0,0,1,6.8,7.757L8.984,9.965Z" transform="translate(-3.375 -3.375)" fill="#7b9df9"/>
</svg>
