<svg xmlns="http://www.w3.org/2000/svg" width="9.669" height="9.669" viewBox="0 0 9.669 9.669">
  <path id="Icon_awesome-pencil-alt" data-name="Icon awesome-pencil-alt" d="M9.4,2.687l-.871.871a.227.227,0,0,1-.321,0l-2.1-2.1a.227.227,0,0,1,0-.321L6.987.27a.908.908,0,0,1,1.282,0L9.4,1.405A.905.905,0,0,1,9.4,2.687Zm-4.036-.8L.409,6.848l-.4,2.295a.454.454,0,0,0,.525.525l2.295-.4L7.788,4.306a.227.227,0,0,0,0-.321l-2.1-2.1a.229.229,0,0,0-.323,0ZM2.345,6.423a.263.263,0,0,1,0-.374L5.253,3.141a.264.264,0,0,1,.374.374L2.719,6.423a.263.263,0,0,1-.374,0ZM1.663,8.011H2.57V8.7L1.352,8.91.764,8.323.978,7.1h.686Z" transform="translate(-0.002 -0.005)" fill="#7b9df9"/>
</svg>
