<svg xmlns="http://www.w3.org/2000/svg" width="24.719" height="24.719" viewBox="0 0 24.719 24.719">
  <path id="Icon_ionic-ios-arrow-dropdown-circle" data-name="Icon ionic-ios-arrow-dropdown-circle" d="M3.375,15.734A12.359,12.359,0,1,1,15.734,28.094,12.357,12.357,0,0,1,3.375,15.734Zm17.178,2.579a1.151,1.151,0,0,0,1.622,0,1.133,1.133,0,0,0,.333-.808,1.153,1.153,0,0,0-.339-.814l-5.6-5.585a1.145,1.145,0,0,0-1.581.036L9.3,16.81a1.147,1.147,0,1,0,1.622,1.622l4.819-4.867Z" transform="translate(-3.375 -3.375)" fill="#fff"/>
</svg>
