<svg xmlns="http://www.w3.org/2000/svg" width="24" height="32" viewBox="0 0 24 32">
  <path id="Icon_awesome-file-upload" data-name="Icon awesome-file-upload" d="M14,8.5V0H1.5A1.5,1.5,0,0,0,0,1.5v29A1.5,1.5,0,0,0,1.5,32h21A1.5,1.5,0,0,0,24,30.5V10H15.5A1.5,1.5,0,0,1,14,8.5ZM18.074,22H14v5a1,1,0,0,1-1,1H11a1,1,0,0,1-1-1V22H5.926a1,1,0,0,1-.7-1.71l6.026-5.981a1.066,1.066,0,0,1,1.5,0l6.026,5.981A1,1,0,0,1,18.074,22ZM23.563,6.563,17.444.438A1.5,1.5,0,0,0,16.381,0H16V8h8V7.619A1.5,1.5,0,0,0,23.563,6.563Z" fill="#008ea2"/>
</svg>
