<svg id="Group" xmlns="http://www.w3.org/2000/svg" xmlns:xlink="http://www.w3.org/1999/xlink" width="168.781" height="57.781" viewBox="0 0 168.781 57.781">
  <defs>
    <clipPath id="clip-path">
      <rect id="_Background" data-name="◼️ Background" width="168.781" height="57.781" rx="6" fill="#1c1c1c"/>
    </clipPath>
  </defs>
  <rect id="_Background-2" data-name="◼️ Background" width="168.781" height="57.781" rx="6" fill="#1c1c1c"/>
  <g id="Group-2" data-name="Group" clip-path="url(#clip-path)">
    <path id="Logo" d="M65.278,34.868V18.863h2.381v2.069H67.7a4.126,4.126,0,0,1,3.816-2.263c3.066,0,5.047,2.436,5.047,6.207s-1.963,6.219-5,6.219A4.109,4.109,0,0,1,67.8,28.912h-.057v5.955H65.278Zm5.594-14.119c-1.881,0-3.144,1.659-3.144,4.127a4.9,4.9,0,0,0,.863,3A2.777,2.777,0,0,0,70.871,29a2.807,2.807,0,0,0,2.314-1.116,4.916,4.916,0,0,0,.853-3.011,4.915,4.915,0,0,0-.853-3.006A2.806,2.806,0,0,0,70.871,20.749ZM51.54,34.868V18.863h2.381v2.069h.046a4.126,4.126,0,0,1,3.816-2.263c3.066,0,5.048,2.436,5.048,6.207s-1.963,6.219-5,6.219a4.109,4.109,0,0,1-3.771-2.183H54v5.955H51.54Zm5.594-14.119c-1.881,0-3.144,1.659-3.144,4.127a4.9,4.9,0,0,0,.863,3A2.777,2.777,0,0,0,57.134,29a2.807,2.807,0,0,0,2.314-1.116,4.916,4.916,0,0,0,.853-3.011,4.915,4.915,0,0,0-.853-3.006A2.806,2.806,0,0,0,57.134,20.749ZM8.168,31.562H8.138c-2.065,0-3.67-2.305-4.842-3.989a20.147,20.147,0,0,1-3.038-7.61,12.517,12.517,0,0,1,1.069-8.3,7.67,7.67,0,0,1,6.46-3.954h.089a8.621,8.621,0,0,1,3.164.82l.005,0,.009,0A5.858,5.858,0,0,0,13,9.1a5.871,5.871,0,0,0,1.88-.558l.005,0,.008,0a10.04,10.04,0,0,1,3.614-.92c.147,0,.317.009.506.026a7.309,7.309,0,0,1,5.765,3.127h-.005a7.536,7.536,0,0,0-1.79,1.573,6.678,6.678,0,0,0-1.609,4.443,6.929,6.929,0,0,0,4.218,6.375v.006A16.112,16.112,0,0,1,23.4,27.642c-1.4,2.1-2.723,3.837-4.8,3.869l-.117,0a5.435,5.435,0,0,1-2.312-.577,6.362,6.362,0,0,0-2.758-.656,6.628,6.628,0,0,0-2.9.676l-.005,0a6.029,6.029,0,0,1-2.267.6H8.168Zm81.964-.4a7.177,7.177,0,0,1-4.44-1.316,4.674,4.674,0,0,1-1.826-3.554h2.518c.18,1.621,1.76,2.71,3.931,2.71,2.066,0,3.566-1.072,3.566-2.549,0-1.28-.906-2.049-3.031-2.572l-2.13-.515c-3.016-.731-4.42-2.144-4.42-4.447,0-2.827,2.46-4.8,5.981-4.8a6.626,6.626,0,0,1,4.241,1.333,4.5,4.5,0,0,1,1.7,3.468H93.732c-.147-1.629-1.482-2.64-3.486-2.64a4.027,4.027,0,0,0-2.413.686,2.156,2.156,0,0,0-.926,1.783c0,1.163.865,1.851,2.984,2.378l1.812.446a7.808,7.808,0,0,1,3.651,1.682,3.789,3.789,0,0,1,1.122,2.891,4.5,4.5,0,0,1-1.712,3.667A7.4,7.4,0,0,1,90.132,31.164Zm43.272-.046c-3.486,0-5.651-2.37-5.651-6.185a6.788,6.788,0,0,1,1.505-4.559,5.2,5.2,0,0,1,4.043-1.729,5.118,5.118,0,0,1,3.948,1.633,6.424,6.424,0,0,1,1.453,4.368v.846h-8.465v.148a3.145,3.145,0,0,0,3.224,3.475,2.714,2.714,0,0,0,2.769-1.76h2.336a4.155,4.155,0,0,1-1.679,2.7A5.812,5.812,0,0,1,133.4,31.118Zm-.1-10.483a2.87,2.87,0,0,0-2.125.884,3.588,3.588,0,0,0-.929,2.247h5.993A2.943,2.943,0,0,0,133.3,20.635ZM111.933,31.118a5.436,5.436,0,0,1-4.128-1.668,6.6,6.6,0,0,1-1.557-4.574,6.572,6.572,0,0,1,1.561-4.565,5.938,5.938,0,0,1,8.248,0,6.572,6.572,0,0,1,1.561,4.565,6.6,6.6,0,0,1-1.557,4.574A5.44,5.44,0,0,1,111.933,31.118Zm0-10.437a2.816,2.816,0,0,0-2.312,1.1,5.043,5.043,0,0,0-.867,3.1,5.065,5.065,0,0,0,.867,3.107,2.983,2.983,0,0,0,4.628,0,5.07,5.07,0,0,0,.863-3.107,5.038,5.038,0,0,0-.868-3.1A2.816,2.816,0,0,0,111.933,20.681ZM103.118,30.97c-2.427,0-3.373-.91-3.373-3.247v-6.9H98V18.863h1.742V16.016h2.472v2.847H104.5v1.955h-2.279v6.63c0,1.044.45,1.509,1.458,1.509a5.363,5.363,0,0,0,.81-.057v1.955A6.833,6.833,0,0,1,103.118,30.97ZM37.5,30.891H34.841l5.936-16.5h2.757l5.935,16.5h-2.7l-1.5-4.459H39L37.5,30.89Zm4.6-13.754-2.449,7.236h4.967l-2.45-7.236ZM122.537,30.89h-2.461V18.863h2.346V20.91h.057a2.9,2.9,0,0,1,2.883-2.241,4.44,4.44,0,0,1,.842.091v2.3a3.543,3.543,0,0,0-1.1-.137,2.478,2.478,0,0,0-2.564,2.767v7.2Zm2.325-21.075c-1.763,0-2.858-1.225-2.858-3.2a3.542,3.542,0,0,1,.763-2.348,2.608,2.608,0,0,1,2.048-.9,2.526,2.526,0,0,1,1.983.846,3.4,3.4,0,0,1,.726,2.261v.4h-4.453v.06a1.781,1.781,0,0,0,1.815,1.976,1.493,1.493,0,0,0,1.54-.988h1.02A2.452,2.452,0,0,1,124.862,9.814ZM124.8,4.275a1.755,1.755,0,0,0-1.718,1.785h3.372A1.659,1.659,0,0,0,124.8,4.275ZM97.14,9.814c-1.747,0-2.876-1.264-2.876-3.221s1.129-3.222,2.876-3.222,2.87,1.265,2.87,3.222S98.883,9.814,97.14,9.814Zm0-5.527c-1.123,0-1.82.883-1.82,2.305s.7,2.305,1.82,2.305,1.814-.883,1.814-2.305S98.259,4.288,97.14,4.288ZM86.83,9.814c-1.588,0-2.656-1.295-2.656-3.221s1.058-3.222,2.631-3.222a2.191,2.191,0,0,1,1.976,1.12h.024V1.065h1.038V9.707h-.991V8.652h-.018A2.229,2.229,0,0,1,86.83,9.814Zm.2-5.527c-1.087,0-1.79.9-1.79,2.305,0,1.422.686,2.305,1.79,2.305,1.067,0,1.784-.926,1.784-2.305S88.094,4.288,87.027,4.288ZM79.751,9.814a1.868,1.868,0,0,1-2.065-1.869c0-1.073.82-1.737,2.25-1.82l1.779-.1V5.5c0-.761-.509-1.215-1.361-1.215a1.307,1.307,0,0,0-1.432.988h-1a2.2,2.2,0,0,1,2.458-1.9,2.627,2.627,0,0,1,1.734.55,1.88,1.88,0,0,1,.642,1.48V9.707h-.985V8.634h-.024A2.253,2.253,0,0,1,79.751,9.814Zm1.964-2.982h0l-1.659.1c-.835.054-1.314.422-1.314,1.011s.5.983,1.242.983a1.627,1.627,0,0,0,1.731-1.587V6.832Zm-8.1,2.982c-1.748,0-2.877-1.264-2.877-3.221s1.129-3.222,2.877-3.222,2.87,1.265,2.87,3.222S75.358,9.814,73.615,9.814Zm0-5.527c-1.123,0-1.82.883-1.82,2.305s.7,2.305,1.82,2.305,1.814-.883,1.814-2.305S74.733,4.288,73.615,4.288ZM47.821,9.814c-1.748,0-2.877-1.264-2.877-3.221s1.129-3.222,2.877-3.222,2.87,1.265,2.87,3.222S49.565,9.814,47.821,9.814Zm0-5.527C46.7,4.288,46,5.171,46,6.593S46.7,8.9,47.821,8.9s1.814-.883,1.814-2.305S48.94,4.288,47.821,4.288Zm65.317,5.467c-1.138,0-1.582-.467-1.582-1.664V4.335h-.925V3.479h.925v-1.5H112.6v1.5H113.8v.856H112.6v3.7c0,.571.237.826.769.826.107,0,.347-.018.43-.03v.874A3.816,3.816,0,0,1,113.138,9.754Zm3.266-.047h-1.038V1.065H116.4V4.473h.024a2.062,2.062,0,0,1,1.969-1.1,2.118,2.118,0,0,1,1.6.635,2.4,2.4,0,0,1,.582,1.677V9.706h-1.038V5.874c0-1.019-.521-1.581-1.468-1.581A1.622,1.622,0,0,0,116.4,6.078V9.707Zm-13.9,0h-1.038V3.479h.978v.994h.024a2.087,2.087,0,0,1,1.969-1.1,2.044,2.044,0,0,1,2.148,2.294V9.706h-1.038V5.85c0-1.019-.493-1.557-1.426-1.557A1.58,1.58,0,0,0,102.5,6.041V9.707Zm-40.169,0H61.293V3.479h.978v.994H62.3a2.087,2.087,0,0,1,1.969-1.1,2.044,2.044,0,0,1,2.148,2.294V9.706H65.375V5.85c0-1.019-.493-1.557-1.426-1.557a1.58,1.58,0,0,0-1.617,1.748V9.707Zm-7.9,0H53.373L51.636,3.479h1.032L53.91,8.545h.023l1.4-5.066h1l1.408,5.066h.024l1.241-5.066h1.027L58.308,9.706H57.252l-1.4-4.821h-.023l-1.4,4.821Zm14.8,0H68.194V1.065h1.038V9.706Zm-29.625,0H36.714V1.065h2.894A3.976,3.976,0,0,1,42.6,2.2a4.534,4.534,0,0,1,1.074,3.178A4.545,4.545,0,0,1,42.6,8.567,3.975,3.975,0,0,1,39.608,9.707Zm-1.82-7.671v6.7h1.749c1.959,0,3.037-1.187,3.037-3.342s-1.079-3.36-3.037-3.36ZM13.062,7.288a3.037,3.037,0,0,1-.308-.012A6.752,6.752,0,0,1,14.405,2.4,7.157,7.157,0,0,1,19.039,0a7.039,7.039,0,0,1-1.61,5.059A6,6,0,0,1,13.062,7.288Z" transform="translate(14.893 11.955)" fill="#fff"/>
  </g>
</svg>
