<svg id="Group" xmlns="http://www.w3.org/2000/svg" xmlns:xlink="http://www.w3.org/1999/xlink" width="124.41" height="42.591" viewBox="0 0 124.41 42.591">
  <defs>
    <clipPath id="clip-path">
      <rect id="_Background" data-name="◼️ Background" width="124.41" height="42.591" rx="6" fill="#1c1c1c"/>
    </clipPath>
  </defs>
  <rect id="_Background-2" data-name="◼️ Background" width="124.41" height="42.591" rx="6" fill="#fff"/>
  <g id="Group-2" data-name="Group" clip-path="url(#clip-path)">
    <path id="Logo" d="M48.117,25.7V13.9h1.755v1.525h.034a3.041,3.041,0,0,1,2.813-1.668c2.26,0,3.72,1.8,3.72,4.575s-1.447,4.584-3.686,4.584a3.029,3.029,0,0,1-2.779-1.609h-.042V25.7H48.117ZM52.24,15.294c-1.386,0-2.318,1.223-2.318,3.042a3.613,3.613,0,0,0,.636,2.213,2.047,2.047,0,0,0,1.682.829,2.069,2.069,0,0,0,1.706-.823,3.623,3.623,0,0,0,.629-2.219,3.623,3.623,0,0,0-.629-2.216A2.068,2.068,0,0,0,52.24,15.294ZM37.991,25.7V13.9h1.755v1.525h.034a3.041,3.041,0,0,1,2.813-1.668c2.26,0,3.721,1.8,3.721,4.575s-1.447,4.584-3.687,4.584a3.029,3.029,0,0,1-2.779-1.609H39.8V25.7H37.991Zm4.123-10.407c-1.386,0-2.318,1.223-2.318,3.042a3.612,3.612,0,0,0,.636,2.213,2.047,2.047,0,0,0,1.682.829,2.069,2.069,0,0,0,1.706-.823,3.623,3.623,0,0,0,.629-2.219,3.623,3.623,0,0,0-.629-2.216A2.068,2.068,0,0,0,42.114,15.294ZM6.02,23.265H6c-1.522,0-2.705-1.7-3.569-2.94A14.851,14.851,0,0,1,.19,14.715a9.227,9.227,0,0,1,.788-6.12A5.654,5.654,0,0,1,5.74,5.68h.066a6.355,6.355,0,0,1,2.332.6h0l.007,0A4.318,4.318,0,0,0,9.582,6.7a4.327,4.327,0,0,0,1.386-.411h0l.006,0a7.4,7.4,0,0,1,2.664-.678c.108,0,.234.006.373.019a5.387,5.387,0,0,1,4.25,2.305h0A5.555,5.555,0,0,0,16.941,9.1a4.923,4.923,0,0,0-1.186,3.275,5.107,5.107,0,0,0,3.109,4.7v0a11.876,11.876,0,0,1-1.616,3.3c-1.03,1.547-2.007,2.829-3.536,2.852h-.086a4.006,4.006,0,0,1-1.7-.426,4.689,4.689,0,0,0-2.033-.484,4.886,4.886,0,0,0-2.136.5l0,0a4.444,4.444,0,0,1-1.671.444H6.02Zm60.416-.293A5.291,5.291,0,0,1,63.164,22a3.445,3.445,0,0,1-1.346-2.62h1.856c.133,1.195,1.3,2,2.9,2,1.523,0,2.629-.79,2.629-1.879,0-.943-.668-1.51-2.234-1.9l-1.57-.379c-2.223-.539-3.258-1.58-3.258-3.278,0-2.084,1.813-3.539,4.409-3.539a4.884,4.884,0,0,1,3.126.983,3.319,3.319,0,0,1,1.249,2.556H69.09C68.982,12.745,68,12,66.521,12a2.968,2.968,0,0,0-1.778.506,1.589,1.589,0,0,0-.682,1.315c0,.857.637,1.365,2.2,1.753L67.6,15.9a5.756,5.756,0,0,1,2.691,1.24,2.793,2.793,0,0,1,.827,2.131,3.317,3.317,0,0,1-1.262,2.7A5.457,5.457,0,0,1,66.437,22.971Zm31.9-.034c-2.569,0-4.165-1.747-4.165-4.559a5,5,0,0,1,1.109-3.36,3.83,3.83,0,0,1,2.98-1.275,3.773,3.773,0,0,1,2.91,1.2,4.735,4.735,0,0,1,1.071,3.22v.624H96V18.9a2.318,2.318,0,0,0,2.376,2.562,2,2,0,0,0,2.041-1.3h1.722a3.063,3.063,0,0,1-1.238,1.993A4.284,4.284,0,0,1,98.333,22.938Zm-.076-7.727a2.115,2.115,0,0,0-1.566.652,2.644,2.644,0,0,0-.684,1.657h4.418A2.169,2.169,0,0,0,98.257,15.21ZM82.506,22.938a4.007,4.007,0,0,1-3.043-1.229,4.865,4.865,0,0,1-1.147-3.372,4.844,4.844,0,0,1,1.151-3.365,4.377,4.377,0,0,1,6.08,0A4.844,4.844,0,0,1,86.7,18.336a4.865,4.865,0,0,1-1.147,3.372A4.01,4.01,0,0,1,82.506,22.938Zm0-7.693a2.076,2.076,0,0,0-1.7.81,3.717,3.717,0,0,0-.639,2.283,3.733,3.733,0,0,0,.639,2.29,2.2,2.2,0,0,0,3.411,0,3.737,3.737,0,0,0,.636-2.29,3.713,3.713,0,0,0-.64-2.283A2.076,2.076,0,0,0,82.506,15.244Zm-6.5,7.584c-1.789,0-2.486-.671-2.486-2.393v-5.09H72.238V13.9h1.284v-2.1h1.822v2.1h1.68v1.441h-1.68v4.887c0,.769.332,1.112,1.075,1.112a3.953,3.953,0,0,0,.6-.042v1.441A5.036,5.036,0,0,1,76.009,22.828ZM27.638,22.77H25.681l4.375-12.16h2.032l4.375,12.159H34.474l-1.109-3.287H28.747l-1.108,3.287Zm3.393-10.138-1.805,5.334h3.661l-1.806-5.334ZM90.323,22.769H88.509V13.9h1.73v1.509h.042a2.135,2.135,0,0,1,2.125-1.652,3.273,3.273,0,0,1,.621.067v1.693a2.612,2.612,0,0,0-.814-.1,1.826,1.826,0,0,0-1.89,2.039v5.308ZM92.037,7.234A2.079,2.079,0,0,1,89.93,4.877a2.611,2.611,0,0,1,.562-1.731A1.922,1.922,0,0,1,92,2.485a1.862,1.862,0,0,1,1.462.624A2.5,2.5,0,0,1,94,4.776v.291H90.717v.044a1.312,1.312,0,0,0,1.338,1.457,1.1,1.1,0,0,0,1.135-.728h.752A1.807,1.807,0,0,1,92.037,7.234Zm-.049-4.083a1.294,1.294,0,0,0-1.267,1.316h2.486A1.223,1.223,0,0,0,91.988,3.151ZM71.6,7.234a2.115,2.115,0,0,1-2.12-2.375,2.132,2.132,0,1,1,4.236,0A2.113,2.113,0,0,1,71.6,7.234Zm0-4.074c-.828,0-1.342.651-1.342,1.7s.514,1.7,1.342,1.7,1.337-.651,1.337-1.7S72.427,3.16,71.6,3.16ZM64,7.234c-1.171,0-1.957-.954-1.957-2.375s.78-2.375,1.94-2.375a1.615,1.615,0,0,1,1.456.825h.018V.785h.765v6.37h-.73V6.378h-.013A1.643,1.643,0,0,1,64,7.234Zm.145-4.074c-.8,0-1.319.667-1.319,1.7,0,1.048.506,1.7,1.319,1.7.787,0,1.315-.683,1.315-1.7S64.935,3.16,64.148,3.16ZM58.785,7.234a1.377,1.377,0,0,1-1.522-1.377c0-.791.6-1.28,1.658-1.342l1.311-.075V4.056c0-.561-.375-.9-1-.9a.963.963,0,0,0-1.056.728h-.739a1.62,1.62,0,0,1,1.812-1.4,1.937,1.937,0,0,1,1.278.405A1.386,1.386,0,0,1,61,3.981V7.155h-.726v-.79h-.018A1.661,1.661,0,0,1,58.785,7.234Zm1.448-2.2h0l-1.223.075c-.615.04-.968.311-.968.745s.368.724.916.724a1.2,1.2,0,0,0,1.276-1.17V5.036Zm-5.971,2.2A2.115,2.115,0,0,1,52.141,4.86a2.132,2.132,0,1,1,4.236,0A2.113,2.113,0,0,1,54.262,7.234Zm0-4.074c-.828,0-1.342.651-1.342,1.7s.514,1.7,1.342,1.7S55.6,5.908,55.6,4.86,55.087,3.16,54.262,3.16ZM35.25,7.234A2.115,2.115,0,0,1,33.129,4.86a2.132,2.132,0,1,1,4.236,0A2.113,2.113,0,0,1,35.25,7.234Zm0-4.074c-.828,0-1.342.651-1.342,1.7s.514,1.7,1.342,1.7,1.337-.651,1.337-1.7S36.074,3.16,35.25,3.16ZM83.395,7.19c-.839,0-1.166-.344-1.166-1.227V3.2h-.682V2.564h.682V1.457H83V2.564h.888V3.2H83V5.924c0,.421.175.609.567.609.079,0,.256-.013.317-.022v.644A2.813,2.813,0,0,1,83.395,7.19ZM85.8,7.156h-.765V.785H85.8V3.3h.018a1.52,1.52,0,0,1,1.452-.812,1.561,1.561,0,0,1,1.181.468,1.772,1.772,0,0,1,.429,1.236V7.154h-.765V4.33c0-.751-.384-1.165-1.082-1.165A1.2,1.2,0,0,0,85.8,4.48V7.155Zm-10.248,0h-.765V2.564h.721V3.3h.018a1.539,1.539,0,0,1,1.452-.812,1.506,1.506,0,0,1,1.583,1.691V7.154H77.8V4.312c0-.751-.364-1.148-1.051-1.148a1.165,1.165,0,0,0-1.192,1.289v2.7Zm-29.609,0H45.18V2.564H45.9V3.3h.018a1.539,1.539,0,0,1,1.452-.812,1.506,1.506,0,0,1,1.583,1.691V7.154h-.765V4.312c0-.751-.363-1.148-1.051-1.148a1.165,1.165,0,0,0-1.192,1.289v2.7Zm-5.825,0h-.779l-1.28-4.591h.761L39.737,6.3h.017l1.034-3.734h.739L42.566,6.3h.018L43.5,2.564h.757l-1.276,4.59H42.2L41.167,3.6H41.15L40.12,7.155Zm10.912,0h-.765V.785h.765V7.154Zm-21.837,0H27.062V.785H29.2a2.931,2.931,0,0,1,2.2.84,3.342,3.342,0,0,1,.792,2.343,3.351,3.351,0,0,1-.79,2.347A2.93,2.93,0,0,1,29.2,7.155ZM27.854,1.5V6.44h1.289c1.444,0,2.239-.875,2.239-2.463S30.586,1.5,29.143,1.5ZM9.628,5.372A2.238,2.238,0,0,1,9.4,5.364a4.977,4.977,0,0,1,1.218-3.591A5.275,5.275,0,0,1,14.034,0a5.189,5.189,0,0,1-1.187,3.729A4.425,4.425,0,0,1,9.628,5.372Z" transform="translate(10.978 8.812)" fill="#555ab9"/>
  </g>
</svg>
