<svg xmlns="http://www.w3.org/2000/svg" width="14.763" height="14.763" viewBox="0 0 14.763 14.763">
  <path id="Icon_material-call" data-name="Icon material-call" d="M7.469,10.889a12.424,12.424,0,0,0,5.4,5.4l1.8-1.8a.815.815,0,0,1,.837-.2,9.356,9.356,0,0,0,2.928.467.823.823,0,0,1,.82.82v2.862a.823.823,0,0,1-.82.82A13.942,13.942,0,0,1,4.5,5.32a.823.823,0,0,1,.82-.82H8.191a.823.823,0,0,1,.82.82,9.317,9.317,0,0,0,.467,2.928.823.823,0,0,1-.205.837l-1.8,1.8Z" transform="translate(-4.5 -4.5)" fill="#fff"/>
</svg>
