<svg id="Group_14111" data-name="Group 14111" xmlns="http://www.w3.org/2000/svg" width="26.93" height="26.93" viewBox="0 0 26.93 26.93">
  <path id="Path_21877" data-name="Path 21877" d="M0,0H26.93V26.93H0Z" fill="none"/>
  <path id="Path_21878" data-name="Path 21878" d="M7.488,11.854v8.977a1.122,1.122,0,0,1-1.122,1.122H4.122A1.122,1.122,0,0,1,3,20.831V12.977a1.122,1.122,0,0,1,1.122-1.122H7.488a4.488,4.488,0,0,0,4.488-4.488V6.244a2.244,2.244,0,1,1,4.488,0v5.61h3.366A2.244,2.244,0,0,1,22.075,14.1l-1.122,5.61c-.332,1.414-1.246,2.329-2.244,2.244H10.854a3.366,3.366,0,0,1-3.366-3.366" transform="translate(0.366 0.488)" fill="#0aa1e0" stroke="#fff" stroke-linecap="round" stroke-linejoin="round" stroke-width="1.5"/>
</svg>
