<svg xmlns="http://www.w3.org/2000/svg" width="34.16" height="34.16" viewBox="0 0 34.16 34.16">
  <path id="Icon_ionic-ios-arrow-dropleft-circle" data-name="Icon ionic-ios-arrow-dropleft-circle" d="M20.455,3.375a17.08,17.08,0,1,0,17.08,17.08A17.077,17.077,0,0,0,20.455,3.375Zm3.564,23.74a1.591,1.591,0,0,1,0,2.242,1.566,1.566,0,0,1-1.117.46,1.593,1.593,0,0,1-1.125-.468L14.058,21.6a1.583,1.583,0,0,1,.049-2.184l7.834-7.858A1.585,1.585,0,0,1,24.183,13.8l-6.725,6.651Z" transform="translate(-3.375 -3.375)" fill="#a3a3a3"/>
</svg>
