<svg id="Group" xmlns="http://www.w3.org/2000/svg" xmlns:xlink="http://www.w3.org/1999/xlink" width="124.41" height="42.591" viewBox="0 0 124.41 42.591">
  <defs>
    <clipPath id="clip-path">
      <rect id="_Background" data-name="◼️ Background" width="124.41" height="42.591" rx="6" fill="#1c1c1c"/>
    </clipPath>
  </defs>
  <rect id="_Background-2" data-name="◼️ Background" width="124.41" height="42.591" rx="6" fill="#fff5f5"/>
  <g id="Group-2" data-name="Group" clip-path="url(#clip-path)">
    <path id="Logo" d="M97.973,24.967H96.087l1.795-4.1-3.206-7.321h1.886l2.263,5.168,2.263-5.168h1.887l-5,11.419h0ZM51.8,22.65l1.508-.632a2.173,2.173,0,0,0,2.008,1.4,2.02,2.02,0,0,0,1.5-.576,2.237,2.237,0,0,0,.566-1.595v-.776a2.6,2.6,0,0,1-2.151.956,3.7,3.7,0,0,1-2.542-1.082,3.954,3.954,0,0,1-1.186-2.858,4.057,4.057,0,0,1,1.092-2.745,3.642,3.642,0,0,1,2.673-1.186,2.769,2.769,0,0,1,2.115.9v-.666h1.644v7.071a4.326,4.326,0,0,1-1.06,3.093,3.569,3.569,0,0,1-2.633,1.01A3.8,3.8,0,0,1,51.8,22.65Zm2.1-6.911a2.617,2.617,0,0,0-.018,3.5,2.1,2.1,0,0,0,1.506.64,2.056,2.056,0,0,0,1.456-.615,2.455,2.455,0,0,0,.662-1.769,2.512,2.512,0,0,0-.66-1.766A2.011,2.011,0,0,0,55.41,15.1,2.145,2.145,0,0,0,53.9,15.739Zm-44.212.114,2.561,2.566-10.8,5.932a1.814,1.814,0,0,1-.236.11ZM.08,23.478C.076,22.6.005,8.6,0,7.546a1.029,1.029,0,0,1,.436-.962l8.881,8.9L.479,24.459A1.122,1.122,0,0,1,.08,23.478Zm23.2-3.951a6.007,6.007,0,0,1,.049-8.476A6.078,6.078,0,0,1,27.7,9.186a5.953,5.953,0,0,1,4.215,1.667L30.75,12.062a4.285,4.285,0,0,0-2.992-1.2,4.485,4.485,0,0,0-3.074,7.654,4.507,4.507,0,0,0,5.662.457,3.4,3.4,0,0,0,1.369-2.543h-3.97V14.76h5.6v0a5.229,5.229,0,0,1,.1,1.1,5.458,5.458,0,0,1-1.6,4.027,5.751,5.751,0,0,1-4.053,1.538A6.172,6.172,0,0,1,23.276,19.527Zm40.918.855a3.89,3.89,0,0,1-1.179-2.9,3.718,3.718,0,0,1,3.658-3.93,3.341,3.341,0,0,1,2.028.682,3.822,3.822,0,0,1,1.234,1.624l.273.642-5.259,2.19a2.03,2.03,0,0,0,1.924,1.192,2.179,2.179,0,0,0,1.921-1.083l1.355.905a3.95,3.95,0,0,1-3.285,1.727A3.851,3.851,0,0,1,64.194,20.381ZM65.2,15.817a2,2,0,0,0-.524,1.557L68.192,15.9a1.558,1.558,0,0,0-1.451-.841A2.1,2.1,0,0,0,65.2,15.817ZM43.92,20.238a3.989,3.989,0,0,1-1.095-2.783,3.881,3.881,0,0,1,3.943-3.9,4.087,4.087,0,0,1,2.675,1A3.794,3.794,0,0,1,50.7,17.5a3.959,3.959,0,0,1-6.783,2.737Zm.626-2.759a2.228,2.228,0,1,0,4.444.012,2.461,2.461,0,0,0-.676-1.75,2.159,2.159,0,0,0-1.523-.643A2.265,2.265,0,0,0,44.547,17.479Zm-9.294,2.759a3.989,3.989,0,0,1-1.095-2.783,3.881,3.881,0,0,1,3.943-3.9,4.087,4.087,0,0,1,2.675,1,3.792,3.792,0,0,1,1.26,2.952,3.959,3.959,0,0,1-6.783,2.737Zm.626-2.759a2.228,2.228,0,1,0,4.444.012,2.462,2.462,0,0,0-.676-1.75,2.159,2.159,0,0,0-1.523-.643A2.265,2.265,0,0,0,35.879,17.479Zm51.668,3.093a2.9,2.9,0,0,1-.591-2.236A2.788,2.788,0,0,1,89.6,15.967c.153-.015.314-.023.476-.023a8.533,8.533,0,0,1,2.169.332,1.713,1.713,0,0,0-.7-1.229,2.356,2.356,0,0,0-3.368.7l-1.39-.936a4.091,4.091,0,0,1,3.433-1.8,3.9,3.9,0,0,1,2.859,1.176,3.7,3.7,0,0,1,.93,2.838v4.172H92.29v-.936a2.954,2.954,0,0,1-1.5,1.012,4.116,4.116,0,0,1-1.091.148A2.876,2.876,0,0,1,87.547,20.572Zm1.207-1.938a1.156,1.156,0,0,0,1.188,1.184,1.694,1.694,0,0,0,.438-.062,2.6,2.6,0,0,0,1.911-1.917,7.334,7.334,0,0,0-1.438-.346,3.6,3.6,0,0,0-.533-.042C89.181,17.451,88.764,18.089,88.753,18.634ZM85.22,21.192H83.493V9.593h1.728v11.6h0Zm-9.16,0H74.334V9.593h4.178a3.7,3.7,0,0,1,0,7.39H76.061v4.208h0Zm0-5.942h2.451a1.962,1.962,0,0,0,0-3.924H76.061Zm-14,5.942H60.335V9.593h1.728v11.6h0ZM10.055,15.48l2.669-2.71L16.4,14.781c.906.5.443,1.115,0,1.358l-3.673,2.017Zm-8.985-9a1.091,1.091,0,0,1,.377.118l10.8,5.912-2.561,2.6ZM22.684,4.706A2.822,2.822,0,0,1,21.9,2.779,2.826,2.826,0,0,1,24.7,0a2.713,2.713,0,0,1,1.919.759l-.53.55a1.988,1.988,0,0,0-3.358,1.484,1.986,1.986,0,0,0,1.994,2.02,1.653,1.653,0,0,0,1.8-1.517H24.719V2.537h2.547a2.361,2.361,0,0,1,.047.5,2.444,2.444,0,0,1-2.575,2.533A2.808,2.808,0,0,1,22.684,4.706Zm22.581-.013a2.823,2.823,0,0,1-.773-1.914,2.8,2.8,0,0,1,5.6,0,2.79,2.79,0,0,1-4.823,1.914Zm.055-1.9a1.97,1.97,0,1,0,3.939,0,1.97,1.97,0,1,0-3.939,0Zm8.863,2.671L51.659,1.619V5.464h-.786V.185h.786l2.523,3.843V.185h.786V5.464Zm-13.006,0h-.785V.974H39.1V.185h3.366V.974h-1.29V5.463h0Zm-2.716,0h-.785V.185h.786V5.463h0Zm-4.4,0h-.786V.974h-1.29V.185h3.367V.974h-1.29V5.463h0Zm-2.905,0H28.141V.185h3.015V.974H28.927V2.43h1.96v.788h-1.96V4.675h2.229v.788h0Z" transform="translate(10.977 8.812)" fill="#555ab9"/>
  </g>
</svg>
