<svg xmlns="http://www.w3.org/2000/svg" width="24" height="24" viewBox="0 0 24 24">
  <g id="Group_14139" data-name="Group 14139" transform="translate(-364 -519)">
    <g id="Group_14138" data-name="Group 14138" transform="translate(365 529)">
      <path id="Path_21892" data-name="Path 21892" d="M0,0H12V12H0Z" fill="none"/>
      <path id="Path_21893" data-name="Path 21893" d="M7.506,3a6,6,0,0,0,4.25,1.5A6,6,0,0,1,7.506,12a6,6,0,0,1-4.25-7.5A6,6,0,0,0,7.506,3" transform="translate(-1.506 -1.5)" fill="none" stroke="#676767" stroke-linecap="round" stroke-linejoin="round" stroke-width="1.3"/>
      <circle id="Ellipse_979" data-name="Ellipse 979" cx="1" cy="1" r="1" transform="translate(5 4)" fill="none" stroke="#676767" stroke-linecap="round" stroke-linejoin="round" stroke-width="1"/>
      <line id="Line_48" data-name="Line 48" y2="0.75" transform="translate(6 7.5)" fill="none" stroke="#676767" stroke-linecap="round" stroke-linejoin="round" stroke-width="1.3"/>
    </g>
    <path id="Path_21894" data-name="Path 21894" d="M0,0H24V24H0Z" transform="translate(364 519)" fill="none"/>
    <path id="Path_21895" data-name="Path 21895" d="M14,3V7a1,1,0,0,0,1,1h4" transform="translate(364 519)" fill="none" stroke="#676767" stroke-linecap="round" stroke-linejoin="round" stroke-width="1.3"/>
    <path id="Path_21896" data-name="Path 21896" d="M5,8V5A2,2,0,0,1,7,3h7l5,5V19a2,2,0,0,1-2,2H12" transform="translate(364 519)" fill="none" stroke="#676767" stroke-linecap="round" stroke-linejoin="round" stroke-width="1.3"/>
  </g>
</svg>
