<svg xmlns="http://www.w3.org/2000/svg" width="34.16" height="34.16" viewBox="0 0 34.16 34.16">
  <path id="Icon_ionic-ios-arrow-dropleft-circle" data-name="Icon ionic-ios-arrow-dropleft-circle" d="M20.455,3.375a17.08,17.08,0,1,1-17.08,17.08A17.077,17.077,0,0,1,20.455,3.375Zm-3.564,23.74a1.591,1.591,0,0,0,0,2.242,1.566,1.566,0,0,0,1.117.46,1.593,1.593,0,0,0,1.125-.468L26.852,21.6A1.583,1.583,0,0,0,26.8,19.42l-7.834-7.858A1.585,1.585,0,0,0,16.727,13.8l6.725,6.651Z" transform="translate(-3.375 -3.375)" fill="#0d579f"/>
</svg>
