<svg xmlns="http://www.w3.org/2000/svg" width="17" height="19" viewBox="0 0 17 19">
  <g id="Group_14114" data-name="Group 14114" transform="translate(-534 -837)">
    <rect id="Rectangle_4085" data-name="Rectangle 4085" width="17" height="19" rx="3" transform="translate(534 837)" fill="#0aa1e0"/>
    <line id="Line_33" data-name="Line 33" x2="6" transform="translate(539 842)" fill="none" stroke="#fff" stroke-linecap="round" stroke-linejoin="round" stroke-width="1.5"/>
    <path id="Path_21883" data-name="Path 21883" d="M1.992-1.634H1.615v1.9a.848.848,0,0,1-.148.551.481.481,0,0,1-.387.177A.472.472,0,0,1,.681.8.885.885,0,0,1,.54.261V-4.278A.824.824,0,0,1,.7-4.838a.647.647,0,0,1,.5-.173H2.947a4.783,4.783,0,0,1,.619.034,1.436,1.436,0,0,1,.463.139,1.345,1.345,0,0,1,.442.334A1.49,1.49,0,0,1,4.763-4a1.851,1.851,0,0,1,.1.61,1.575,1.575,0,0,1-.335,1.054,1.862,1.862,0,0,1-1.015.559,2.024,2.024,0,0,1,.547.5,5.068,5.068,0,0,1,.465.7A5.429,5.429,0,0,1,4.843.1,1.441,1.441,0,0,1,4.957.51.455.455,0,0,1,4.89.742a.49.49,0,0,1-.183.181.529.529,0,0,1-.268.066.484.484,0,0,1-.3-.095A.872.872,0,0,1,3.923.655Q3.834.51,3.682.229l-.431-.8a4.425,4.425,0,0,0-.415-.668,1.041,1.041,0,0,0-.371-.314A1.161,1.161,0,0,0,1.992-1.634Zm.615-2.479H1.615v1.622h.963a2.439,2.439,0,0,0,.652-.074.75.75,0,0,0,.4-.254.784.784,0,0,0,.139-.493.825.825,0,0,0-.112-.433.7.7,0,0,0-.311-.28A2.028,2.028,0,0,0,2.607-4.113ZM7.954.535,7.237-.636,6.5.535a2.021,2.021,0,0,1-.27.35.392.392,0,0,1-.281.1.439.439,0,0,1-.32-.131A.41.41,0,0,1,5.5.559,1.064,1.064,0,0,1,5.7.064L6.6-1.361,5.8-2.548A.938.938,0,0,1,5.6-3.059a.4.4,0,0,1,.123-.294.433.433,0,0,1,.322-.125.4.4,0,0,1,.288.109,1.982,1.982,0,0,1,.266.342l.641.974.623-.974a1.841,1.841,0,0,1,.27-.346.4.4,0,0,1,.284-.1.45.45,0,0,1,.324.123.394.394,0,0,1,.129.3.569.569,0,0,1-.052.239,1.851,1.851,0,0,1-.161.272L7.86-1.361,8.754.064a1.107,1.107,0,0,1,.21.5.4.4,0,0,1-.13.3.448.448,0,0,1-.322.125A.409.409,0,0,1,8.224.881,1.821,1.821,0,0,1,7.954.535Z" transform="translate(538 851)" fill="#fff"/>
  </g>
</svg>
