<svg id="Icon_feather-shopping-cart" data-name="Icon feather-shopping-cart" xmlns="http://www.w3.org/2000/svg" width="35.855" height="34.362" viewBox="0 0 35.855 34.362">
  <path id="Path_22045" data-name="Path 22045" d="M14.987,31.493A1.493,1.493,0,1,1,13.493,30,1.493,1.493,0,0,1,14.987,31.493Z" transform="translate(-0.046 -0.125)" fill="none" stroke="#fff" stroke-linecap="round" stroke-linejoin="round" stroke-width="3"/>
  <path id="Path_22046" data-name="Path 22046" d="M31.487,31.493A1.493,1.493,0,1,1,29.993,30,1.493,1.493,0,0,1,31.487,31.493Z" transform="translate(-0.118 -0.125)" fill="none" stroke="#fff" stroke-linecap="round" stroke-linejoin="round" stroke-width="3"/>
  <path id="Path_22047" data-name="Path 22047" d="M1.5,1.5H7.474l4,20a2.987,2.987,0,0,0,2.987,2.4H28.979a2.987,2.987,0,0,0,2.987-2.4l2.389-12.53H8.967" transform="translate(0 0)" fill="none" stroke="#fff" stroke-linecap="round" stroke-linejoin="round" stroke-width="3"/>
</svg>
