<svg xmlns="http://www.w3.org/2000/svg" width="36" height="36" viewBox="0 0 36 36">
  <g id="Group_14393" data-name="Group 14393" transform="translate(-661 -106)">
    <circle id="Ellipse_968" data-name="Ellipse 968" cx="18" cy="18" r="18" transform="translate(661 106)" fill="#0974dc"/>
    <g id="Group_14316" data-name="Group 14316" transform="translate(663 112)">
      <path id="Path_22050" data-name="Path 22050" d="M25,0H0V25H25Z" fill="none"/>
      <path id="Path_22051" data-name="Path 22051" d="M3,8.167V6.083A2.083,2.083,0,0,1,5.083,4h7.292a2.083,2.083,0,0,1,2.083,2.083v12.5a2.083,2.083,0,0,1-2.083,2.083H5.083A2.083,2.083,0,0,1,3,18.583V16.5" transform="translate(7.417 0.167)" fill="none" stroke="#fff" stroke-linecap="round" stroke-linejoin="round" stroke-width="1.5"/>
      <path id="Path_22052" data-name="Path 22052" d="M7,12.125H20.542L17.417,9m0,6.25,3.125-3.125" transform="translate(-2.833 0.375)" fill="none" stroke="#fff" stroke-linecap="round" stroke-linejoin="round" stroke-width="1.5"/>
    </g>
  </g>
</svg>
