<svg xmlns="http://www.w3.org/2000/svg" width="43" height="43" viewBox="0 0 43 43">
  <g id="_001-user" data-name="001-user" transform="translate(-2.949 -2.948)">
    <path id="Path_22061" data-name="Path 22061" d="M29.932,50.568h0A21.5,21.5,0,0,1,7.6,29.931h0A21.5,21.5,0,0,1,28.24,7.6h0A21.5,21.5,0,0,1,50.569,28.239h0A21.5,21.5,0,0,1,29.932,50.568Z" transform="translate(-4.638 -4.637)" fill="#ddeaff"/>
    <path id="Icon_awesome-file-upload" data-name="Icon awesome-file-upload" d="M8.371,5.082V0H.9A.9.9,0,0,0,0,.9V18.236a.9.9,0,0,0,.9.9H13.453a.9.9,0,0,0,.9-.9V5.979H9.268A.9.9,0,0,1,8.371,5.082Zm2.436,8.072H8.371v2.99a.6.6,0,0,1-.6.6h-1.2a.6.6,0,0,1-.6-.6v-2.99H3.543a.6.6,0,0,1-.421-1.022l3.6-3.576a.637.637,0,0,1,.9,0l3.6,3.576A.6.6,0,0,1,10.806,13.154Zm3.282-9.231L10.43.262A.9.9,0,0,0,9.795,0H9.567V4.783H14.35V4.555A.894.894,0,0,0,14.088,3.924Z" transform="translate(17.643 15.409)" fill="#fff"/>
    <path id="Path_22062" data-name="Path 22062" d="M105.417,57.9h0a21.529,21.529,0,0,0-10.911-17.89A21.43,21.43,0,0,1,99.694,53.19h0A21.57,21.57,0,0,1,78.961,75.571h0a21.534,21.534,0,0,1-11.521-2.8,21.581,21.581,0,0,0,17.245,7.5h0A21.57,21.57,0,0,0,105.417,57.9Z" transform="translate(-59.486 -34.348)" fill="#c9dbf8"/>
    <path id="Icon_awesome-file-upload-2" data-name="Icon awesome-file-upload" d="M8.371,5.082V0H.9A.9.9,0,0,0,0,.9V18.236a.9.9,0,0,0,.9.9H13.453a.9.9,0,0,0,.9-.9V5.979H9.268A.9.9,0,0,1,8.371,5.082Zm2.436,8.072H8.371v2.99a.6.6,0,0,1-.6.6h-1.2a.6.6,0,0,1-.6-.6v-2.99H3.543a.6.6,0,0,1-.421-1.022l3.6-3.576a.637.637,0,0,1,.9,0l3.6,3.576A.6.6,0,0,1,10.806,13.154Zm3.282-9.231L10.43.262A.9.9,0,0,0,9.795,0H9.567V4.783H14.35V4.555A.894.894,0,0,0,14.088,3.924Z" transform="translate(15.687 13.278)" fill="#0974dc"/>
  </g>
</svg>
