<?xml version="1.0" encoding="utf-8"?>
<!-- Generator: Adobe Illustrator 16.0.0, SVG Export Plug-In . SVG Version: 6.00 Build 0)  -->
<!DOCTYPE svg PUBLIC "-//W3C//DTD SVG 1.1//EN" "http://www.w3.org/Graphics/SVG/1.1/DTD/svg11.dtd">
<svg version="1.1" id="Layer_1" xmlns="http://www.w3.org/2000/svg" xmlns:xlink="http://www.w3.org/1999/xlink" x="0px" y="0px"
	 width="25px" height="25px" viewBox="0 0 25 25" enable-background="new 0 0 25 25" xml:space="preserve">
<circle fill="#F2F2F2" cx="12.563" cy="12.438" r="12.438"/>
<g>
	<path fill-rule="evenodd" clip-rule="evenodd" fill="#BABABA" d="M7.054,2.386c0,0-0.449,3.447-1.566,6.254
		c-1.118,2.808-1.772,4.074-0.506,9.843c0.896,4.085,1.181,4.391,1.181,4.391l12.954,0.044c0,0,2.118-7.712,2.118-9.197
		c0-1.486-0.327-2.84-0.524-3.692c-0.196-0.852-1.376-3.539-1.376-3.539l-1.431-4.164L7.054,2.386z"/>
	<rect fill="none" width="25" height="25"/>
	<path fill-rule="evenodd" clip-rule="evenodd" d="M13.582,16.256c-0.987-1.489-0.813-3.109-0.418-4.749
		c-0.162,0.45-0.321,0.898-0.51,1.422c-0.226-0.612-0.419-1.142-0.613-1.668c0.438,1.6,0.715,3.191-0.14,4.716
		c-0.86,1.534-2.313,2.197-4.008,2.411c1.471,0.074,2.688-0.498,3.845-1.463c-0.044,1.997-0.144,3.994-0.249,5.989h0.597
		c0.119-2.112,0.086-4.233,0.21-6.346c0.03-0.521,0.151-1.033,0.23-1.549c0.08,0.005,0.158,0.012,0.239,0.018
		c0.495,1.84,0.095,3.753,0.361,5.619c0.108,0.748,0.149,1.502,0.17,2.258h0.516c-0.104-1.999-0.205-3.996-0.254-5.996
		c1.262,1.068,2.602,1.677,4.247,1.447C16.065,18.296,14.568,17.741,13.582,16.256z"/>
	<path fill-rule="evenodd" clip-rule="evenodd" d="M4.465,13.821C4.28,12.024,4.797,10.284,5.487,8.64
		c0.859-2.048,1.461-4.121,1.733-6.254H7.054C6.956,2.981,6.699,3.571,6.508,4.153C6.059,5.529,5.519,6.877,4.994,8.229
		c-0.75,1.939-1.427,3.919-1.151,6.021c0.206,1.567,0.572,3.133,1.034,4.647c0.406,1.334,0.779,2.672,1.109,4.018h0.623
		c-0.341-1.545-0.747-3.083-1.225-4.612C4.932,16.852,4.621,15.332,4.465,13.821z"/>
	<path fill-rule="evenodd" clip-rule="evenodd" d="M19.848,7.106c-0.583-1.574-1.57-3.13-1.846-4.782h-0.099
		c0.001,0.006,0.001,0.011,0.001,0.016c0.205,2.016,0.962,3.886,1.735,5.731c1.313,3.143,1.589,6.313,0.514,9.574
		c-0.573,1.741-1.079,3.495-1.507,5.269h0.664c0.372-1.497,0.8-2.986,1.279-4.466c0.683-2.114,1.244-4.283,0.767-6.505
		C21.002,10.298,20.434,8.69,19.848,7.106z"/>
	<circle fill="#232323" cx="12.583" cy="15.336" r="2.316"/>
</g>
</svg>
