<?xml version="1.0" encoding="utf-8"?>
<!-- Generator: Adobe Illustrator 16.0.0, SVG Export Plug-In . SVG Version: 6.00 Build 0)  -->
<!DOCTYPE svg PUBLIC "-//W3C//DTD SVG 1.1//EN" "http://www.w3.org/Graphics/SVG/1.1/DTD/svg11.dtd">
<svg version="1.1" id="Layer_1" xmlns="http://www.w3.org/2000/svg" xmlns:xlink="http://www.w3.org/1999/xlink" x="0px" y="0px"
	 width="25px" height="25px" viewBox="0 0 25 25" enable-background="new 0 0 25 25" xml:space="preserve">
<circle fill="#F2F2F2" cx="12.563" cy="12.438" r="12.438"/>
<g>
	<rect fill="none" width="25" height="25"/>
	<g>
		<path fill="#C6C6C6" d="M19.636,12.751c-0.047-0.468-0.433-0.812-0.861-0.769c-0.21,0.021-0.385-0.13-0.479-0.341
			c-1.343-3.02-8.33-7.259-9.819-9.153L8.394,2.382H5.892v8.465v2.33v9.211h5.559v-2.586c4.838,0,6.569-3.953,6.951-5.735
			c0.042-0.204,0.198-0.354,0.39-0.374l0.155-0.016C19.375,13.634,19.685,13.219,19.636,12.751z"/>
		<path fill="#969696" d="M18.301,11.735l0.562,1.971c0-0.001,0.187-0.029,0.199-0.033c0.158-0.044,0.304-0.13,0.417-0.248
			c0.307-0.313,0.312-0.786,0.068-1.118c-0.118-0.164-0.341-0.271-0.521-0.366c-0.086-0.046-0.176-0.082-0.271-0.101
			c-0.022-0.004-0.186-0.006-0.302,0C18.384,11.845,18.321,11.802,18.301,11.735z"/>
		<path fill="#474747" d="M17.585,12.387c0,1.041-0.067,2.262,0.391,2.949c0.494-0.702,0.68-0.994,0.896-1.648l-0.442-1.85
			c-0.062-0.176-0.324-0.745-0.729-1.166C17.545,11.162,17.585,11.81,17.585,12.387z"/>
	</g>
</g>
</svg>
