<?xml version="1.0" encoding="utf-8"?>
<!-- Generator: Adobe Illustrator 16.0.0, SVG Export Plug-In . SVG Version: 6.00 Build 0)  -->
<!DOCTYPE svg PUBLIC "-//W3C//DTD SVG 1.1//EN" "http://www.w3.org/Graphics/SVG/1.1/DTD/svg11.dtd">
<svg version="1.1" id="Layer_1" xmlns="http://www.w3.org/2000/svg" xmlns:xlink="http://www.w3.org/1999/xlink" x="0px" y="0px"
	 width="25px" height="25px" viewBox="0 0 25 25" enable-background="new 0 0 25 25" xml:space="preserve">
<circle fill="#F2F2F2" cx="12.563" cy="12.438" r="12.438"/>
<g>
	<rect fill="none" width="25" height="25"/>
	<path fill-rule="evenodd" clip-rule="evenodd" fill="#FFFFFF" d="M11.248,5.9c-0.184-0.233-0.275-0.349-0.367-0.465
		c-0.589-0.749-1.175-0.91-2.03-0.49c-2.389,1.171-4.221,2.937-5.141,5.439c-0.956,2.601-1.291,5.347-1.233,8.121
		c0.013,0.622,0.178,1.265,0.396,1.851c0.266,0.711,0.864,1.103,1.635,0.999c0.673-0.091,1.328-0.319,1.993-0.472
		c0.201-0.047,0.413-0.08,0.616-0.064c0.834,0.064,1.668,0.237,2.498,0.205c1.349-0.053,2.201-1.033,2.232-2.384
		c0.005-0.195,0.004-0.414,0.085-0.584c0.414-0.851,0.414-1.705,0.139-2.595c-0.375-1.207-0.542-2.462-0.171-3.676
		c0.31-1.018,0.251-1.94-0.155-2.888c-0.042-0.098-0.006-0.305,0.069-0.366c0.294-0.234,0.616-0.232,0.923,0.007
		c0.26,0.203,0.424,0.379,0.324,0.792c-0.146,0.588-0.309,1.264-0.156,1.815c0.425,1.536,0.375,3.015-0.09,4.512
		c-0.22,0.712-0.201,1.418,0.073,2.122c0.104,0.273,0.179,0.574,0.193,0.865c0.062,1.359,0.896,2.317,2.251,2.38
		c0.793,0.038,1.597-0.132,2.396-0.185c0.251-0.016,0.514,0.016,0.761,0.074c0.536,0.127,1.058,0.352,1.599,0.418
		c1.242,0.153,1.986-0.359,2.215-1.587c0.153-0.817,0.236-1.676,0.163-2.5c-0.144-1.62-0.367-3.238-0.651-4.84
		c-0.602-3.404-2.57-5.813-5.598-7.389c-0.979-0.511-1.588-0.342-2.284,0.523c-0.151,0.188-0.293,0.382-0.438,0.575
		c-0.042-0.011-0.082-0.021-0.122-0.033c0-0.36-0.064-0.733,0.014-1.077c0.124-0.554-0.163-0.779-0.595-0.935
		c-0.477-0.171-0.913-0.068-1.341,0.196c-0.396,0.244-0.232,0.574-0.208,0.897C11.26,5.357,11.248,5.558,11.248,5.9z"/>
	<path fill-rule="evenodd" clip-rule="evenodd" fill="#232323" d="M11.248,5.9c0-0.342,0.012-0.543-0.003-0.74
		c-0.024-0.324-0.189-0.653,0.208-0.897c0.428-0.264,0.864-0.367,1.341-0.196c0.432,0.156,0.719,0.381,0.595,0.935
		c-0.079,0.344-0.014,0.717-0.014,1.077c0.041,0.011,0.08,0.021,0.122,0.033c0.146-0.192,0.288-0.387,0.438-0.575
		c0.695-0.865,1.305-1.034,2.284-0.523c3.027,1.577,4.996,3.985,5.598,7.389c0.284,1.602,0.507,3.22,0.651,4.84
		c0.073,0.824-0.01,1.684-0.163,2.5c-0.229,1.228-0.974,1.74-2.215,1.587c-0.542-0.066-1.063-0.291-1.599-0.418
		c-0.248-0.058-0.51-0.09-0.761-0.074c-0.799,0.053-1.603,0.223-2.396,0.185c-1.355-0.063-2.189-1.021-2.251-2.38
		c-0.015-0.291-0.089-0.592-0.193-0.865c-0.274-0.704-0.293-1.41-0.073-2.122c0.465-1.497,0.516-2.976,0.09-4.512
		c-0.153-0.551,0.01-1.227,0.156-1.815c0.101-0.413-0.064-0.59-0.324-0.792c-0.307-0.239-0.629-0.241-0.923-0.007
		c-0.075,0.061-0.111,0.269-0.069,0.366c0.406,0.948,0.465,1.87,0.155,2.888c-0.372,1.214-0.204,2.469,0.171,3.676
		c0.275,0.89,0.275,1.745-0.139,2.595c-0.081,0.17-0.08,0.389-0.085,0.584c-0.031,1.351-0.884,2.332-2.232,2.384
		c-0.829,0.033-1.664-0.14-2.498-0.205c-0.203-0.015-0.415,0.018-0.616,0.064c-0.665,0.152-1.319,0.38-1.993,0.472
		c-0.771,0.104-1.369-0.288-1.635-0.999c-0.219-0.586-0.383-1.229-0.396-1.851c-0.058-2.774,0.277-5.52,1.233-8.121
		c0.92-2.502,2.752-4.269,5.141-5.439c0.855-0.42,1.441-0.258,2.03,0.49C10.972,5.551,11.063,5.667,11.248,5.9z"/>
	<path fill-rule="evenodd" clip-rule="evenodd" fill="#FFFFFF" d="M13.771,8.051c-0.586-0.547-0.86-1.186-0.927-1.908
		c-0.036-0.398-0.038-0.801-0.027-1.201c0.01-0.393-0.277-0.386-0.513-0.381c-0.231,0.004-0.566-0.02-0.518,0.371
		c0.139,1.1-0.093,2.09-0.829,2.908c0.192,0.306,0.364,0.302,0.649,0.158c0.266-0.134,0.624-0.206,0.908-0.146
		c0.339,0.069,0.644,0.308,0.994,0.489C13.573,8.271,13.659,8.176,13.771,8.051z"/>
	<path fill-rule="evenodd" clip-rule="evenodd" fill="#FFFFFF" d="M7.426,20.278c1.995,0.578,3.762,0.098,3.73-1.32
		c-0.844,0.7-1.819,0.816-2.825,0.68C7.807,19.566,7.548,19.762,7.426,20.278z"/>
	<path fill-rule="evenodd" clip-rule="evenodd" fill="#FFFFFF" d="M13.78,18.949c-0.032,1.571,2.206,1.909,3.725,1.27
		c-0.122-0.482-0.409-0.65-0.915-0.58C15.584,19.778,14.622,19.647,13.78,18.949z"/>
	<path fill-rule="evenodd" clip-rule="evenodd" fill="#FFFFFF" d="M8.926,13.97C8.989,13.98,9.05,13.989,9.114,14
		c0.344,0.492,0.601,0.997,0.331,1.632c-0.04,0.092,0.074,0.25,0.116,0.377c0.115-0.071,0.296-0.117,0.333-0.218
		c0.093-0.242,0.19-0.521,0.156-0.765c-0.063-0.423-0.224-0.831-0.333-1.208c0.12-0.064,0.379-0.133,0.387-0.222
		c0.013-0.168-0.083-0.376-0.2-0.515c-0.135-0.163-0.337-0.273-0.513-0.403c-0.464-0.348-0.486-0.478-0.1-0.92
		c0.427-0.487,0.642-1.055,0.688-1.695c0.025-0.352-0.06-0.565-0.484-0.441C9.038,9.755,8.635,9.629,8.268,9.338
		C8.019,9.14,7.765,8.939,7.485,8.79c-0.376-0.201-0.782-0.221-1.14,0.053C6.251,8.914,6.229,9.08,6.177,9.203
		C6.309,9.23,6.44,9.279,6.571,9.281c0.237,0.004,0.517-0.105,0.7-0.013c0.344,0.174,0.63,0.458,1.056,0.787
		c-0.461,0.042-0.76,0.069-1.058,0.099c-0.885,0.086-1.554,0.524-1.982,1.293c-0.079,0.145,0,0.377,0.005,0.569
		c0.142-0.1,0.335-0.169,0.421-0.304c0.473-0.759,1.174-1.04,2.046-1.073c0.047,0.443-0.128,0.68-0.505,0.785
		c-0.162,0.046-0.333,0.077-0.474,0.16c-0.079,0.046-0.152,0.196-0.133,0.28c0.016,0.075,0.156,0.171,0.247,0.177
		c0.661,0.04,1.271-0.472,1.394-1.116c0.026-0.136,0.131-0.32,0.246-0.364c0.254-0.097,0.537-0.12,0.949-0.201
		c-0.198,0.383-0.296,0.699-0.496,0.921c-0.264,0.294-0.589,0.55-0.927,0.761c-0.539,0.337-1.014,0.705-1.256,1.326
		c-0.045,0.116-0.276,0.216-0.428,0.223c-0.89,0.043-1.447,0.565-1.879,1.267c-0.057,0.094,0.009,0.262,0.018,0.396
		c0.132-0.033,0.301-0.027,0.387-0.11c0.215-0.206,0.377-0.471,0.592-0.68c0.304-0.297,0.679-0.383,1.264-0.252
		c-0.292,0.281-0.468,0.518-0.704,0.661c-0.327,0.199-0.706,0.312-1.042,0.497c-0.131,0.071-0.207,0.242-0.306,0.368
		c0.178,0.031,0.372,0.122,0.531,0.078c0.283-0.077,0.541-0.237,0.863-0.385c0,0.267,0.003,0.466-0.002,0.664
		c-0.01,0.345-0.067,0.62-0.535,0.457c-0.08-0.026-0.221,0.129-0.333,0.2c0.082,0.106,0.144,0.269,0.25,0.308
		c0.608,0.226,1.085-0.139,1.125-0.819c0.021-0.365,0.034-0.739,0.124-1.091c0.11-0.428,0.328-0.828,0.444-1.254
		c0.195-0.709,0.63-1.167,1.265-1.475c0.329,0.717,0.179,1.289-0.186,1.875c-0.145,0.231-0.101,0.59-0.101,0.89
		c0,0.058,0.195,0.149,0.306,0.155c0.047,0.003,0.124-0.165,0.153-0.264C8.724,14.708,8.823,14.338,8.926,13.97z"/>
	<path fill-rule="evenodd" clip-rule="evenodd" fill="#FFFFFF" d="M16.638,12.423c-0.314,0.626-0.276,1.16,0.083,1.709
		c0.163,0.248,0.211,0.588,0.246,0.895c0.012,0.1-0.18,0.224-0.28,0.338c-0.077-0.12-0.182-0.23-0.231-0.36
		c-0.121-0.333-0.218-0.673-0.335-1.045c-0.565,0.43-0.734,1.017-0.557,1.56c0.045,0.139-0.023,0.312-0.04,0.47
		c-0.146-0.101-0.41-0.189-0.42-0.301c-0.037-0.417-0.013-0.844,0.035-1.263c0.021-0.191,0.149-0.37,0.225-0.542
		c-0.158-0.12-0.447-0.26-0.431-0.344c0.039-0.202,0.181-0.421,0.347-0.557c0.805-0.664,0.774-0.634,0.247-1.567
		c-0.238-0.421-0.326-0.938-0.43-1.422c-0.064-0.3,0.071-0.496,0.435-0.378c0.5,0.159,0.911-0.029,1.311-0.322
		c0.308-0.226,0.634-0.484,0.989-0.572c0.286-0.071,0.634,0.077,0.945,0.161c0.059,0.017,0.126,0.215,0.096,0.291
		c-0.032,0.077-0.184,0.156-0.276,0.148c-0.967-0.09-1.012-0.077-1.772,0.732c0.351,0.036,0.66,0.063,0.97,0.098
		c0.897,0.102,1.581,0.543,2.001,1.344c0.068,0.129-0.024,0.342-0.044,0.516c-0.132-0.089-0.316-0.148-0.391-0.272
		c-0.463-0.771-1.17-1.05-2.034-1.113c-0.101,0.419,0.052,0.647,0.408,0.765c0.175,0.058,0.368,0.089,0.519,0.185
		c0.083,0.053,0.134,0.218,0.125,0.326c-0.003,0.054-0.176,0.138-0.271,0.134c-0.713-0.024-1.15-0.427-1.339-1.162
		c-0.034-0.128-0.176-0.273-0.303-0.324c-0.228-0.091-0.482-0.118-0.791-0.187c0.071,0.59,0.353,1.003,0.774,1.32
		c0.334,0.252,0.749,0.414,1.037,0.706c0.335,0.337,0.499,0.872,0.869,1.133c0.354,0.249,0.926,0.173,1.312,0.395
		c0.357,0.207,0.608,0.608,0.877,0.948c0.063,0.079,0.007,0.252,0.005,0.381c-0.134-0.03-0.308-0.021-0.396-0.101
		c-0.171-0.155-0.286-0.371-0.441-0.546c-0.308-0.349-0.7-0.502-1.19-0.45c-0.111,0.357,0.108,0.526,0.371,0.657
		c0.404,0.203,0.821,0.381,1.217,0.597c0.103,0.057,0.151,0.215,0.224,0.326c-0.143,0.039-0.302,0.138-0.422,0.104
		c-0.3-0.087-0.58-0.237-0.951-0.396c0.018,0.341-0.007,0.626,0.063,0.885c0.031,0.114,0.254,0.177,0.394,0.258
		c0.133,0.077,0.271,0.145,0.406,0.217c-0.119,0.095-0.224,0.245-0.358,0.276c-0.549,0.128-0.913-0.141-0.995-0.706
		c-0.026-0.182-0.028-0.368-0.028-0.553c-0.001-0.355-0.013-0.681-0.305-0.969c-0.145-0.143-0.174-0.428-0.204-0.656
		C17.825,13.371,17.384,12.81,16.638,12.423z"/>
	<path fill-rule="evenodd" clip-rule="evenodd" fill="none" d="M8.926,13.97c-0.104,0.369-0.202,0.738-0.316,1.104
		c-0.029,0.1-0.106,0.268-0.153,0.264C8.346,15.332,8.15,15.24,8.15,15.183c0-0.3-0.044-0.659,0.101-0.89
		c0.365-0.586,0.515-1.158,0.186-1.875c-0.635,0.308-1.07,0.766-1.265,1.475c-0.116,0.426-0.334,0.826-0.444,1.254
		c-0.09,0.352-0.103,0.726-0.124,1.091c-0.04,0.68-0.517,1.045-1.125,0.819c-0.106-0.04-0.168-0.202-0.25-0.308
		c0.112-0.071,0.253-0.227,0.333-0.2c0.468,0.163,0.525-0.112,0.535-0.457C6.103,15.894,6.1,15.694,6.1,15.428
		c-0.322,0.148-0.58,0.308-0.863,0.385c-0.159,0.044-0.353-0.047-0.531-0.078c0.1-0.126,0.175-0.297,0.306-0.368
		c0.336-0.185,0.716-0.297,1.042-0.497c0.236-0.144,0.412-0.38,0.704-0.661c-0.585-0.13-0.959-0.045-1.264,0.252
		c-0.214,0.209-0.376,0.474-0.592,0.68c-0.085,0.083-0.254,0.077-0.387,0.11c-0.009-0.133-0.075-0.302-0.018-0.396
		c0.432-0.702,0.99-1.224,1.879-1.267c0.152-0.007,0.383-0.107,0.428-0.223c0.242-0.621,0.717-0.989,1.256-1.326
		c0.338-0.21,0.663-0.467,0.927-0.761c0.2-0.223,0.297-0.538,0.496-0.921c-0.412,0.081-0.695,0.104-0.949,0.201
		c-0.115,0.044-0.22,0.228-0.246,0.364c-0.123,0.644-0.732,1.156-1.394,1.116c-0.091-0.006-0.231-0.102-0.247-0.177
		c-0.019-0.083,0.055-0.234,0.133-0.28c0.14-0.083,0.312-0.114,0.474-0.16c0.376-0.105,0.552-0.342,0.505-0.785
		c-0.872,0.033-1.573,0.314-2.046,1.073c-0.085,0.135-0.279,0.205-0.421,0.304c-0.005-0.192-0.084-0.425-0.005-0.569
		c0.428-0.769,1.097-1.207,1.982-1.293c0.298-0.03,0.597-0.056,1.058-0.099C7.902,9.726,7.615,9.442,7.271,9.268
		c-0.183-0.092-0.463,0.018-0.7,0.013C6.44,9.279,6.309,9.23,6.177,9.203c0.053-0.123,0.074-0.289,0.168-0.36
		c0.358-0.273,0.764-0.254,1.14-0.053c0.28,0.149,0.534,0.35,0.783,0.548c0.367,0.291,0.77,0.417,1.225,0.285
		c0.424-0.124,0.509,0.09,0.484,0.441c-0.045,0.64-0.26,1.208-0.688,1.695c-0.387,0.442-0.364,0.572,0.1,0.92
		c0.175,0.13,0.377,0.24,0.513,0.403c0.116,0.138,0.213,0.347,0.2,0.515c-0.007,0.088-0.267,0.158-0.387,0.222
		c0.11,0.377,0.271,0.785,0.333,1.208c0.035,0.244-0.063,0.523-0.156,0.765c-0.037,0.101-0.217,0.146-0.333,0.218
		c-0.042-0.127-0.156-0.285-0.116-0.377c0.271-0.635,0.013-1.14-0.331-1.632C9.05,13.989,8.989,13.98,8.926,13.97z"/>
</g>
</svg>
