<?xml version="1.0" encoding="utf-8"?>
<!-- Generator: Adobe Illustrator 16.0.0, SVG Export Plug-In . SVG Version: 6.00 Build 0)  -->
<!DOCTYPE svg PUBLIC "-//W3C//DTD SVG 1.1//EN" "http://www.w3.org/Graphics/SVG/1.1/DTD/svg11.dtd">
<svg version="1.1" id="Layer_1" xmlns="http://www.w3.org/2000/svg" xmlns:xlink="http://www.w3.org/1999/xlink" x="0px" y="0px"
	 width="25px" height="25px" viewBox="0 0 25 25" enable-background="new 0 0 25 25" xml:space="preserve">
<circle fill="#F2F2F2" cx="12.563" cy="12.438" r="12.438"/>
<g>
	<rect fill="none" width="25" height="25"/>
</g>
<g>
	<rect fill="none" width="25" height="25"/>
	<g>
		<path fill="#CECECE" d="M5.841,18.747c0.207,0.548,0.369,1.115,0.46,1.694c0.004,0.029,0.008,0.061,0.017,0.092
			c0.307,1.739,2.306,2.584,3.793,1.632c13.999-8.957,11.082-19.582,3.675-19.582c-6.38,0-6.637,5.637-6.539,7.563
			c0.019,0.396-0.129,0.781-0.408,1.063C4.379,13.709,5.23,17.133,5.841,18.747z"/>
		<path fill="#9E9E9E" d="M10.543,14.936c-4.436-2.836-5.107,5.43-0.859,4.369c4.349-1.087,8.944-6.847,7.062-11.199
			c-0.754-1.741-1.903-2.505-3.012-2.793c-2.187-0.568-4.371,0.967-4.621,3.214c-0.134,1.224,0.826,3.507,2.366,5.344
			c0.304,0.365,0.18,0.921-0.253,1.115C11.005,15.084,10.747,15.065,10.543,14.936z"/>
		<g>
			<path fill="#7F7F7F" d="M9.715,19.295c-0.01,0.003-0.02,0.007-0.031,0.01c-3.918,0.978-3.651-5.978-0.107-4.841
				C7.817,15.175,7.76,18.652,9.715,19.295z"/>
			<path fill="#7F7F7F" d="M9.676,14.498c0.384,1.107-0.439,2.265-1.612,2.265c-0.458,0-0.877-0.182-1.182-0.478
				C7.104,14.996,8.062,13.921,9.676,14.498z"/>
			<path fill="#7F7F7F" d="M11.479,13.87c-1.54-1.837-2.5-4.12-2.366-5.344c0.243-2.174,2.294-3.682,4.409-3.261
				c-1.538,0.306-2.801,1.584-2.988,3.261c-0.109,0.981,0.485,2.64,1.519,4.208l0,0c0,0,0.096,0.145,0.207,0.304
				c0.583,1.072-0.71,1.656-0.71,1.656C11.694,14.446,11.681,14.116,11.479,13.87z"/>
		</g>
		<path fill="#7F7F7F" d="M8.064,16.763c-0.458,0-0.877-0.182-1.182-0.478c0.249-1.442,1.279-2.274,2.695-1.821
			c-0.835,0.338-1.287,1.301-1.322,2.288C8.193,16.759,8.13,16.763,8.064,16.763z"/>
	</g>
</g>
</svg>
