<?xml version="1.0" encoding="utf-8"?>
<!-- Generator: Adobe Illustrator 16.0.0, SVG Export Plug-In . SVG Version: 6.00 Build 0)  -->
<!DOCTYPE svg PUBLIC "-//W3C//DTD SVG 1.1//EN" "http://www.w3.org/Graphics/SVG/1.1/DTD/svg11.dtd">
<svg version="1.1" id="Layer_1" xmlns="http://www.w3.org/2000/svg" xmlns:xlink="http://www.w3.org/1999/xlink" x="0px" y="0px"
	 width="25px" height="25px" viewBox="0 0 25 25" enable-background="new 0 0 25 25" xml:space="preserve">
<circle fill="#F2F2F2" cx="12.563" cy="12.438" r="12.438"/>
<g>
	<rect fill="none" width="25" height="25"/>
	<g id="_x35_1_1_">
		<path fill="#C6C6C6" d="M17.949,3.746c-0.676-0.788-4.463-2.689-6.524-0.552c-2.063,2.138,0.128,3.647,0.917,4.012
			c0.787,0.362,3.037,0.918,3.854-0.507c0.182,0.471,0.105,3.834-0.689,5.588c-0.149,0.328-0.324,0.602-0.527,0.787
			c-0.651-0.621-1.592-1.012-2.637-1.012c-0.859,0-1.646,0.263-2.263,0.702c-0.812-1.304-2.349-2.185-4.11-2.185
			c-0.846,0-1.639,0.203-2.326,0.558v0.457c0-0.002-0.002-0.002-0.002-0.002v11.194c0,0,3.264,0.168,3.523-3.6
			c0-0.001,0-0.001,0-0.001c0.794,1.152,3.322,2.029,4.881,1.978c2.447-0.08,5.7-0.188,8.453-2.829
			c0.257-0.255,0.599-0.884,0.599-0.884C22.373,14.799,18.625,4.533,17.949,3.746z"/>
	</g>
	<path fill="#353535" d="M13,12.125c0,0,0.063,2.078,0.766,4.016C14.138,17.167,16,20.75,16,20.75s4.75-1.375,5.25-3.813
		s-0.375-4.5-0.375-4.5l-4.938-1.531c0,0-0.035,0.448-0.375,1.297c-0.219,0.547-0.584,0.871-0.584,0.871s0.014-0.191-0.854-0.605
		S13,12.125,13,12.125z"/>
</g>
</svg>
