<?xml version="1.0" encoding="utf-8"?>
<!-- Generator: Adobe Illustrator 16.0.0, SVG Export Plug-In . SVG Version: 6.00 Build 0)  -->
<!DOCTYPE svg PUBLIC "-//W3C//DTD SVG 1.1//EN" "http://www.w3.org/Graphics/SVG/1.1/DTD/svg11.dtd">
<svg version="1.1" id="Layer_1" xmlns="http://www.w3.org/2000/svg" xmlns:xlink="http://www.w3.org/1999/xlink" x="0px" y="0px"
	 width="25px" height="25px" viewBox="0 0 25 25" enable-background="new 0 0 25 25" xml:space="preserve">
<circle fill="#F2F2F2" cx="12.563" cy="12.438" r="12.438"/>
<g>
	<rect fill="none" width="25" height="25"/>
	<g>
		<path fill="#353535" d="M12.452,7.598c-6.699,0-10.211,4.01-10.211,4.646c0,0.636,3.512,4.645,10.211,4.645
			c6.698,0,10.211-4.009,10.211-4.645C22.663,11.607,19.15,7.598,12.452,7.598z M12.452,15.946c-2.11,0-3.821-1.658-3.821-3.702
			c0-2.045,1.711-3.703,3.821-3.703s3.819,1.658,3.819,3.703C16.271,14.288,14.562,15.946,12.452,15.946z M9.501,11.272
			 M10.109,11.554c-0.069,0.227-0.107,0.466-0.107,0.714c0,1.343,1.09,2.434,2.436,2.434c1.344,0,2.434-1.091,2.434-2.434
			c0-1.347-1.09-2.436-2.434-2.436c-0.655,0-1.251,0.259-1.688,0.68l1.201,1.354L10.109,11.554z"/>
	</g>
</g>
</svg>
