<?xml version="1.0" encoding="utf-8"?>
<!-- Generator: Adobe Illustrator 16.0.0, SVG Export Plug-In . SVG Version: 6.00 Build 0)  -->
<!DOCTYPE svg PUBLIC "-//W3C//DTD SVG 1.1//EN" "http://www.w3.org/Graphics/SVG/1.1/DTD/svg11.dtd">
<svg version="1.1" id="Layer_1" xmlns="http://www.w3.org/2000/svg" xmlns:xlink="http://www.w3.org/1999/xlink" x="0px" y="0px"
	 width="25px" height="25px" viewBox="0 0 25 25" enable-background="new 0 0 25 25" xml:space="preserve">
<circle fill="#F2F2F2" cx="12.563" cy="12.438" r="12.438"/>
<g>
	<rect fill="none" width="25" height="25"/>
	<g>
		<path fill-rule="evenodd" clip-rule="evenodd" fill="#BABABA" d="M14.276,2.535c0,0-0.916,3.386-1.13,4.376
			c-0.214,0.989-0.947,3.054-1.206,3.442c-0.257,0.387-0.516,1.462-0.818,2.065c-0.3,0.602-0.903,2.237-0.945,2.539
			c-0.044,0.302-1.034,2.753-1.248,3.228c-0.216,0.472-0.947,1.031-1.334,1.505c-0.386,0.474-0.947,0.731-1.12,1.077
			c-0.171,0.344-0.386,0.817,0.689,0.903l0.241-0.118l0.273,0.36l0.33,0.085c0,0,0.271-0.015,0.315,0
			c0.042,0.015,0.3,0.1,0.388,0.128c0.085,0.029,0.429,0.173,0.429,0.173h0.388c0,0,0.158-0.072,0.2-0.057
			c0.045,0.014,0.674,0.128,0.674,0.128l0.646-0.114c0,0,1.42-0.545,1.649-0.774c0.229-0.23,1.005-2.107,1.132-2.554
			c0.13-0.444,0.88-1.643,1.727-2.49c0.02-0.021,0.26-0.235,0.26-0.235s0.109-0.2,0.596-0.63c0.489-0.431,1.305-1.104,1.276-2.339
			c-0.028-1.233-1.104-2.295-1.075-2.997c0.028-0.703,0.559-2.624,1.693-4.92l0.76-1.168C19.067,4.147,15.023,2.781,14.276,2.535z"
			/>
		<path fill-rule="evenodd" clip-rule="evenodd" d="M12.559,21.761c-0.117,0.084-0.225,0.188-0.352,0.251
			c-0.641,0.311-1.321,0.468-2.029,0.5c-0.138,0.006-0.277-0.055-0.416-0.073c-0.079-0.01-0.161-0.008-0.237,0.007
			c-0.212,0.044-0.412,0.035-0.61-0.072c-0.078-0.042-0.188-0.016-0.277-0.044c-0.166-0.053-0.327-0.122-0.49-0.183
			c-0.04-0.013-0.079-0.023-0.12-0.029c-0.104-0.017-0.209-0.021-0.311-0.044c-0.181-0.037-0.316-0.131-0.362-0.326
			c-0.331,0.118-0.662,0.138-0.97-0.026c-0.146-0.08-0.299-0.205-0.365-0.348c-0.057-0.123-0.038-0.318,0.02-0.449
			c0.087-0.201,0.208-0.406,0.364-0.557c0.395-0.38,0.802-0.752,1.231-1.09c0.54-0.426,0.925-0.957,1.229-1.561
			c0.385-0.77,0.605-1.596,0.852-2.412c0.521-1.725,1.097-3.423,1.971-5.01c0.452-0.821,0.791-1.697,1.046-2.598
			c0.333-1.184,0.625-2.379,0.957-3.564c0.146-0.518,0.344-1.02,0.518-1.529c0.01-0.025,0.023-0.049,0.07-0.067
			c0,0.045,0.009,0.093-0.001,0.136c-0.219,0.953-0.438,1.904-0.66,2.857c-0.191,0.821-0.368,1.647-0.578,2.464
			c-0.233,0.897-0.558,1.757-0.972,2.593c-0.447,0.905-0.828,1.845-1.189,2.79c-0.249,0.652-0.424,1.332-0.615,2.006
			c-0.272,0.946-0.546,1.889-1.01,2.763c-0.319,0.605-0.728,1.142-1.259,1.579c-0.291,0.239-0.567,0.496-0.816,0.717
			c0.025,0.165,0.055,0.288,0.062,0.412c0.008,0.09-0.04,0.158-0.144,0.159c-0.108,0.002-0.151-0.063-0.16-0.161
			c-0.005-0.039-0.008-0.075-0.042-0.135c-0.111,0.146-0.223,0.292-0.337,0.443c0.204,0.263,0.494,0.315,0.798,0.334
			c0.031,0.002,0.072-0.053,0.097-0.088c0.289-0.412,0.681-0.691,1.14-0.882c0.032-0.015,0.07-0.015,0.126,0.006
			c-0.026,0.03-0.051,0.063-0.083,0.088c-0.236,0.201-0.482,0.39-0.707,0.604c-0.104,0.098-0.171,0.24-0.246,0.365
			c-0.048,0.08-0.016,0.14,0.077,0.153c0.14,0.022,0.237,0.015,0.338-0.139c0.189-0.29,0.482-0.485,0.789-0.65
			c0.162-0.088,0.331-0.163,0.496-0.244c0.01,0.013,0.021,0.023,0.033,0.037c-0.023,0.036-0.041,0.084-0.074,0.109
			c-0.179,0.143-0.368,0.271-0.543,0.419c-0.129,0.11-0.256,0.23-0.361,0.364c-0.117,0.152-0.072,0.246,0.117,0.296
			c0.055,0.016,0.111,0.02,0.179,0.032c0.05-0.443,0.365-0.644,0.709-0.822c0.221-0.114,0.438-0.23,0.658-0.346
			c0.019-0.009,0.043-0.011,0.063-0.015c0.009,0.009,0.021,0.019,0.029,0.028c-0.046,0.058-0.085,0.127-0.143,0.171
			c-0.166,0.129-0.339,0.249-0.511,0.367c-0.206,0.141-0.373,0.314-0.471,0.544C9,22.044,9.06,22.144,9.224,22.14
			c0.239-0.007,0.441-0.081,0.605-0.289c0.129-0.163,0.312-0.291,0.484-0.413c0.118-0.083,0.261-0.139,0.396-0.191
			c0.039-0.015,0.096,0.019,0.144,0.029c-0.014,0.043-0.014,0.102-0.043,0.126c-0.082,0.068-0.174,0.13-0.268,0.187
			c-0.151,0.092-0.312,0.171-0.388,0.346c-0.092,0.212-0.038,0.292,0.186,0.263c0.69-0.089,1.366-0.226,1.954-0.632
			c0.015-0.01,0.037-0.011,0.054-0.016C12.418,21.619,12.489,21.689,12.559,21.761z"/>
		<path fill-rule="evenodd" clip-rule="evenodd" d="M16.25,15.67c0.194-0.218,0.393-0.436,0.585-0.657
			c0.476-0.552,0.762-1.173,0.686-1.924c-0.062-0.611-0.312-1.14-0.676-1.63c-0.198-0.265-0.388-0.549-0.521-0.851
			c-0.181-0.419-0.144-0.869-0.049-1.31c0.137-0.628,0.433-1.19,0.729-1.752c0.362-0.682,0.718-1.368,1.099-2.039
			c0.249-0.443,0.513-0.883,0.87-1.256c0.033-0.034,0.064-0.069,0.096-0.104c0.011,0.006,0.022,0.012,0.032,0.018
			c-0.106,0.202-0.208,0.405-0.321,0.604c-0.467,0.827-0.868,1.687-1.216,2.57c-0.251,0.634-0.488,1.274-0.692,1.924
			c-0.218,0.689-0.035,1.333,0.314,1.947c0.184,0.327,0.375,0.657,0.502,1.009c0.387,1.074,0.119,2.022-0.643,2.838
			c-0.226,0.241-0.5,0.438-0.754,0.655C16.276,15.698,16.264,15.684,16.25,15.67z"/>
		<path fill-rule="evenodd" clip-rule="evenodd" d="M12.559,21.761c-0.07-0.071-0.141-0.142-0.21-0.212
			c0.124-0.138,0.257-0.266,0.371-0.41c0.319-0.41,0.477-0.897,0.639-1.382c0.221-0.661,0.463-1.312,0.853-1.896
			c0.416-0.622,0.949-1.131,1.517-1.608c0.024-0.022,0.059-0.035,0.09-0.051c0.009,0.01,0.017,0.019,0.025,0.029
			c-0.031,0.035-0.06,0.072-0.095,0.106c-0.496,0.517-0.973,1.048-1.347,1.664c-0.303,0.503-0.489,1.052-0.667,1.605
			c-0.14,0.44-0.291,0.878-0.463,1.307c-0.122,0.304-0.337,0.551-0.579,0.772C12.657,21.721,12.605,21.736,12.559,21.761z"/>
		<path fill-rule="evenodd" clip-rule="evenodd" d="M15.962,10.972c0.015,0.096,0.041,0.191,0.045,0.287
			c0.023,0.484,0.023,0.969-0.167,1.426c-0.11,0.267-0.273,0.491-0.572,0.579c-0.251,0.074-0.477,0.014-0.701-0.152
			c0.038-0.009,0.076-0.025,0.115-0.027c0.154-0.012,0.318,0.009,0.464-0.032c0.205-0.06,0.313-0.238,0.396-0.428
			c0.161-0.374,0.193-0.776,0.254-1.172c0.024-0.161,0.066-0.321,0.101-0.481C15.919,10.972,15.939,10.972,15.962,10.972z"/>
	</g>
</g>
</svg>
