<?xml version="1.0" encoding="utf-8"?>
<!-- Generator: Adobe Illustrator 16.0.0, SVG Export Plug-In . SVG Version: 6.00 Build 0)  -->
<!DOCTYPE svg PUBLIC "-//W3C//DTD SVG 1.1//EN" "http://www.w3.org/Graphics/SVG/1.1/DTD/svg11.dtd">
<svg version="1.1" id="Layer_1" xmlns="http://www.w3.org/2000/svg" xmlns:xlink="http://www.w3.org/1999/xlink" x="0px" y="0px"
	 width="25px" height="25px" viewBox="0 0 25 25" enable-background="new 0 0 25 25" xml:space="preserve">
<circle fill="#F2F2F2" cx="12.563" cy="12.438" r="12.438"/>
<g>
	<rect fill="none" width="25" height="25"/>
	<g id="_x35_1_4_">
		<path fill="#C6C6C6" d="M17.949,3.746c-0.675-0.788-4.462-2.688-6.524-0.551c-2.063,2.138,0.128,3.647,0.917,4.012
			c0.788,0.362,3.038,0.918,3.854-0.506c0.182,0.47,0.106,3.833-0.689,5.588c-0.149,0.328-0.324,0.601-0.527,0.786
			c-0.652-0.621-1.592-1.011-2.638-1.011c-0.858,0-1.646,0.263-2.262,0.702c-0.812-1.304-2.348-2.184-4.111-2.184
			c-0.845,0-1.639,0.203-2.326,0.557v0.457c0-0.002-0.002-0.002-0.002-0.002v11.194c0,0,3.264,0.168,3.524-3.599
			c0-0.001,0-0.001,0-0.001c0.793,1.152,3.322,2.029,4.881,1.978c2.447-0.081,5.7-0.188,8.453-2.829
			c0.256-0.254,0.598-0.884,0.598-0.884C22.373,14.799,18.625,4.533,17.949,3.746z"/>
	</g>
	<path fill="#353535" d="M17.949,3.746c-0.675-0.788-4.462-2.688-6.524-0.551c-2.063,2.138,0.128,3.647,0.917,4.012
		c0.788,0.362,3.038,0.918,3.854-0.506c0.182,0.47,0.106,3.833-0.689,5.588c-0.126,0.276-0.273,0.5-0.437,0.678
		c0.323,1.363,0.928,2.954,2.053,3.636c1.827,1.107,0.977,2.018,2.321,2.611c0.358-0.256,0.71-0.547,1.055-0.878
		c0.256-0.254,0.598-0.884,0.598-0.884C22.373,14.799,18.625,4.533,17.949,3.746z"/>
</g>
</svg>
