<?xml version="1.0" encoding="utf-8"?>
<!-- Generator: Adobe Illustrator 16.0.0, SVG Export Plug-In . SVG Version: 6.00 Build 0)  -->
<!DOCTYPE svg PUBLIC "-//W3C//DTD SVG 1.1//EN" "http://www.w3.org/Graphics/SVG/1.1/DTD/svg11.dtd">
<svg version="1.1" id="Layer_1" xmlns="http://www.w3.org/2000/svg" xmlns:xlink="http://www.w3.org/1999/xlink" x="0px" y="0px"
	 width="25px" height="25px" viewBox="0 0 25 25" enable-background="new 0 0 25 25" xml:space="preserve">
<circle fill="#F2F2F2" cx="12.563" cy="12.438" r="12.438"/>
<g>
	<rect fill="none" width="25" height="25"/>
</g>
<g>
	<rect fill="none" width="25" height="25"/>
	<path fill="#353535" d="M21.083,11.827c-0.144-0.241-0.383-0.373-0.683-0.373c-0.555,0.003-1.224,0.223-1.743,0.574
		c-0.48,0.325-1.176,0.926-1.762,1.951c-0.11,0.193-0.291,0.322-0.484,0.354c-0.001-0.044,0-0.095,0-0.144
		c0-0.103,0-0.225-0.004-0.361V6.462c0-0.734-0.597-1.332-1.332-1.332s-1.332,0.598-1.332,1.332v5.159
		c0,0.092-0.074,0.166-0.166,0.166c-0.091,0-0.166-0.074-0.166-0.166V4.133c0-0.735-0.597-1.332-1.332-1.332
		c-0.733,0-1.332,0.597-1.332,1.332v7.488c0,0.092-0.074,0.166-0.167,0.166c-0.09,0-0.167-0.074-0.167-0.166V5.63
		c0-0.642-0.521-1.164-1.164-1.164S8.087,4.988,8.087,5.63v6.656c0,0.092-0.075,0.167-0.166,0.167c-0.092,0-0.167-0.075-0.167-0.167
		V8.126c0-0.643-0.522-1.165-1.167-1.165c-0.642,0-1.165,0.522-1.165,1.165v9.052c0.323,4.653,3.178,5.281,5.928,5.281
		c2.277,0,4.325-1.131,5.333-2.938c0.13-0.209,0.482-0.761,0.897-1.416c1.042-1.635,1.914-3.008,2.043-3.252
		c0.287-0.544,0.606-0.97,0.926-1.229c0.288-0.236,0.464-0.537,0.607-0.8C21.231,12.687,21.295,12.183,21.083,11.827z"/>
</g>
</svg>
