<?xml version="1.0" encoding="utf-8"?>
<!-- Generator: Adobe Illustrator 16.0.0, SVG Export Plug-In . SVG Version: 6.00 Build 0)  -->
<!DOCTYPE svg PUBLIC "-//W3C//DTD SVG 1.1//EN" "http://www.w3.org/Graphics/SVG/1.1/DTD/svg11.dtd">
<svg version="1.1" id="Layer_1" xmlns="http://www.w3.org/2000/svg" xmlns:xlink="http://www.w3.org/1999/xlink" x="0px" y="0px"
	 width="25px" height="25px" viewBox="0 0 25 25" enable-background="new 0 0 25 25" xml:space="preserve">
<circle fill="#F2F2F2" cx="12.563" cy="12.438" r="12.438"/>
<g>
	<rect fill="none" width="25" height="25"/>
	<path fill="#353535" d="M20.293,10.143c-0.219-2.554-1.73-4.909-3.849-6.319c-1.157-0.772-2.502-1.247-3.883-1.426
		C8.758,1.903,4.752,3.572,3.319,7.308c-1.235,3.212-0.017,6.398,2.19,8.832c0.797,0.876,0.909,2.526,0.909,3.638v2.253
		c0,0.346,0.279,0.626,0.625,0.626h8.154c0.331,0,0.603-0.256,0.625-0.586c0.03-0.442,0.079-0.833,0.079-0.833
		c0.17-0.73,0.794-1.318,2.121-1.104c1.389,0.224,2.268-0.19,2.346-1.117c0.025-0.305,0.041-2.915,0.041-2.915
		c0.069-0.039,0.503-0.124,1.14-0.269c0.494-0.113,0.667-0.727,0.307-1.082c-1.442-1.43-1.638-2.097-1.675-2.239
		C20.004,11.798,20.359,10.89,20.293,10.143L20.293,10.143z"/>
	<path fill="#FFFFFF" d="M17.602,9.289c-0.2,0.254-0.429,0.305-0.55,0.312c-0.042,0.002-0.069,0.039-0.057,0.078
		c0.061,0.218,0.124,0.821-0.954,1.057c-1.012,0.22-1.623,1.007-2.023,1.406c-0.307,0.307-0.721,0.45-1.138,0.542
		c-0.423,0.096-0.84,0.18-1.175,0.479c-0.351,0.317-0.848,2.061-0.93,2.366c-0.011,0.027-0.033,0.044-0.062,0.044h-0.519
		c-0.029,0-0.055-0.021-0.062-0.049l-0.251-1.19c-0.01-0.051-2.45,0.149-2.638-0.939c-0.007-0.039-0.044-0.063-0.082-0.049
		c-0.233,0.084-0.986,0.293-1.392-0.335c-0.29-0.446-0.212-0.864-0.172-1.006c0.009-0.03-0.006-0.062-0.035-0.075
		c-0.207-0.088-0.955-0.507-0.853-1.887c0.08-1.112,0.834-1.604,0.729-1.776c-0.305-0.493-0.042-1.31,0.581-1.493
		c0.025-0.008,0.042-0.029,0.045-0.055l0.025-0.29C6.176,5.404,7.52,4.757,8.435,5.181c0.034,0.016,0.077,0,0.088-0.037
		c0.113-0.363,0.344-0.462,0.407-0.497c0.283-0.161,0.651-0.14,0.944-0.021c0.021,0.01,0.049,0.004,0.067-0.015
		c0.083-0.089,0.424-0.371,0.989-0.371c0.579,0,0.874,0.281,0.975,0.36c0.02,0.015,0.045,0.017,0.066,0.005
		c0.132-0.066,0.605-0.277,1.081-0.114c0.361,0.124,0.565,0.45,0.63,0.571c0.014,0.024,0.042,0.037,0.071,0.031
		c0.171-0.041,0.761-0.154,1.257,0.069c0.524,0.237,0.688,0.581,0.732,0.696c0.005,0.022,0.029,0.039,0.054,0.039
		c0.111,0.004,0.427,0.032,0.622,0.195c0.342,0.288,0.309,0.515,0.267,0.612c-0.011,0.03,0.003,0.063,0.03,0.078
		c0.158,0.077,0.596,0.33,0.868,0.868C17.957,8.393,17.806,9.029,17.602,9.289L17.602,9.289z"/>
</g>
</svg>
