<?xml version="1.0" encoding="utf-8"?>
<!-- Generator: Adobe Illustrator 16.0.0, SVG Export Plug-In . SVG Version: 6.00 Build 0)  -->
<!DOCTYPE svg PUBLIC "-//W3C//DTD SVG 1.1//EN" "http://www.w3.org/Graphics/SVG/1.1/DTD/svg11.dtd">
<svg version="1.1" id="Layer_1" xmlns="http://www.w3.org/2000/svg" xmlns:xlink="http://www.w3.org/1999/xlink" x="0px" y="0px"
	 width="25px" height="25px" viewBox="0 0 25 25" enable-background="new 0 0 25 25" xml:space="preserve">
<circle fill="#F2F2F2" cx="12.563" cy="12.438" r="12.438"/>
<g>
	<rect fill="none" width="25" height="25"/>
	<g>
		<path fill-rule="evenodd" clip-rule="evenodd" fill="#BABABA" d="M4.503,15.38c0.197,0.335,0.344,0.69,0.445,1.066
			c0.191,0.715,0.23,1.451,0.329,2.181c0.068,0.507,0.146,1.014,0.263,1.51c0.167,0.712,0.077,1.532,0.377,2.196
			c0.057,0.126,0.25,0.584,0.549,0.667h5.879c0.008,0,0.007-0.332,0.013-0.389c0.099-0.892,0.227-1.887,0.332-2.775
			c0.055-0.477,0.072-1.008,0.003-1.484c-0.18-1.231-0.629-2.386-1.323-3.412c-0.184-0.268-0.355-0.553-0.552-0.813
			c-0.207-0.281-0.2-0.56-0.023-0.852c0.185-0.308,0.402-0.587,0.656-0.837c0.411-0.404,0.899-0.682,1.399-0.953
			c1.997-1.077,3.816-2.409,5.469-3.967c0.826-0.78,1.581-2.086,2.221-3.03C20.965,3.854,21.323,3,21.587,2
			c-4.135,0-8.27,0-12.404,0C9.166,3,9.148,2.51,9.129,2.532C8.891,2.79,8.639,3.267,8.415,3.537
			C7.513,4.624,6.771,5.93,6.119,7.184C5.606,8.17,5.153,9.243,4.88,10.327c-0.067,0.265-0.179,0.5-0.376,0.687
			c-0.377,0.353-0.666,0.788-0.811,1.294c-0.154,0.548-0.076,1.089,0.109,1.616C3.978,14.435,4.235,14.915,4.503,15.38z"/>
	</g>
	<path fill-rule="evenodd" clip-rule="evenodd" fill="#636363" d="M8.979,2c0,0-0.562,1.084-1.396,2.334S5.437,8.16,4.75,9.584
		c-0.563,1.166-1,2.001-1.25,2.584s-0.719,1.238,0.692,3.418c0.914,1.412,0.479,2.478,1.06,4.821s1.029,2.53,1.029,2.53
		S5.667,21,5.667,19.417c0-2.09-0.516-3.854-1.417-5.084c-0.589-0.805,0.043-2.804,0.896-4.166C5.563,9.501,6.76,6.614,8.208,4.791
		C9.333,3.375,10.063,2,10.063,2H8.979z"/>
	<path fill-rule="evenodd" clip-rule="evenodd" fill="#636363" d="M12.344,23c0,0,1.719-5.438-1.469-8.313
		c0,0-0.703-1.244,0.625-2.156S20.395,8.188,21.666,2c0,0-2.108,5.241-9.291,9.25c-4.146,2.313-1.448,3.511-0.656,5.844
		S12.443,19.156,12.344,23z"/>
	<path fill-rule="evenodd" clip-rule="evenodd" fill="#353535" d="M11.369,14.913c-0.184-0.27-0.355-0.542-0.552-0.801
		c-0.207-0.283-0.2-0.553-0.023-0.846c0.185-0.308,0.402-0.583,0.656-0.833c0.18-0.179,0.38-0.333,0.585-0.472
		c-0.788-0.617-1.831-1.107-3.019-1.361c-1.763-0.379-3.439-0.157-4.572,0.497c-0.347,0.34-0.612,0.745-0.751,1.225
		c-0.154,0.547-0.076,1.083,0.109,1.608c0.177,0.511,0.434,0.984,0.702,1.449c0.155,0.266,0.28,0.543,0.376,0.834
		c0.744,0.51,1.674,0.914,2.712,1.136c1.84,0.396,3.588,0.135,4.721-0.586C12.081,16.113,11.765,15.498,11.369,14.913z"/>
</g>
</svg>
