<?xml version="1.0" encoding="utf-8"?>
<!-- Generator: Adobe Illustrator 16.0.0, SVG Export Plug-In . SVG Version: 6.00 Build 0)  -->
<!DOCTYPE svg PUBLIC "-//W3C//DTD SVG 1.1//EN" "http://www.w3.org/Graphics/SVG/1.1/DTD/svg11.dtd">
<svg version="1.1" id="Layer_1" xmlns="http://www.w3.org/2000/svg" xmlns:xlink="http://www.w3.org/1999/xlink" x="0px" y="0px"
	 width="25px" height="25px" viewBox="0 0 25 25" enable-background="new 0 0 25 25" xml:space="preserve">
<circle fill="#F2F2F2" cx="12.563" cy="12.438" r="12.438"/>
<g>
	<path fill="#BABABA" d="M3.627,19.61c0,0,0.28-2.684,0.453-3.16c0.173-0.478,0.478-1.304,0.478-1.736
		c0-0.434,0.304-7.552,0.694-8.247s0.824-1.085,1.345-1.172c0.521-0.087,1.756-0.276,2.562-0.521
		c1.433-0.434,1.614-2.269,1.614-2.269s2.031,0.359,3.392-0.262c0,0,0.246,1.924,1.896,2.618c1.648,0.694,2.993,0.13,3.559,1.128
		c0.564,0.998,0.21,2.103,0.322,2.744c0.111,0.642,0.198,2.291,0.328,2.855c0.131,0.565,0.045,2.386,0.088,2.604
		s0.564,1.736,0.65,2.258c0.087,0.521,0.509,3.134,0.406,3.216c-0.103,0.083-1.54,2.769-1.54,2.769l-0.168-0.516
		c0,0-1.128-3.082-1.042-4.602c0.087-1.519-0.603-2.923-0.519-3.133c0.085-0.209-0.582-2.424-0.582-2.424l-0.028-1.474l0.345-1.979
		c0,0-0.561,2.24-0.647,3.542c-0.088,1.302-0.132,2.213-0.348,2.778c-0.217,0.564-0.391,0.955-0.131,1.477
		c0.261,0.521,1.726,5.725,1.726,5.725l-5.588-0.387l-6.425,0.462c0,0,1.521-5.15,1.998-6.148c0,0-0.695-2.995-0.695-3.515
		c0-0.521-0.606-3.93-0.606-3.93l0.304,3.148L7.161,12.5l-0.694,3.213l-0.043,1.778l-0.478,2.865c0,0-0.564,0.998-0.564,1.302
		c0,0.305-0.314,0.674-0.314,0.674L3.627,19.61z"/>
	<rect fill="none" width="25" height="25"/>
	<g>
		<path fill-rule="evenodd" clip-rule="evenodd" fill="#636363" d="M19.873,22.383c-0.012,0-0.025-0.005-0.034-0.016
			c-0.017-0.014-0.036-0.028-0.056-0.044c-0.051-0.037-0.104-0.077-0.124-0.137c-0.073-0.226-0.152-0.454-0.227-0.674
			c-0.21-0.612-0.425-1.245-0.585-1.882c-0.298-1.194-0.366-2.439-0.433-3.644l-0.007-0.106c-0.022-0.433-0.126-0.873-0.226-1.299
			c-0.03-0.129-0.062-0.257-0.089-0.387c-0.118-0.538-0.248-1.083-0.374-1.61c-0.045-0.191-0.091-0.383-0.137-0.575
			c-0.011-0.044-0.024-0.088-0.037-0.131c-0.01,0.057-0.018,0.115-0.025,0.173c-0.03,0.203-0.06,0.411-0.095,0.618
			c-0.032,0.181-0.062,0.366-0.088,0.545c-0.112,0.713-0.228,1.451-0.537,2.137c-0.03,0.067,0.015,0.203,0.03,0.248
			c0.304,0.897,0.597,1.808,0.883,2.688c0.249,0.769,0.506,1.563,0.768,2.346c0.087,0.264,0.143,0.541,0.196,0.809
			c0.009,0.05,0.02,0.101,0.029,0.149c0.013,0.058-0.014,0.114-0.037,0.165c-0.01,0.021-0.019,0.04-0.025,0.06
			c-0.006,0.017-0.021,0.03-0.039,0.034c-0.003,0-0.005,0-0.009,0c-0.016,0-0.03-0.006-0.04-0.018
			c-0.013-0.013-0.027-0.028-0.044-0.044c-0.038-0.036-0.084-0.076-0.097-0.132c-0.447-2.017-1.183-3.978-1.894-5.872l-0.059-0.154
			c-0.051-0.133-0.017-0.303,0.017-0.436c0.066-0.256,0.143-0.513,0.215-0.763c0.142-0.479,0.287-0.977,0.361-1.473
			c0.15-1,0.264-2.023,0.373-3.013c0.052-0.474,0.105-0.964,0.163-1.446c0.008-0.065,0.042-0.122,0.075-0.176
			c0.014-0.023,0.028-0.045,0.038-0.068c0.01-0.017,0.026-0.028,0.047-0.028h0.003c0.019,0.001,0.038,0.014,0.046,0.033
			c0.009,0.022,0.019,0.044,0.031,0.068c0.03,0.058,0.06,0.119,0.056,0.184c-0.006,0.097-0.012,0.195-0.018,0.292
			c-0.019,0.363-0.04,0.739-0.103,1.103c-0.115,0.674-0.072,1.363,0.135,2.17c0.272,1.057,0.53,2.183,0.768,3.347
			c0.063,0.312,0.074,0.637,0.083,0.951c0.004,0.129,0.008,0.263,0.017,0.392c0.105,1.782,0.404,3.312,0.916,4.679
			c0.034,0.089,0.071,0.18,0.109,0.266c0.049,0.116,0.099,0.236,0.142,0.358c0.02,0.062,0.009,0.127-0.001,0.19
			c-0.007,0.024-0.01,0.05-0.013,0.073c0,0.02-0.013,0.036-0.032,0.044C19.887,22.382,19.879,22.383,19.873,22.383z M5.178,22.378
			c-0.008,0-0.014-0.003-0.02-0.005c-0.013-0.006-0.023-0.016-0.028-0.028c-0.005-0.012-0.011-0.024-0.018-0.036
			c-0.016-0.034-0.036-0.073-0.033-0.116c0.001-0.048,0.022-0.092,0.042-0.13c0.005-0.012,0.01-0.022,0.014-0.033
			c0.727-1.656,1.11-3.531,1.171-5.737c0.02-0.677,0.172-1.332,0.319-1.965c0.044-0.189,0.091-0.385,0.132-0.578
			c0.083-0.389,0.179-0.783,0.271-1.164c0.106-0.441,0.219-0.897,0.312-1.349c0.048-0.24,0.026-0.501,0.005-0.754l-0.008-0.098
			C7.31,10.04,7.275,9.69,7.243,9.352c-0.026-0.277-0.056-0.563-0.08-0.845C7.158,8.445,7.185,8.387,7.21,8.331
			C7.221,8.308,7.23,8.286,7.237,8.265C7.244,8.247,7.26,8.233,7.28,8.23c0,0,0.004,0,0.007,0c0.016,0,0.033,0.008,0.043,0.023
			c0.013,0.02,0.027,0.039,0.045,0.06C7.417,8.364,7.46,8.417,7.467,8.482C7.503,8.817,7.534,9.159,7.563,9.49
			c0.054,0.605,0.11,1.231,0.2,1.841c0.121,0.814,0.282,1.637,0.438,2.433c0.057,0.296,0.115,0.592,0.171,0.887
			c0.021,0.11,0.049,0.234,0.109,0.318c0.25,0.337,0.13,0.651,0.013,0.955c-0.701,1.834-1.365,3.636-1.797,5.509
			c-0.007,0.027-0.011,0.057-0.016,0.086c-0.009,0.059-0.017,0.117-0.04,0.173c-0.021,0.047-0.062,0.082-0.1,0.11
			c-0.014,0.013-0.027,0.022-0.04,0.034c-0.011,0.011-0.023,0.015-0.036,0.015c-0.004,0-0.006,0-0.011,0
			c-0.018-0.004-0.031-0.016-0.036-0.03c-0.007-0.017-0.017-0.033-0.025-0.049c-0.025-0.045-0.054-0.096-0.043-0.148
			c0.011-0.058,0.022-0.116,0.034-0.174c0.047-0.254,0.099-0.514,0.181-0.763c0.566-1.707,1.129-3.376,1.676-4.96
			c0.071-0.216,0.054-0.38-0.005-0.578c-0.225-0.784-0.412-1.599-0.57-2.303c-0.056-0.253-0.091-0.515-0.124-0.769
			c-0.011-0.066-0.02-0.134-0.027-0.201c-0.02,0.082-0.04,0.163-0.061,0.245c-0.071,0.288-0.144,0.585-0.21,0.878
			c-0.053,0.226-0.108,0.454-0.162,0.675c-0.141,0.576-0.286,1.172-0.385,1.763c-0.063,0.379-0.08,0.772-0.097,1.154
			c-0.008,0.218-0.018,0.445-0.035,0.668c-0.16,1.917-0.521,3.465-1.136,4.869c-0.008,0.017-0.013,0.032-0.02,0.048
			c-0.017,0.045-0.034,0.09-0.065,0.129c-0.028,0.032-0.071,0.045-0.109,0.057c-0.013,0.004-0.026,0.008-0.038,0.012
			C5.192,22.377,5.185,22.378,5.178,22.378z M21.296,19.718c-0.021,0-0.039-0.014-0.048-0.031c-0.007-0.021-0.019-0.041-0.03-0.062
			c-0.026-0.053-0.056-0.105-0.06-0.166c-0.014-0.164-0.021-0.33-0.026-0.492c-0.005-0.118-0.011-0.241-0.018-0.361
			c-0.07-1.162-0.316-2.299-0.729-3.377c-0.046-0.122-0.052-0.256-0.048-0.347c0.055-1.527-0.129-3.08-0.29-4.449
			c-0.029-0.247-0.027-0.5-0.026-0.744c0.001-0.172,0.002-0.35-0.007-0.524c-0.009-0.144-0.015-0.29-0.022-0.435
			c-0.024-0.525-0.051-1.068-0.129-1.593c-0.153-1.023-0.719-1.575-1.776-1.737c-0.209-0.032-0.426-0.053-0.634-0.074
			c-0.315-0.031-0.642-0.064-0.955-0.134c-1.271-0.282-2.081-1.118-2.41-2.486c-0.049-0.2-0.045-0.22-0.042-0.234
			c0.002-0.012,0.004-0.023,0.006-0.034c0.01-0.066,0.02-0.123,0.123-0.144c0.004-0.001,0.008-0.001,0.011-0.001
			c0.005,0,0.01,0,0.017,0c0.007,0,0.015-0.001,0.023-0.001c0.072,0,0.114,0.039,0.129,0.113c0.254,1.437,1.403,2.503,2.794,2.591
			c0.407,0.026,0.807,0.075,1.184,0.146c1.027,0.191,1.66,0.845,1.829,1.893c0.071,0.448,0.109,0.906,0.147,1.35
			c0.017,0.198,0.034,0.402,0.056,0.603c0,0.014-0.004,0.027-0.013,0.039c-0.009,0.011-0.021,0.018-0.036,0.019l-0.051,0.005
			c0.031,0.358,0.065,0.715,0.097,1.072c0.082,0.887,0.167,1.804,0.233,2.708c0.029,0.411,0.035,0.832,0.04,1.236
			c0.003,0.239,0.005,0.486,0.014,0.729c0.005,0.176,0.029,0.317,0.071,0.434c0.48,1.322,0.73,2.732,0.74,4.192
			c0.003,0.015,0.003,0.031-0.005,0.049c-0.028,0.06-0.059,0.116-0.088,0.175l-0.023,0.047
			C21.335,19.708,21.317,19.718,21.296,19.718L21.296,19.718z M3.758,19.717c-0.021,0-0.041-0.015-0.048-0.035
			c-0.011-0.03-0.023-0.06-0.034-0.09c-0.029-0.07-0.058-0.145-0.067-0.224c-0.014-0.092-0.012-0.187-0.009-0.277
			c0.002-0.04,0.004-0.078,0.004-0.116c0.061-1.326,0.313-2.597,0.75-3.777c0.038-0.104,0.059-0.221,0.055-0.331
			c-0.039-1.172,0.076-2.35,0.189-3.491c0.025-0.255,0.05-0.511,0.073-0.768c0.045-0.474,0.055-0.96,0.065-1.43
			c0.006-0.334,0.015-0.68,0.033-1.02c0.026-0.46,0.082-0.893,0.165-1.286c0.212-1.002,0.87-1.596,1.954-1.768
			c0.219-0.035,0.442-0.057,0.658-0.078C7.854,4.994,8.17,4.963,8.472,4.896c1.17-0.257,1.91-1.017,2.201-2.261
			c0.004-0.02,0.019-0.081,0.073-0.081c0.018,0,0.029,0.007,0.041,0.013c0-0.001,0.001-0.002,0.001-0.002
			c0.009-0.017,0.026-0.027,0.046-0.027c0.002,0,0.006,0,0.01,0.001c0.021,0.004,0.039,0.023,0.041,0.045
			c0.001,0.003,0.001,0.006,0.001,0.008c0.004,0,0.007,0,0.009,0c0.029,0,0.047,0.013,0.058,0.024
			c0.019,0.026,0.017,0.06,0.012,0.09c-0.29,1.483-1.466,2.501-2.998,2.592C7.61,5.32,7.293,5.352,6.994,5.398
			C5.883,5.571,5.323,6.132,5.178,7.217C5.123,7.638,5.104,8.07,5.086,8.489c-0.01,0.232-0.02,0.472-0.036,0.708
			C5.023,9.559,4.994,9.926,4.965,10.28c-0.043,0.563-0.091,1.147-0.123,1.721c-0.037,0.651-0.061,1.315-0.081,1.958
			c-0.011,0.327-0.023,0.655-0.035,0.982c-0.005,0.09-0.009,0.185-0.04,0.267c-0.498,1.281-0.759,2.678-0.775,4.148
			c0,0.081-0.032,0.157-0.064,0.231c-0.014,0.033-0.029,0.063-0.038,0.094C3.8,19.702,3.781,19.717,3.758,19.717L3.758,19.717z"/>
		<path fill="#636363" d="M14.225,2.343c0.034,0,0.066,0.009,0.078,0.07c0.25,1.409,1.377,2.541,2.841,2.634
			c0.394,0.026,0.79,0.072,1.178,0.144c1.029,0.192,1.623,0.835,1.786,1.851c0.104,0.644,0.138,1.299,0.203,1.95
			c-0.035,0.003-0.068,0.006-0.103,0.01c0.112,1.276,0.24,2.552,0.334,3.83c0.047,0.653,0.032,1.309,0.054,1.963
			c0.005,0.15,0.024,0.31,0.075,0.449c0.49,1.35,0.727,2.743,0.737,4.175c0,0.009,0.003,0.02-0.001,0.026
			c-0.037,0.075-0.073,0.146-0.11,0.221c-0.03-0.069-0.081-0.139-0.088-0.212c-0.021-0.283-0.025-0.567-0.043-0.851
			c-0.071-1.168-0.313-2.299-0.733-3.394c-0.037-0.101-0.049-0.218-0.045-0.326c0.055-1.496-0.116-2.976-0.29-4.457
			c-0.05-0.417-0.009-0.843-0.031-1.264c-0.04-0.678-0.054-1.362-0.153-2.032c-0.159-1.066-0.748-1.616-1.82-1.781
			c-0.526-0.08-1.067-0.092-1.586-0.208c-1.315-0.291-2.063-1.165-2.371-2.448c-0.005-0.025-0.044-0.188-0.04-0.211
			c0.016-0.092,0.009-0.122,0.09-0.138C14.198,2.344,14.211,2.343,14.225,2.343"/>
		<path fill="#636363" d="M10.834,2.589c0.004,0.049,0.022,0.056,0.04,0.056c0.008,0,0.016-0.001,0.021-0.001
			c0.017,0,0.025,0.007,0.018,0.052c-0.284,1.462-1.449,2.462-2.949,2.55c-0.325,0.02-0.653,0.05-0.975,0.101
			C5.87,5.521,5.275,6.095,5.127,7.211C5.041,7.866,5.045,8.532,4.998,9.193c-0.066,0.936-0.155,1.869-0.209,2.805
			c-0.055,0.979-0.077,1.96-0.116,2.941c-0.004,0.084-0.007,0.174-0.036,0.251c-0.521,1.34-0.762,2.731-0.778,4.166
			c-0.001,0.103-0.064,0.205-0.101,0.31c-0.035-0.103-0.086-0.2-0.099-0.304c-0.018-0.127-0.005-0.259-0.005-0.388
			c0.06-1.292,0.3-2.546,0.748-3.76c0.042-0.108,0.061-0.234,0.057-0.351c-0.047-1.427,0.134-2.836,0.266-4.252
			C4.8,9.799,4.775,8.977,4.822,8.161c0.023-0.428,0.075-0.859,0.163-1.279C5.202,5.854,5.89,5.313,6.896,5.154
			c0.527-0.083,1.066-0.094,1.585-0.208c1.238-0.271,1.957-1.08,2.24-2.299c0.009-0.032,0.017-0.04,0.024-0.04
			c0.014,0,0.026,0.019,0.046,0.019C10.805,2.626,10.817,2.617,10.834,2.589"/>
		<path fill="#636363" d="M17.753,8.28c0.029,0.077,0.089,0.156,0.085,0.23c-0.03,0.464-0.042,0.933-0.12,1.39
			c-0.13,0.747-0.053,1.463,0.135,2.191c0.287,1.107,0.539,2.224,0.768,3.345c0.088,0.434,0.071,0.891,0.099,1.337
			c0.095,1.606,0.353,3.18,0.919,4.693c0.08,0.21,0.18,0.411,0.25,0.623c0.024,0.071-0.009,0.16-0.015,0.242
			c-0.056-0.054-0.143-0.096-0.164-0.161c-0.279-0.848-0.596-1.687-0.812-2.551c-0.305-1.225-0.367-2.482-0.437-3.74
			c-0.031-0.569-0.193-1.133-0.316-1.694c-0.159-0.73-0.339-1.458-0.512-2.186c-0.02-0.081-0.046-0.158-0.07-0.238
			c-0.017-0.001-0.034-0.001-0.052-0.002c-0.045,0.301-0.084,0.603-0.136,0.902c-0.157,0.907-0.236,1.819-0.621,2.669
			c-0.034,0.076-0.003,0.196,0.027,0.287c0.566,1.678,1.089,3.353,1.65,5.033c0.103,0.309,0.161,0.634,0.225,0.953
			c0.013,0.059-0.038,0.131-0.06,0.195c-0.045-0.05-0.117-0.095-0.131-0.152c-0.459-2.073-1.211-4.052-1.953-6.033
			c-0.044-0.117-0.015-0.276,0.019-0.405c0.19-0.748,0.463-1.483,0.578-2.241c0.222-1.48,0.356-2.973,0.534-4.459
			C17.653,8.428,17.716,8.356,17.753,8.28"/>
		<path fill="#636363" d="M7.287,8.282c0.044,0.068,0.12,0.133,0.129,0.206c0.102,0.951,0.157,1.908,0.297,2.851
			c0.165,1.113,0.399,2.215,0.608,3.322c0.021,0.117,0.051,0.247,0.119,0.339c0.228,0.309,0.127,0.587,0.006,0.907
			c-0.69,1.808-1.363,3.623-1.8,5.514c-0.018,0.085-0.021,0.174-0.054,0.252c-0.021,0.051-0.082,0.085-0.127,0.128
			c-0.022-0.056-0.075-0.116-0.064-0.167c0.063-0.312,0.113-0.629,0.213-0.93c0.549-1.656,1.106-3.31,1.676-4.96
			c0.074-0.216,0.061-0.387-0.004-0.608c-0.219-0.758-0.396-1.529-0.569-2.299c-0.081-0.366-0.116-0.743-0.173-1.113
			c-0.015-0.002-0.029-0.004-0.044-0.006c-0.103,0.423-0.209,0.846-0.307,1.27c-0.188,0.813-0.407,1.621-0.547,2.441
			c-0.101,0.6-0.083,1.218-0.134,1.826c-0.139,1.673-0.452,3.307-1.131,4.855c-0.024,0.055-0.04,0.117-0.076,0.161
			c-0.027,0.032-0.085,0.038-0.128,0.055c-0.018-0.043-0.049-0.087-0.048-0.131c0.003-0.049,0.032-0.097,0.052-0.144
			c0.806-1.834,1.122-3.774,1.175-5.757c0.024-0.874,0.272-1.694,0.451-2.533c0.181-0.842,0.409-1.672,0.582-2.514
			c0.056-0.276,0.021-0.579,0-0.867C7.34,9.753,7.269,9.129,7.217,8.502C7.209,8.432,7.261,8.356,7.287,8.282"/>
		<path fill="#636363" d="M14.225,2.239c-0.009,0-0.018,0-0.025,0.001c-0.006,0.001-0.011,0.001-0.015,0.001
			c-0.007,0-0.015,0-0.021,0.002c-0.14,0.028-0.154,0.116-0.165,0.187c-0.001,0.01-0.003,0.021-0.005,0.033
			c-0.004,0.023-0.008,0.044,0.042,0.25v0.004c0.335,1.39,1.158,2.239,2.449,2.525c0.316,0.071,0.646,0.104,0.962,0.135
			c0.207,0.021,0.423,0.043,0.63,0.075c1.048,0.16,1.582,0.682,1.733,1.693c0.079,0.522,0.104,1.065,0.13,1.588
			c0.006,0.145,0.013,0.29,0.022,0.435c0.009,0.171,0.008,0.35,0.007,0.521c-0.003,0.246-0.004,0.5,0.025,0.75
			c0.162,1.367,0.344,2.917,0.289,4.442c-0.004,0.095,0.003,0.236,0.053,0.365c0.411,1.073,0.655,2.206,0.726,3.363
			c0.007,0.119,0.012,0.241,0.017,0.36c0.008,0.161,0.015,0.328,0.026,0.492c0.006,0.071,0.039,0.133,0.066,0.188
			c0.012,0.021,0.021,0.039,0.029,0.059c0.017,0.036,0.051,0.061,0.092,0.062h0.003c0.04,0,0.074-0.021,0.094-0.058l0.023-0.046
			c0.03-0.059,0.058-0.116,0.087-0.176c0.016-0.03,0.013-0.059,0.012-0.072v0.001c-0.012-1.467-0.262-2.883-0.745-4.209
			c-0.04-0.112-0.062-0.248-0.068-0.419c-0.009-0.242-0.011-0.488-0.014-0.728c-0.005-0.406-0.009-0.826-0.04-1.239
			c-0.065-0.905-0.15-1.822-0.231-2.708c-0.031-0.335-0.063-0.68-0.093-1.021l0,0c0.027-0.003,0.053-0.016,0.069-0.038
			c0.02-0.021,0.027-0.049,0.024-0.076c-0.021-0.2-0.037-0.405-0.055-0.603c-0.038-0.445-0.077-0.905-0.148-1.354
			c-0.173-1.071-0.82-1.741-1.871-1.936c-0.379-0.07-0.779-0.12-1.189-0.146c-1.367-0.087-2.495-1.135-2.746-2.55
			C14.386,2.296,14.321,2.239,14.225,2.239L14.225,2.239z"/>
		<path fill="#636363" d="M10.834,2.486c-0.023,0-0.045,0.007-0.062,0.019c-0.008-0.001-0.017-0.002-0.026-0.002
			c-0.034,0-0.099,0.016-0.124,0.121c-0.286,1.222-1.013,1.97-2.161,2.222C8.16,4.912,7.847,4.943,7.543,4.973
			C7.326,4.995,7.101,5.017,6.881,5.052C5.772,5.227,5.101,5.835,4.884,6.86c-0.083,0.395-0.14,0.831-0.165,1.294
			c-0.021,0.34-0.027,0.687-0.033,1.021C4.674,9.645,4.664,10.13,4.62,10.602c-0.023,0.257-0.049,0.517-0.074,0.768
			c-0.112,1.143-0.229,2.323-0.19,3.499c0.005,0.104-0.014,0.216-0.05,0.312c-0.439,1.185-0.692,2.461-0.753,3.79
			c0,0.002,0,0.004,0,0.005c0,0.038-0.003,0.074-0.004,0.115c-0.004,0.093-0.007,0.189,0.008,0.287
			c0.011,0.083,0.042,0.16,0.07,0.233c0.012,0.03,0.024,0.06,0.033,0.089c0.016,0.042,0.054,0.069,0.098,0.069l0,0
			c0.046,0,0.084-0.027,0.1-0.07c0.009-0.028,0.021-0.059,0.034-0.091c0.034-0.074,0.069-0.158,0.069-0.25
			c0.017-1.464,0.277-2.854,0.772-4.129c0.034-0.092,0.038-0.191,0.043-0.28v-0.005c0.013-0.327,0.024-0.661,0.035-0.982
			c0.022-0.642,0.045-1.305,0.081-1.957c0.033-0.574,0.08-1.156,0.125-1.719C5.046,9.93,5.075,9.562,5.101,9.201
			c0.017-0.237,0.026-0.478,0.037-0.71C5.155,8.073,5.176,7.642,5.23,7.224c0.141-1.059,0.687-1.606,1.772-1.775
			C7.298,5.404,7.614,5.371,7.97,5.35c1.555-0.091,2.751-1.125,3.045-2.634c0.004-0.022,0.016-0.083-0.024-0.131
			c-0.011-0.012-0.03-0.032-0.063-0.04c-0.015-0.028-0.041-0.049-0.072-0.056C10.848,2.487,10.84,2.486,10.834,2.486L10.834,2.486z"
			/>
		<path fill="#636363" d="M17.753,8.177c-0.039,0-0.075,0.022-0.093,0.058c-0.01,0.02-0.022,0.041-0.037,0.063
			C17.59,8.354,17.55,8.419,17.54,8.495c-0.056,0.482-0.11,0.973-0.163,1.446c-0.108,0.989-0.221,2.012-0.371,3.011
			c-0.073,0.495-0.22,0.989-0.36,1.468c-0.073,0.249-0.148,0.505-0.215,0.762c-0.035,0.141-0.071,0.32-0.015,0.468l0.058,0.153
			c0.71,1.895,1.446,3.853,1.892,5.867c0.017,0.07,0.07,0.119,0.113,0.158c0.014,0.015,0.029,0.026,0.039,0.039
			c0.021,0.023,0.049,0.034,0.079,0.034c0.006,0,0.013,0,0.019,0c0.037-0.008,0.067-0.034,0.079-0.069
			c0.005-0.016,0.013-0.034,0.022-0.053c0.025-0.055,0.057-0.124,0.041-0.197c-0.01-0.049-0.02-0.1-0.029-0.149
			c-0.054-0.27-0.109-0.55-0.199-0.816c-0.262-0.782-0.519-1.575-0.766-2.344c-0.286-0.882-0.581-1.793-0.884-2.689
			c-0.046-0.142-0.04-0.192-0.032-0.21c0.313-0.692,0.429-1.433,0.541-2.149c0.026-0.18,0.057-0.363,0.088-0.544
			c0.031-0.18,0.059-0.362,0.084-0.542c0.036,0.154,0.072,0.308,0.11,0.46c0.124,0.527,0.255,1.072,0.372,1.609
			c0.029,0.128,0.059,0.261,0.089,0.388c0.1,0.422,0.202,0.86,0.226,1.291l0.006,0.104c0.066,1.207,0.136,2.456,0.436,3.654
			c0.157,0.639,0.374,1.273,0.585,1.886c0.075,0.22,0.152,0.448,0.227,0.673c0.024,0.075,0.087,0.122,0.141,0.162
			c0.021,0.016,0.038,0.029,0.052,0.042c0.02,0.018,0.045,0.028,0.07,0.028c0.014,0,0.025-0.003,0.038-0.008
			c0.037-0.015,0.063-0.048,0.064-0.088c0.002-0.021,0.006-0.045,0.012-0.069c0.01-0.067,0.022-0.142-0.002-0.215
			c-0.041-0.124-0.092-0.245-0.142-0.363c-0.038-0.085-0.075-0.175-0.107-0.262c-0.51-1.361-0.81-2.887-0.915-4.663
			c-0.007-0.131-0.013-0.263-0.017-0.391c-0.009-0.317-0.018-0.646-0.084-0.961c-0.236-1.164-0.494-2.29-0.769-3.35
			c-0.205-0.799-0.247-1.482-0.133-2.148c0.063-0.367,0.084-0.743,0.104-1.108c0.005-0.098,0.011-0.195,0.018-0.292
			c0.005-0.079-0.031-0.148-0.063-0.21c-0.01-0.023-0.022-0.044-0.029-0.064c-0.017-0.038-0.051-0.064-0.093-0.066
			C17.756,8.177,17.755,8.177,17.753,8.177L17.753,8.177z"/>
		<path fill="#636363" d="M7.287,8.178c-0.006,0-0.01,0-0.014,0.001c-0.04,0.005-0.072,0.032-0.086,0.069
			C7.183,8.267,7.172,8.288,7.162,8.31c-0.025,0.059-0.056,0.126-0.05,0.201C7.137,8.793,7.163,9.08,7.191,9.356
			c0.033,0.339,0.065,0.688,0.093,1.032c0.003,0.033,0.006,0.065,0.009,0.098c0.021,0.25,0.042,0.509-0.006,0.74
			c-0.092,0.452-0.202,0.906-0.31,1.348c-0.093,0.382-0.188,0.775-0.271,1.166c-0.042,0.192-0.087,0.388-0.132,0.576
			c-0.148,0.635-0.301,1.292-0.321,1.976c-0.06,2.198-0.442,4.068-1.167,5.719c-0.004,0.01-0.008,0.019-0.013,0.029
			c-0.021,0.041-0.045,0.094-0.047,0.152c-0.002,0.056,0.021,0.103,0.04,0.141c0.005,0.011,0.011,0.022,0.015,0.031
			c0.011,0.026,0.028,0.047,0.055,0.058c0.014,0.006,0.027,0.009,0.041,0.009c0.015,0,0.025-0.003,0.04-0.008
			c0.009-0.004,0.019-0.008,0.033-0.012c0.041-0.013,0.095-0.026,0.134-0.073c0.037-0.045,0.058-0.097,0.075-0.143
			c0.005-0.015,0.011-0.03,0.017-0.045c0.618-1.409,0.979-2.963,1.14-4.887c0.019-0.224,0.027-0.45,0.036-0.67
			c0.017-0.38,0.033-0.772,0.096-1.146c0.1-0.591,0.244-1.185,0.384-1.76c0.053-0.221,0.11-0.451,0.162-0.676
			c0.065-0.286,0.138-0.576,0.206-0.856c0.03,0.232,0.063,0.47,0.117,0.704c0.157,0.705,0.344,1.52,0.569,2.305
			c0.065,0.224,0.066,0.366,0.005,0.546c-0.546,1.584-1.109,3.255-1.676,4.962c-0.084,0.251-0.135,0.515-0.183,0.768
			c-0.011,0.058-0.021,0.117-0.033,0.174c-0.016,0.071,0.02,0.134,0.048,0.184c0.009,0.016,0.018,0.031,0.023,0.044
			c0.014,0.031,0.04,0.055,0.073,0.062c0.007,0,0.016,0.002,0.021,0.002c0.025,0,0.053-0.01,0.071-0.028
			c0.01-0.011,0.024-0.021,0.037-0.032c0.04-0.032,0.089-0.071,0.114-0.131c0.025-0.062,0.035-0.124,0.046-0.185
			c0.004-0.029,0.007-0.058,0.014-0.084c0.431-1.869,1.094-3.669,1.795-5.501c0.121-0.317,0.246-0.645-0.02-1.005
			c-0.055-0.074-0.081-0.191-0.101-0.296c-0.056-0.296-0.115-0.598-0.171-0.889c-0.155-0.793-0.315-1.617-0.436-2.43
			c-0.092-0.608-0.147-1.233-0.202-1.838c-0.029-0.33-0.061-0.672-0.097-1.008C7.51,8.397,7.46,8.335,7.416,8.281
			c-0.017-0.02-0.033-0.039-0.043-0.056C7.354,8.195,7.322,8.178,7.287,8.178L7.287,8.178z"/>
	</g>
	<path fill-rule="evenodd" clip-rule="evenodd" fill="#636363" d="M13.679,21.358c-0.004,0-0.01,0-0.016-0.002
		c-0.014-0.007-0.023-0.015-0.031-0.026c-0.007-0.016-0.016-0.031-0.025-0.046c-0.028-0.046-0.056-0.092-0.036-0.137
		c0.095-0.212,0.694-1.45,0.801-1.646c0.025-0.045,0.102-0.065,0.135-0.065c0.021,0,0.039,0.006,0.051,0.019
		c0.034,0.03,0.095,0.12,0.067,0.182c-0.101,0.214-0.704,1.45-0.807,1.644c-0.014,0.026-0.039,0.037-0.067,0.051
		c-0.013,0.006-0.028,0.013-0.046,0.022C13.696,21.356,13.688,21.358,13.679,21.358z"/>
	<path fill-rule="evenodd" clip-rule="evenodd" fill="#636363" d="M11.514,21.267c-0.05,0-0.135-0.024-0.165-0.079
		c-0.104-0.18-0.674-1.338-0.764-1.532c-0.028-0.057,0.004-0.143,0.035-0.185c0.017-0.021,0.046-0.032,0.089-0.032
		c0.037,0,0.087,0.009,0.107,0.042c0.068,0.118,0.292,0.563,0.491,0.956c0.147,0.293,0.287,0.57,0.338,0.664
		c0.01,0.02,0.008,0.042-0.007,0.059c-0.009,0.012-0.019,0.024-0.025,0.034c-0.025,0.037-0.052,0.072-0.097,0.073H11.514z"/>
	<path fill-rule="evenodd" clip-rule="evenodd" fill="#636363" d="M12.647,17.961c-0.055,0-0.126-0.055-0.14-0.109
		c-0.017-0.063-0.017-0.131-0.017-0.197v-0.02c0-3.957,0-7.83,0.003-11.709c0-0.037-0.004-0.073-0.008-0.111
		c-0.007-0.062-0.012-0.125-0.003-0.194c0.005-0.025,0.025-0.044,0.054-0.044l0,0c0.022,0,0.055-0.002,0.085-0.003
		c0.032-0.002,0.065-0.004,0.088-0.004c0.026,0,0.052,0.02,0.056,0.046c0.004,0.034,0.009,0.069,0.014,0.103
		c0.012,0.076,0.023,0.154,0.023,0.232c0.002,2.801,0.002,5.602,0.002,8.403v1.896c0,0.453,0.003,0.907,0,1.36
		c0,0.083,0,0.163-0.017,0.241C12.775,17.903,12.703,17.961,12.647,17.961L12.647,17.961z"/>
	<path fill-rule="evenodd" clip-rule="evenodd" fill="#636363" d="M10.191,10.868c-0.023,0-0.04-0.006-0.054-0.018
		c-0.037-0.033-0.083-0.108-0.069-0.172c0.014-0.058,0.044-0.109,0.073-0.158c0.009-0.013,0.016-0.026,0.022-0.041
		c0.697-1.251,0.975-2.63,0.82-4.094c-0.001-0.021-0.002-0.051,0.02-0.074C11.021,6.29,11.05,6.29,11.059,6.29h0.004V6.288
		c0.005-0.021,0.022-0.036,0.043-0.039c0.003,0,0.005-0.001,0.008-0.001c0.018,0,0.035,0.01,0.043,0.024
		c0.004,0.006,0.007,0.008,0.007,0.008c0.001-0.001,0.007-0.003,0.013-0.003c0.009-0.002,0.018-0.004,0.03-0.004
		c0.019,0,0.067,0.007,0.076,0.079C11.308,6.544,11.32,6.74,11.33,6.93c0.006,0.074,0.01,0.147,0.016,0.22
		c-0.017,1.264-0.324,2.435-0.912,3.484l-0.016,0.03c-0.027,0.053-0.059,0.106-0.099,0.153
		C10.289,10.849,10.229,10.868,10.191,10.868z"/>
	<path fill-rule="evenodd" clip-rule="evenodd" fill="#636363" d="M15.159,10.864c-0.011,0-0.022-0.004-0.031-0.011
		c-0.02-0.014-0.041-0.027-0.064-0.042c-0.055-0.035-0.113-0.069-0.146-0.126c-0.622-1.063-0.922-2.229-0.942-3.671
		c0.004-0.042,0.007-0.085,0.009-0.134c0.011-0.155,0.025-0.369,0.053-0.58c0.007-0.064,0.056-0.067,0.065-0.067
		c0.017,0,0.03,0.006,0.042,0.012c0.003,0.001,0.006,0.002,0.009,0.004c0.009-0.01,0.024-0.017,0.037-0.017
		c0.003,0,0.008,0,0.01,0.001c0.015,0.003,0.026,0.011,0.034,0.022h0.002c0.008-0.002,0.019-0.004,0.03-0.004
		c0.019,0,0.037,0.007,0.048,0.021c0.015,0.016,0.021,0.036,0.018,0.061c-0.128,1.191,0.027,2.333,0.459,3.395
		c0.063,0.156,0.143,0.309,0.217,0.458c0.059,0.115,0.12,0.234,0.173,0.354c0.027,0.061,0.028,0.126,0.028,0.191
		c0,0.026,0.001,0.052,0.002,0.077c0.003,0.021-0.007,0.04-0.024,0.05C15.178,10.861,15.167,10.864,15.159,10.864z"/>
	<path fill-rule="evenodd" clip-rule="evenodd" fill="#353535" d="M8.236,13.867c0,0,0.102,0.93,0.367,1.326
		c0.168,0.251-0.567,1.809-1.311,4.09c0,0,6.449-0.454,10.485,0c-1.204-3.271-1.049-3.023-1.328-3.722
		c-0.079-0.197,0.279-1.275,0.419-1.695L8.236,13.867z"/>
</g>
</svg>
