<?xml version="1.0" encoding="utf-8"?>
<!-- Generator: Adobe Illustrator 16.0.0, SVG Export Plug-In . SVG Version: 6.00 Build 0)  -->
<!DOCTYPE svg PUBLIC "-//W3C//DTD SVG 1.1//EN" "http://www.w3.org/Graphics/SVG/1.1/DTD/svg11.dtd">
<svg version="1.1" id="Layer_1" xmlns="http://www.w3.org/2000/svg" xmlns:xlink="http://www.w3.org/1999/xlink" x="0px" y="0px"
	 width="25px" height="25px" viewBox="0 0 25 25" enable-background="new 0 0 25 25" xml:space="preserve">
<circle fill="#F2F2F2" cx="12.563" cy="12.438" r="12.438"/>
<g>
	<path fill-rule="evenodd" clip-rule="evenodd" fill="#B9B9B9" d="M4.34,2.518c0,0,1.996,4.292,2.809,6.071
		c0.813,1.781,0.52,4.228-0.73,5.753c-1.25,1.526-2.385,5.671-2.37,7.658h17.14c0,0-0.25-4.123-3.688-10.386
		c0,0,0.354-3.629,1.5-4.907c0.656-0.731,1.849-4.09,1.849-4.09L4.41,2.637"/>
	<path fill-rule="evenodd" clip-rule="evenodd" fill="#E5E5E5" d="M12.533,17.318c-2.209-0.004-4.43-0.674-6.671-2.015
		c0.088,0.238,0.093,0.296,0.123,0.331c1.749,1.973,3.497,3.949,5.26,5.911c0.128,0.143,0.368,0.306,0.567,0.335
		c0.243,0.037,0.48,0.057,0.708,0.057l0,0c0.006,0,0.009,0,0.013,0c0.006,0,0.01,0,0.013,0l0,0c0.229,0,0.464-0.02,0.71-0.057
		c0.2-0.029,0.439-0.192,0.566-0.335c1.762-1.962,3.511-3.938,5.26-5.911c0.03-0.035,0.037-0.093,0.124-0.331
		C16.964,16.645,14.743,17.314,12.533,17.318z"/>
	<rect fill="none" width="25" height="25"/>
	<circle fill-rule="evenodd" clip-rule="evenodd" fill="#636363" cx="12.652" cy="11.822" r="0.423"/>
	<path fill-rule="evenodd" clip-rule="evenodd" fill="#D3D3D3" d="M4.419,2.641c2.738,0,5.422,0,8.124,0
		C11.445,4.37,7.377,5.44,4.419,2.641z"/>
	<path fill-rule="evenodd" clip-rule="evenodd" fill="#D3D3D3" d="M20.849,2.641c-2.709,0-5.481-0.008-8.153-0.008
		C13.783,4.362,17.923,5.44,20.849,2.641z"/>
	<path fill-rule="evenodd" clip-rule="evenodd" fill="#353535" d="M18.577,7.694l-5.691,0.114h-0.143L6.885,7.751
		c0,0,1.656,2.399,0.594,5.138l5.265-0.015h0.143h5.066C17.019,10.441,18.577,7.694,18.577,7.694z"/>
	<g>
		<path fill="#636363" d="M4.762,3.135c4.725,7.481,3.54,8.71,1.293,12.42c-1.909,3.147-2.007,6.753-2.007,6.753
			c-0.038-3.082,0.771-5.983,2.398-8.622c1.087-1.762,1.188-3.612,0.298-5.497c-0.54-1.136-1.095-2.288-1.631-3.403
			C4.819,4.179,4.238,2.621,4.411,2.539L4.762,3.135z M20.808,2.541c0.174,0.082-0.421,1.683-0.715,2.291
			c-0.537,1.115-1.092,2.267-1.631,3.402c-0.89,1.885-0.789,3.734,0.298,5.496c1.628,2.64,2.437,5.541,2.398,8.624
			c0,0-0.098-3.605-2.007-6.755c-2.248-3.709-3.431-4.94,1.293-12.419L20.808,2.541z"/>
	</g>
</g>
</svg>
