<?xml version="1.0" encoding="utf-8"?>
<!-- Generator: Adobe Illustrator 16.0.0, SVG Export Plug-In . SVG Version: 6.00 Build 0)  -->
<!DOCTYPE svg PUBLIC "-//W3C//DTD SVG 1.1//EN" "http://www.w3.org/Graphics/SVG/1.1/DTD/svg11.dtd">
<svg version="1.1" id="Layer_1" xmlns="http://www.w3.org/2000/svg" xmlns:xlink="http://www.w3.org/1999/xlink" x="0px" y="0px"
	 width="24px" height="24px" viewBox="0 0 24 24" style="enable-background:new 0 0 24 24;" xml:space="preserve">
<style type="text/css">
<![CDATA[
	.st0{fill-rule:evenodd;clip-rule:evenodd;fill:#B1B1B1;}
	.st1{fill-rule:evenodd;clip-rule:evenodd;}
	.st2{fill:none;}
]]>
</style>
<g>
	<rect class="st2" width="24" height="24"/>
	<g>
		<path class="st0" d="M8,11.1c0,0,0.7,2.2,0.5,3.3c-0.3,1.1-0.3,3.1-5.4,4L2.2,19h18.9c0,0-1.9-2.2-2.2-3.5
			c-0.3-1.3-1.1-1.9-1.1-2.1c0-0.2-0.5-3.9-0.5-3.9l0.2-2.1l0.2-1.3c0,0,0,0.4-1.5,2.2C14.6,10.1,12.6,11.1,8,11.1z"/>
		<path class="st1" d="M15.9,16.5c-0.1-0.2-0.3-0.4-0.4-0.6c-0.5-1.2-0.5-2.5-0.4-3.7c0-0.1,0.2,0,0.3-0.1c0.1,0.1,0.2,0,0.2,0.1
			c-0.2,1.4,0,2.8,0.6,4.1c0,0,0,0.1,0,0.2C16,16.4,15.9,16.4,15.9,16.5z"/>
		<g>
			<path class="st1" d="M2.2,19c0.1-0.1,0.2-0.2,0.2-0.2c0.9-0.7,1.9-1.1,3.1-1.2c1.8-0.1,2.4-1.5,2.6-3c0.1-1.1,0.2-2-0.2-3
				c0-0.1-0.1-0.1-0.1-0.1c-2-0.5-3-2-3.5-4C4.2,7.1,4.2,6.7,4.1,6.3c0,0,0,0,0,0c0,0.1,0.1,0.2,0.1,0.3C4.5,7.5,4.9,8.3,5.4,9
				c0.9,1.1,2,1.7,3.3,1.7c3.1,0.1,6-1,8.1-3.3c0.1-0.1,0.1-0.2,0.2-0.3c0,0,0,0,0.1,0c-0.1,0.2-0.3,0.6-0.4,0.8
				c-0.9,1.7-2.5,2.6-4.3,3.2c-1.2,0.4-2.5,0.6-3.8,0.5c-0.1,0-0.2,0-0.3,0c0.1,0.3,0.3,0.7,0.3,1c0.2,1.1,0.3,2.3-0.1,3.4
				c-0.5,1.4-1.6,2.1-3,2.5c-1,0.2-2.1,0.4-3.2,0.7C2.4,19,2.3,19,2.2,19z"/>
			<path class="st1" d="M21.1,19.1c-2.8-2.4-2.8-2.8-3.6-5.5c-0.8-2.9-0.6-5.7,0.4-8.5c-0.1,0.5-0.2,1-0.2,1.4
				c-0.3,2.5-0.2,5,0.8,7.4c0.7,1.6,1.9,3.1,3.2,4.2c0.1,0.1-0.1,0,0,0.1C21.5,18.7,21.3,18.7,21.1,19.1z"/>
		</g>
	</g>
</g>
</svg>
