<?xml version="1.0" encoding="utf-8"?>
<!-- Generator: Adobe Illustrator 16.0.0, SVG Export Plug-In . SVG Version: 6.00 Build 0)  -->
<!DOCTYPE svg PUBLIC "-//W3C//DTD SVG 1.1//EN" "http://www.w3.org/Graphics/SVG/1.1/DTD/svg11.dtd">
<svg version="1.1" id="Layer_1" xmlns="http://www.w3.org/2000/svg" xmlns:xlink="http://www.w3.org/1999/xlink" x="0px" y="0px"
	 width="25px" height="25px" viewBox="0 0 25 25" enable-background="new 0 0 25 25" xml:space="preserve">
<circle fill="#F2F2F2" cx="12.563" cy="12.438" r="12.438"/>
<g>
	<rect fill="none" width="25" height="25"/>
	<g>
		<path fill-rule="evenodd" clip-rule="evenodd" fill="#232323" d="M8.377,11.537c0,0,0.771,2.262,0.486,3.395
			C8.58,16.064,8.58,18.223,3.19,19.238l-0.815,0.559l19.578,0.078c0,0-1.985-2.285-2.271-3.611
			c-0.282-1.328-1.174-2.056-1.174-2.25c0-0.195-0.567-4.054-0.567-4.054l0.243-2.241l0.161-1.316c0,0-0.039,0.377-1.579,2.251
			S13.079,11.53,8.377,11.537z"/>
		<path fill-rule="evenodd" clip-rule="evenodd" fill="#CCCCCC" d="M16.544,17.149c-0.145-0.213-0.331-0.41-0.427-0.646
			c-0.52-1.253-0.5-2.571-0.422-3.891c0.007-0.131,0.175,0.016,0.273-0.107c0.072,0.117,0.23-0.023,0.218,0.085
			c-0.158,1.47-0.029,2.895,0.583,4.257c0.021,0.046-0.028,0.123-0.047,0.187C16.665,17.072,16.604,17.111,16.544,17.149z"/>
		<g>
			<path fill-rule="evenodd" clip-rule="evenodd" d="M2.291,19.818c0.115-0.101,0.181-0.165,0.254-0.221
				c0.947-0.731,2.014-1.174,3.198-1.268c1.878-0.148,2.53-1.59,2.675-3.171c0.103-1.107,0.219-2.131-0.192-3.146
				c-0.024-0.058-0.089-0.126-0.148-0.143c-2.109-0.561-3.173-2.067-3.613-4.13C4.383,7.363,4.353,6.971,4.3,6.585
				c0.018-0.003,0.034-0.008,0.052-0.011c0.033,0.115,0.063,0.232,0.095,0.348c0.249,0.895,0.636,1.719,1.223,2.435
				c0.906,1.104,2.083,1.727,3.484,1.752c3.186,0.055,6.221-1.054,8.386-3.474c0.078-0.087,0.147-0.181,0.223-0.268
				c0.006-0.008,0.021-0.005,0.071-0.018c-0.094,0.205-0.285,0.618-0.379,0.797c-0.937,1.772-2.578,2.694-4.429,3.345
				c-1.29,0.45-2.623,0.633-3.987,0.537c-0.126-0.01-0.252-0.026-0.353-0.036c0.118,0.345,0.294,0.681,0.348,1.036
				c0.177,1.171,0.275,2.361-0.152,3.493c-0.543,1.43-1.65,2.237-3.089,2.575c-1.089,0.258-2.19,0.466-3.286,0.694
				C2.456,19.803,2.404,19.805,2.291,19.818z"/>
			<path fill-rule="evenodd" clip-rule="evenodd" d="M21.974,19.893c-2.864-2.516-2.95-2.922-3.736-5.686
				c-0.851-2.985-0.573-5.932,0.379-8.842c-0.084,0.497-0.182,0.992-0.247,1.493c-0.344,2.651-0.163,5.243,0.877,7.729
				c0.705,1.681,1.974,3.226,3.354,4.399c0.108,0.091-0.114,0,0.007,0.103C22.38,19.453,22.212,19.511,21.974,19.893z"/>
		</g>
	</g>
</g>
</svg>
