<?xml version="1.0" encoding="utf-8"?>
<!-- Generator: Adobe Illustrator 16.0.0, SVG Export Plug-In . SVG Version: 6.00 Build 0)  -->
<!DOCTYPE svg PUBLIC "-//W3C//DTD SVG 1.1//EN" "http://www.w3.org/Graphics/SVG/1.1/DTD/svg11.dtd">
<svg version="1.1" id="Layer_1" xmlns="http://www.w3.org/2000/svg" xmlns:xlink="http://www.w3.org/1999/xlink" x="0px" y="0px"
	 width="25px" height="25px" viewBox="0 0 25 25" enable-background="new 0 0 25 25" xml:space="preserve">
<circle fill="#F2F2F2" cx="12.563" cy="12.438" r="12.438"/>
<g>
	<rect fill="none" width="25" height="25"/>
	<g>
		<g>
			<path fill="#353535" d="M19.551,17.826c-0.203-1.386-1.068-2.076-1.831-2.686c-0.61-0.485-1.139-0.905-1.281-1.616
				c-0.14-0.707-0.244-1.889-0.352-3.14c-0.172-1.98-0.366-4.224-0.783-5.652c-0.711-2.422-2.564-2.491-2.773-2.491
				c-0.012,0-0.021,0-0.03,0c-0.008,0-0.019,0-0.029,0c-0.211,0-2.063,0.069-2.772,2.491c-0.419,1.428-0.613,3.672-0.785,5.652
				c-0.109,1.251-0.212,2.433-0.353,3.14c-0.142,0.711-0.67,1.131-1.281,1.616c-0.763,0.609-1.627,1.299-1.831,2.686
				c-0.382,2.622,1.139,3.148,1.872,3.403c0.166,0.058,0.35,0.084,0.586,0.084c0.12,0,0.243-0.007,0.362-0.012
				c0.119-0.008,0.243-0.014,0.362-0.014c0.043,0,0.087,0,0.129,0.003c-0.123-0.239-0.285-0.469-0.497-0.633
				c-0.646-0.501-1.367-0.485-1.373-0.485c-0.214,0.009-0.393-0.156-0.401-0.368c-0.008-0.213,0.156-0.393,0.37-0.4
				c0.038-0.002,0.997-0.033,1.876,0.646c0.6,0.463,0.903,1.254,1.039,1.739c0.876,1.048,2.404,1.1,2.701,1.1H12.5h0.024
				c0.298,0,1.827-0.052,2.704-1.1c0.136-0.484,0.438-1.276,1.037-1.739c0.878-0.678,1.835-0.646,1.878-0.646
				c0.211,0.008,0.377,0.187,0.367,0.4c-0.009,0.212-0.188,0.376-0.4,0.368c-0.004,0-0.726-0.016-1.375,0.485
				c-0.207,0.164-0.37,0.394-0.495,0.633c0.044-0.003,0.087-0.003,0.131-0.003c0.118,0,0.241,0.006,0.36,0.014
				c0.119,0.005,0.242,0.012,0.362,0.012c0.234,0,0.421-0.026,0.59-0.084C18.413,20.975,19.933,20.448,19.551,17.826L19.551,17.826z
				 M11.572,5.651c-0.006,0.03-0.667,3.143-0.762,5.803c-0.098,2.765-0.738,4.365-0.768,4.432c-0.061,0.148-0.203,0.239-0.355,0.239
				c-0.049,0-0.099-0.009-0.146-0.028c-0.196-0.082-0.291-0.305-0.212-0.503c0.007-0.014,0.617-1.552,0.71-4.167
				c0.097-2.73,0.751-5.809,0.778-5.938c0.045-0.208,0.249-0.34,0.458-0.296C11.482,5.239,11.616,5.442,11.572,5.651L11.572,5.651z
				 M11.572,5.651"/>
		</g>
	</g>
</g>
</svg>
