<?xml version="1.0" encoding="utf-8"?>
<!-- Generator: Adobe Illustrator 16.0.0, SVG Export Plug-In . SVG Version: 6.00 Build 0)  -->
<!DOCTYPE svg PUBLIC "-//W3C//DTD SVG 1.1//EN" "http://www.w3.org/Graphics/SVG/1.1/DTD/svg11.dtd">
<svg version="1.1" id="Layer_1" xmlns="http://www.w3.org/2000/svg" xmlns:xlink="http://www.w3.org/1999/xlink" x="0px" y="0px"
	 width="25px" height="25px" viewBox="0 0 25 25" enable-background="new 0 0 25 25" xml:space="preserve">
<circle fill="#F2F2F2" cx="12.563" cy="12.438" r="12.438"/>
<g>
	<rect fill="none" width="25" height="25"/>
	<path fill-rule="evenodd" clip-rule="evenodd" fill="#353535" d="M11.238,22.638c-0.034,0-0.067,0-0.101,0
		c-0.324-0.975-0.649-1.949-0.975-2.923c-0.093-0.271-0.229-0.366-0.556-0.304c-0.502,0.099-1.022,0.118-1.539,0.123
		c-0.84,0.006-1.3-0.532-1.234-1.366c0.026-0.358,0.02-0.72-0.004-1.08c-0.016-0.271-0.076-0.542-0.119-0.812
		c-0.043-0.308-0.627-0.322-0.387-0.857c0.214-0.473,0.016-0.719-0.471-0.861c-0.671-0.193-0.777-0.53-0.44-1.157
		c0.298-0.557,0.604-1.109,0.868-1.681c0.078-0.17,0.108-0.481,0.009-0.594c-0.387-0.437-0.36-0.945-0.36-1.457
		c0-0.684-0.019-1.367,0.021-2.046c0.02-0.341,0.087-0.705,0.244-1.002c0.641-1.204,1.468-2.291,2.67-2.962
		c0.797-0.445,1.711-0.681,2.572-1.012c0.6,0,1.2,0,1.8,0c0.272,0.064,0.546,0.131,0.819,0.191c4.247,0.929,6.476,4.826,5.091,8.943
		c-0.435,1.292-0.966,2.55-1.422,3.834c-0.562,1.577-0.134,2.693,1.291,3.526c0.288,0.168,0.555,0.375,0.92,0.625
		c-1.334,0.431-2.528,0.819-3.741,1.211c-0.166-0.478-0.306-0.902-0.468-1.319c-0.563-1.479-1.171-2.934-2.16-4.198
		c-0.581-0.743-1.302-1.127-2.259-0.953c-1.356,0.247-2.711,0.503-4.065,0.763c-0.115,0.022-0.216,0.105-0.465,0.237
		c0.996,0.313,0.45,1.142,0.741,1.693c0.196-0.043,0.356-0.082,0.515-0.112c0.881-0.172,1.759-0.358,2.645-0.508
		c0.578-0.097,1.134-0.06,1.519,0.493c0.962,1.378,1.482,2.951,2.044,4.518C13.204,21.951,12.222,22.295,11.238,22.638z"/>
</g>
</svg>
