<?xml version="1.0" encoding="utf-8"?>
<!-- Generator: Adobe Illustrator 16.0.0, SVG Export Plug-In . SVG Version: 6.00 Build 0)  -->
<!DOCTYPE svg PUBLIC "-//W3C//DTD SVG 1.1//EN" "http://www.w3.org/Graphics/SVG/1.1/DTD/svg11.dtd">
<svg version="1.1" id="Layer_1" xmlns="http://www.w3.org/2000/svg" xmlns:xlink="http://www.w3.org/1999/xlink" x="0px" y="0px"
	 width="24px" height="24px" viewBox="0 0 24 24" style="enable-background:new 0 0 24 24;" xml:space="preserve">
<style type="text/css">
<![CDATA[
	.st0{opacity:0.5;fill-rule:evenodd;clip-rule:evenodd;fill:#B1B1B1;}
	.st1{fill-rule:evenodd;clip-rule:evenodd;fill:none;stroke:#636363;stroke-miterlimit:10;}
	.st2{fill:#636363;}
	.st3{fill:none;}
	.st4{fill-rule:evenodd;clip-rule:evenodd;fill:#636363;}
]]>
</style>
<g>
	<path class="st0" d="M6,2h12c0,0-1.5,1.9-0.8,4.4s2.5,4.3,2.6,7c0.2,2.7,0.7,3.6-0.4,8.6l-6.1,0c0,0-0.3-4.1-0.5-4.9
		s-0.6-0.9-0.8-0.9c-0.9,0.3-1.4,5.7-1.4,5.7H5c0,0-1.7-5.4-0.4-9.3S7.3,7,7.4,6.2S7.1,2.4,6,2z"/>
	<path class="st1" d="M12,21.3"/>
	<g>
		<path class="st2" d="M7.2,11.3c1.5,0.6,3.8,2.1,4.1,4c0,0.1,0.2,0.1,0.2-0.1c-0.3-2-2.3-3.5-4-4.5C7.1,10.7,6.9,11.2,7.2,11.3
			L7.2,11.3z"/>
	</g>
	<g>
		<path class="st2" d="M16.8,11.3c-1.6,0.7-3.9,2.3-4.2,4.4c0,0.1-0.2,0.1-0.2-0.1c0.3-2.2,2.3-3.8,4.1-4.9
			C16.8,10.6,17.1,11.1,16.8,11.3L16.8,11.3z"/>
	</g>
	<rect class="st3" width="24" height="24"/>
	<circle class="st4" cx="12.1" cy="6.3" r="0.4"/>
	<path class="st2" d="M12,16.2c-1.1,0-1.4,4.2-1.6,5.8h0.5c0.2-1.6,0.5-5.6,1.2-5.7c0.9-0.1,1,3.9,1.2,5.7h0.3
		C13.4,20.1,13.3,16.1,12,16.2z"/>
	<g>
		<path class="st2" d="M6.1,2c0.1,0.3,0.3,0.5,0.4,0.8c0.9,1.8,0.8,3.6-0.3,5.3c-0.9,1.5-1.5,3-1.8,4.6c-0.3,1.2-0.6,6.7,0.5,9.3
			c0,0-1.4-7.8,0.9-12.1C7.3,7,8.4,5.7,6.8,2H6.1z"/>
		<path class="st2" d="M18.1,8.1c-1-1.7-1.1-3.5-0.3-5.3c0.1-0.3,0.3-0.5,0.4-0.8h-0.7c-1.6,3.7-0.5,5,1,7.9
			c2.3,4.4,0.9,12.1,0.9,12.1c1.1-2.6,0.8-8.2,0.5-9.3C19.6,11,19,9.6,18.1,8.1z"/>
	</g>
	<circle class="st4" cx="12" cy="15.9" r="2.1"/>
</g>
</svg>
