<?xml version="1.0" encoding="utf-8"?>
<!-- Generator: Adobe Illustrator 16.0.0, SVG Export Plug-In . SVG Version: 6.00 Build 0)  -->
<!DOCTYPE svg PUBLIC "-//W3C//DTD SVG 1.1//EN" "http://www.w3.org/Graphics/SVG/1.1/DTD/svg11.dtd">
<svg version="1.1" id="Layer_1" xmlns="http://www.w3.org/2000/svg" xmlns:xlink="http://www.w3.org/1999/xlink" x="0px" y="0px"
	 width="25px" height="25px" viewBox="0 0 25 25" enable-background="new 0 0 25 25" xml:space="preserve">
<circle fill="#F2F2F2" cx="12.563" cy="12.438" r="12.438"/>
<g>
	<rect fill="none" width="25" height="25"/>
	<g>
		<path fill="#353535" d="M12.643,15.719c1.483,0,1.41,5.991,3.45,5.991c2.043,0,1.698-6.635,3.609-9.043
			c1.913-2.409,1.987-3.425,1.987-4.597c0-2.457-1.993-4.451-4.451-4.451c-2.988,0-3.454,3.091-4.596,3.091
			c-1.141,0-1.607-3.091-4.595-3.091c-2.458,0-4.45,1.994-4.45,4.451c0,1.172,0.072,2.188,1.985,4.597
			c1.913,2.409,1.567,9.043,3.61,9.043C11.234,21.709,11.159,15.719,12.643,15.719z"/>
		<path fill="#353535" d="M16.093,22.314c-1.559,0-2.12-2.018-2.617-3.797c-0.162-0.59-0.318-1.148-0.491-1.58
			c-0.166-0.415-0.291-0.557-0.342-0.602c-0.051,0.045-0.176,0.187-0.343,0.602c-0.173,0.432-0.329,0.99-0.491,1.58
			c-0.496,1.78-1.057,3.797-2.616,3.797c-1.159,0-1.639-1.238-1.795-1.646c-0.315-0.814-0.529-1.875-0.76-2.994
			c-0.35-1.713-0.748-3.653-1.527-4.634c-1.963-2.477-2.117-3.622-2.117-4.971c0-2.786,2.265-5.052,5.053-5.052
			c2.151,0,3.196,1.399,3.89,2.323c0.213,0.286,0.572,0.765,0.706,0.765s0.492-0.479,0.706-0.765
			c0.694-0.923,1.741-2.323,3.89-2.323c2.787,0,5.053,2.266,5.053,5.052c0,1.35-0.153,2.495-2.117,4.971
			c-0.779,0.981-1.176,2.92-1.524,4.634c-0.23,1.12-0.449,2.18-0.763,2.994C17.73,21.077,17.253,22.314,16.093,22.314z
			 M12.643,15.114c0.845,0,1.241,0.874,1.371,1.161c0.239,0.53,0.428,1.204,0.625,1.92c0.325,1.161,0.811,2.913,1.454,2.913
			c0.275,0,0.517-0.476,0.669-0.874c0.278-0.719,0.485-1.73,0.705-2.803c0.395-1.933,0.806-3.933,1.764-5.14
			c1.854-2.338,1.854-3.21,1.854-4.222c0-2.122-1.727-3.846-3.845-3.846c-1.548,0-2.279,0.978-2.926,1.839
			c-0.48,0.642-0.936,1.249-1.671,1.249c-0.738,0-1.19-0.606-1.671-1.249c-0.646-0.861-1.378-1.839-2.924-1.839
			c-2.123,0-3.848,1.724-3.848,3.846c0,1.011,0,1.884,1.857,4.222c0.956,1.207,1.365,3.207,1.761,5.14
			c0.221,1.073,0.427,2.084,0.705,2.803c0.154,0.398,0.395,0.874,0.67,0.874c0.641,0,1.129-1.751,1.453-2.913
			c0.197-0.716,0.386-1.39,0.626-1.92C11.402,15.988,11.797,15.114,12.643,15.114z"/>
	</g>
</g>
</svg>
