<?xml version="1.0" encoding="utf-8"?>
<!-- Generator: Adobe Illustrator 16.0.0, SVG Export Plug-In . SVG Version: 6.00 Build 0)  -->
<!DOCTYPE svg PUBLIC "-//W3C//DTD SVG 1.1//EN" "http://www.w3.org/Graphics/SVG/1.1/DTD/svg11.dtd">
<svg version="1.1" id="Layer_1" xmlns="http://www.w3.org/2000/svg" xmlns:xlink="http://www.w3.org/1999/xlink" x="0px" y="0px"
	 width="25px" height="25px" viewBox="0 0 25 25" enable-background="new 0 0 25 25" xml:space="preserve">
<circle fill="#F2F2F2" cx="12.563" cy="12.438" r="12.438"/>
<g>
	<rect fill="none" width="25" height="25"/>
	<g>
		<path fill-rule="evenodd" clip-rule="evenodd" fill="#BABABA" d="M4.192,15.586c0.202,0.34,0.353,0.7,0.455,1.081
			c0.196,0.725,0.236,1.471,0.336,2.21c0.07,0.514,0.149,1.027,0.27,1.53c0.171,0.721,0.484,1.462,0.791,2.136
			C6.101,22.67,6.142,23,6.2,23h6.013c0.007,0,0.006-0.182,0.013-0.24c0.102-0.902,0.231-1.835,0.339-2.734
			c0.057-0.482,0.074-0.982,0.003-1.466c-0.185-1.248-0.645-2.397-1.354-3.438c-0.188-0.271-0.364-0.551-0.564-0.815
			c-0.212-0.285-0.205-0.562-0.024-0.857c0.189-0.313,0.412-0.594,0.672-0.848c0.42-0.409,0.918-0.688,1.432-0.963
			c2.042-1.092,3.902-2.441,5.593-4.021c0.845-0.791,1.617-2.128,2.271-3.084C21.03,3.892,21.396,3,21.666,2
			c-4.229,0-8.459,0-12.687,0C8.96,3,8.943,2.529,8.923,2.553c-0.244,0.262-0.5,0.751-0.731,1.025
			C7.271,4.679,6.511,6.006,5.844,7.277c-0.524,1-0.987,2.088-1.267,3.187c-0.07,0.269-0.184,0.507-0.385,0.696
			c-0.386,0.357-0.681,0.799-0.83,1.312c-0.158,0.556-0.078,1.105,0.111,1.639C3.655,14.629,3.918,15.115,4.192,15.586z"/>
	</g>
	<path fill-rule="evenodd" clip-rule="evenodd" fill="#353535" d="M8.979,2C8.96,3,8.943,2.529,8.923,2.553
		c-0.244,0.262-0.5,0.751-0.731,1.025C7.271,4.679,6.511,6.006,5.844,7.277c-0.339,0.645-0.645,1.333-0.9,2.029
		c1.158,1.305,3.058,2.697,6.117,3.589c0.082-0.095,0.145-0.205,0.236-0.296c0.42-0.409,0.918-0.688,1.432-0.963
		c2.042-1.092,3.902-2.44,5.593-4.02c0.845-0.791,1.617-2.128,2.271-3.084C21.03,3.892,21.396,3,21.666,2C17.437,2,13.207,2,8.979,2
		z"/>
	<path fill-rule="evenodd" clip-rule="evenodd" fill="#636363" d="M8.979,2c0,0-0.562,1.084-1.396,2.334S5.437,8.16,4.75,9.584
		c-0.563,1.166-1,2.001-1.25,2.584s-0.719,1.238,0.692,3.418c0.914,1.412,0.479,2.478,1.06,4.821S6.2,23,6.2,23
		s-0.533-2-0.533-3.583c0-2.09-0.516-3.854-1.417-5.084c-0.589-0.805,0.043-2.804,0.896-4.166c0.417-0.666,1.396-3.751,3.063-5.376
		S10.063,2,10.063,2H8.979z"/>
	<path fill-rule="evenodd" clip-rule="evenodd" fill="#636363" d="M12.213,23c0,0,1.496-5.291-1.338-8.313
		c0,0-0.703-1.244,0.625-2.156S20.395,8.188,21.666,2c0,0-2.108,5.241-9.291,9.25c-4.146,2.313-1.729,3.417-0.938,5.75
		S12.313,19.156,12.213,23z"/>
</g>
</svg>
