<?xml version="1.0" encoding="utf-8"?>
<!-- Generator: Adobe Illustrator 16.0.0, SVG Export Plug-In . SVG Version: 6.00 Build 0)  -->
<!DOCTYPE svg PUBLIC "-//W3C//DTD SVG 1.1//EN" "http://www.w3.org/Graphics/SVG/1.1/DTD/svg11.dtd">
<svg version="1.1" id="Layer_1" xmlns="http://www.w3.org/2000/svg" xmlns:xlink="http://www.w3.org/1999/xlink" x="0px" y="0px"
	 width="25px" height="25px" viewBox="0 0 25 25" enable-background="new 0 0 25 25" xml:space="preserve">
<circle fill="#F2F2F2" cx="12.563" cy="12.438" r="12.438"/>
<path fill-rule="evenodd" clip-rule="evenodd" fill="#B9B9B9" d="M4.34,2.393c0,0,1.996,4.319,2.808,6.11
	c0.813,1.792,0.52,4.255-0.73,5.79C5.168,15.829,4.033,20,4.048,22h17.14c0,0-0.25-4.149-3.688-10.453c0,0,0.354-3.653,1.5-4.938
	c0.656-0.736,1.849-4.117,1.849-4.117L4.411,2.513"/>
<g>
	<rect fill="none" width="25" height="25"/>
</g>
<g>
	<path fill-rule="evenodd" clip-rule="evenodd" fill="#E5E5E5" d="M12.534,17.337c-2.209-0.003-4.43-0.68-6.671-2.033
		c0.087,0.24,0.093,0.299,0.123,0.334c1.749,1.991,3.498,3.987,5.259,5.967c0.128,0.145,0.368,0.309,0.568,0.338
		C12.056,21.98,12.292,22,12.521,22l0,0c0.006,0,0.009,0,0.013,0c0.005,0,0.009,0,0.012,0l0,0c0.23,0,0.464-0.02,0.71-0.058
		c0.2-0.029,0.439-0.193,0.566-0.338c1.762-1.979,3.511-3.976,5.259-5.967c0.031-0.035,0.038-0.094,0.124-0.334
		C16.964,16.657,14.743,17.334,12.534,17.337z"/>
	<rect fill="none" width="25" height="25"/>
	<g>
		<path fill="#636363" d="M4.762,3.136c4.724,7.48,3.54,8.71,1.293,12.42c-1.909,3.147-2.007,6.753-2.007,6.753
			c-0.038-3.082,0.772-5.983,2.398-8.622c1.086-1.762,1.187-3.612,0.298-5.497c-0.54-1.136-1.094-2.287-1.63-3.402
			C4.82,4.179,4.238,2.621,4.411,2.539L4.762,3.136z M20.808,2.541c0.174,0.082-0.421,1.682-0.715,2.291
			c-0.537,1.115-1.091,2.266-1.631,3.402c-0.89,1.885-0.789,3.734,0.298,5.496c1.627,2.64,2.436,5.541,2.397,8.624
			c0,0-0.098-3.605-2.006-6.755c-2.248-3.709-3.431-4.94,1.293-12.419L20.808,2.541z"/>
	</g>
	<circle fill-rule="evenodd" clip-rule="evenodd" fill="#636363" cx="12.652" cy="11.822" r="0.423"/>
	<path fill-rule="evenodd" clip-rule="evenodd" fill="#353535" d="M7.249,7.53c0,0,0.345,0.675,5.147,0.534
		c4.916-0.145,5.66-0.512,5.66-0.512l2.712-4.948c0,0-4.547,3.666-8.125-0.057c0,0-3.655,3.893-8.225,0L7.249,7.53z"/>
	<path fill-rule="evenodd" clip-rule="evenodd" fill="#D3D3D3" d="M4.419,2.547c2.738,0,5.422,0,8.124,0
		C11.445,4.276,7.377,5.347,4.419,2.547z"/>
	<path fill-rule="evenodd" clip-rule="evenodd" fill="#D3D3D3" d="M20.849,2.547c-2.709,0-5.481-0.008-8.153-0.008
		C13.783,4.269,17.923,5.347,20.849,2.547z"/>
</g>
</svg>
