<?xml version="1.0" encoding="utf-8"?>
<!-- Generator: Adobe Illustrator 16.0.0, SVG Export Plug-In . SVG Version: 6.00 Build 0)  -->
<!DOCTYPE svg PUBLIC "-//W3C//DTD SVG 1.1//EN" "http://www.w3.org/Graphics/SVG/1.1/DTD/svg11.dtd">
<svg version="1.1" id="Layer_1" xmlns="http://www.w3.org/2000/svg" xmlns:xlink="http://www.w3.org/1999/xlink" x="0px" y="0px"
	 width="25px" height="25px" viewBox="0 0 25 25" enable-background="new 0 0 25 25" xml:space="preserve">
<circle fill="#F2F2F2" cx="12.563" cy="12.438" r="12.438"/>
<g>
	<path fill="#B1B1B2" d="M3.626,19.61c0,0,0.281-2.684,0.454-3.16c0.173-0.478,0.477-1.304,0.477-1.736
		c0-0.434,0.304-7.553,0.695-8.246c0.391-0.695,0.824-1.086,1.345-1.172C7.118,5.208,8.353,5.02,9.158,4.775
		c1.433-0.436,1.614-2.27,1.614-2.27s2.032,0.358,3.392-0.263c0,0,0.246,1.924,1.896,2.618c1.649,0.695,2.994,0.129,3.558,1.128
		s0.21,2.103,0.323,2.745c0.112,0.641,0.198,2.29,0.328,2.854c0.13,0.564,0.045,2.386,0.088,2.604
		c0.042,0.218,0.564,1.736,0.651,2.258c0.086,0.521,0.509,3.134,0.406,3.215c-0.103,0.084-1.54,2.77-1.54,2.77l-0.168-0.516
		c0,0-1.128-3.082-1.042-4.602c0.086-1.519-0.603-2.923-0.519-3.133c0.084-0.209-0.582-2.424-0.582-2.424l-0.029-1.475l0.345-1.979
		c0,0-0.561,2.24-0.648,3.542c-0.088,1.303-0.131,2.214-0.348,2.778s-0.391,0.955-0.13,1.477c0.261,0.521,1.726,5.725,1.726,5.725
		l-5.588-0.387l-6.425,0.462c0,0,1.521-5.15,1.998-6.148c0,0-0.695-2.994-0.695-3.516c0-0.521-0.606-3.93-0.606-3.93l0.303,3.148
		L7.162,12.5l-0.695,3.213l-0.043,1.778l-0.478,2.865c0,0-0.563,0.998-0.563,1.302c0,0.305-0.315,0.674-0.315,0.674L3.626,19.61z"/>
	<rect fill="none" width="25" height="25"/>
	<g>
		<path fill-rule="evenodd" clip-rule="evenodd" fill="#636363" d="M19.873,22.383c-0.012,0-0.025-0.005-0.035-0.016
			c-0.016-0.014-0.036-0.028-0.055-0.044c-0.051-0.037-0.104-0.077-0.125-0.137c-0.073-0.227-0.152-0.454-0.227-0.674
			c-0.209-0.612-0.425-1.245-0.585-1.882c-0.298-1.194-0.366-2.439-0.432-3.644l-0.007-0.106c-0.022-0.433-0.126-0.873-0.226-1.299
			c-0.031-0.129-0.062-0.257-0.089-0.387c-0.118-0.538-0.248-1.083-0.374-1.609c-0.045-0.191-0.091-0.384-0.137-0.575
			c-0.011-0.044-0.024-0.089-0.038-0.131c-0.009,0.057-0.017,0.114-0.025,0.173c-0.029,0.202-0.059,0.41-0.094,0.617
			c-0.032,0.181-0.062,0.366-0.088,0.545c-0.113,0.713-0.228,1.451-0.537,2.137c-0.03,0.067,0.015,0.203,0.031,0.248
			c0.303,0.897,0.596,1.808,0.882,2.688c0.25,0.769,0.507,1.563,0.768,2.346c0.086,0.264,0.143,0.541,0.196,0.809
			c0.009,0.05,0.02,0.101,0.029,0.149c0.013,0.058-0.014,0.114-0.038,0.165c-0.009,0.021-0.018,0.04-0.025,0.06
			c-0.005,0.017-0.02,0.03-0.039,0.034c-0.003,0-0.005,0-0.009,0c-0.015,0-0.029-0.006-0.04-0.018
			c-0.013-0.013-0.027-0.028-0.043-0.044c-0.039-0.036-0.084-0.076-0.097-0.132c-0.448-2.017-1.183-3.978-1.894-5.872l-0.058-0.154
			c-0.051-0.133-0.018-0.303,0.016-0.436c0.066-0.256,0.143-0.513,0.215-0.763c0.141-0.479,0.287-0.977,0.361-1.473
			c0.151-1,0.265-2.023,0.374-3.014c0.052-0.474,0.105-0.963,0.163-1.445c0.008-0.064,0.043-0.121,0.075-0.176
			c0.014-0.024,0.029-0.046,0.039-0.068c0.009-0.017,0.027-0.028,0.047-0.028h0.003c0.018,0.001,0.038,0.014,0.045,0.033
			c0.008,0.021,0.019,0.044,0.032,0.068c0.029,0.059,0.059,0.119,0.055,0.185c-0.005,0.097-0.011,0.194-0.017,0.291
			c-0.019,0.364-0.04,0.739-0.103,1.103c-0.115,0.674-0.072,1.364,0.135,2.171c0.272,1.057,0.53,2.183,0.767,3.347
			c0.063,0.312,0.074,0.637,0.083,0.951c0.004,0.129,0.008,0.263,0.017,0.392c0.105,1.782,0.405,3.312,0.917,4.679
			c0.034,0.089,0.071,0.18,0.109,0.266c0.049,0.116,0.099,0.236,0.141,0.358c0.021,0.062,0.009,0.127-0.001,0.19
			c-0.006,0.024-0.009,0.05-0.012,0.073c0,0.02-0.013,0.036-0.032,0.044C19.886,22.382,19.879,22.383,19.873,22.383z M5.178,22.378
			c-0.008,0-0.014-0.003-0.019-0.005c-0.013-0.006-0.023-0.016-0.029-0.028c-0.005-0.012-0.011-0.024-0.017-0.036
			c-0.016-0.034-0.037-0.073-0.034-0.116c0.001-0.048,0.022-0.092,0.042-0.13c0.005-0.012,0.01-0.022,0.014-0.033
			c0.726-1.656,1.11-3.531,1.171-5.737c0.019-0.677,0.172-1.332,0.319-1.965c0.043-0.189,0.09-0.385,0.131-0.578
			c0.083-0.389,0.179-0.783,0.271-1.163c0.106-0.442,0.219-0.897,0.311-1.35c0.048-0.24,0.026-0.501,0.005-0.755l-0.007-0.098
			C7.31,10.04,7.275,9.69,7.243,9.352C7.216,9.075,7.188,8.789,7.164,8.506C7.158,8.445,7.185,8.388,7.21,8.331
			c0.01-0.023,0.02-0.045,0.027-0.065C7.244,8.246,7.26,8.233,7.28,8.23c0,0,0.004,0,0.007,0c0.015,0,0.033,0.007,0.042,0.023
			c0.012,0.02,0.028,0.039,0.045,0.059c0.042,0.052,0.084,0.104,0.092,0.169C7.503,8.817,7.534,9.159,7.563,9.49
			c0.054,0.605,0.111,1.23,0.2,1.841c0.121,0.813,0.282,1.637,0.438,2.433c0.057,0.296,0.115,0.592,0.171,0.887
			c0.021,0.11,0.049,0.234,0.11,0.318c0.249,0.337,0.129,0.651,0.012,0.955c-0.701,1.834-1.365,3.636-1.796,5.509
			c-0.007,0.027-0.011,0.057-0.017,0.086c-0.008,0.059-0.016,0.117-0.04,0.173c-0.021,0.047-0.062,0.082-0.1,0.11
			c-0.013,0.012-0.027,0.022-0.04,0.034c-0.011,0.011-0.023,0.015-0.037,0.015c-0.004,0-0.006,0-0.01,0
			c-0.019-0.004-0.032-0.016-0.037-0.03c-0.007-0.017-0.017-0.033-0.025-0.049c-0.025-0.045-0.054-0.096-0.043-0.148
			c0.01-0.058,0.022-0.116,0.034-0.174c0.048-0.254,0.099-0.515,0.181-0.763c0.566-1.707,1.129-3.376,1.675-4.96
			c0.072-0.216,0.054-0.38-0.004-0.578c-0.225-0.784-0.412-1.599-0.571-2.303c-0.056-0.253-0.09-0.515-0.124-0.769
			c-0.01-0.066-0.02-0.135-0.027-0.202c-0.02,0.082-0.04,0.163-0.06,0.245c-0.071,0.288-0.144,0.585-0.211,0.878
			c-0.053,0.227-0.107,0.454-0.162,0.676c-0.14,0.576-0.286,1.172-0.384,1.763c-0.063,0.379-0.081,0.772-0.097,1.154
			c-0.008,0.218-0.019,0.445-0.036,0.668c-0.16,1.917-0.521,3.465-1.135,4.869c-0.008,0.017-0.013,0.032-0.021,0.048
			c-0.016,0.045-0.034,0.09-0.065,0.129c-0.028,0.032-0.071,0.045-0.109,0.057c-0.013,0.004-0.026,0.008-0.039,0.012
			C5.192,22.377,5.185,22.378,5.178,22.378z M21.296,19.718c-0.021,0-0.04-0.014-0.048-0.031c-0.007-0.021-0.02-0.041-0.031-0.062
			c-0.026-0.053-0.056-0.106-0.06-0.166c-0.013-0.164-0.02-0.331-0.026-0.492c-0.004-0.118-0.01-0.241-0.017-0.361
			c-0.07-1.162-0.316-2.299-0.729-3.377c-0.046-0.122-0.052-0.256-0.048-0.347c0.055-1.527-0.129-3.08-0.29-4.449
			c-0.029-0.246-0.027-0.5-0.026-0.744c0.001-0.172,0.002-0.351-0.007-0.523c-0.008-0.144-0.015-0.289-0.022-0.435
			c-0.024-0.525-0.051-1.068-0.129-1.594c-0.152-1.022-0.718-1.574-1.776-1.736c-0.209-0.031-0.425-0.054-0.634-0.074
			c-0.315-0.031-0.642-0.063-0.956-0.134c-1.271-0.281-2.08-1.118-2.41-2.486c-0.049-0.199-0.045-0.22-0.042-0.234
			c0.002-0.012,0.004-0.023,0.005-0.034c0.01-0.065,0.021-0.122,0.123-0.144c0.004-0.001,0.008-0.001,0.011-0.001
			c0.005,0,0.01,0,0.016-0.001c0.007,0,0.016-0.001,0.023-0.001c0.072,0,0.115,0.038,0.129,0.112
			c0.254,1.438,1.404,2.504,2.794,2.592c0.407,0.026,0.807,0.075,1.183,0.146c1.027,0.19,1.66,0.844,1.829,1.892
			c0.071,0.447,0.109,0.906,0.147,1.35c0.017,0.199,0.034,0.402,0.056,0.604c0,0.015-0.004,0.027-0.013,0.039
			c-0.008,0.01-0.021,0.017-0.036,0.018l-0.051,0.006c0.032,0.356,0.065,0.715,0.097,1.072c0.083,0.887,0.167,1.803,0.233,2.707
			c0.029,0.411,0.036,0.832,0.041,1.236c0.003,0.239,0.005,0.486,0.013,0.729c0.005,0.176,0.03,0.317,0.071,0.434
			c0.481,1.322,0.73,2.732,0.741,4.192c0.003,0.015,0.003,0.031-0.005,0.049c-0.029,0.06-0.058,0.116-0.088,0.175l-0.023,0.047
			C21.335,19.708,21.317,19.718,21.296,19.718L21.296,19.718z M3.758,19.717c-0.021,0-0.041-0.015-0.048-0.035
			c-0.011-0.03-0.023-0.06-0.035-0.09c-0.028-0.07-0.057-0.145-0.067-0.224c-0.014-0.092-0.011-0.187-0.008-0.277
			c0.001-0.04,0.003-0.078,0.003-0.116c0.061-1.326,0.314-2.597,0.751-3.777c0.038-0.104,0.058-0.221,0.054-0.331
			c-0.039-1.172,0.076-2.35,0.19-3.491c0.025-0.256,0.05-0.511,0.073-0.769c0.044-0.474,0.054-0.959,0.065-1.43
			c0.006-0.335,0.014-0.68,0.034-1.02C4.796,7.696,4.851,7.265,4.935,6.87c0.212-1.001,0.87-1.595,1.954-1.768
			c0.219-0.034,0.443-0.056,0.658-0.077c0.307-0.03,0.623-0.063,0.925-0.129c1.17-0.258,1.91-1.018,2.201-2.262
			c0.004-0.02,0.019-0.08,0.073-0.08c0.018,0,0.03,0.007,0.041,0.013c0-0.002,0.001-0.002,0.001-0.003
			c0.009-0.018,0.026-0.027,0.046-0.027c0.002,0,0.006,0.001,0.01,0.002c0.021,0.004,0.039,0.023,0.041,0.045
			c0.001,0.004,0.001,0.007,0.001,0.009c0.004,0,0.007,0,0.009,0c0.03,0,0.047,0.014,0.057,0.023c0.02,0.026,0.018,0.061,0.012,0.09
			c-0.29,1.484-1.466,2.502-2.998,2.592C7.61,5.32,7.292,5.352,6.995,5.397C5.883,5.57,5.323,6.132,5.178,7.218
			c-0.055,0.42-0.073,0.854-0.091,1.271C5.076,8.722,5.066,8.961,5.05,9.197C5.023,9.559,4.994,9.927,4.965,10.28
			c-0.044,0.563-0.092,1.147-0.123,1.722c-0.038,0.65-0.061,1.314-0.082,1.957c-0.011,0.327-0.023,0.655-0.036,0.982
			c-0.004,0.09-0.008,0.185-0.04,0.267c-0.499,1.281-0.759,2.678-0.775,4.148c0,0.081-0.032,0.157-0.065,0.231
			c-0.013,0.033-0.028,0.063-0.038,0.094C3.799,19.702,3.781,19.717,3.758,19.717L3.758,19.717z"/>
		<path fill="#636363" d="M14.224,2.343c0.035,0,0.067,0.009,0.079,0.07c0.25,1.409,1.377,2.541,2.841,2.635
			c0.394,0.024,0.79,0.071,1.178,0.144c1.028,0.191,1.623,0.835,1.785,1.85c0.105,0.646,0.138,1.301,0.204,1.951
			c-0.035,0.003-0.068,0.007-0.103,0.011c0.113,1.275,0.24,2.551,0.335,3.829c0.047,0.652,0.031,1.309,0.053,1.963
			c0.005,0.15,0.024,0.31,0.075,0.449c0.491,1.35,0.728,2.743,0.738,4.175c0,0.009,0.003,0.02-0.001,0.026
			c-0.037,0.075-0.073,0.146-0.11,0.22c-0.031-0.068-0.082-0.138-0.089-0.211c-0.021-0.283-0.025-0.567-0.042-0.851
			c-0.071-1.168-0.313-2.299-0.733-3.394c-0.037-0.101-0.049-0.218-0.045-0.326c0.055-1.496-0.116-2.976-0.29-4.457
			c-0.05-0.417-0.009-0.843-0.031-1.265c-0.04-0.678-0.054-1.361-0.154-2.031c-0.159-1.066-0.748-1.617-1.82-1.782
			c-0.527-0.079-1.067-0.092-1.586-0.207c-1.315-0.291-2.063-1.165-2.371-2.448c-0.005-0.025-0.044-0.188-0.04-0.211
			c0.015-0.092,0.008-0.122,0.089-0.139C14.198,2.344,14.211,2.343,14.224,2.343"/>
		<path fill="#636363" d="M10.834,2.59c0.004,0.049,0.022,0.055,0.041,0.055c0.007,0,0.015,0,0.02,0
			c0.017,0,0.026,0.007,0.018,0.051c-0.284,1.463-1.45,2.462-2.949,2.552c-0.325,0.02-0.653,0.05-0.975,0.1
			C5.871,5.521,5.275,6.096,5.127,7.21C5.042,7.865,5.044,8.533,4.998,9.194c-0.066,0.935-0.154,1.868-0.208,2.804
			c-0.055,0.98-0.077,1.961-0.116,2.941c-0.004,0.084-0.007,0.174-0.037,0.251c-0.521,1.34-0.762,2.731-0.778,4.166
			c-0.001,0.103-0.064,0.205-0.101,0.309c-0.035-0.102-0.085-0.199-0.099-0.303c-0.018-0.127-0.005-0.259-0.005-0.388
			c0.06-1.292,0.3-2.546,0.749-3.76c0.042-0.108,0.06-0.234,0.056-0.351c-0.047-1.427,0.134-2.836,0.266-4.252
			C4.799,9.798,4.775,8.978,4.822,8.16c0.024-0.427,0.075-0.858,0.164-1.278C5.202,5.854,5.89,5.314,6.897,5.154
			C7.424,5.071,7.963,5.06,8.482,4.946c1.238-0.271,1.956-1.081,2.24-2.3c0.008-0.031,0.017-0.04,0.024-0.04
			c0.013,0,0.026,0.021,0.046,0.021C10.804,2.627,10.817,2.617,10.834,2.59"/>
		<path fill="#636363" d="M17.753,8.28c0.03,0.076,0.089,0.156,0.084,0.23c-0.029,0.464-0.042,0.932-0.12,1.39
			c-0.129,0.746-0.053,1.462,0.135,2.19c0.287,1.107,0.54,2.224,0.767,3.345c0.089,0.434,0.071,0.891,0.099,1.337
			c0.095,1.606,0.353,3.18,0.92,4.693c0.079,0.21,0.179,0.411,0.249,0.623c0.024,0.071-0.008,0.16-0.014,0.242
			c-0.056-0.054-0.143-0.096-0.164-0.161c-0.28-0.848-0.596-1.687-0.812-2.551c-0.305-1.225-0.367-2.482-0.437-3.74
			c-0.031-0.569-0.193-1.133-0.316-1.694c-0.16-0.73-0.338-1.458-0.512-2.187c-0.019-0.08-0.045-0.157-0.07-0.237
			c-0.018-0.001-0.035-0.001-0.052-0.002c-0.044,0.301-0.084,0.602-0.136,0.902c-0.157,0.906-0.236,1.818-0.621,2.669
			c-0.034,0.076-0.003,0.196,0.028,0.287c0.565,1.678,1.088,3.353,1.65,5.033c0.103,0.309,0.161,0.634,0.225,0.953
			c0.012,0.059-0.039,0.131-0.06,0.195c-0.044-0.05-0.117-0.095-0.13-0.152c-0.46-2.073-1.211-4.052-1.953-6.033
			c-0.045-0.117-0.015-0.276,0.018-0.405c0.19-0.748,0.463-1.483,0.578-2.241c0.222-1.48,0.357-2.974,0.534-4.459
			C17.653,8.429,17.715,8.355,17.753,8.28"/>
		<path fill="#636363" d="M7.288,8.282c0.044,0.067,0.12,0.133,0.128,0.206c0.102,0.95,0.158,1.906,0.297,2.85
			c0.165,1.113,0.4,2.216,0.608,3.322c0.021,0.117,0.051,0.247,0.119,0.339c0.228,0.309,0.127,0.587,0.006,0.906
			c-0.691,1.809-1.363,3.624-1.8,5.515c-0.018,0.085-0.021,0.174-0.054,0.252C6.571,21.723,6.51,21.757,6.466,21.8
			c-0.022-0.056-0.076-0.116-0.064-0.167c0.062-0.312,0.113-0.629,0.213-0.93c0.549-1.656,1.106-3.31,1.675-4.96
			c0.074-0.216,0.061-0.387-0.003-0.608c-0.219-0.758-0.397-1.529-0.57-2.299c-0.082-0.366-0.116-0.743-0.173-1.113
			C7.53,11.721,7.515,11.719,7.5,11.717c-0.103,0.423-0.209,0.847-0.307,1.27c-0.187,0.813-0.407,1.621-0.546,2.441
			c-0.101,0.6-0.083,1.218-0.134,1.826c-0.138,1.673-0.452,3.307-1.13,4.855c-0.024,0.055-0.041,0.117-0.076,0.161
			c-0.028,0.031-0.085,0.038-0.128,0.055c-0.017-0.043-0.049-0.087-0.048-0.131c0.003-0.049,0.033-0.097,0.052-0.144
			c0.806-1.834,1.122-3.774,1.175-5.757c0.024-0.874,0.271-1.694,0.451-2.533c0.181-0.842,0.409-1.672,0.582-2.514
			c0.056-0.277,0.021-0.579,0-0.867c-0.05-0.626-0.121-1.251-0.173-1.878C7.209,8.431,7.261,8.355,7.288,8.282"/>
		<path fill="#636363" d="M14.224,2.24c-0.008,0-0.017,0-0.025,0c-0.005,0.001-0.01,0.001-0.014,0.001
			c-0.007,0-0.014,0.001-0.021,0.002C14.025,2.271,14.01,2.36,14,2.43c-0.001,0.01-0.003,0.021-0.005,0.033
			c-0.004,0.023-0.008,0.045,0.042,0.25v0.004c0.334,1.391,1.159,2.239,2.449,2.526c0.316,0.07,0.645,0.103,0.961,0.134
			c0.208,0.021,0.423,0.043,0.631,0.074c1.048,0.16,1.582,0.683,1.733,1.694c0.078,0.522,0.104,1.063,0.129,1.589
			c0.006,0.145,0.013,0.289,0.022,0.434c0.009,0.172,0.008,0.35,0.007,0.521c-0.003,0.246-0.004,0.5,0.025,0.751
			c0.162,1.367,0.344,2.917,0.289,4.441c-0.004,0.095,0.003,0.236,0.053,0.365c0.411,1.073,0.655,2.206,0.725,3.363
			c0.007,0.119,0.012,0.241,0.018,0.36c0.007,0.161,0.014,0.328,0.026,0.492c0.005,0.071,0.039,0.133,0.066,0.188
			c0.011,0.021,0.021,0.039,0.03,0.059c0.016,0.036,0.051,0.061,0.091,0.062h0.003c0.04,0,0.074-0.021,0.093-0.058l0.023-0.047
			c0.031-0.058,0.058-0.115,0.086-0.175c0.017-0.03,0.013-0.059,0.012-0.072v0.001c-0.012-1.467-0.261-2.883-0.746-4.209
			c-0.04-0.112-0.061-0.248-0.068-0.419c-0.008-0.242-0.01-0.488-0.014-0.728c-0.005-0.406-0.009-0.826-0.041-1.239
			c-0.065-0.904-0.149-1.821-0.231-2.709c-0.031-0.334-0.063-0.68-0.092-1.02l0,0c0.027-0.004,0.053-0.017,0.069-0.038
			c0.02-0.021,0.028-0.049,0.024-0.076c-0.021-0.2-0.038-0.405-0.055-0.603c-0.038-0.444-0.077-0.905-0.148-1.354
			c-0.173-1.071-0.82-1.741-1.871-1.936c-0.379-0.07-0.779-0.119-1.189-0.146c-1.367-0.087-2.495-1.135-2.747-2.549
			C14.386,2.296,14.321,2.24,14.224,2.24L14.224,2.24z"/>
		<path fill="#636363" d="M10.834,2.486c-0.023,0-0.045,0.007-0.062,0.02c-0.008-0.001-0.017-0.004-0.026-0.004
			c-0.034,0-0.099,0.017-0.124,0.121C10.336,3.846,9.609,4.594,8.46,4.845c-0.3,0.066-0.613,0.099-0.917,0.129
			C7.326,4.995,7.101,5.018,6.881,5.052C5.773,5.227,5.101,5.835,4.884,6.86C4.8,7.255,4.745,7.69,4.719,8.154
			C4.699,8.495,4.691,8.842,4.686,9.176c-0.011,0.47-0.021,0.954-0.065,1.426c-0.023,0.257-0.049,0.517-0.074,0.769
			c-0.113,1.142-0.229,2.322-0.19,3.498c0.004,0.104-0.014,0.216-0.05,0.312c-0.439,1.185-0.693,2.461-0.754,3.79
			c0,0.002,0,0.004,0,0.005c0,0.038-0.002,0.074-0.003,0.115c-0.004,0.093-0.007,0.189,0.007,0.287
			c0.011,0.083,0.043,0.16,0.07,0.233c0.012,0.03,0.024,0.06,0.034,0.089c0.015,0.042,0.054,0.069,0.098,0.069l0,0
			c0.046,0,0.084-0.027,0.1-0.07c0.009-0.028,0.021-0.059,0.035-0.091c0.034-0.074,0.069-0.158,0.069-0.25
			c0.017-1.464,0.277-2.854,0.772-4.129c0.035-0.092,0.039-0.191,0.042-0.28v-0.005c0.013-0.327,0.024-0.661,0.036-0.982
			c0.022-0.642,0.045-1.306,0.082-1.956c0.033-0.574,0.079-1.157,0.124-1.721c0.028-0.354,0.058-0.722,0.083-1.083
			c0.016-0.237,0.026-0.478,0.038-0.71c0.017-0.418,0.038-0.85,0.092-1.267c0.141-1.061,0.687-1.607,1.772-1.776
			C7.298,5.403,7.614,5.371,7.97,5.35c1.554-0.092,2.75-1.125,3.044-2.634c0.004-0.022,0.016-0.083-0.024-0.132
			c-0.011-0.013-0.03-0.031-0.064-0.04c-0.014-0.027-0.041-0.05-0.072-0.056C10.848,2.486,10.84,2.486,10.834,2.486L10.834,2.486z"
			/>
		<path fill="#636363" d="M17.753,8.177c-0.04,0-0.075,0.022-0.092,0.057c-0.01,0.021-0.022,0.042-0.038,0.064
			c-0.033,0.057-0.073,0.121-0.083,0.197c-0.056,0.482-0.111,0.973-0.164,1.445c-0.108,0.99-0.221,2.013-0.372,3.011
			c-0.073,0.495-0.22,0.989-0.36,1.469c-0.073,0.249-0.149,0.505-0.215,0.762c-0.036,0.141-0.071,0.32-0.014,0.468l0.057,0.153
			c0.71,1.895,1.446,3.853,1.892,5.867c0.017,0.07,0.07,0.119,0.113,0.158c0.014,0.015,0.029,0.026,0.04,0.039
			c0.021,0.023,0.049,0.034,0.078,0.034c0.006,0,0.013,0,0.02,0c0.037-0.008,0.067-0.034,0.078-0.069
			c0.005-0.016,0.013-0.034,0.022-0.053c0.025-0.055,0.057-0.124,0.042-0.197c-0.01-0.049-0.021-0.1-0.03-0.149
			c-0.054-0.27-0.11-0.55-0.199-0.816c-0.262-0.782-0.519-1.575-0.766-2.344c-0.286-0.882-0.581-1.793-0.883-2.689
			c-0.047-0.142-0.041-0.192-0.033-0.21c0.313-0.692,0.428-1.433,0.541-2.149c0.027-0.18,0.056-0.363,0.088-0.545
			c0.031-0.18,0.059-0.362,0.084-0.541c0.036,0.153,0.072,0.308,0.11,0.46c0.124,0.527,0.255,1.072,0.372,1.609
			c0.029,0.128,0.059,0.261,0.088,0.388c0.1,0.422,0.203,0.86,0.226,1.291l0.006,0.104c0.066,1.207,0.135,2.455,0.436,3.654
			c0.158,0.639,0.375,1.273,0.585,1.886c0.075,0.22,0.152,0.448,0.227,0.673c0.024,0.075,0.087,0.122,0.141,0.162
			c0.021,0.016,0.038,0.029,0.052,0.042c0.02,0.018,0.045,0.028,0.07,0.028c0.013,0,0.025-0.003,0.038-0.008
			c0.038-0.015,0.063-0.048,0.065-0.088c0.002-0.021,0.006-0.045,0.011-0.069c0.01-0.067,0.022-0.142-0.002-0.215
			c-0.041-0.124-0.091-0.245-0.141-0.363c-0.038-0.085-0.076-0.175-0.107-0.262c-0.511-1.361-0.81-2.888-0.916-4.663
			c-0.007-0.131-0.012-0.263-0.017-0.391c-0.009-0.317-0.018-0.646-0.084-0.961c-0.236-1.164-0.495-2.29-0.768-3.35
			c-0.206-0.8-0.248-1.481-0.133-2.148c0.063-0.367,0.084-0.743,0.104-1.107c0.005-0.098,0.01-0.195,0.018-0.293
			c0.005-0.078-0.032-0.148-0.062-0.21c-0.01-0.022-0.022-0.045-0.03-0.063c-0.016-0.038-0.051-0.064-0.092-0.066
			C17.756,8.177,17.755,8.177,17.753,8.177L17.753,8.177z"/>
		<path fill="#636363" d="M7.288,8.179c-0.006,0-0.01,0-0.014,0c-0.04,0.006-0.072,0.032-0.085,0.069
			C7.183,8.268,7.171,8.289,7.163,8.31c-0.025,0.06-0.056,0.127-0.05,0.201C7.137,8.793,7.164,9.08,7.191,9.356
			c0.034,0.338,0.066,0.688,0.094,1.032c0.003,0.032,0.005,0.064,0.008,0.098c0.021,0.25,0.043,0.508-0.005,0.739
			c-0.093,0.451-0.203,0.906-0.31,1.348c-0.093,0.383-0.188,0.775-0.271,1.166c-0.042,0.192-0.086,0.388-0.131,0.576
			c-0.149,0.635-0.301,1.292-0.322,1.976c-0.06,2.198-0.442,4.068-1.167,5.718c-0.004,0.011-0.008,0.02-0.013,0.03
			c-0.021,0.041-0.045,0.094-0.047,0.152c-0.002,0.056,0.021,0.103,0.04,0.141c0.005,0.011,0.011,0.022,0.015,0.031
			c0.01,0.026,0.029,0.047,0.055,0.058c0.013,0.006,0.026,0.009,0.041,0.009s0.025-0.003,0.04-0.008
			c0.009-0.004,0.02-0.008,0.034-0.012c0.041-0.013,0.095-0.026,0.133-0.073c0.038-0.045,0.058-0.097,0.075-0.143
			c0.005-0.015,0.011-0.03,0.018-0.045c0.617-1.41,0.979-2.963,1.139-4.887c0.018-0.224,0.027-0.45,0.037-0.67
			c0.016-0.38,0.033-0.772,0.096-1.146c0.1-0.591,0.244-1.185,0.383-1.76c0.053-0.221,0.11-0.451,0.162-0.676
			c0.066-0.286,0.139-0.576,0.207-0.856c0.031,0.231,0.063,0.47,0.117,0.704c0.158,0.704,0.344,1.52,0.57,2.305
			c0.065,0.224,0.066,0.366,0.004,0.546c-0.545,1.584-1.109,3.255-1.675,4.962c-0.083,0.251-0.134,0.515-0.182,0.768
			c-0.011,0.058-0.021,0.117-0.034,0.174c-0.015,0.071,0.02,0.134,0.048,0.184c0.009,0.016,0.017,0.031,0.023,0.044
			c0.013,0.031,0.04,0.055,0.073,0.062c0.007,0,0.015,0.002,0.021,0.002c0.025,0,0.053-0.01,0.071-0.028
			c0.01-0.011,0.024-0.021,0.038-0.032c0.04-0.032,0.088-0.071,0.114-0.131c0.025-0.062,0.036-0.124,0.046-0.185
			c0.004-0.029,0.007-0.058,0.014-0.084c0.43-1.869,1.093-3.669,1.794-5.501c0.121-0.317,0.246-0.645-0.02-1.005
			c-0.055-0.074-0.081-0.191-0.101-0.296c-0.056-0.296-0.115-0.598-0.171-0.889c-0.156-0.793-0.315-1.617-0.436-2.43
			c-0.091-0.608-0.147-1.233-0.202-1.839c-0.03-0.329-0.06-0.672-0.097-1.008c-0.008-0.08-0.058-0.142-0.102-0.195
			C7.399,8.261,7.383,8.242,7.373,8.226C7.354,8.195,7.322,8.179,7.288,8.179L7.288,8.179z"/>
	</g>
	<path fill-rule="evenodd" clip-rule="evenodd" fill="#636363" d="M13.679,21.358c-0.004,0-0.01,0-0.017-0.002
		c-0.013-0.007-0.023-0.015-0.03-0.026c-0.007-0.016-0.017-0.031-0.025-0.046c-0.029-0.046-0.056-0.092-0.037-0.137
		c0.094-0.213,0.695-1.45,0.8-1.646c0.025-0.045,0.102-0.065,0.135-0.065c0.021,0,0.039,0.006,0.051,0.019
		c0.034,0.03,0.095,0.12,0.067,0.182c-0.101,0.214-0.704,1.45-0.807,1.644c-0.013,0.026-0.039,0.037-0.067,0.051
		c-0.013,0.006-0.028,0.013-0.045,0.022C13.696,21.356,13.688,21.358,13.679,21.358z"/>
	<path fill-rule="evenodd" clip-rule="evenodd" fill="#636363" d="M11.513,21.267c-0.05,0-0.134-0.024-0.165-0.079
		c-0.104-0.18-0.674-1.338-0.764-1.532c-0.027-0.057,0.004-0.143,0.036-0.186c0.016-0.02,0.046-0.031,0.088-0.031
		c0.038,0,0.087,0.009,0.108,0.042c0.068,0.118,0.292,0.563,0.491,0.956c0.147,0.293,0.287,0.57,0.338,0.664
		c0.01,0.02,0.008,0.042-0.007,0.059c-0.008,0.012-0.018,0.024-0.025,0.034c-0.025,0.037-0.052,0.072-0.097,0.073H11.513z"/>
	<path fill-rule="evenodd" clip-rule="evenodd" fill="#636363" d="M12.647,17.961c-0.055,0-0.126-0.055-0.139-0.109
		c-0.018-0.063-0.018-0.131-0.018-0.197v-0.02c0-3.957,0-7.83,0.003-11.709c0-0.038-0.004-0.073-0.007-0.111
		c-0.007-0.061-0.012-0.126-0.003-0.194c0.004-0.025,0.025-0.044,0.053-0.044l0,0c0.023,0,0.055-0.002,0.085-0.004
		c0.033-0.002,0.065-0.003,0.087-0.003c0.026,0,0.052,0.02,0.056,0.046c0.004,0.034,0.009,0.069,0.014,0.103
		c0.011,0.075,0.023,0.153,0.023,0.232c0.002,2.8,0.002,5.602,0.002,8.402v1.895c0,0.454,0.002,0.908,0,1.361
		c0,0.083,0,0.163-0.017,0.241C12.776,17.903,12.704,17.961,12.647,17.961L12.647,17.961z"/>
	<path fill-rule="evenodd" clip-rule="evenodd" fill="#FFFFFF" d="M10.192,10.868c-0.023,0-0.041-0.006-0.054-0.019
		c-0.038-0.032-0.083-0.107-0.069-0.172c0.013-0.058,0.043-0.108,0.073-0.157c0.008-0.014,0.015-0.026,0.022-0.041
		c0.697-1.251,0.974-2.63,0.82-4.094c-0.001-0.021-0.002-0.052,0.019-0.075c0.019-0.021,0.046-0.021,0.055-0.021h0.004
		c0,0,0-0.001,0-0.002c0.005-0.021,0.022-0.036,0.043-0.039c0.003,0,0.005-0.001,0.008-0.001c0.018,0,0.035,0.01,0.043,0.024
		c0.004,0.006,0.007,0.008,0.007,0.008c0.001-0.001,0.006-0.003,0.013-0.004c0.009-0.002,0.018-0.004,0.03-0.004
		c0.019,0,0.067,0.008,0.076,0.079C11.308,6.544,11.32,6.74,11.33,6.93c0.006,0.074,0.01,0.148,0.015,0.221
		c-0.016,1.265-0.323,2.435-0.911,3.484l-0.017,0.029c-0.027,0.053-0.058,0.106-0.099,0.153
		C10.29,10.849,10.229,10.868,10.192,10.868z"/>
	<path fill-rule="evenodd" clip-rule="evenodd" fill="#FFFFFF" d="M15.159,10.864c-0.01,0-0.022-0.004-0.032-0.011
		c-0.019-0.015-0.041-0.028-0.064-0.042c-0.055-0.035-0.113-0.069-0.146-0.126c-0.623-1.063-0.922-2.23-0.942-3.672
		c0.003-0.041,0.006-0.085,0.008-0.134c0.011-0.156,0.026-0.369,0.053-0.579c0.007-0.065,0.056-0.067,0.065-0.067
		c0.018,0,0.031,0.007,0.043,0.012c0.003,0.001,0.005,0.003,0.008,0.004c0.009-0.01,0.024-0.018,0.038-0.018
		c0.003,0,0.007,0.001,0.009,0.002c0.015,0.002,0.026,0.011,0.035,0.022h0.002c0.008-0.002,0.019-0.005,0.031-0.005
		c0.018,0,0.037,0.007,0.048,0.021c0.014,0.016,0.02,0.035,0.017,0.061c-0.128,1.191,0.027,2.334,0.459,3.395
		c0.063,0.157,0.142,0.31,0.216,0.458c0.059,0.116,0.12,0.234,0.173,0.354c0.028,0.061,0.029,0.126,0.029,0.191
		c0,0.026,0.001,0.052,0.002,0.077c0.003,0.021-0.007,0.039-0.024,0.05C15.177,10.861,15.167,10.864,15.159,10.864z"/>
	<path fill-rule="evenodd" clip-rule="evenodd" fill="#353535" d="M17.503,5.324c0,0,0,2.708-0.033,3.121
		c-0.036,0.414-0.084,2.486-0.152,3.176c-0.07,0.689-0.423,2.116-0.423,2.116l-8.952-0.033c-0.811-4.138-0.55-3.916-0.472-5.396
		c0.063-1.205,0.242-3.051,0.242-3.051L17.503,5.324z"/>
</g>
</svg>
