<?xml version="1.0" encoding="utf-8"?>
<!-- Generator: Adobe Illustrator 16.0.0, SVG Export Plug-In . SVG Version: 6.00 Build 0)  -->
<!DOCTYPE svg PUBLIC "-//W3C//DTD SVG 1.1//EN" "http://www.w3.org/Graphics/SVG/1.1/DTD/svg11.dtd">
<svg version="1.1" id="Layer_1" xmlns="http://www.w3.org/2000/svg" xmlns:xlink="http://www.w3.org/1999/xlink" x="0px" y="0px"
	 width="25px" height="25px" viewBox="0 0 25 25" enable-background="new 0 0 25 25" xml:space="preserve">
<circle fill="#F2F2F2" cx="12.563" cy="12.438" r="12.438"/>
<g>
	<rect fill="none" width="25" height="25"/>
</g>
<g>
	<rect fill="none" width="25" height="25"/>
	<g id="_x35_1_3_">
		<path fill="#C6C6C6" d="M17.949,3.746c-0.675-0.788-4.462-2.688-6.524-0.551c-2.063,2.138,0.128,3.647,0.917,4.012
			c0.788,0.362,3.038,0.918,3.854-0.506c0.182,0.47,0.106,3.833-0.689,5.588c-0.149,0.328-0.324,0.601-0.527,0.786
			c-0.652-0.621-1.592-1.011-2.638-1.011c-0.858,0-1.646,0.263-2.262,0.702c-0.812-1.304-2.348-2.184-4.111-2.184
			c-0.845,0-1.639,0.203-2.326,0.557v0.457c0-0.002-0.002-0.002-0.002-0.002v11.194c0,0,3.264,0.168,3.524-3.599
			c0-0.001,0-0.001,0-0.001c0.793,1.152,3.322,2.029,4.881,1.978c2.447-0.081,5.7-0.188,8.453-2.829
			c0.256-0.254,0.598-0.884,0.598-0.884C22.373,14.799,18.625,4.533,17.949,3.746z"/>
	</g>
	<g id="_x35_1_2_">
		<path fill="#353535" d="M16.894,18.555c-0.204-1.171-0.366-2.358-0.816-3.465c0.045,0.108,0.089,0.216,0.135,0.323
			c-0.156-0.372-0.307-0.744-0.462-1.116c-0.198-0.455-0.412-0.904-0.666-1.331c-0.035,0.039-0.07,0.075-0.106,0.108
			c-0.652-0.621-1.592-1.011-2.638-1.011c-0.858,0-1.646,0.263-2.262,0.702c-0.812-1.304-2.348-2.184-4.111-2.184
			c-0.845,0-1.639,0.203-2.326,0.557v0.457c0-0.002-0.002-0.002-0.002-0.002v11.194c0,0,3.264,0.168,3.524-3.599
			c0-0.001,0-0.001,0-0.001c0.793,1.152,3.322,2.029,4.881,1.978c1.532-0.05,3.379-0.113,5.223-0.799
			C17.134,19.763,16.998,19.163,16.894,18.555z"/>
	</g>
</g>
</svg>
