<svg id="Group_13995" data-name="Group 13995" xmlns="http://www.w3.org/2000/svg" width="27" height="27" viewBox="0 0 27 27">
  <path id="Path_21382" data-name="Path 21382" d="M0,0H27V27H0Z" fill="none"/>
  <path id="Path_21383" data-name="Path 21383" d="M9.5,5H7.25A2.25,2.25,0,0,0,5,7.25v13.5A2.25,2.25,0,0,0,7.25,23H18.5a2.25,2.25,0,0,0,2.25-2.25V7.25A2.25,2.25,0,0,0,18.5,5H16.25" transform="translate(0.625 0.625)" fill="none" stroke="#545ab9" stroke-linecap="round" stroke-linejoin="round" stroke-width="1.5"/>
  <rect id="Rectangle_4057" data-name="Rectangle 4057" width="7" height="5" rx="2" transform="translate(10 3)" fill="none" stroke="#545ab9" stroke-linecap="round" stroke-linejoin="round" stroke-width="1.5"/>
  <line id="Line_17" data-name="Line 17" x2="0.011" transform="translate(10.125 13.5)" fill="none" stroke="#545ab9" stroke-linecap="round" stroke-linejoin="round" stroke-width="1.5"/>
  <line id="Line_18" data-name="Line 18" x2="2" transform="translate(15 14)" fill="none" stroke="#545ab9" stroke-linecap="round" stroke-linejoin="round" stroke-width="1.5"/>
  <line id="Line_19" data-name="Line 19" x2="0.011" transform="translate(10.125 18)" fill="none" stroke="#545ab9" stroke-linecap="round" stroke-linejoin="round" stroke-width="1.5"/>
  <line id="Line_20" data-name="Line 20" x2="2" transform="translate(15 18)" fill="none" stroke="#545ab9" stroke-linecap="round" stroke-linejoin="round" stroke-width="1.5"/>
</svg>
