<svg xmlns="http://www.w3.org/2000/svg" width="171" height="171" viewBox="0 0 171 171">
  <path id="ion-clock_-_Ionicons" data-name="ion-clock - Ionicons" d="M85.5,171a91.778,91.778,0,0,1-17.093-1.563,79.864,79.864,0,0,1-30.249-12.5,93.3,93.3,0,0,1-24.095-24.095,79.868,79.868,0,0,1-12.5-30.25,94.561,94.561,0,0,1-.012-34.174A80.976,80.976,0,0,1,6.2,52.674a80.166,80.166,0,0,1,7.753-14.409A89.735,89.735,0,0,1,24.81,25.192,92.088,92.088,0,0,1,38.05,14.171,80.169,80.169,0,0,1,68.4,1.575a93.983,93.983,0,0,1,34.2-.012,79.868,79.868,0,0,1,30.25,12.5,93.3,93.3,0,0,1,24.095,24.095,79.864,79.864,0,0,1,12.5,30.249,94.271,94.271,0,0,1,0,34.186,79.867,79.867,0,0,1-12.5,30.25,93.3,93.3,0,0,1-24.095,24.095,79.867,79.867,0,0,1-30.25,12.5A91.775,91.775,0,0,1,85.5,171Zm3.054-24.428v12.214a69.947,69.947,0,0,0,30.918-8.4l-6.107-10.306,5.344-3.054,6.107,10.305a68.048,68.048,0,0,0,22.519-22.519l-10.305-6.107,3.054-5.344,10.306,6.107a69.947,69.947,0,0,0,8.4-30.918H146.572V82.446h12.214a69.947,69.947,0,0,0-8.4-30.918l-10.306,6.107-3.054-5.344,10.305-6.107a68.066,68.066,0,0,0-22.519-22.52l-6.107,10.307-5.344-3.054,6.107-10.307a69.929,69.929,0,0,0-30.918-8.4V24.428H82.446V12.215a69.929,69.929,0,0,0-30.918,8.4l6.107,10.307-5.344,3.054L46.185,23.665a68.084,68.084,0,0,0-22.52,22.52l10.307,6.107-3.054,5.344L20.611,51.529a69.929,69.929,0,0,0-8.4,30.918H24.428v6.107H12.215a69.929,69.929,0,0,0,8.4,30.918l10.307-6.107,3.054,5.344-10.307,6.107a68.066,68.066,0,0,0,22.52,22.519l6.107-10.305h0l5.342,3.054-6.107,10.306a69.947,69.947,0,0,0,30.918,8.4V146.573ZM85.5,97.714A11.759,11.759,0,0,1,73.285,85.5a12.142,12.142,0,0,1,1.527-6.107,13.2,13.2,0,0,1,4.58-4.58V48.857H91.607V74.813a12.529,12.529,0,0,1,4.58,4.962h44.277V91.989H95.806a13.113,13.113,0,0,1-4.485,4.293A11.836,11.836,0,0,1,85.5,97.714Z" fill="#ebebeb"/>
</svg>
